<svg width="228" height="228" viewBox="0 0 228 228" fill="none" xmlns="http://www.w3.org/2000/svg">
<g filter="url(#filter0_d_263_45484)">
<rect x="24" y="24" width="180" height="180" rx="48" fill="#FF7B00"/>
<path d="M97.5537 68.4384C92.9256 68.4384 89.2342 69.2669 86.4793 70.9238C83.8347 72.5806 81.7961 74.9555 80.3636 78.0484C78.9311 81.0308 77.719 84.7312 76.7273 89.1496C74.5234 89.1496 72.2645 89.0391 69.9504 88.8182C67.6364 88.5973 65.6529 88.045 64 87.1613C65.1019 82.6325 65.9284 77.717 66.4793 72.415C67.1405 67.0024 67.4711 62.1975 67.4711 58C71.3278 58.1105 75.5151 58.2209 80.0331 58.3314C84.551 58.4418 89.5647 58.4971 95.0744 58.4971C100.694 58.4971 107.196 58.4971 114.579 58.4971C121.41 58.4971 127.636 58.4971 133.256 58.4971C138.876 58.3866 144 58.3314 148.628 58.3314C153.366 58.2209 157.609 58.1105 161.355 58C161.355 62.3079 161.576 66.9472 162.017 71.9179C162.457 76.8886 163.118 81.9697 164 87.1613C162.237 87.824 160.253 88.3763 158.05 88.8182C155.956 89.1496 153.587 89.26 150.942 89.1496C150.171 82.1906 148.353 76.999 145.488 73.5748C142.733 70.1505 138.325 68.4384 132.264 68.4384H97.5537ZM101.686 63.6334H126.479V144.324C126.479 148.632 126.81 152.001 127.471 154.431C128.242 156.751 129.675 158.352 131.769 159.236C133.862 160.12 136.948 160.672 141.025 160.893C141.466 161.998 141.796 163.489 142.017 165.367C142.237 167.244 142.347 169.122 142.347 171C139.041 170.779 135.019 170.613 130.281 170.503C125.543 170.503 120.474 170.503 115.074 170.503C111.548 170.503 107.857 170.503 104 170.503C100.143 170.613 96.562 170.669 93.2562 170.669C89.9504 170.779 87.1405 170.89 84.8264 171C84.8264 169.233 84.9366 167.41 85.157 165.532C85.4876 163.654 85.8733 162.108 86.314 160.893C90.3912 160.672 93.5317 160.12 95.7355 159.236C98.0496 158.352 99.5923 156.751 100.364 154.431C101.245 152.001 101.686 148.632 101.686 144.324V63.6334Z" fill="#FFF2E5"/>
<rect x="24.5" y="24.5" width="179" height="179" rx="47.5" stroke="#CFCBC9"/>
</g>
<defs>
<filter id="filter0_d_263_45484" x="0" y="0" width="228" height="228" filterUnits="userSpaceOnUse" color-interpolation-filters="sRGB">
<feFlood flood-opacity="0" result="BackgroundImageFix"/>
<feColorMatrix in="SourceAlpha" type="matrix" values="0 0 0 0 0 0 0 0 0 0 0 0 0 0 0 0 0 0 127 0" result="hardAlpha"/>
<feOffset/>
<feGaussianBlur stdDeviation="12"/>
<feComposite in2="hardAlpha" operator="out"/>
<feColorMatrix type="matrix" values="0 0 0 0 0.2 0 0 0 0 0.0980392 0 0 0 0 0 0 0 0 0.15 0"/>
<feBlend mode="normal" in2="BackgroundImageFix" result="effect1_dropShadow_263_45484"/>
<feBlend mode="normal" in="SourceGraphic" in2="effect1_dropShadow_263_45484" result="shape"/>
</filter>
</defs>
</svg>
