<svg width="24" height="24" viewBox="0 0 24 24" fill="none" xmlns="http://www.w3.org/2000/svg">
<path fill-rule="evenodd" clip-rule="evenodd" d="M22.2 11.9999C21.8 12.3999 21.2 12.3999 20.9 11.9999L13 4.0999V22.1999C13 22.6999 12.6 23.1999 12 23.1999C11.5 23.1999 11 22.7999 11 22.1999V4.0999L3.1 11.9999C2.7 12.3999 2.1 12.3999 1.8 11.9999C1.4 11.5999 1.4 10.9999 1.8 10.6999L11.3 1.1999C11.4 1.0999 11.5 1.0999 11.6 0.999902C11.7 0.999902 11.8 0.899902 12 0.899902C12.1 0.899902 12.2 0.899902 12.4 0.999902C12.5 0.999902 12.6 1.0999 12.7 1.1999L22.2 10.6999C22.6 10.9999 22.6 11.5999 22.2 11.9999Z" fill="#FF7B00"/>
</svg>
