<svg width="24" height="24" viewBox="0 0 24 24" fill="none" xmlns="http://www.w3.org/2000/svg">
<g clip-path="url(#clip0_344_58854)">
<path d="M23.7915 22.4448L15.5119 9.17743C15.3123 8.87817 15.0131 8.67866 14.7138 8.5789C14.6141 8.5789 14.5143 8.47915 14.5143 8.47915V7.08258H16.2101C16.3099 7.4816 16.7089 7.78087 17.2077 7.78087H21.4971C21.8962 7.78087 22.1954 7.58136 22.3949 7.28209C22.5944 6.98283 22.5944 6.58381 22.3949 6.28455L21.2976 4.68847L22.3949 2.99264C22.5944 2.69338 22.5944 2.29436 22.3949 1.99509C22.1954 1.69583 21.8962 1.49632 21.4971 1.49632H18.1055V0.997547C18.1055 0.399019 17.7065 0 17.1079 0H13.5168C12.9182 0 12.5192 0.399019 12.5192 0.997547V8.67866C12.3197 8.77841 12.1202 8.97792 11.9207 9.27719L6.73344 17.4571L5.53639 15.7612C5.33688 15.462 5.03761 15.3622 4.63859 15.3622C4.33933 15.3622 4.04007 15.5617 3.84056 15.861L0.149632 22.4448C-0.0498773 22.7441 -0.0498773 23.1431 0.149632 23.4424C0.349141 23.7416 0.648405 23.9411 1.04742 23.9411H4.43908H22.9935C23.3925 23.9411 23.6917 23.7416 23.8912 23.4424C24.0908 23.1431 23.991 22.7441 23.7915 22.4448ZM17.1079 3.49141H19.6018L19.2028 4.08994C19.0033 4.38921 19.0033 4.88798 19.2028 5.18724L19.6018 5.78577H18.0057C17.906 5.38675 17.5069 5.08749 17.0082 5.08749H14.5143V1.99509H16.2101V2.49387C16.1104 2.99264 16.6092 3.49141 17.1079 3.49141ZM13.5168 10.3745C13.5168 10.3745 13.6165 10.3745 13.5168 10.3745C13.6165 10.2747 13.7163 10.2747 13.816 10.2747C13.816 10.2747 13.9158 10.2747 13.816 10.2747L17.3074 15.861L15.7114 17.2576L15.1128 16.659C14.4146 15.9608 13.018 15.9608 12.3197 16.659L11.7212 17.2576L10.1251 15.861L13.5168 10.3745ZM4.8381 18.1554L5.63614 19.2527L3.94031 21.946H2.74325L4.8381 18.1554ZM6.23467 21.946L7.63123 19.6517L9.0278 17.4571L10.4244 18.6541C10.8234 18.9534 11.3222 19.1529 11.8209 19.1529C12.3197 19.1529 12.8185 18.9534 13.1177 18.5544L13.7163 17.9558L14.3148 18.5544C14.7138 18.8536 15.1128 19.1529 15.6116 19.1529H15.7114C16.2101 19.1529 16.6092 18.9534 17.0082 18.6541L18.4047 17.4571L21.1979 21.8463H6.23467V21.946Z" fill="#40BF8A"/>
</g>
<defs>
<clipPath id="clip0_344_58854">
<rect width="24" height="24" fill="white"/>
</clipPath>
</defs>
</svg>
