<svg width="483" height="483" viewBox="0 0 483 483" fill="none" xmlns="http://www.w3.org/2000/svg">
<path d="M357.783 87.2298C360.826 87.7369 368.602 88.7513 370.872 86.6502C374.398 83.39 376.306 69.238 374.905 64.9152C372.901 58.9501 352.953 57.5012 349.475 60.4475C346.625 62.5002 344.21 78.7773 345.587 82.5688C346.577 85.2012 355.005 86.7951 357.783 87.2298V87.2298ZM349.306 63.0798C349.837 61.5342 349.91 60.858 353.532 60.6648C359.908 60.3026 371.548 62.8866 372.418 65.8088C373.528 69.4554 371.355 82.4964 368.964 84.7182C367.443 86.1431 351.093 84.4767 347.857 81.6995C346.939 79.2362 347.76 67.62 349.306 62.959V63.0798ZM365.486 125.411C369.061 122.078 370.92 107.902 369.544 103.676C367.539 97.6867 347.567 96.2619 344.09 99.184C341.24 101.261 338.825 117.538 340.201 121.305C341.192 123.986 349.62 125.556 352.421 126.135C355.223 126.715 363.216 127.488 365.486 125.411ZM342.472 120.339C341.554 117.924 342.278 106.429 343.921 101.696C344.452 100.15 344.524 99.498 348.147 99.2806C353.957 99.0898 359.736 100.212 365.052 102.565C366.09 103.145 366.887 103.7 367.105 104.425C368.215 108.047 366.066 121.088 363.651 123.334C361.985 124.855 345.345 122.948 342.472 120.339V120.339ZM392.993 92.4945C396.06 93.0016 403.788 94.0159 406.083 91.9149C409.657 88.5822 411.492 74.4303 410.116 70.1799C408.111 64.1424 388.115 62.79 384.662 65.7121C381.836 67.789 379.397 84.042 380.773 87.8335C381.788 90.4659 390.192 92.0598 392.993 92.4945V92.4945ZM384.493 68.1996C385.048 66.654 385.12 66.0019 388.719 65.7846C394.531 65.6014 400.31 66.7323 405.624 69.0932C406.662 69.6486 407.459 70.2282 407.652 70.9286C408.787 74.5752 406.614 87.6162 404.223 89.838C402.653 91.3111 386.231 89.4999 383.116 86.8193C382.15 84.525 382.85 72.9571 384.493 68.1996ZM375.412 126.546C376.402 129.227 384.782 130.796 387.608 131.376C390.433 131.956 398.427 132.873 400.697 130.796C404.271 127.464 406.131 113.312 404.73 109.061C402.75 103.072 382.778 101.623 379.3 104.569C376.451 106.501 374.011 122.779 375.412 126.546V126.546ZM379.155 106.96C379.687 105.415 379.759 104.763 383.382 104.545C389.192 104.379 394.967 105.509 400.287 107.854C401.325 108.409 402.122 108.989 402.339 109.713C403.45 113.36 401.277 126.401 398.886 128.623C397.268 130.144 380.411 128.116 377.779 125.604C376.74 123.165 377.465 111.694 379.155 106.96V106.96ZM426.852 97.8799C429.895 98.3871 437.671 99.4014 439.941 97.3003C443.515 93.9918 445.375 79.8158 443.974 75.5654C441.945 69.5279 421.973 68.1755 418.52 71.0976C415.694 73.1745 413.255 89.4274 414.656 93.1948C415.646 95.8513 424.05 97.4211 426.852 97.8799V97.8799ZM418.375 73.585C418.906 72.0636 418.979 71.3874 422.601 71.17C428.929 70.8078 440.617 73.3919 441.487 76.314C442.597 79.9365 440.424 93.0016 438.033 95.2234C436.463 96.6966 420.21 94.9095 416.926 92.2047C416.008 89.8863 416.709 78.3426 418.375 73.585V73.585ZM409.27 131.931C410.261 134.612 418.665 136.182 421.49 136.641C424.316 137.1 432.285 138.138 434.556 136.037C438.106 132.753 439.989 118.601 438.613 114.302C436.608 108.313 416.636 106.864 413.159 109.81C410.309 111.887 407.894 128.14 409.27 131.931ZM412.965 112.346C413.497 110.8 413.569 110.148 417.192 109.931C423.567 109.593 435.208 112.153 436.077 115.099C437.188 118.746 435.014 131.787 432.623 133.984C431.054 135.481 414.39 133.598 411.516 130.99C410.55 128.623 411.323 117.079 412.965 112.346V112.346ZM35.67 161.926C48.6385 165.669 186.994 163.906 205.734 153.063C206.523 152.7 207.199 152.132 207.692 151.418C208.185 150.705 208.476 149.871 208.536 149.005C210.951 133.863 205.541 22.387 196.992 15.5043C185.424 6.15825 38.5921 17.9193 32.5305 27.7242C29.874 32.1436 33.3516 154.367 33.8104 159.607C33.9312 160.911 34.0761 161.467 35.67 161.926V161.926ZM188.757 27.6276C188.902 32.4576 183.106 33.4961 182.309 29.0283C181.391 23.7878 188.564 21.735 188.757 27.6276ZM173.88 28.2313C174.049 33.0613 168.229 34.0998 167.457 29.6321C166.466 24.3915 173.639 22.4112 173.88 28.2313ZM158.642 28.98C158.811 33.81 152.991 34.8726 152.218 30.3807C151.3 25.2367 158.473 23.2081 158.642 28.98ZM200.977 41.6346C205.275 76.2898 208.028 136.882 206.121 148.402C204.164 160.284 50.6671 162.892 35.839 159.511C35.0662 153.28 32.9893 88.1475 32.7478 52.1399C63.684 52.7678 170.862 44.436 200.977 41.707V41.6346Z" fill="#663100"/>
<path d="M78.9947 104.304C73.9956 103.845 50.546 103.579 48.3 107.999C48.1068 108.434 46.3922 147.822 47.6238 150.575C48.0102 151.445 49.0004 151.638 50.0388 151.783C60.2103 152.441 70.4209 152.158 80.5403 150.937C81.627 150.744 82.6413 150.527 82.9553 149.609C84.1869 146.808 82.6896 107.781 81.5787 105.342C81.3614 104.449 80.3471 104.4 78.9947 104.304ZM49.6041 148.909C48.9762 143.499 49.2419 114.012 49.2902 108.53C51.7052 105.366 75.0582 106.115 79.8882 107.129C80.5403 111.959 81.5787 142.123 80.9991 147.846C73.0779 148.74 54.9171 150.044 49.6041 148.909ZM48.3 96.0445C58.6604 96.8898 177.02 93.4122 190.568 91.7941C191.316 91.7941 191.823 91.6251 192.186 90.9972C193.417 88.7271 189.771 53.9752 188.612 52.0915C188.177 51.4395 187.621 51.4636 186.8 51.4878C181.584 51.4878 50.3045 59.6746 47.8653 63.5628C47.5997 63.8043 44.7258 95.7547 48.3 96.0445V96.0445ZM48.7347 64.3114C55.0379 61.7757 161.177 56.0038 186.776 54.5065C187.815 59.6022 190.181 83.7763 190.061 88.7995C189.36 88.7995 52.9368 94.668 48.1793 94.2816C47.4065 89.9829 48.3 68.6343 48.614 64.3114H48.7347ZM133.042 107.443C120.179 106.156 107.208 106.4 94.4024 108.168C93.7503 108.168 93.7986 109.424 94.4024 109.399C102.763 109.968 111.149 110.049 119.518 109.641C125.435 109.448 126.763 109.23 133.018 108.651C133.694 108.675 133.694 107.443 133.042 107.443ZM183.54 106.26C170.704 104.751 157.736 104.751 144.9 106.26C144.248 106.26 144.248 107.492 144.9 107.492C153.25 108.232 161.637 108.474 170.016 108.216C176.029 108.216 178.372 107.854 183.516 107.492C184.12 107.395 184.144 106.26 183.54 106.26V106.26ZM132.97 123.165C120.106 121.887 107.137 122.13 94.33 123.889C93.6779 123.889 93.7021 125.145 94.33 125.121C102.691 125.678 111.076 125.758 119.446 125.363C125.218 125.169 126.691 124.952 132.946 124.372C133.622 124.469 133.622 123.165 132.97 123.165V123.165ZM183.226 121.957C170.391 120.437 157.421 120.437 144.586 121.957C143.934 121.957 143.958 123.189 144.586 123.189C152.929 123.911 161.307 124.153 169.678 123.914C175.715 123.914 177.189 123.6 183.202 123.189C183.854 123.165 183.854 121.982 183.226 121.957ZM132.97 140.07C120.106 138.799 107.137 139.042 94.33 140.794C93.6779 140.794 93.7021 142.05 94.33 142.026C102.69 142.595 111.076 142.676 119.446 142.268C125.121 142.074 125.725 141.93 132.946 141.277C133.598 141.326 133.622 140.07 132.97 140.07V140.07ZM183.009 138.838C170.174 137.305 157.203 137.305 144.369 138.838C143.717 138.838 143.741 140.07 144.369 140.07C152.711 140.8 161.09 141.042 169.461 140.794C175.305 140.794 177.527 140.456 182.985 140.07C183.54 140.07 183.54 138.863 183.009 138.838ZM255.41 117.176C255.289 116.856 255.045 116.597 254.732 116.456C254.42 116.316 254.064 116.305 253.744 116.427C253.424 116.549 253.165 116.793 253.025 117.105C252.884 117.418 252.874 117.773 252.995 118.094C253.407 119.183 253.9 120.241 254.469 121.257C254.573 121.46 254.733 121.628 254.93 121.744C255.126 121.859 255.352 121.916 255.579 121.909C255.802 121.913 256.021 121.858 256.216 121.75C256.41 121.641 256.572 121.483 256.685 121.292C256.798 121.1 256.858 120.882 256.859 120.659C256.86 120.437 256.802 120.218 256.69 120.025C256.201 119.105 255.774 118.153 255.41 117.176V117.176ZM252.585 111.09C250.605 111.766 248.866 115.171 252.585 113.771C258.985 111.549 254.396 110.535 252.585 111.09ZM267.437 109.81C270.366 109.575 273.233 108.84 275.914 107.637C276.048 107.637 276.177 107.583 276.272 107.488C276.367 107.393 276.421 107.264 276.421 107.129C276.421 106.995 276.367 106.866 276.272 106.771C276.177 106.676 276.048 106.622 275.914 106.622C274.351 106.07 272.646 106.07 271.084 106.622C269.491 106.982 268.049 107.826 266.954 109.037C266.904 109.118 266.877 109.211 266.877 109.306C266.877 109.401 266.904 109.494 266.954 109.574C267.005 109.655 267.077 109.72 267.162 109.761C267.247 109.803 267.343 109.82 267.437 109.81V109.81ZM270.987 113.505C270.961 113.322 270.895 113.147 270.794 112.991C270.693 112.836 270.56 112.705 270.404 112.606C270.247 112.507 270.071 112.443 269.888 112.419C269.705 112.395 269.518 112.411 269.341 112.466C269.165 112.52 269.002 112.613 268.864 112.736C268.727 112.86 268.618 113.012 268.545 113.182C268.472 113.352 268.436 113.536 268.441 113.721C268.446 113.906 268.49 114.088 268.572 114.254C268.91 115.34 269.224 116.089 269.49 117.031C269.503 117.22 269.559 117.404 269.652 117.57C269.746 117.735 269.875 117.877 270.03 117.987C270.185 118.096 270.363 118.169 270.55 118.201C270.737 118.234 270.929 118.224 271.112 118.173C271.295 118.121 271.464 118.03 271.607 117.905C271.75 117.781 271.864 117.626 271.94 117.452C272.016 117.278 272.052 117.089 272.046 116.899C272.04 116.71 271.992 116.524 271.905 116.355C271.639 115.316 271.325 114.592 270.987 113.505ZM89.355 197.716C89.8795 200.602 91.2244 203.276 93.2288 205.417C95.2332 207.559 97.8123 209.077 100.657 209.791C119.301 214.09 120.122 216.843 124.034 219.451C125.459 220.514 126.763 220.2 127.174 218.316C128.261 213.486 123.117 194.504 117.949 187.452C107.612 173.614 86.1914 181.922 89.355 197.716ZM125.822 218.292C125.652 218.92 125.459 219.185 124.493 218.557C119.905 215.201 119.784 212.786 101.068 207.642C90.7799 204.961 87.5679 190.399 97.3245 184.868C100.363 183.093 103.954 182.518 107.395 183.255C110.835 183.992 113.876 185.989 115.92 188.853C119.881 194.069 127.077 213.607 125.822 218.292ZM463.946 257.994C460.636 255.532 456.523 254.399 452.419 254.819C448.316 255.239 444.518 257.182 441.776 260.265C436.197 266.35 425.885 289.872 430.184 291.66C430.515 291.77 430.868 291.799 431.213 291.745C431.557 291.69 431.884 291.553 432.164 291.346C436.391 289.22 437.55 286.516 456.483 284.415C469.186 282.845 474.886 266.036 463.946 257.994V257.994ZM456.169 282.144C450.999 282.847 445.895 283.97 440.907 285.501C433.372 287.916 430.739 292.336 430.377 289.993C429.749 285.719 436.439 272.629 438.902 268.451C442.259 262.752 445.712 257.97 452.692 257.222C461.144 256.328 469.597 263.549 466.675 272.895C466.014 275.304 464.671 277.47 462.807 279.133C460.943 280.796 458.638 281.883 456.169 282.265V282.144ZM59.8679 322.354C58.1561 322.682 56.4632 323.101 54.7964 323.61C54.5393 323.744 54.3351 323.961 54.2174 324.225C54.0996 324.49 54.0752 324.787 54.1481 325.068C54.2211 325.348 54.387 325.596 54.6188 325.769C54.8506 325.943 55.1346 326.033 55.4243 326.025C57.5012 325.494 57.8393 325.276 60.2543 324.817C60.5906 324.757 60.8889 324.565 61.0836 324.284C61.2784 324.003 61.3536 323.656 61.2927 323.32C61.2319 322.984 61.04 322.686 60.7592 322.491C60.4784 322.296 60.1317 322.221 59.7954 322.282L59.8679 322.354ZM135.916 188.37C135.657 188.436 135.426 188.581 135.253 188.785C135.081 188.989 134.977 189.242 134.956 189.508C134.935 189.775 134.997 190.041 135.135 190.27C135.272 190.499 135.478 190.679 135.723 190.785H137.438C140.022 190.785 140.553 191.123 140.939 191.123C141.279 191.149 141.615 191.038 141.873 190.817C142.131 190.595 142.29 190.279 142.316 189.94C142.342 189.6 142.231 189.265 142.009 189.006C141.787 188.748 141.472 188.589 141.133 188.563C138.5 188.37 138.114 188.491 135.916 188.37ZM65.9054 318.2C65.7363 316.486 65.3499 314.264 65.2533 313.37C65.2168 313.028 65.0465 312.714 64.7796 312.497C64.5127 312.28 64.1709 312.177 63.8285 312.211C63.4908 312.254 63.183 312.426 62.9709 312.693C62.7589 312.959 62.6593 313.297 62.6934 313.636C62.8142 314.699 63.1764 316.969 63.3696 318.587C63.394 318.903 63.537 319.198 63.7699 319.413C64.0029 319.628 64.3085 319.747 64.6254 319.746C64.817 319.746 65.0062 319.703 65.1795 319.622C65.3529 319.54 65.5061 319.421 65.6283 319.274C65.7505 319.126 65.8386 318.953 65.8865 318.768C65.9344 318.582 65.9409 318.389 65.9054 318.2V318.2ZM146.929 187.742C147.218 187.74 147.499 187.641 147.726 187.462C147.953 187.283 148.115 187.033 148.184 186.752C148.547 185.037 148.909 182.84 149.126 181.922C149.165 181.758 149.171 181.589 149.144 181.423C149.116 181.257 149.055 181.099 148.965 180.957C148.875 180.815 148.757 180.693 148.619 180.597C148.481 180.502 148.325 180.435 148.16 180.4C147.997 180.358 147.826 180.349 147.659 180.376C147.492 180.402 147.332 180.462 147.189 180.553C147.047 180.643 146.924 180.762 146.829 180.902C146.735 181.042 146.67 181.2 146.639 181.366C146.373 182.502 146.035 184.675 145.673 186.196C145.638 186.383 145.644 186.574 145.69 186.758C145.737 186.942 145.823 187.113 145.942 187.261C146.062 187.408 146.212 187.527 146.382 187.61C146.553 187.693 146.739 187.738 146.929 187.742ZM71.5806 323.803C72.9813 323.441 74.5028 323.103 75.9518 322.765C76.2809 322.69 76.567 322.488 76.748 322.203C76.9289 321.918 76.9899 321.573 76.9178 321.243C76.8868 321.077 76.8219 320.919 76.7272 320.779C76.6325 320.639 76.5099 320.52 76.3672 320.429C76.2245 320.339 76.0646 320.278 75.8976 320.252C75.7306 320.226 75.5599 320.235 75.3963 320.277C73.9232 320.591 72.3776 320.953 70.9286 321.34C70.7525 321.369 70.5845 321.434 70.4352 321.532C70.2859 321.63 70.1587 321.757 70.0617 321.907C69.9648 322.057 69.9002 322.225 69.8721 322.402C69.8441 322.578 69.8532 322.758 69.8988 322.93C69.9445 323.103 70.0257 323.264 70.1372 323.403C70.2488 323.542 70.3882 323.657 70.5466 323.739C70.705 323.821 70.8788 323.869 71.0568 323.88C71.2349 323.891 71.4133 323.865 71.5806 323.803V323.803ZM151.928 191.292C151.76 191.282 151.591 191.306 151.432 191.361C151.273 191.417 151.126 191.503 151.001 191.615C150.875 191.727 150.773 191.863 150.7 192.015C150.627 192.167 150.585 192.331 150.575 192.5C150.566 192.668 150.589 192.836 150.644 192.995C150.7 193.154 150.786 193.301 150.898 193.426C151.01 193.552 151.146 193.654 151.298 193.727C151.45 193.8 151.615 193.843 151.783 193.852C154.077 193.997 156.13 194.263 156.371 194.263C156.711 194.282 157.044 194.165 157.298 193.939C157.551 193.712 157.704 193.395 157.724 193.055C157.743 192.716 157.626 192.382 157.4 192.129C157.174 191.875 156.856 191.722 156.516 191.703C155.019 191.558 153.425 191.389 151.928 191.292V191.292ZM64.8911 332.69C64.9416 332.996 65.0972 333.274 65.3309 333.476C65.5645 333.679 65.8617 333.794 66.171 333.801C66.3555 333.799 66.5374 333.758 66.7048 333.681C66.8723 333.604 67.0214 333.492 67.1423 333.353C67.2633 333.213 67.3534 333.05 67.4066 332.873C67.4598 332.697 67.4749 332.511 67.451 332.328C67.451 331.7 66.8955 328.198 66.8955 328.198C66.8533 327.862 66.6796 327.557 66.4126 327.349C66.1455 327.14 65.8068 327.047 65.4707 327.088C65.1327 327.136 64.8271 327.314 64.6194 327.585C64.4117 327.856 64.3185 328.198 64.3598 328.537C64.3598 328.537 64.8186 332.038 64.8911 332.69V332.69ZM144.9 195.035C144.733 195 144.561 194.999 144.394 195.031C144.227 195.063 144.068 195.128 143.926 195.223C143.785 195.317 143.663 195.439 143.569 195.581C143.475 195.723 143.41 195.882 143.379 196.05C143.379 196.05 142.702 199.479 142.582 200.155C142.608 200.431 142.723 200.691 142.91 200.896C143.096 201.101 143.345 201.239 143.617 201.291C143.889 201.343 144.171 201.305 144.42 201.183C144.669 201.061 144.871 200.861 144.997 200.614C144.997 199.962 145.794 196.533 145.794 196.533C145.868 196.216 145.816 195.883 145.649 195.604C145.482 195.324 145.214 195.121 144.9 195.035V195.035ZM78.246 225.319C78.246 223.46 69.7211 218.364 66.7023 220.103C65.3258 220.876 65.5914 223.387 65.8812 224.933C66.3871 228 67.6579 230.891 69.5762 233.337C72.0878 236.09 78.5841 227.759 78.246 225.319V225.319ZM68.0789 222.18C69.7694 221.794 77.0868 224.595 77.2317 225.44C77.2317 226.986 72.933 230.536 71.1942 231.502C69.3449 228.727 68.2695 225.509 68.0789 222.18V222.18ZM87.2298 363.916C85.2495 362.83 80.3229 366.162 77.9321 367.998C76.5471 365.705 74.4602 363.919 71.9807 362.906C69.5012 361.892 66.7611 361.705 64.1666 362.371C56.4144 364.472 42.4316 371.789 30.9603 379.759C24.0776 383.599 14.9247 387.004 13.5723 397.123C12.3407 406.662 14.9006 423.688 18.4023 429.894C20.2619 433.179 22.7252 438.057 26.4684 437.308C36.3458 435.376 30.4049 421.224 30.3807 410.067C38.954 406.082 72.2568 387.076 78.9464 380.604C81.3614 378.189 81.0233 373.142 78.56 368.94C79.9607 368.022 85.4427 364.834 86.3846 365.438C91.2146 368.408 95.4167 376.402 94.6922 378.141C92.9292 382.415 63.2972 402.991 61.4376 404.995C59.5781 407 63.7077 409.995 68.4411 415.235C67.8154 415.699 67.2897 416.285 66.8955 416.957C66.5013 417.63 66.2467 418.375 66.1469 419.147C66.3159 421.562 75.0824 434.772 80.178 438.467C84.1869 441.414 90.804 435.449 90.0795 432.164C89.2101 428.228 77.7872 412.844 73.7541 412.579C72.0759 412.664 70.4794 413.33 69.2381 414.462C66.9186 411.852 64.8261 409.048 62.9832 406.082C66.7265 403.402 94.6681 384.709 96.9623 378.986C98.5804 374.88 91.601 366.331 87.2298 363.916V363.916ZM28.98 402.629C24.5847 414.366 34.8485 433.13 26.0096 434.941C23.9085 435.352 21.3969 430.377 20.4309 428.735C17.1948 423.108 14.321 406.372 15.2628 397.34C15.9632 390.53 21.1313 385.989 27.3378 382.85C47.7204 372.683 61.1478 362.854 63.273 367.418C63.4179 367.708 62.9832 368.601 62.8383 369.278C62.5244 370.799 62.5968 372.683 61.6067 373.673C60.354 374.455 58.9437 374.95 57.477 375.122C51.6086 376.643 52.0433 382.367 48.4449 384.637C47.2214 384.944 45.963 385.09 44.7017 385.072C40.6686 385.579 36.5873 386.955 34.776 390.602C34.2241 391.874 33.9523 393.249 33.9791 394.635C34.0099 395.485 33.8297 396.328 33.4546 397.091C33.0795 397.854 32.5213 398.512 31.8297 399.006C30.5849 399.949 29.6035 401.197 28.98 402.629V402.629ZM78.0528 376.064C78.1231 377.048 77.802 378.02 77.1593 378.769C71.1942 384.565 38.2053 403.716 30.4773 407.749C31.0086 401.421 32.8923 401.977 35.0417 399.151C37.9638 395.118 34.293 391.544 40.1615 388.815C42.6471 387.871 45.2793 387.373 47.9378 387.342C52.5987 386.593 53.4681 380.29 56.2212 378.189C58.2257 376.692 62.7417 377.609 64.239 373.576C64.5753 372.309 64.8094 371.017 64.9394 369.712C65.1326 369.072 65.2779 368.418 65.3741 367.756C65.3774 367.202 65.2421 366.655 64.9807 366.166C64.7192 365.676 64.3398 365.26 63.8768 364.955C65.8716 364.202 68.0595 364.129 70.0995 364.75C72.1395 365.37 73.917 366.648 75.1548 368.384C76.9463 370.548 77.951 373.255 78.0045 376.064H78.0528ZM73.5609 414.462C74.4716 414.962 75.2887 415.616 75.9759 416.394C80.9991 421.442 88.4615 432.84 87.5438 432.84C86.9642 435.062 83.2451 437.67 81.6029 436.535C76.5233 431.857 71.9941 426.615 68.103 420.91C66.8472 418.93 66.9921 418.858 67.5476 418.061C68.24 417.082 69.1274 416.257 70.154 415.638C71.1805 415.019 72.324 414.618 73.5126 414.462H73.5609ZM87.5438 432.84C87.5438 432.599 87.5438 432.84 87.5438 432.84V432.84Z" fill="#663100"/>
<path d="M74.5751 377.778C71.0702 375.134 68.4783 371.462 67.1611 367.273C67.1611 367.139 67.1077 367.01 67.0126 366.915C66.9174 366.819 66.7884 366.766 66.6539 366.766C66.5194 366.766 66.3904 366.819 66.2953 366.915C66.2002 367.01 66.1468 367.139 66.1468 367.273C65.9163 368.556 65.954 369.873 66.2574 371.141C66.5608 372.408 67.1234 373.599 67.9097 374.639C68.5752 375.78 69.4983 376.75 70.6053 377.471C71.7122 378.193 72.9724 378.645 74.2853 378.793C74.4198 378.831 74.5641 378.815 74.6864 378.747C74.8087 378.679 74.899 378.565 74.9374 378.43C74.9758 378.296 74.9592 378.152 74.8913 378.029C74.8234 377.907 74.7096 377.817 74.5751 377.778V377.778ZM441.486 406.227C440.786 398.668 425.402 396.881 417.843 396.422C416.66 365.027 412.723 294.63 409.125 286.564C410.188 280.84 405.768 255.169 404.537 249.276C405.889 248.069 407.217 246.861 408.521 245.412C412.289 245.895 425.909 247.827 428.01 245.243C440.52 230.077 473.195 55.231 464.718 47.2132C450.373 33.3753 342.737 17.3638 336.723 26.1303C332.135 32.9164 323.441 82.4481 316.92 130.12C312.593 129.459 308.23 129.056 303.855 128.913C303.776 126.849 303.518 124.797 303.082 122.779C303.372 122.61 316.196 105.584 313.298 97.4694C312.92 96.7371 312.441 96.0622 311.873 95.4649C311.873 94.668 312.356 93.8469 312.38 92.736C312.201 91.0501 311.71 89.4122 310.931 87.906C309.482 84.0662 307.115 79.0188 303.686 76.7004C300.257 74.382 301.271 75.4204 300.692 74.0439C300.39 73.2528 299.9 72.5469 299.265 71.9873C298.63 71.4277 297.868 71.0312 297.045 70.8319C296.731 69.9142 297.045 68.1271 296.055 66.5574C297.435 65.3266 298.362 63.6683 298.687 61.8481C299.04 60.3669 298.824 58.8072 298.083 57.477C299.299 57.4 300.448 56.8983 301.331 56.0595C302.214 55.2207 302.774 54.0983 302.913 52.8885C304.05 52.1561 304.932 51.0895 305.438 49.8354C305.944 48.5813 306.049 47.2012 305.739 45.885C305.512 45.0076 305.043 44.2116 304.386 43.5881C303.728 42.9646 302.908 42.5387 302.02 42.3591C302.137 40.8399 301.914 39.3137 301.368 37.8913C300.922 36.7791 300.226 35.7844 299.334 34.9844C298.442 34.1845 297.378 33.6008 296.224 33.2787C294.343 33.137 292.477 32.8381 290.645 32.3851C288.786 31.4916 286.878 29.6803 284.101 30.0909C282.786 30.1552 281.51 30.5551 280.394 31.2527C279.278 31.9503 278.359 32.9221 277.725 34.0756C275.551 37.4325 274.513 33.6651 268.065 35.4522C258.405 38.157 255.724 47.5272 266.302 53.6613C263.38 55.7623 263.211 59.578 264.563 62.959C260.651 63.2488 257.125 63.8526 254.903 67.2819C253.913 68.755 255.169 67.8856 252.005 68.272C249.586 68.717 247.311 69.7399 245.372 71.2536C243.434 72.7673 241.89 74.7271 240.872 76.966C240.54 77.8349 240.424 78.7714 240.534 79.695C239.361 80.2535 238.332 81.0725 237.524 82.0896C236.716 83.1066 236.152 84.2948 235.873 85.5634C235.643 87.6368 235.758 89.7338 236.211 91.77C236.211 92.0598 236.211 92.1564 236.042 92.3737C235.156 92.8844 234.426 93.6258 233.928 94.5189C233.431 95.412 233.185 96.4234 233.216 97.4452C233.291 98.6917 233.646 99.9053 234.255 100.995C233.494 101.918 232.954 103.003 232.678 104.167C232.402 105.331 232.396 106.543 232.661 107.709C233.079 109.024 233.857 110.195 234.907 111.09C235.776 112.056 235.68 112.056 235.535 112.95C234.521 118.866 242.563 125.87 245.799 127.44C247.924 128.43 249.88 126.643 247.755 121.571C246.861 119.398 245.34 116.741 245.34 116.234C245.34 115.727 246.233 114.568 245.702 112.78C244.712 109.544 251.74 127.488 256.594 135.047C256.404 135.779 256.331 136.537 256.376 137.293C222.18 147.315 198.923 162.143 179.29 180.883C161.201 198.223 152.507 222.47 153.642 232.492C153.67 232.712 153.776 232.915 153.939 233.066C154.103 233.216 154.314 233.304 154.536 233.313H157.482C157.216 234.183 156.564 238.143 154.753 245.605C148.836 248.866 142.678 252.464 136.423 256.28C116.089 235.728 91.2628 228.459 72.7397 250.605C58.6603 267.51 70.856 291.829 88.9444 303.59C96.4337 308.254 104.787 311.359 113.505 312.718C114.592 329.623 109.882 450.639 114.278 456.314C117.9 460.951 167.698 464.574 173.469 465.032C190.374 466.312 315.182 474.161 329.575 464.646C331.193 463.559 348.653 453.875 367.611 443.056V445.471C367.611 448.441 368.022 453.296 370.026 455.397C370.557 455.971 371.279 456.332 372.057 456.412C372.835 456.493 373.616 456.286 374.252 455.831C374.404 458.842 375.006 461.814 376.04 464.646C380.459 474.016 421.2 471.48 435.062 465.757C437.404 464.965 439.478 463.534 441.051 461.627C441.945 460.251 442.307 453.102 442.38 444.457C452.837 431.73 441.945 410.381 441.486 406.227V406.227ZM438.757 405.865C439.627 409.705 401.421 409.922 396.229 409.729C389.259 409.584 382.352 408.371 375.75 406.131C370.871 397.799 436.342 394.852 438.757 405.865V405.865ZM406.638 285.622C385.941 297.697 344.379 323.417 326.943 332.521C328.054 324.286 332.135 287.916 333.028 280.551C340.807 275.863 348.873 271.669 357.178 267.993C355.601 270.183 354.657 272.764 354.449 275.455C354.667 276.952 356.551 277.87 358.579 275.865C359.714 278.425 363.071 275.865 363.119 275.865C363.965 277.17 366.766 277.194 368.722 273.45C369.493 271.911 370.093 270.291 370.509 268.62C376.018 266.483 381.376 263.974 386.545 261.11C392.235 258.523 397.548 255.176 402.339 251.16C404.732 262.507 406.17 274.035 406.638 285.622V285.622ZM214.452 308.42C211.337 313.25 207.207 319.867 204.261 324.721L191.389 324.069C188.37 312.259 184.941 297.19 183.54 290.573C193.52 297.065 203.839 303.023 214.452 308.42V308.42ZM183.685 289.558C188.515 284.728 227.783 277.966 235.414 277.483C225.754 290.911 224.619 292.65 215.611 306.608C204.695 300.619 183.926 289.583 183.685 289.558ZM216.601 309.579C223.846 313.588 234.231 319.239 249.035 327.402C235.293 326.508 220.876 325.614 206.796 324.987C209.888 320.012 213.341 314.674 216.601 309.579V309.579ZM217.736 307.792C232.226 285.381 229.328 289.607 236.332 278.087C239.109 284.294 249.276 318.055 250.629 326.991C237.877 318.78 232.927 316.148 217.736 307.792ZM237.539 275.551C237.242 275.283 236.854 275.136 236.453 275.141C231.381 274.924 184.699 283.618 182.308 289.631C182.308 289.848 185.931 308.951 189.384 323.851L175.667 323.272C172.528 306.584 169.074 287.868 166.78 274.151C198.948 269.731 307.792 245.992 338.39 238.988C341.215 247.803 344.234 258.816 347.108 270.142C341.698 272.871 337.158 275.286 334.333 277C333.342 269.248 330.831 256.884 328.054 255.024C325.276 253.164 253.189 270.697 253.189 274.634C252.923 282.144 256.908 295.837 260.12 302.624C260.198 302.769 260.312 302.892 260.452 302.981C260.591 303.07 260.751 303.122 260.917 303.131C265.167 303.276 315.689 292.167 330.444 286.491C330.179 289.293 329.865 292.674 329.503 296.296C313.974 299.701 287.844 305.304 265.264 311.632C265.132 311.667 265.02 311.753 264.952 311.871C264.884 311.988 264.866 312.128 264.901 312.259C264.937 312.391 265.022 312.503 265.14 312.571C265.258 312.639 265.398 312.657 265.529 312.622C271.543 311.173 306.85 304.459 329.333 298.132C328.923 302.648 328.464 307.502 328.005 312.139C297.745 318.852 286.733 321.436 268.91 326.411C268.845 326.429 268.784 326.459 268.731 326.5C268.677 326.541 268.633 326.592 268.599 326.65C268.565 326.709 268.544 326.773 268.535 326.84C268.526 326.906 268.53 326.974 268.548 327.039C268.565 327.104 268.595 327.165 268.636 327.219C268.677 327.272 268.729 327.317 268.787 327.35C268.845 327.384 268.91 327.406 268.976 327.415C269.043 327.423 269.111 327.419 269.176 327.402C274.441 326.146 305.401 320.157 327.812 314.264C327.015 322.523 326.315 329.817 325.952 333.028C323.151 332.859 296.828 330.613 253.333 327.667C252.633 319.529 239.834 277.725 237.539 275.551V275.551ZM167.722 245.654C174.266 243.915 174.025 241.017 170.137 240.389C174.121 238.396 178.227 236.653 182.429 235.173C183.878 234.69 185.158 234.086 185.448 234.496C185.738 234.907 186.245 235.004 187.597 244.156C180.442 246.056 173.436 248.477 166.635 251.401C167.168 249.494 167.492 247.535 167.601 245.557L167.722 245.654ZM240.172 231.164C221.914 235.197 204.092 239.568 190.181 243.553C189.408 238.143 188.346 233.748 186.993 232.516C186.585 232.199 186.086 232.021 185.569 232.009C182.767 232.009 175.16 235.269 168.181 238.699L168.639 233.675C173.469 233.675 173.3 233.869 173.638 233.675C183.298 224.426 193.176 214.887 198.875 202.763C218.195 209.38 231.067 205.009 239.399 204.188C237.491 210.781 238.24 220.731 240.196 231.091L240.172 231.164ZM316.993 217.688C304.362 218.799 285.042 221.987 264.322 226.092C264.491 205.444 264.829 180.038 267.727 159.631C275.527 167.19 296.707 164.462 303.807 156.226C302.503 177.237 306.149 199.576 317.017 217.616L316.993 217.688ZM302.334 234.255C300.74 230.053 307.84 227.227 308.782 232.081C308.947 232.9 308.808 233.751 308.391 234.474C307.974 235.198 307.307 235.744 306.516 236.011C305.725 236.277 304.863 236.246 304.093 235.923C303.323 235.6 302.698 235.007 302.334 234.255V234.255ZM286.805 237.346C285.187 233.12 292.312 230.319 293.253 235.173C294.05 239.278 288.182 241.017 286.805 237.419V237.346ZM324.093 229.425C324.234 230.238 324.08 231.075 323.657 231.784C323.235 232.493 322.572 233.027 321.79 233.29C321.007 233.553 320.157 233.527 319.392 233.216C318.627 232.906 317.999 232.332 317.621 231.598C316.027 227.276 323.151 224.45 324.093 229.425ZM331.99 278.812C330.855 279.729 331.048 279.633 330.638 283.907C319.794 288.568 266.737 300.812 261.424 301.513C258.26 295.041 254.179 282.193 254.179 274.948C257.753 271.253 321.34 257.318 326.846 257.342C328.44 259.202 331.217 271.446 331.99 278.691V278.812ZM370.123 262.704C369.422 263.356 368.891 267.534 367.201 271.277C366.863 272.074 366.017 273.692 365.172 274.175C365.172 273.933 366.307 270.383 366.814 268.983C366.932 268.672 366.922 268.327 366.786 268.024C366.651 267.721 366.4 267.484 366.09 267.365C365.779 267.244 365.433 267.25 365.126 267.381C364.82 267.512 364.576 267.757 364.448 268.065C363.615 270.194 362.485 272.194 361.091 274.006C361.72 271.865 362.527 269.781 363.506 267.775C363.574 267.625 363.613 267.462 363.618 267.297C363.624 267.131 363.597 266.966 363.538 266.811C363.48 266.657 363.391 266.515 363.278 266.394C363.165 266.274 363.029 266.177 362.878 266.109C360.656 265.119 360.656 269.876 357.106 274.03C357.425 273.008 357.829 272.014 358.313 271.06C360.318 266.978 361.405 266.616 361.26 265.674C361.115 264.732 360.487 264.66 359.642 264.539C355.826 263.959 352.397 263.476 356.261 262.728C358.676 262.293 360.946 262.728 361.67 262.003C364.01 258.846 366.102 255.511 367.925 252.029L377.368 257.632C374.857 259.137 372.437 260.79 370.123 262.583V262.704ZM378.986 258.622L382.705 260.82C378.98 262.781 375.16 264.554 371.258 266.133C371.451 265.384 371.62 264.684 371.765 264.08C372.973 262.8 377.295 259.661 378.986 258.405V258.622ZM344.355 39.3403C346.77 33.3994 366.38 35.2831 366.935 35.5488C367.49 35.8144 366.645 38.7607 366.935 39.606C368.577 43.8564 416.66 53.8303 428.059 53.9028C429.29 53.9028 431.295 53.9028 431.995 52.9126C432.695 51.9225 433.323 48.8071 433.951 47.7687C435.376 47.8894 452.402 54.0477 453.271 56.7283C457.015 70.1316 430.619 216.65 419.582 233.023C419.023 233.225 418.437 233.339 417.843 233.361C421.483 227.148 423.571 220.147 423.929 212.955C426.513 207.811 427.696 196.943 426.513 193.297C425.692 190.882 421.949 189.167 417.529 188.249C415.343 184.197 412.728 180.392 409.729 176.899C413.641 177.961 425.523 180.207 428.445 177.502C432.019 174.194 433.879 160.018 432.502 155.767C430.498 149.754 410.526 148.353 407.048 151.276C404.802 152.918 402.822 163.351 402.749 169.63C401.156 168.132 399.465 166.659 397.726 165.21C399.074 160.387 399.387 155.334 398.644 150.382C396.615 144.32 376.619 142.992 373.19 145.89C372.491 146.552 371.975 147.384 371.693 148.305C358.131 141.09 343.654 135.744 328.657 132.414C333.536 93.4605 339.935 52.6711 344.355 39.2196V39.3403ZM423.374 204.792C422.532 199.928 420.995 195.211 418.809 190.785C420.21 191.268 423.639 192.524 423.929 193.949C424.409 197.567 424.221 201.242 423.374 204.792V204.792ZM405.261 171.948C404.658 165.795 405.182 159.583 406.807 153.618C407.338 152.073 407.41 151.42 411.033 151.203C417.409 150.841 429.049 153.425 429.918 156.347C431.053 160.018 428.856 173.059 426.465 175.257C425.04 176.657 408.401 175.112 405.261 171.948V171.948ZM395.239 163.085C388.206 157.586 380.689 152.736 372.779 148.595C373.431 146.47 373.552 145.914 377.175 145.697C383.55 145.359 395.191 147.919 396.06 150.865C396.502 154.955 396.224 159.091 395.239 163.085V163.085ZM415.477 189.65C431.85 219.934 408.739 249.3 385.072 259.178L366.283 248.117C369.278 238.312 376.498 220.176 383.405 213.848C383.56 213.71 383.675 213.534 383.741 213.338C383.806 213.141 383.818 212.931 383.777 212.728C383.735 212.525 383.641 212.337 383.504 212.181C383.367 212.026 383.191 211.91 382.995 211.844C370.606 207.618 359.69 199.31 354.643 192.306C354.571 192.218 354.472 192.154 354.361 192.126C354.251 192.097 354.134 192.106 354.028 192.149C353.922 192.192 353.833 192.269 353.774 192.367C353.715 192.465 353.69 192.579 353.701 192.693C353.508 204.261 362.805 238.723 364.979 244.253C364.496 245.726 364.061 247.103 363.699 248.334C363.619 248.59 363.627 248.866 363.724 249.116C363.82 249.366 363.999 249.576 364.23 249.711L366.935 251.329C358.096 265.336 362.226 258.936 354.981 260.989C352.566 261.665 352.059 263.742 353.049 264.781C353.84 265.434 354.79 265.867 355.802 266.036L349.426 269.176C347.712 262.438 337.351 220.876 331.024 217.954C329.189 217.133 324.769 217.036 318.466 217.543C304.87 191.92 303.662 156.854 308.806 131.69C346.915 134.757 399.103 159.39 415.38 189.674L415.477 189.65ZM354.86 194.48C361.571 202.968 370.413 209.527 380.483 213.486C374.784 219.693 369.036 232.299 366.307 240.22C364.23 233.555 355.85 204.55 354.86 194.432V194.48ZM303.421 131.376L307.743 131.593C305.815 138.96 304.554 146.484 303.976 154.077C298.325 160.863 275.503 164.655 267.968 158.255C268.379 155.454 268.741 153.618 268.983 152.362C271.639 152.918 273.378 152.362 275.358 152.966C279.536 154.222 278.498 154.56 283.11 154.463C284.372 154.574 285.639 154.327 286.767 153.75C287.895 153.174 288.837 152.291 289.486 151.203C291.201 148.595 291.225 148.088 293.833 146.735C295.475 145.89 297.552 145.021 298.083 143.282C298.494 142.026 297.963 139.321 298.663 137.148C299.363 134.974 302.261 133.888 303.421 131.328V131.376ZM274.996 130.676C274.996 130.541 275.049 130.412 275.145 130.317C275.24 130.222 275.369 130.169 275.503 130.169C275.638 130.169 275.767 130.222 275.862 130.317C275.957 130.412 276.01 130.541 276.01 130.676C276.177 131.624 276.129 132.598 275.87 133.526C275.611 134.454 275.147 135.312 274.513 136.037C273.965 136.854 273.219 137.519 272.345 137.97C271.471 138.422 270.497 138.646 269.514 138.621C269.383 138.653 269.244 138.632 269.129 138.561C269.013 138.491 268.93 138.378 268.898 138.247C268.866 138.115 268.888 137.977 268.958 137.861C269.028 137.746 269.141 137.663 269.272 137.631C270.505 136.693 271.609 135.596 272.557 134.371C272.895 134.105 274.706 131.279 274.996 130.627V130.676ZM297.818 102.348C298.31 101.77 298.945 101.331 299.66 101.076C300.375 100.822 301.145 100.76 301.891 100.897C302.638 101.034 303.335 101.365 303.913 101.857C304.491 102.349 304.929 102.985 305.183 103.7C306.174 106.646 303.565 108.289 301.561 110.486C300.329 105.801 299.001 107.516 297.818 102.299V102.348ZM296.393 84.3318C297.552 83.8971 298.228 83.4865 298.953 80.9749C299.339 79.6708 300.088 76.1449 300.184 75.7102C301.154 76.3266 302.089 76.9958 302.986 77.7147C305.884 79.9606 307.816 84.9597 308.975 88.4856C309.241 89.3067 309.627 90.2003 309.869 91.0938C310.4 92.9534 309.748 93.5088 309.506 94.7404C309.096 96.8415 310.714 97.6867 310.883 98.2663C311.143 101.557 310.638 104.863 309.41 107.926C306.829 111.43 304.497 115.109 302.43 118.939C302.237 117.683 302.793 116.789 302.599 115.775C301.996 112.877 305.811 111.283 307.429 108.337C309.844 104.231 307.429 97.4452 299.146 98.0731C298.344 98.2414 297.626 98.6858 297.117 99.3289C296.738 97.0509 295.918 94.8689 294.702 92.9051C294.17 91.8674 293.325 91.0228 292.287 90.4901C292.265 88.8734 292.378 87.2578 292.625 85.6601C292.843 85.0805 295.258 84.7424 296.393 84.2835V84.3318ZM269.055 54.8205C271.011 54.3133 292.915 56.2453 295.21 57.4287C295.884 57.8494 296.424 58.4561 296.762 59.1758C297.1 59.8956 297.224 60.6977 297.117 61.4859C297.028 63.0481 296.435 64.5392 295.427 65.7363C294.585 64.8785 293.606 64.1683 292.529 63.6352C289.297 62.3865 285.849 61.7954 282.386 61.8964C280.135 61.8727 277.895 62.1986 275.745 62.8624C274.894 61.6529 273.632 60.7944 272.195 60.4474C271.048 60.1289 269.836 60.1269 268.688 60.4415C267.54 60.7562 266.498 61.3758 265.674 62.2345C264.418 56.8008 267.123 55.8106 269.055 54.8205ZM244.905 105.318C249.083 103.797 249.059 101.092 250.025 99.2806C250.64 99.7376 251.355 100.042 252.111 100.168C252.867 100.294 253.642 100.238 254.372 100.005C255.508 99.6118 256.518 98.9194 257.294 98.0007C260.289 94.0643 264.032 99.6912 270.383 98.1456C273.016 97.4935 273.909 95.7306 275.382 94.2816L276.686 96.0687C278.305 98.1214 281.516 99.5221 284.994 95.4891C285.823 95.9751 286.779 96.2025 287.738 96.1422C288.698 96.082 289.617 95.7369 290.38 95.151C290.38 99.981 291.346 107.467 291.249 108.578C291.104 110.8 293.833 111.525 293.978 112.128C294.292 113.772 294.292 115.46 293.978 117.103C293.978 117.538 292.915 118.721 293.278 120.001C293.237 121.932 292.793 123.832 291.973 125.58C291.708 125.58 274.127 124.807 269.635 127.174C267.968 127.778 264.636 128.478 264.394 126.715C264.051 121.994 263.365 117.305 262.341 112.684C262.309 112.556 262.228 112.447 262.116 112.378C262.004 112.309 261.87 112.286 261.741 112.314C261.613 112.342 261.5 112.419 261.427 112.529C261.355 112.638 261.327 112.772 261.351 112.901C261.066 117.644 261.276 122.403 261.979 127.101C262.05 127.571 262.22 128.021 262.479 128.419C262.737 128.818 263.078 129.157 263.478 129.413C263.879 129.669 264.329 129.837 264.799 129.905C265.27 129.973 265.749 129.939 266.205 129.806C263.356 132.463 263.621 133.187 260.361 133.163C259.661 133.13 258.961 133.245 258.308 133.501C253.18 124.421 248.67 115.005 244.808 105.318H244.905ZM155.55 231.502C155.14 221.142 164.123 198.441 180.956 182.502C200.276 164.148 223.387 149.513 256.594 139.756C257.801 145.842 261.665 145.262 264.515 147.001C265.843 147.798 265.795 150.913 267.992 152C262.148 174.121 261.448 203.367 263.162 226.358C256.087 227.783 248.866 229.304 241.717 230.874C239.616 220.176 238.843 210.057 240.896 203.609C240.92 203.529 240.924 203.445 240.908 203.363C240.892 203.282 240.856 203.206 240.804 203.141C240.752 203.077 240.684 203.026 240.607 202.994C240.531 202.962 240.448 202.949 240.365 202.957C232.009 203.512 218.992 208.294 199.044 201.121C197.257 200.445 198.03 204.116 189.312 214.935C184.176 220.996 178.641 226.708 172.745 232.033L155.55 231.502ZM158.69 233.386L167.77 233.603L166.635 240.703C166.418 242.055 168.881 241.524 170.909 242.345C170.434 242.613 169.932 242.832 169.412 242.997C166.273 244.036 165.91 243.287 165.645 245.412C165.424 247.382 164.945 249.315 164.22 251.16C163.495 250.605 164.22 246.113 164.22 245.195C164.437 242.587 161.805 243.843 161.805 244.905C161.601 247.639 160.982 250.327 159.97 252.875C159.757 250.53 159.847 248.169 160.235 245.847C160.293 245.586 160.265 245.314 160.155 245.07C160.045 244.827 159.858 244.626 159.624 244.498C159.389 244.37 159.12 244.322 158.855 244.36C158.591 244.399 158.346 244.522 158.158 244.712C157.579 245.267 157.772 246.427 156.975 250.339C156.842 251.167 156.615 251.977 156.299 252.754C155.284 250.967 156.637 247.224 158.545 233.386H158.69ZM154.222 248.89C153.763 251.691 153.835 254.444 156.081 255.29C156.432 255.406 156.81 255.408 157.162 255.295C157.514 255.183 157.82 254.961 158.038 254.662C158.189 254.979 158.416 255.254 158.698 255.465C158.98 255.675 159.308 255.814 159.656 255.869C161.249 256.087 162.215 254.686 162.819 253.164C163.858 253.961 163.785 253.164 163.375 253.986C162.505 255.652 165.79 274.368 167.456 285.381L158.134 292.384C154.132 279.647 147.361 267.952 138.307 258.139C142.895 255.265 148.426 252.029 154.077 248.89H154.222ZM104.738 308.251C73.585 298.349 61.5824 268.21 74.8408 252.416C84.8389 240.341 96.3343 238.095 107.371 240.969C123.841 245.292 140.963 262.172 148.957 276.88C154.62 288.011 159.143 299.687 162.457 311.728C163.661 315.397 164.66 319.13 165.452 322.91H157.12C154.926 321.328 152.58 319.969 150.116 318.852C130.144 311.052 120.17 313.153 104.738 308.251V308.251ZM127.995 314.844L115.22 324.286C115.075 322.306 114.857 318.128 114.64 312.96C119.373 313.757 122.151 313.95 127.995 314.844ZM115.703 454.914C112.901 451.412 113.602 325.953 115.847 325.349C161.394 323.103 202.787 324.817 325.083 335.371L327.208 462.521C316.027 472.664 121.45 462.183 115.92 455.01L115.703 454.914ZM367.587 440.013C351.189 449.407 335.564 458.174 330.058 461.362C332.473 445.205 328.247 350.586 327.474 334.308C348.074 322.064 335.975 329.164 407.169 287.989C410.164 297.093 413.931 365.414 415.09 396.205C400.238 395.674 383.357 397.968 376.885 401.759C376.718 401.608 376.522 401.491 376.31 401.416C376.097 401.341 375.872 401.31 375.647 401.323C375.422 401.337 375.202 401.395 375 401.495C374.797 401.595 374.617 401.734 374.47 401.904C370.582 405.43 368.432 428.542 367.684 440.11L367.587 440.013ZM373.021 452.499C372.272 453.416 371.837 453.899 370.992 451.484C370.382 449.548 370.089 447.525 370.123 445.495C370.123 438.371 371.185 413.883 374.301 405.43C375.532 413.327 425.958 413.037 437.26 409.56C436.672 411.466 435.579 413.177 434.096 414.511C433.711 414.393 433.305 414.365 432.907 414.428C432.51 414.49 432.132 414.643 431.802 414.873C429.387 416.37 429.653 420.935 426.972 420.669C423.832 420.379 423.374 415.404 419.944 415.96C416.515 416.515 416.998 423.036 415.694 424.364C415.145 424.879 414.493 425.273 413.782 425.518C413.07 425.764 412.314 425.856 411.564 425.789C410.719 425.571 408.062 423.832 406.903 425.789C405.744 427.745 401.856 433.179 399.658 432.043C396.857 430.546 397.75 424.436 393.838 424.509C390.481 424.509 389.008 433.009 387.342 432.237C385.217 431.174 385.458 425.885 384.178 422.263C384.023 421.746 383.738 421.279 383.35 420.904C382.962 420.53 382.484 420.262 381.962 420.126C381.441 419.991 380.893 419.991 380.371 420.129C379.85 420.266 379.373 420.535 378.986 420.91C375.291 425.571 374.687 450.76 373.117 452.595L373.021 452.499ZM438.636 460.202C432.84 468.679 381.763 471.746 377.803 463.632C376.69 460.441 376.048 457.106 375.895 453.73C378.02 448.9 378.769 429.58 381.184 424.122C382.391 428.276 381.884 433.493 386.014 435.473C389.201 437.043 391.23 434.652 392.824 431.488C399.417 446.437 412.144 455.469 429.628 451.557C433.253 450.8 436.661 449.241 439.602 446.992C439.643 451.443 439.352 455.891 438.733 460.299L438.636 460.202ZM439.53 443.515C436.633 446.388 432.939 448.323 428.928 449.069C406.179 454.358 392.486 431.778 393.911 429.001C394.304 430.272 394.822 431.502 395.456 432.671C395.785 433.39 396.265 434.029 396.865 434.543C397.465 435.058 398.169 435.436 398.929 435.652C399.689 435.868 400.487 435.916 401.267 435.794C402.048 435.671 402.793 435.38 403.45 434.942C405.886 433.232 407.942 431.037 409.487 428.493C413.52 430.619 418.93 429.508 420.596 419.968C422.335 421.973 423.639 423.905 426.658 424.171C431.246 424.605 432.164 420.572 433.613 417.916C435.738 418.254 437.695 416.177 439.119 413.617C439.53 421.466 439.723 433.565 439.53 443.611V443.515ZM442.114 439.868C442.114 428.904 441.679 416.805 441.414 411.154C444.36 420.065 446.485 431.802 442.211 439.965L442.114 439.868Z" fill="#663100"/>
</svg>
