<svg width="483" height="483" viewBox="0 0 483 483" fill="none" xmlns="http://www.w3.org/2000/svg">
<path d="M364.299 259.6H361.699C361.299 259.6 361.399 260.4 361.699 260.3C362.599 260.3 363.499 260.2 364.299 260C364.599 260 364.599 259.8 364.299 259.6Z" fill="#663100"/>
<path d="M362.2 273.7C362.1 273.7 362 273.9 362 274C362 274.1 362.1 274.3 362.2 274.3C363 274.3 364.5 274.6 364.5 274C364.5 273.4 363.1 273.6 362.2 273.7Z" fill="#663100"/>
<path d="M477.2 338.3C476.4 338.2 473 338.2 468.4 338.2C454.4 338.2 429.1 338.5 429.1 338.5C430.1 336.7 438.5 319.8 440.8 310.7C442.9 303 444.5 295.3 445.8 287.4C446.8 280.2 453.1 257.2 425.7 253.1C425.6 253.1 425.5 253.1 425.4 253.2C425.3 253.3 425.2 253.4 425.2 253.5C424.8 248.3 423.8 243.1 422.3 238.1C419.5 229.1 413.9 218.7 401 216.5L402.3 215.9C402.6 215.9 402.5 215.3 402.3 215.1C400.6 214.2 393.6 208.6 391.5 207.1C391.4 207 391.3 207 391.2 207C391.1 207 391 207 390.9 207.1L389.3 208.9C388.5 208.3 387.7 207.7 386.9 207.2L385.2 206.4C385.1 206.5 384.5 206.8 383.8 207.2C384.2 205 387.4 204.2 387.7 201.9C389 196.7 392 193 393.5 193.1C397.6 193.3 401.4 188.3 399.6 184.5C399.4 184.1 399.5 183.6 399.9 183.4C403.5 181 404.3 174.8 400.1 172C399.5 171.6 399.4 170.9 399.7 170.3C400.5 169.2 400.9 168 400.9 166.7C400.9 163.4 398.2 160.6 394.8 160.7C394.7 160.7 394.7 160.7 394.6 160.7C394.2 160.6 393.9 160.2 394 159.8C394.8 154.9 389.6 151.4 383.8 154.1C383.8 154.1 383.8 154.1 383.7 154.1C383.2 154.3 382.6 154 382.4 153.5C382 152.5 381.4 151.5 380.6 150.7C377.6 147.7 372.6 147.7 369.6 150.7C369.3 150.9 368.9 150.9 368.7 150.6C367 148.5 364.2 147.7 361.6 148.4C358.4 149 356.2 151.9 356.7 155.1C356.8 155.7 356.5 156.3 356.1 156.6C351.2 160.6 353.9 167.2 356.6 169.1C354.4 177.1 350.2 194.7 355.9 200.7C358.5 203.4 362.4 203.9 366.1 204C365.9 204.9 365.7 205.8 365.5 206.7C365.4 206.6 365.4 206.6 365.3 206.5C364.9 206.1 364.8 206.2 364.7 206.4C364.7 206.5 364.6 206.6 364.6 206.7C364.5 207.1 364.3 207.5 364.1 207.9C362.8 208.6 351.7 216.4 349.3 218.1C349 218.3 349.1 218.9 349.7 219C348.1 219.7 346.6 220.6 345.3 221.7C345.6 206.3 346.8 111.7 346.8 102.9C350.4 101.7 366.7 96.6 375.6 96.1C382.1 95.4 388.7 95.8 395.2 97C430.3 105.1 437.2 90.2 436.8 90.1C405.8 82.9 375.4 73.5 345.8 62C345.8 62 346 7.49997 345.4 7.49997C325.4 6.99997 30.1997 7.09997 30.1997 7.49997C29.8997 23.4 29.7997 256.9 29.6997 258.8C29.6997 258.9 48.7997 258.7 73.5997 258.4C52.4997 264.6 57.9997 284.9 58.8997 291.6C60.0997 299.4 61.7997 307.2 63.8997 314.9C66.0997 323.6 73.7997 339.2 75.3997 342.3L5.49967 343.6C5.09967 343.6 5.49967 344.6 5.89967 344.6L75.8997 343.3C77.1997 345.4 82.2997 353.5 85.3997 357.5C85.5997 363.6 91.0997 365.5 93.0997 366.3C92.9997 367.8 82.5997 447.8 82.2997 449.4C82.0997 450.2 82.0997 451.1 82.2997 451.9C82.4997 453.1 83.4997 454.5 84.7997 453.4C86.0997 451.9 86.7997 450 86.9997 448C87.3997 445.8 99.9997 381.2 102.1 369L108.4 370C108.4 370.3 99.3997 423.3 98.4997 432.1C98.3997 433.4 97.4997 437.3 99.9997 437.1C101.3 436.9 101.8 435.4 102 434.4C102.5 432.4 113.8 388.6 116 372.6C118.9 373.9 122 375.1 125.1 376.2L125.3 376.3H125.4C125.4 376.3 125.4 376.3 125.5 376.3C126.4 376.6 127.4 377 128.5 377.4C128.6 377.5 128.7 377.6 128.8 377.6C134.4 379.6 141 381.4 146.7 382.8C146.9 383.5 153.6 407.9 154.4 411.1C152.3 414.8 149.8 419.1 146.9 423.8C145 415.8 137.1 381.1 136.9 380.3C135.1 379.8 133.2 379.2 132 378.8C130.5 378.3 129.1 377.8 128.1 377.4C127.2 377 126.7 376.8 126.7 376.8C126.7 376.8 140.8 425.5 142.5 431.5C140.5 434.8 138.4 438 136.2 440.9C135.9 441.3 135.9 441.8 136.2 442.1C136.2 442.1 136.2 442.1 136.3 442.2L137 442.9L137.1 443L137.2 443.1C137.2 443.1 137.2 443.1 137.1 443.2C132.9 446.6 125.2 452.7 124.8 453.5C124.6 454.2 125.7 455.5 126.6 456.6C127.6 457.8 127.6 457.5 128.9 456.4C129.6 457.2 137 471.8 139.9 475.5C140.8 476.6 141.2 476.2 142.1 475.2C145.9 470.1 140.8 458.1 141.1 457.8C141 457.7 144.3 455 146.6 452.9L146.7 452.8L148.1 454.4L148.5 454.9C148.6 455 148.6 455 148.6 455C148.8 455.2 149.1 455.4 149.4 455.4C149.6 455.4 149.7 455.4 149.9 455.3C150.6 457.6 153.7 466.8 153.9 467C154.1 467.2 154.4 467.4 154.7 467.5C155 467.6 155.3 467.6 155.7 467.5C156 467.4 156.3 467.2 156.5 467C156.7 466.8 156.9 466.5 156.9 466.2C157.3 464.5 155 454.9 154.2 451.7L164.2 443.3C164.8 445.1 165.5 446.8 166.3 448.5C166.5 448.7 166.8 448.9 167.1 449C167.4 449.1 167.7 449.1 168.1 449C168.4 448.9 168.7 448.7 168.9 448.5C169.1 448.3 169.3 448 169.3 447.6C169.3 445 169 442.3 168.2 439.8L169.8 438.5L169.9 438.4L171.6 436.9C181.2 428.5 194.2 417 201.6 406.6C199.1 435.5 196.8 463.2 196.8 464.5C196.8 465.7 197 466.9 197.4 468.1C198.3 469 198.9 467 199 466.4C199.3 465.5 202.8 440.7 206.6 413.4C209.2 419 208.7 424.8 208.2 430.4C207.7 436.3 207.2 442.3 210.2 448C210.4 448.3 210.7 448.5 211.1 448.5C211.5 448.5 211.9 448.5 212.3 448.5C212.7 448.5 213 448.5 213.3 448.4H213.4C213.4 448.5 213.4 448.5 213.4 448.6C213.7 454.2 214 463.1 214.4 463.8C214.9 464.4 216.6 464.3 218 464.1C219.6 464 219.3 463.9 219.2 462.2C220.2 462.1 236.5 464.8 241.3 464.7C242.7 464.6 242.6 464 242.4 462.7C242.1 461.6 241.4 460.6 240.4 459.7C239.2 458.5 237.7 457.5 236 456.6C232 454.5 227.7 453.4 227.7 453.2C227.6 453.2 227.4 449.7 227.1 446.7C227.1 446.6 227.1 446.6 227.1 446.5L229.2 446.2H229.3L230 446.1H230.1L230.7 446C231.2 445.9 231.5 445.5 231.5 445C231.5 445 231.5 443.5 231.5 440.8C231.5 437.3 232 431.7 232.6 424.7C234.4 403.8 237 372.2 230.8 353.2C230.8 353.2 230.8 353.2 230.8 353.1C229.4 349.6 227.8 346.3 226 343.1V343C225.3 341.9 224.9 341.3 224.3 340.7C232.4 340.7 243.7 340.6 245.1 340.2C245.1 343.1 246.2 402.1 246.4 405C246.4 406.1 246.8 407.5 248.2 407.8C249.6 408.1 249.7 406.5 249.9 405.3C250.4 402.3 251.2 343.2 251.4 340C254.7 339.8 276.8 338.8 280 338.6C277.8 342.3 275.8 346.2 274.3 350.3C264.6 380.1 257.2 442.5 257.2 442.5L263.4 443.5C264.3 446.9 265.7 451.1 265.6 451.3C260.3 452.3 255.2 454.4 250.7 457.3C250.2 457.6 249.8 457.9 249.3 458.3C249.2 458.4 249.1 458.5 249 458.6C248.4 459.2 247.7 460.1 248.6 460.7C248.7 460.8 251 461.2 254.2 461.7C255.3 461.9 256.6 462.1 257.9 462.3C264.8 463.3 273 464.5 273.4 464.6C274 464.7 274.6 464.7 274.9 464.1C274.9 464.1 273.9 451.9 273.9 445C274.9 445.1 275.8 445.2 276.8 445.2C282.7 433.9 290.7 420.7 297.6 408.6C298.7 414.3 306.7 453 307.5 457.5C307.8 459.2 309.2 466.2 311.7 464.2C312.4 463.7 312.2 462.9 312.2 462.2C312.1 460.8 303.2 403.9 303 402C310.8 413.4 325.6 426.1 335.8 435.2C335 437.8 334.7 440.5 334.7 443.2C334.8 443.5 334.9 443.8 335.1 444.1C335.3 444.3 335.6 444.5 335.9 444.6C336.2 444.7 336.5 444.7 336.9 444.6C337.2 444.5 337.5 444.3 337.7 444.1C338.5 442.4 339.2 440.6 339.8 438.8C343.7 442.2 347.1 445.1 349.7 447.3C348.9 450.5 346.6 460.1 347 461.8C347.1 462.1 347.2 462.4 347.4 462.6C347.6 462.8 347.9 463 348.2 463.1C348.5 463.2 348.9 463.2 349.2 463.1C349.5 463 349.8 462.8 350 462.6C350.2 462.4 353.5 452.9 354.1 450.8C354.4 451.1 354.7 451.3 355 451.5L357.9 448.2L358 448.1C360.2 449.4 362.2 450.5 362.2 450.7C359 455.1 356.7 460 355.4 465.3C355.3 465.9 355.1 466.4 355 467C355 467.1 355 467.3 355 467.5C355 468.3 355.1 469.5 356.1 469.4C356.3 469.4 358.2 468.1 360.8 466.3C361.7 465.7 362.8 464.9 363.9 464.2C369.6 460.2 376.4 455.5 376.7 455.2C377.2 454.8 377.7 454.5 377.5 453.8C377.5 453.8 369.5 446.5 364.6 441.5L365 441.1L365.8 440.4L366 440.2L367.5 438.8C364.9 435.4 362.5 431.8 360.4 428.1C360.6 427.5 373 382.1 375.3 373.9C379.8 372.4 384.3 370.7 388.6 368.7C390.7 384.7 402.1 428.6 402.6 430.6C402.8 431.6 403.4 433.1 404.6 433.3C407.1 433.5 406.3 429.7 406.1 428.3C405.2 419.5 396.2 366.4 396.2 366.2L402.5 365.2C404.6 377.3 417.2 442 417.6 444.2C417.7 446.2 418.5 448.1 419.8 449.6C421.1 450.6 422.1 449.3 422.3 448.1C422.5 447.3 422.5 446.4 422.3 445.6C422 444 411.6 364.1 411.5 362.5C413.5 361.7 419 359.9 419.2 353.7C422.8 349.2 425.9 344.3 428.5 339.1C428.5 339.6 426.8 339.3 476.8 339.3C477.7 339 477.7 338.3 477.2 338.3ZM273.4 451.6H272.6C269.2 451 270.7 451.3 267.3 451.1C267.3 450.9 265.8 446.8 264.8 443.4C264.9 443.4 264.9 443.4 265 443.4C266.2 443.6 268.6 444 270.5 444.3C270.9 444.4 271.3 444.4 271.6 444.5C271.8 444.5 271.9 444.5 272 444.6C272.3 444.6 272.6 444.7 272.9 444.7C273 444.7 273 444.7 273.1 444.7C273 447.9 273.4 451.4 273.4 451.6ZM429.3 258.9C425.3 302.9 415.5 332.9 413.9 337H413.8C413.8 335.9 412.5 321.4 412 319.4C413.2 319.2 414.4 318.8 415.5 318.3C415.5 316.1 414.5 292.1 414.4 292.1C416.3 290.3 425.3 282.2 425.2 257.2L429.3 258.9ZM418.1 349.1C417.6 348.4 417.1 347.7 416.6 347.1C419.5 342.8 436.4 319.8 440.3 267.4C443.8 273.7 443.6 281 442.8 288.1C438.7 319.8 419 347.6 418.1 349.1ZM418.2 352H418.1C418.1 355.8 406.4 358.5 404.9 358.9C409 355.1 411.8 350.2 413 344.8C415.3 346.7 417.1 349.2 418.2 352ZM416.1 346.4L416 346.5C415.1 345.6 414.1 344.8 413.1 344C413.5 342.3 413.7 340.6 413.8 338.9C417.6 329.6 426.2 300.2 430.1 259.2C431.2 259.7 437.8 262.8 439.5 266.2C439.1 268.5 436.5 315.8 416.1 346.4ZM413.2 223.3C416.7 226.6 419.2 230.8 420.4 235.5C430.6 274 414.9 290.3 411.6 293.4C395.5 307.9 355.1 300.8 354.1 300.7C354.9 299.5 352.6 284.2 353.9 281.4C363.6 280.9 373.3 279.8 382.9 278.2C386.7 277.4 391.4 276.7 393 272.5C393.7 270.5 395 266.1 392.5 242.1C392.5 241.7 391.8 241.8 391.8 242.1C394.8 269.8 391.6 274.4 389.5 275.1C378.7 278.3 367.5 280.1 356.2 280.5C356.2 274.3 354.1 260.8 363.7 245.7C363.8 245.7 383 232.7 399.2 227.5C399.3 227.5 399.4 227.4 399.4 227.3C399.5 227.2 399.5 227.1 399.5 227.1C399.5 227 399.5 226.9 399.5 226.8C399.5 226.7 399.4 226.6 399.3 226.6C396.2 224.6 393.3 222.4 390.5 220.1C394 219.1 397.3 217.8 400.6 216.3V216.4V216.5C400.6 216.5 400.6 216.6 400.7 216.6L400.8 216.7C405.4 217.8 409.8 220 413.2 223.3ZM357.9 319.8C347.1 319.3 336.4 316.4 326.8 311.4C335.7 306.8 335.9 305.1 336.5 304.5C336.5 304.5 336.8 302.8 337.2 301.1C337.4 299.8 337.7 298.5 337.7 298.1C338 298.1 338.3 298.2 338.6 298.2C338.5 298.5 338.4 298.8 338.2 299.1C337.7 299.8 337.4 300.5 337.2 301.1C337.2 301.3 337.1 301.5 337.1 301.7C337.1 302 337.1 302.3 337.2 302.6C337.4 303.6 338.2 304.2 339.1 304.2C340 304.2 341.1 303.6 341.7 302.2C341.7 302.1 341.8 302.1 341.8 302V302.1C341.9 302.4 342 302.7 342.2 302.9C342.3 303.2 342.5 303.4 342.7 303.7C343.9 305.4 346.6 305.1 346.9 303.2C347 302.9 347 302.6 346.9 302.3C346.8 301.6 346.5 300.9 345.9 300C345.8 299.9 345.8 299.8 345.7 299.7C345.6 299.5 345.4 299.2 345.3 299C345.3 298.9 345.2 298.9 345.2 298.8C345.2 298.7 345.1 298.6 345.1 298.5C347.9 298.5 350.6 298.3 353.4 298C353.4 298.3 353.4 301.9 353.8 301.9L356.4 302.3C356.2 303.5 357.7 318.6 357.9 319.8ZM167.8 310.2L168.3 309.1C168.3 308.8 168.3 308.6 168.3 308.3C169.7 308.7 171.2 308.8 172.6 308.6L173.4 308.5L173.7 310.1C173.9 310.4 174.2 310.9 174.2 311.1C175.4 312.4 179.7 312.3 181.5 312.2C183.2 312 188.8 311.8 188.8 309.2C188.8 309 188.8 308.8 188.8 308.6V307.9V307.3V306V305.4C188.8 302.3 188.7 298.8 188.7 298.8V288.9C189.6 288.8 198 287.8 204.1 287.1C200.6 288.4 199.4 288.9 198 289.4C196.2 290 194.5 290.6 193.6 292.8C193.5 293.1 193.4 293.4 193.3 293.7C193 294.7 192.9 295.7 192.9 296.8C193 300 193.8 303.8 196.3 305.9L196.5 306.1C198.7 308.1 202.3 306.9 207.6 305.6L212 304.8C205.7 304.4 206 304.2 204.5 304.1C202.6 303.8 200.6 303.5 199.1 301.9C197.7 300.2 197.9 297.8 198.7 295.9C200.3 292.3 203.3 289.3 206.4 286.8C206.8 286.8 207.1 286.7 207.4 286.7C204.5 289 201.9 291.4 200.1 294.4C199 296.3 198.1 298.9 199.3 301C201 303.9 206 303.7 212.8 304.7L217.9 303.9L219.6 303.6C220.1 303.5 220.5 301.1 220.4 300.6C220.5 300.2 220.6 299.8 220.9 299L223.4 299.9L224.6 300.4C224.8 301.4 225.1 302.5 225.5 303.5C226.1 305.2 227.6 306.2 230.4 305.7C230.8 305.6 229.2 301.5 229.2 301.4L230.6 300.4C230.5 299.4 230.3 298.4 229.8 297.5C229.5 297.2 229.4 297.2 228.3 296.5C227.4 294 227.1 288.1 227.1 288C227.1 287.6 224.7 288.2 224.4 288.4C224.7 287.5 225.1 286.6 225.3 285.6C233.5 285.1 240.3 285 243.9 284.9C244.2 284.9 243.9 296.7 244.7 298.1C246.1 300.2 252.2 300.4 252.6 297.9V284.7L258.1 284.6C258.1 284.8 258.2 285 258.2 285.3C258.9 289.6 260.6 293.6 263.2 297.1C267.2 302.5 273.3 304.6 280 304.5C283.1 304.5 286.1 304 288.1 302.6C292.6 299.5 296.1 295.2 298.1 290.1C298.3 289.4 298.7 288.9 299.6 286.4C299.8 286 299.9 285.6 300 285.2C309.6 286.2 329.8 288.7 334.7 292.8C333.9 293.8 335.6 294.6 336.6 294.8C336.8 295.1 336.9 295.5 337.1 295.9C336.9 296 336.8 296.2 336.7 296.4C336.6 296.6 336.6 296.8 336.6 297C336.6 297.2 336.7 297.4 336.8 297.6C336.9 297.8 337.1 297.9 337.3 298C334.4 312.2 267.7 318.2 254.4 318.7C243.3 318.8 189.8 318.1 167.8 310.2ZM166.2 310.6C165.7 311.1 164.9 311.8 163.9 312.6C163.7 312.8 163.4 313 163.1 313.2C162.4 313.8 161.5 314.5 160.6 315.4C160.9 314.3 161.1 313.2 161.1 312C161.1 311.7 161.1 311.4 161.1 311.1C161.1 310.6 161.1 310.1 161.1 309.6C161.6 309.4 162.1 309.2 162.6 309C162.9 308.8 163.3 308.7 163.6 308.5C164.3 308.1 164.9 307.6 165.5 307C165.5 306.8 165.5 306.3 165.1 306.4C164.3 306.9 163.5 307.4 162.7 308C162.4 308.2 162.1 308.4 161.9 308.6C161.7 308.8 161.4 308.9 161.2 309.1C161.2 308.8 161.1 308.4 161.1 308.1C161.1 307.9 161 307.6 161 307.4C161 307.2 160.9 307 160.9 306.7C160.7 305.9 160.5 305.2 160.3 304.5C161.8 304.2 163.3 303.8 164.7 303.2C164.8 303.2 164.8 303.1 164.9 303.1C164.9 303 165 303 165 302.9C165 302.8 165 302.8 164.9 302.7C164.9 302.6 164.8 302.6 164.7 302.6C163.2 302.7 161.7 303.2 160.3 304C160 303.2 159.6 302.4 159.1 301.6C159.6 301.6 162.4 301.4 163.3 301.3C163.4 301.3 163.4 301.3 163.5 301.3C163.6 301.3 163.6 301.3 163.6 301.2C163.7 301.2 163.7 301.1 163.7 301.1C163.7 301.1 163.7 301 163.7 300.9C163.7 300.8 163.7 300.8 163.7 300.7C163.7 300.7 163.7 300.6 163.6 300.5L163.5 300.4C163.5 300.4 163.4 300.4 163.3 300.4C162.5 300.2 161.6 300.1 160.8 300.2C160 300.3 159.2 300.6 158.4 301C158.5 300.6 158.7 300.2 158.9 299.8C163.5 299.8 165.1 299.6 166.8 306.5V306.4C167.2 308.1 167.2 309 166.6 309.9C166.7 310.1 166.5 310.4 166.2 310.6ZM99.0997 362.2C99.3997 362.5 99.6997 362.8 99.9997 363.1C98.4997 362.7 86.7997 360 86.7997 356.2H86.6997C87.6997 353.7 89.1997 351.4 91.1997 349.6C92.0997 352.9 93.5997 355.9 95.5997 358.7C95.5997 358.7 95.5997 358.7 95.5997 358.8L95.6997 358.9L95.7997 359C96.6997 359.9 97.7997 361 99.0997 362.2ZM124.2 250.9C123.9 250.3 123.7 249.8 123.4 249.2C123.3 249 123.2 248.7 123.1 248.5C121.8 245 121.2 241.3 121.5 237.5C124.7 239.6 128.3 241 132.1 241.7C132.3 243.6 132.9 245.5 133.8 247.2C134 247.6 134.3 248 134.6 248.4C134.8 248.6 134.9 248.9 135.1 249.1C136.7 251.3 138.7 253.2 141 254.7C142 255.3 142.9 255.9 143.8 256.6C144.1 256.9 144.5 257.1 144.8 257.4C145.7 258.2 146.5 259.1 147.3 260C147.8 260.7 148.2 261.4 148.5 262.2C148.6 262.3 148.6 262.4 148.5 262.6C148.5 262.7 148.4 262.8 148.3 262.9C148.3 262.9 147.6 262.9 147.5 262.7C147.4 262.5 145.7 258.8 144.2 259.6C143.3 260.2 145.4 263 145.5 263.4C145.6 263.5 145.6 263.7 145.5 263.8C145.4 263.9 145.4 264 145.3 264.1C145.3 264.1 144.6 264.1 144.4 263.9C144.2 263.7 143.2 260 141.5 260.9C140.1 261.5 141.5 264.9 141.5 265.3C141.5 265.7 141.2 265.9 141.2 265.9C141.1 266 141 266 141 266C140.9 266 140.8 266 140.7 266C140.6 265.9 140.5 265.9 140.5 265.8C140.5 265.7 140.4 265.6 140.4 265.6C140.3 265.1 139.7 261.5 138.2 262.4C137.2 263 138.2 265.5 138.4 265.8C138.5 266 138.5 266.2 138.4 266.4C138.3 266.6 138.2 266.7 138 266.8C138 266.8 137.2 266.8 137.1 266.4C136.7 265.3 136.1 264.2 135.4 263.2C134 261.5 132.3 260.1 130.4 259C129.9 258.6 129.5 258.3 129.1 257.9C128.8 257.6 128.5 257.3 128.2 257C126.5 255.1 125.2 253.1 124.2 250.9ZM249.8 22.2C241.5 23.3 233.4 26 226.1 30.2C175.4 55.9 122.8 77.8 68.6997 95.6C68.1997 95.6 68.4997 96.5 68.7997 96.4C79.8997 102.1 92.2997 104.2 104.6 105.4C116.8 106.6 136.6 100.1 143.3 99.1C149.9 98 156.6 98.1 163.2 99.5C169 100.8 194.3 110.9 205.4 110.9C207.9 114.4 240.7 157 242.7 159.5C242.8 179.2 243.1 198.9 243.3 218.6C242.6 218.4 241.9 218.1 241.3 217.7C241 217.5 240.6 217.4 240.3 217.2C237.4 215.3 233.9 220.4 230.7 221.3C230.5 221.1 230.3 220.9 230.1 220.8C229.8 220.7 229.6 220.6 229.3 220.7C226.3 220.9 223.5 222.2 221.5 224.5H214.6C202.5 225 189.9 230.6 173.3 226.2C167.8 224.8 166.4 223 154.6 220.5C155.6 219.7 156.4 218.8 157 217.7C157 217.6 157.1 217.5 157 217.4C157 217.3 156.9 217.2 156.8 217.2C153.8 215.6 145.8 204.5 144.3 201.9C145.8 195.1 144.8 188 141.7 181.7C141.8 178.1 141.2 174.5 139.9 171.1C139.3 169.7 138.5 168.4 137.5 167.3C140.2 163.8 141 159.7 140.2 156C163.2 139.2 183.1 124.6 186.9 121.7C187.2 121.4 186.9 120.8 186.6 121.1C183.2 123.5 163.1 138.1 140 155.1C137.9 147.3 129 141.6 118.1 146.9C111.9 149.9 106.7 154.5 102.8 160.1C102 158 95.9997 152.9 94.4997 154.1C93.4997 154.9 92.2997 156.6 93.6997 157.4C96.2997 158.6 98.8997 160.1 101.3 161.6C99.3997 163.2 87.7997 169.1 84.2997 182.6C83.2997 186.5 84.0997 191.4 86.5997 194.5C73.3997 204.2 63.5997 211.4 61.0997 213.3C60.7997 213.6 61.0997 213.9 61.2997 213.8C65.3997 210.7 74.8997 203.8 86.9997 195C88.7997 197 91.3997 198.1 94.6997 197.3C94.6997 198.9 93.2997 227.3 93.5997 228.6C93.7997 229.9 94.2997 230 95.4997 230.3C98.4997 231.2 101.7 231.5 104.8 231.1C102.1 232.3 99.5997 233.7 97.2997 235.5C95.0997 237.3 93.0997 239.2 91.3997 241.4L91.5997 241.6L89.1997 244.4C88.0997 245.9 87.0997 247.5 86.1997 249.1C61.0997 249.4 42.9997 249.6 42.4997 249.6H42.3997C43.1997 234.4 43.2997 17.6 43.2997 17.5C62.1997 18.2 216.3 17.8 245.8 17.8C245.4 19.4 248 21.8 249.8 22.2ZM217.7 47.5C176.4 82.7 150.1 94.9 144.6 97.8C134.7 99.1 125.7 102.6 115.6 103.9C103 105.5 81.3997 101.6 70.6997 96.4C95.6997 88.5 136.7 73.6 202.7 43.9C204.4 46.1 206.8 47.6 209.5 48.2C212.3 48.8 215.1 48.6 217.7 47.5ZM242.7 148.9C242.4 148.2 225.3 111.4 223.7 107.9C230 105.7 236.4 104 242.9 102.7C242.7 118.1 242.7 133.5 242.7 148.9ZM242.7 150.6C242.7 153.1 242.7 155.7 242.8 158.2H242.7C233.5 146.1 209.2 114.4 206.1 110.8C211.9 110.9 217.7 110 223.2 108C228.5 120.8 242 149 242.7 150.6ZM269.5 214.3C269.3 214.5 269.1 214.7 268.8 214.8C268.4 215 268.1 215.3 267.7 215.4C267.6 215.4 267.5 215.5 267.4 215.5C264.5 216.8 259.5 218.2 254.4 218.5C252.9 218.6 251.2 218.6 249.7 218.3C249.5 218.3 249.3 218.2 249.1 218.1H249C248.7 218 248.3 217.9 248 217.7C247.1 217.3 246.2 216.5 246.1 215.5C246 214.6 246.4 213.8 247 213.2C248.3 211.8 250.2 210.5 252.3 209.5C254.8 208.4 257.7 207.6 260.7 207.6C262.8 207.6 265 207.9 267 208.5C268.4 208.9 270.4 209.5 270.9 211.1C271.2 212 270.8 213 270.1 213.6C269.8 214 269.6 214.1 269.5 214.3ZM276.4 216C276.6 216 276.8 216.1 277.1 216.1C279.5 216.5 283.6 217.2 285.9 219.3C288.2 221.4 296.4 226.5 272.6 235.7C272.4 235.7 272.2 235.8 272 235.8C271.9 235.8 271.8 235.8 271.8 235.9C271.6 236 271.4 236 271.2 236C270.1 236.3 269 236.5 268 236.7C267.8 236.7 267.7 236.8 267.5 236.8C263.1 237.6 258.9 237.9 255.5 237.9C254.6 238 253.6 238 252.7 238C249.7 238 246.7 237.6 243.7 236.8C242.6 236.5 241.5 236.2 240.5 235.8C235 233.3 233.6 227.6 242.2 222.8C242.7 222.9 243.2 223 243.7 223C245 223.1 246.4 222.8 247.6 222.3C247.8 222.2 248 222.1 248.3 222C248.5 222 248.6 222 248.9 221.9C248.9 222.1 249 222.2 249.1 222.4C249.2 222.5 249.3 222.6 249.4 222.8C249.5 223 249.4 223.2 249.4 223.5C249.4 223.6 249.4 223.7 249.4 223.9C247.6 225.1 246 226.8 245.8 228.6C245.5 231.9 248.5 233.7 252.8 234.4C256.7 235 261.7 234.7 266.3 233.8C266.6 233.7 266.9 233.7 267.1 233.6C267.1 233.6 275.6 231.4 279 228.6C282.2 226 282.1 222 275.7 220.2C275.5 220.2 275.3 220.1 275.1 220.1C274.8 220 274.6 220 274.3 219.9C274.2 219.9 274 219.9 273.9 219.8C273.3 219.7 272.6 219.6 271.9 219.6C271.9 219.6 271.8 219.5 271.8 219.4C272 219.2 272.1 219 272.2 218.7C272.3 218.5 272.3 218.4 272.3 218.2C272.3 217.9 272.2 217.4 272.1 217.2C272.1 217.2 272.1 217.2 272.1 217.1C272 216.9 271.8 216.7 271.6 216.6C272 216.3 272.2 215.9 272.3 215.5C273.4 215.5 274.9 215.7 276.4 216ZM287.8 257.3C290 260.3 292.4 263.2 294.9 266.1C302.5 274.5 310.4 281 321.6 279.4C325.8 279 329.7 277.3 332.8 274.4C332.3 277.3 331.1 284.8 330.6 289.3C320.5 286.4 310 284.6 299.5 283.8C299.2 282.6 298.2 281.6 297 280.6C296.5 280.3 295.9 279.9 295.3 279.6C293.7 278.8 292 278.1 290.1 277.5C281 274.8 269 275.4 262.6 278.1C261.5 278.6 260.6 279.1 259.8 279.7C259.7 279.8 259.5 279.9 259.4 280.1C258.5 280.9 257.9 282 257.8 283.2C255.7 283.3 253.9 283.3 252.4 283.4C252.6 274.8 252.7 266 252.7 257.2H287.8V257.3ZM252.7 256.5V248.4C260.6 248.3 281.7 248.4 281.8 248.4C282.5 249.6 286 255 287.1 256.4H252.7V256.5ZM337.6 281C337.8 282.5 338 283.8 338.1 284.8C336.9 284.8 335 284.8 334.9 286.3C334.9 287.4 337.9 288 338.3 288.1C336.9 288.1 335.5 288.5 334.2 288.7C333.3 288.7 332.5 289.8 333.1 290.5C332.6 290.2 332 290 331.5 289.8C331.8 287.6 332.9 280.8 334.1 273.3C335.1 276 336.4 278.7 337.6 281ZM338.2 282.1C339 283 339.6 281.4 340.4 281.3C340.7 281.4 341.2 281.8 341.6 281.3C341.6 282.5 341.7 283.8 341.8 285.1C340.7 285 339.6 284.9 338.5 284.9C338.4 283.7 338.3 282.8 338.2 282.1ZM341.8 250.7C342.4 252.4 340.9 252.3 340.8 251.1C340.8 250.5 341.5 250.5 341.8 250.7ZM341.3 262.8C341.3 263.3 341.3 263.7 340.8 263.7V263.6C339.9 263 340.9 262.1 341.3 262.8ZM340.8 258.3C340.2 259.2 340.5 259.7 340 259.6V259.5C339.7 259.5 339.6 259.2 339.6 258.9C339.6 257.8 341 257.6 340.8 258.3ZM342.2 286.2C343.4 286.3 344.8 286.3 346.5 286.4C346.6 286.4 346.7 286.4 346.8 286.3C346.9 286.2 346.9 286.1 346.9 286C346.9 285.9 346.9 285.8 346.8 285.7C346.7 285.6 346.6 285.6 346.5 285.6C345.6 285.4 344.7 285 343.9 284.5C343.5 283.8 344.5 283.7 345 283.7C347.5 284.2 349.9 284.8 352.3 285.6C352.3 285.6 353.3 296.8 353.4 297.1C350.6 297.6 347.7 297.8 344.8 297.8C344.6 297.8 344.4 297.8 344.3 297.8C342.6 297.8 340.9 297.7 339.3 297.5C339.1 297.5 338.9 297.5 338.8 297.4C338.5 297.4 338.2 297.3 337.9 297.3C337.2 297.3 336.8 296.5 337.9 296.1C337.9 296.1 338.3 296 338.8 295.8C339 295.8 339.1 295.7 339.3 295.7C340.4 295.4 341.7 295 342.3 294.9C342.8 294.9 342.6 294.1 342.2 294.1C341.4 294.1 340.3 294.1 339.3 294C339.1 294 339 294 338.8 294C337.8 294 337.1 293.9 337 293.9C335.5 293.7 334.5 292.8 335.8 292.5C336.1 292.4 337.4 292.2 338.8 292C338.9 292 339 292 339.2 291.9C340.5 291.7 341.9 291.5 342.6 291.3C342.7 291.3 342.8 291.3 342.8 291.2C343 291.1 342.9 290.7 342.7 290.5C342.6 290.4 342.5 290.4 342.4 290.4C342.2 290.4 340.8 290.5 339.1 290.5H338.7C336.3 290.5 333.7 290.5 333.7 290C333.7 289.4 336.2 289.1 338.5 288.9C338.7 288.9 338.8 288.9 339 288.9C340 288.8 340.8 288.8 341.4 288.8C341.9 288.8 341.9 288 341.4 287.9C340.9 287.9 339.9 287.7 338.9 287.5C338.9 287.4 338.9 287.4 338.9 287.3C338.8 287.3 338.7 287.4 338.6 287.4C338.5 287.4 338.5 287.4 338.4 287.4C337.1 287.1 335.9 286.6 335.9 286.3C335.9 285.7 336.6 285.7 338.3 285.8C338.5 285.8 338.6 285.8 338.8 285.8C339.7 285.9 340.8 286 342.1 286C342 286.2 342.1 286.2 342.2 286.2ZM344.7 298.5C344.8 298.7 344.9 298.9 345 299C345.1 299.1 345.1 299.2 345.1 299.2C345.2 299.4 345.3 299.6 345.4 299.7C345.8 300.4 346.1 301.2 346.5 301.9C346.6 302.2 346.6 302.5 346.6 302.8C346.3 304.4 344 305.4 342.5 302.4C342.4 302.3 342.3 302.1 342.3 301.9C342.3 301.8 342.2 301.7 342.2 301.6C342.2 301.5 342.1 301.4 342.1 301.4L342 301.3H341.9H341.8L341.7 301.4C341.6 301.7 341.5 302 341.3 302.3C340.8 303.3 340.1 303.8 339.4 303.8C338.5 303.8 337.7 303.1 337.7 302C337.7 301.7 337.7 301.3 337.8 300.9C338 300.4 338.2 299.8 338.7 299.2C338.9 298.8 339.1 298.4 339.2 298C341 298.1 342.9 298.2 344.7 298.2C344.6 298.4 344.7 298.5 344.7 298.5ZM335 291.9C333.1 290.4 333.4 291.5 337.6 291.4C336.7 291.4 335.8 291.6 335 291.9ZM295.5 287.1C295.5 287 295.4 287.1 295.8 286.6C295.8 286.6 295.9 286.5 295.9 286.4C296.3 286.8 296.3 287.4 296.1 288C295.9 288.1 295.8 288.2 295.6 288.3C295.7 287.9 295.7 287.5 295.5 287.1ZM284.2 300.9C284.2 300.4 284.6 300.1 285 300.1C285.5 300.1 285.8 300.5 285.8 300.9C285.8 301.4 285.4 301.7 285 301.8C284.6 301.8 284.2 301.4 284.2 300.9ZM285 289.7C283.6 288.9 282.4 287.8 281.5 286.4C282.3 286.5 283.1 286.5 283.9 286.3C284.2 286.8 284.5 287.2 284.9 287.5V287.6C285.4 288.8 286.4 289.8 287.7 290.4C286.8 290.5 285.8 290.2 285 289.7ZM276.5 286.1C276.9 286.1 277.3 286.1 277.7 286.1C278.8 288.3 280.7 289.9 283 290.8C280.1 290.5 277.6 288.7 276.5 286.1ZM280.1 291C279.4 291 278.6 291 277.9 290.9C278 290.6 278.1 290.2 278.2 289.8C278.8 290.3 279.4 290.7 280.1 291ZM274.7 287.4C273.1 285.5 269.5 284.5 267.6 286.2C267.8 284.9 269.5 284.3 270.8 284.6H270.9C274.8 285.9 275.3 285.9 275.3 285.9C275.3 285.9 275.3 285.9 275.3 286C275.7 287.1 276.4 288.1 277.1 288.9C277.2 289.6 277.1 290.3 276.7 290.8C276.3 290.8 275.8 290.7 275.4 290.7C276.1 289.7 275.5 288.4 274.7 287.4ZM272.3 288.2C271.3 287.3 269.7 287.3 268.7 288.3C268.6 288.4 268.6 288.5 268.5 288.5C268.2 288.2 267.9 287.8 267.7 287.5C268.9 285.5 272.5 286.4 273.9 288C274.6 288.8 275.1 289.9 274.3 290.6C273.8 290.5 273.3 290.5 272.8 290.4C273.3 289.6 273 288.7 272.3 288.2ZM271.8 290.2C271 290 270.1 289.7 269.4 289.2V289.1C269.5 288.8 269.8 288.6 270.1 288.5C270.6 288.3 271.3 288.4 271.7 288.8C272.2 289.4 272.4 289.8 271.8 290.2ZM264.5 288.2C264.2 288.1 263.9 287.9 263.6 287.8C262.3 286.6 262.2 284.5 263.3 283.2C265.4 280.7 268.2 281.1 270.9 282C275.8 283.6 276.7 284 277.7 284C277.8 284.4 278.1 284.8 278.5 285.1C275.2 285.5 272.2 283.9 269 283C265 281.4 262.3 285.2 264.5 288.2ZM279.9 283.3C280 283.5 280.3 283.7 280.5 283.6C280.8 283.5 281 283.4 281.3 283.4C281.3 283.6 281.3 283.8 281.3 284C281.3 284.3 281.6 284.6 281.9 284.6C282.2 284.6 282.4 284.4 282.4 284.1C282.4 284 282.4 283.9 282.3 283.8C282.3 283.7 282.3 283.5 282.3 283.4C282.7 283.5 283.2 283.6 283.6 283.8C283.8 283.9 284.1 283.8 284.3 283.6C284.4 283.4 284.3 283.1 284.1 282.9C283.6 282.7 283.1 282.5 282.6 282.4C282.6 282.3 282.7 282.1 282.7 282C283.8 282.3 285.1 282.8 285.3 283.5C285.5 284.2 284.6 285.6 282.2 285.5C280.9 285.5 279.7 284.9 278.9 284C278.8 283.9 278.7 283.7 278.7 283.5C278.7 282.3 280.7 281.8 281.7 281.9C281.6 282.1 281.6 282.2 281.5 282.4C281.1 282.4 280.6 282.5 280.2 282.7C279.9 282.8 279.8 283.1 279.9 283.3ZM286.6 288.4C287 288.5 287.4 288.6 287.9 288.6C288.4 289.2 289.1 289.6 289.9 289.6C290.7 289.6 291.5 289.3 292 288.7L292.1 288.6C292.3 288.6 292.4 288.6 292.6 288.6C292.6 289 292.4 289.4 292.1 289.7C291.6 289.8 291 290 290.5 290.1C289 290.1 287.6 289.5 286.6 288.4ZM289.1 288.4C289.4 288.3 289.6 288.2 289.8 288C290.1 288.2 290.4 288.4 290.7 288.5C290.2 288.7 289.6 288.7 289.1 288.4ZM289.3 281.5C289 281.4 288.8 281.4 288.5 281.4C288.2 281.4 288 281.4 287.7 281.5C287.6 281.3 287.4 281.2 287.3 281C288.3 281 289.2 281.2 290.1 281.7C290.5 282 291 282.8 290.5 283.4C290.4 283.5 290.4 283.6 290.4 283.8C290.1 284 289.9 284.2 289.6 284.5C289.3 284.2 289 283.8 288.6 283.6C288.6 283.2 288.4 282.8 288.2 282.4C288.5 282.4 288.7 282.4 289 282.4C289.3 282.4 289.5 282.3 289.6 282C289.7 281.8 289.5 281.5 289.3 281.5ZM287.3 282.6C287.3 282.7 287.4 282.8 287.4 282.9C287.2 282.8 287.1 282.8 286.9 282.8C287.1 282.7 287.2 282.6 287.3 282.6ZM288.1 284.1C287.7 284.6 287.2 285 286.7 285.3C286.5 285.4 286.4 285.7 286.5 286C286.6 286.2 286.9 286.3 287.1 286.2C287.8 285.8 288.4 285.3 288.8 284.7C289.1 285.1 289.4 285.5 289.6 286C290.3 288.4 286.3 288.6 284.6 286.1C285.6 285.7 286.3 284.6 286.2 283.5C286.9 283.4 287.6 283.6 288.1 284.1ZM285.7 282.5C285.4 282.2 285 282 284.7 281.8C285.2 281.5 285.7 281.3 286.2 281.2C286.2 281.5 286.4 281.5 286.7 281.9C286.3 281.9 286 282.2 285.7 282.5ZM278.2 282.1C277.5 282.1 276.7 282.3 276 282.6C275.9 282.6 276.1 282.7 274.1 282C275.7 281.6 277.4 281.4 279.1 281.4C278.7 281.6 278.4 281.9 278.2 282.1ZM268.5 283.9C266.3 284.8 265.8 287.3 268.1 289.4L267.9 289.3C265.9 288.5 265.2 287.7 264.9 286.4C264.4 284.6 266 283 268.5 283.9ZM278.7 286.1C279 286.1 279.3 286 279.6 285.9C279.8 286 280.1 286.1 280.3 286.2C280.7 287.6 282.6 289.3 283.9 290.2C281.7 289.5 279.9 288 278.7 286.1ZM287.1 299.8C288.6 298.8 290 297.6 291.2 296.2C292.4 294.8 293.4 293.2 294.2 291.6C294.4 291.1 295.1 291.4 294.9 291.9C293.2 295.4 290.7 298.4 287.4 300.5C286.7 301 286.2 300.4 287.1 299.8ZM293.5 288.3C293.9 288.2 294.3 288 294.7 287.7C294.8 288.1 294.6 288.6 294.3 288.9C294 289 293.7 289.1 293.4 289.2C293.5 289 293.5 288.6 293.5 288.3ZM293.2 287.5C292.3 287.9 291.2 287.8 290.3 287.3C290.6 286.6 290.5 285.8 290.1 285.1C290.1 285.1 290.2 285.1 290.2 285C290.4 284.7 290.7 284.4 291 284.2C291.2 284.4 291.3 284.3 291.7 284.5C291.4 284.7 291.1 285 290.8 285.3C290.6 285.5 290.6 285.8 290.8 286C290.9 286.1 291 286.1 291.1 286.1C291.5 286.1 291.4 285.7 292.4 285.2C292.6 285.4 292.7 285.7 292.8 286C292.9 286.3 293.2 286.4 293.4 286.3C293.6 286.2 293.8 285.9 293.7 285.7C293.6 285.4 293.5 285.1 293.3 284.8C293.7 284.7 294.1 284.7 294.5 284.7C294.8 284.7 295 284.5 295 284.3C295.3 284.6 295.4 284.9 295.4 285.2C295.5 286.2 294.3 287.2 293.2 287.5ZM292.2 283.7C292.8 283.6 293.5 283.6 294.1 283.7C293.6 283.7 293.1 283.8 292.7 284C292.5 283.9 292.4 283.8 292.2 283.7ZM296.3 285.3C296.3 283.2 293.4 282.4 291.4 283.2C291.5 282.7 291.4 282.1 291.1 281.7C290.6 281 289.8 280.5 288.9 280.4C287.1 279.9 285.2 280.3 283.8 281.4C282.9 281.1 282 280.9 281 280.9C281 280.9 280.9 280.8 280.8 280.8C277.9 279.9 275.3 280.9 272.2 281.3C271.7 281.4 266.2 278.2 262.6 282.5C261.6 283.7 261.3 285.3 261.8 286.8C259.1 285.2 257.8 283 260.1 280.8C260.5 280.4 261 280 261.6 279.7C262.7 279.1 264.1 278.5 265.6 278.1C271.1 276.6 279.2 276.3 286.2 277.6C288.6 278 290.8 278.7 292.8 279.5C294.1 280 295.3 280.6 296.4 281.4C298 282.7 298.7 283.7 298.6 284.8C298.5 285.8 298 286.6 297.2 287.2C297.2 286.5 296.8 285.8 296.3 285.3ZM224.7 285.5L223.7 289L222.3 293.2L219.5 291.6C220 289.6 220.6 287.6 221.4 285.6C221.5 285.3 221.6 285.1 221.7 284.8C222 284.1 222.3 283.5 222.6 282.8C223.1 281.7 224.5 281.8 225.6 282.1C225.4 282.8 225.2 283.5 225 284.2L224.9 284.5L224.7 285.5ZM226 301C226.6 301.2 227 301.5 227.6 301.7C228.4 302.2 228.8 301.5 229 301.5C229.1 301.7 229.8 303.6 230.2 305.5C229.3 305.7 228.3 305.6 227.4 305.3C227.2 305.1 226 301.2 226 301ZM226.9 305C225.4 303.9 225.4 302 224.9 300.5L225.8 300.9C226 302 226.9 305 226.9 305ZM228.1 301.7C228 301.6 215.5 296.6 213.9 295.6L216.8 293.7H216.9C216.9 293.7 218.6 294.9 230 300.4C228.4 301.6 228.5 301.6 228.1 301.7ZM219.5 301.7L217 301C216.8 300.7 216.6 300.5 216.4 300.1C216.5 299.9 217.1 298.2 217.2 298L217.4 297.5L217.5 297.6C218.5 298.1 219.6 298.5 220.6 298.9C220.1 299.8 219.7 300.7 219.5 301.7ZM219.7 302C219.7 302.2 219.4 303.1 219.4 303.2C218.7 302.7 218.1 302.2 217.5 301.7C219.1 302 219.4 302.3 219.7 302ZM214.1 285.4C214.3 284.9 214.6 284.3 214.9 283.8C215.6 284.3 216.1 284.8 216.4 285.2C216.6 285.5 216.8 285.7 216.9 286C217.4 286.8 217.7 287.6 218.4 288.8C218.3 289.1 218.2 289.5 218.1 289.9C217.2 288.3 215.4 288 213.5 287.9C213.6 287.3 213.7 286.8 213.8 286.2C213.9 286 214 285.7 214.1 285.4ZM220 285C220.2 284.3 220.4 284 220.9 283.7L222.2 282.8C221.9 283.5 221.6 284.2 221.3 284.9C221.2 285.2 221.1 285.4 221 285.7C220.3 287.6 219.7 289.5 219.2 291.5L218 290.8L218.6 289C219.2 287.5 219.5 286.5 219.7 285.8C219.9 285.5 220 285.2 220 285ZM218.5 288.4C218.4 287.9 218.2 287.4 218 287L219.1 286.4C218.9 287.1 218.7 287.7 218.5 288.4ZM219.2 285.9L217.9 286.6C217.8 286.4 217.7 286.2 217.6 285.9C218.1 285.9 218.6 285.9 219.2 285.9ZM216.4 290.7C216.4 290.8 216.7 292.9 216.8 293.4L214 295.3L213.6 292.8C215.2 291.6 214.8 291.9 216.4 290.7ZM213.5 292.3C213.3 292.2 213 292.1 212.8 292.1C213.4 291.6 213.6 291.5 213.6 291.4C214.4 291.5 213.9 291.4 214.6 291.4C214.2 291.7 213.9 292 213.5 292.3ZM214.9 291.2C214.4 291.1 213.8 291.1 213.5 291C213.3 290.1 213.3 289.2 213.3 288.3C215.2 288.4 216.7 288.6 217.9 290L217.7 290.6C216.3 289.8 216.9 289.7 214.9 291.2ZM212.5 292.4H213.4C213.2 292.6 213.2 292.8 213.3 293C213.7 295.9 213 295.4 215.7 296.8L215.6 296.9L215.5 297.3L214.9 298.9C211.6 299 210.1 294.9 212.5 292.4ZM215.1 299C215.2 298.9 215.8 297.5 215.9 297C216.2 297.2 216.6 297.3 216.9 297.5V297.6L216.8 298C216.8 298.1 216.3 299.7 216.2 299.8C215.6 298.9 215 299.1 215.1 299ZM217.1 293.4C217.1 292.5 216.9 291.7 216.7 290.8C232.6 299.4 228.8 296.7 230.2 300C229 299.3 217.5 293.4 217.1 293.4ZM222.5 293.5L222.9 292.5C223 293 223.1 293.6 223.4 294.1L222.5 293.5ZM225.2 295L225 293.6C224.5 289.6 224.1 290.8 226.7 288.3C226.9 291 227.3 293.8 227.9 296.4C227 295.9 225.2 295 225.2 295ZM224.9 294.8L223.6 294.1C223.3 292.6 223.4 293.7 223.1 291.4L223.8 289C224.3 288.6 224.1 288.6 225.8 288.2C223.6 290.5 224.1 289.9 224.9 294.8ZM226 282C225.9 281.9 225.9 281.8 225.8 281.8C225.7 281.7 225.6 281.7 225.5 281.7C224.2 281.5 223.8 280.9 221.4 282.8C220.2 283.6 219.9 283.4 219.4 285C218.6 285 217.8 285.1 217 285.1C216.7 284.7 216.4 284.3 216.1 284C216 283.9 215.1 283 214.7 283.1L212.5 284.1L209.1 285.3C208.9 285.5 208.7 285.6 208.5 285.8C208.3 285.8 208.1 285.8 207.9 285.9C207.1 286 206.2 286.1 205.4 286.1C205.1 286.1 204.7 286.2 204.4 286.2C204.3 286.2 204.3 286.2 204.2 286.2C201.4 286.4 192.5 287.5 191.6 287.6H191.5H191.4C190.4 287.7 189.4 287.9 188.5 288C188.3 287.6 187.8 287.5 187.5 287.3L186.1 286.9H185.7C182.4 286.5 179.1 286.6 175.8 287.2C175.9 286 175.9 284.7 175.8 283.5C175.6 281.3 171.1 262.6 169.9 257.1C170.3 257.1 170.7 257.1 171.1 257.1C171.9 259.5 173 263.3 173.2 264C187.9 265.5 194.1 262.9 206 257.4C206.2 257.3 206.4 257.2 206.6 257.1C223.6 257.2 241.6 257.2 243.3 257.2C243.3 266 243.6 275.1 243.3 283.9C237.3 284.1 231.2 284.4 225.1 284.6C225.6 283.9 225.8 283 226 282ZM188.1 309.3C188.1 310.8 182.8 311.3 181.4 311.5C180 311.6 174.7 311.9 174.4 310.6C174.3 309.9 174.1 309 174 308.6H174.3C176.4 308.6 179.3 307.8 179.4 307.1C179.5 306.4 178.7 306 177.8 306C177.1 306 176.4 305.8 175.8 305.7C176.8 305.5 181.1 304.8 181.6 304.1C181.8 303.9 181.9 303.5 181.8 303.2C181.5 302.6 180.7 302.6 179.4 302.6L177.7 302.5C179 302.4 180.2 302 181.2 301.3C181.4 301 181.8 300 180.1 299.8C179.4 299.7 177 299.7 176.3 299.6C175.6 299.5 173.5 299.1 173.9 298.3C174.4 297.4 176.1 295.9 176 294.8C176 294.7 175.9 294.5 175.9 294.4C175.7 294.1 175.3 294 174.7 294.3C174.1 294.6 172.1 295.2 171.6 295.6L171.1 293.2L170.9 291.9L170.7 290.9C170.8 291 171 291.1 171.2 291.2C171.3 291.2 171.3 291.3 171.4 291.3C171.5 291.3 171.6 291.4 171.7 291.4C171.8 291.4 172 291.5 172.1 291.5C172.2 291.5 172.3 291.5 172.4 291.6C172.6 291.6 172.9 291.7 173.2 291.7C173.6 291.7 174 291.8 174.5 291.8C174.8 291.8 175 291.8 175.3 291.8C175.7 291.8 176.2 291.8 176.7 291.8C181.1 291.7 186.5 290.8 187.9 289.6C187.9 289.6 187.9 289.6 188 289.6C188 290.1 188.2 307.3 188.1 309.3ZM166.8 301.3C166.9 300.9 166.7 299.7 167.9 298.4C168.8 297.7 169.7 297.1 170.7 296.5C171.9 295.7 174.5 294.7 174.8 294.4C175.4 294.1 176.1 294.3 175.2 295.8C175 296 174.8 296.3 174.6 296.5C174.3 297 173.9 297.4 173.7 297.9C173.5 298.4 173.5 298.7 174.4 299.2C175.8 300 177.9 299.8 180.1 300C181.3 300.1 181.6 300.9 179.3 301.6C178.1 301.9 176.8 302.2 175.6 302.3C175.5 302.3 175.5 302.4 175.5 302.5C175.5 302.6 175.6 302.6 175.6 302.6C176.9 302.5 178.2 302.5 179.4 302.7C180.7 302.8 181.3 302.8 181.5 303.2C181.7 303.6 181.4 303.9 180.8 304.1C179 304.7 177.1 305.1 175.3 305.3C175.2 305.4 175.2 305.4 175.3 305.5C175.3 305.9 177.5 306.1 177.9 306.1C180.4 306.3 178.7 307.4 175.8 307.8C173.7 308.1 169.9 308.1 168.4 307.7C168.2 305.7 167.7 303.4 166.8 301.3ZM121 297.1C120.4 297.1 119.8 297 119.2 296.8C118.6 296.6 118.1 296.2 117.7 295.8C117.3 295.3 117.1 294.7 117.1 294.1C117.1 293.1 118.1 274.8 118.5 270.2C118.9 270.1 119.3 270.1 119.7 270.2C119.5 275.2 118.9 289.2 118.8 291.4C118.8 293.1 118.4 295 120.2 295.8C122 296.6 147.5 297.5 156 298.5L156.1 298.4C156.5 298.4 156.5 299.3 156.1 299.3C151 298.7 123.1 297.1 121 297.1ZM169.8 255.8C169.9 255.7 170.6 255.2 170.6 255.3C170.7 255.5 170.9 255.9 171.1 256.5C170.7 256.5 170.3 256.5 170 256.5C169.8 256.1 169.8 255.9 169.8 255.8ZM187.8 288.3C187.8 288.8 186.8 289.3 185 289.7H184.9C184.2 289.9 183.3 290 182.4 290.2C181.6 290.3 180.8 290.4 179.9 290.5C178.3 290.6 176.8 290.7 175.6 290.7C175.4 290.7 175.1 290.7 174.9 290.7C173 290.6 171.7 290.3 171.7 289.9C171.7 289.4 173.4 288.7 175.9 288.3C177 288.1 178.3 287.9 179.6 287.8C183.8 287.3 187.3 287.6 187.8 288.3ZM208.6 256.3C212.7 254.3 217.3 251.6 220.9 248.4C234.2 248.3 242.9 248.2 243.7 248.2V256.2C231.4 256.2 219.7 256.3 208.6 256.3ZM95.7997 194.3C95.7997 192.2 95.8997 190.2 96.1997 188.1C96.1997 187.8 96.2997 187.5 96.2997 187.2C96.7997 183.8 97.6997 180.5 98.8997 177.4C101.1 172.5 104.7 168.3 109.3 165.4C113.8 162.5 119.2 160.9 124.6 160.9C126.5 161.1 128.3 161.6 130.1 162.4C130.4 162.5 130.6 162.6 130.9 162.8C131.5 163.1 132 163.4 132.5 163.7C134.9 165.2 136.9 167.3 138.5 169.7C140.2 172.9 141.1 176.4 141 180C138 174.5 132.9 167.3 124.7 167.3H124.3L124.2 167.6V167.7C124.6 173.8 123 180 119.8 185.2C118.4 187.4 114.2 193.6 113.9 194.6C112.7 198.4 111 196.6 111 196.6C110.6 196.3 108.4 192.5 105.8 194.5C103.2 196.5 104.9 200.5 106.4 202.6C109.3 206.7 111.3 205.3 112.3 208.1C113 209.9 114.3 216.2 115.2 220C113.9 220.5 112.9 221.5 112.3 222.7C111.7 223.9 111.5 225.3 111.8 226.6C111.9 227.2 112.1 227.8 112.3 228.4C110.3 228.9 108.3 229.5 106.3 230.2C106.3 230.1 106.3 230.1 106.2 230C106.1 230 106.1 229.9 106 229.9C103 230 98.6997 230.8 95.8997 229.1H95.9997C93.4997 228 95.4997 200.1 95.7997 194.3ZM87.2997 193.8C85.5997 191.9 84.6997 189.3 84.5997 186.6H84.6997C84.6997 181.8 87.0997 177.5 89.6997 173.6C96.3997 163.4 98.9997 166.6 106.5 156.9C110.7 151.5 118.8 145.6 126.2 145.6C124.3 145.9 122.4 146.8 120.8 148C119.2 149.2 118 150.8 117.1 152.6C117.1 152.7 117.1 152.7 117.1 152.8C117.1 152.9 117.2 153 117.2 153C117.3 153 117.3 153.1 117.4 153C117.5 153 117.5 153 117.6 152.9C120.5 148.1 124.4 146.5 129.6 146.2C134.7 147.7 137.8 151.5 138.7 156C138.8 156.3 138.8 156.6 138.9 156.9C139.3 160.1 138.7 163.5 136.8 166.5C135.6 165.3 134.3 164.2 132.9 163.2C132.4 162.9 132 162.6 131.5 162.3C131.2 162.1 131 162 130.7 161.9C123.8 158.5 115.2 160.8 108.8 164.7C105.1 167.1 102 170.3 99.6997 174C97.3997 177.7 95.8997 181.9 95.3997 186.2C95.2997 186.8 95.2997 187.4 95.1997 188C95.1997 188.3 95.0997 188.6 95.0997 188.8C94.7997 191.3 94.6997 193.9 94.5997 196.5C91.7997 197 89.3997 196 87.6997 194.3C87.5997 194.1 87.3997 194 87.2997 193.8ZM101.7 161.2C100.7 160.3 94.5997 157.4 94.5997 156.8C93.9997 151.2 102 158.8 102.5 160.4L101.7 161.2ZM140.1 207.9C138.9 209.2 137.2 209.3 135.7 210.3C132.9 212.2 138.9 220.2 132.2 226.2C131 227.3 129.6 228 128.1 228.4C126.6 228.8 124.9 228.8 123.4 228.4C120.6 227.2 118.2 225.2 116.5 222.6C116.4 222.2 116.2 221.4 116 220.4C116 220.4 116 220.3 116.1 220.3V220.2V220.1C116.1 220.1 116.1 220 116 220C114.8 215.1 112.8 206 112.6 206C110.9 205.7 109.4 204.9 108.1 203.7C106.9 202.5 106 201 105.6 199.4C104.7 192.6 109.1 194.7 111.1 197.2C111.6 197.8 113.9 197.6 113.9 197.3C115.7 191.6 120.1 187.4 122.5 182.1C124.6 177.6 125.5 172.5 124.8 167.5C142.6 171.8 149.4 197.3 140.1 207.9ZM155.1 216.9C156.2 217.8 154.9 219.1 153.6 220.2C151.2 219.7 149.2 219.4 147.4 219.1C146.3 217.3 144.5 215.9 142.4 215.3C140.4 214.7 138.1 214.8 136.2 215.7C134.9 208 141.4 211.3 144.2 202.3C147.3 207.6 151 212.4 155.1 216.9ZM115.3 220.7C115.7 222.4 115.7 222.7 115.9 222.9C119.9 231.7 138.4 233.3 144.4 229.5C144.4 229.5 144.4 229.5 144.4 229.4V229.3L144.3 229.2H144.2C139.4 231.4 131.8 230.7 127 229.6C128.5 229.4 129.9 228.8 131.2 228C132.4 227.2 133.6 226.1 134.4 224.9C135.2 223.6 135.9 222.3 136.1 220.8C136.4 219.3 136.4 217.8 136.1 216.3C137.5 215.9 139 215.9 140.4 216.1C141.8 216.3 143.2 216.9 144.4 217.7C145.6 218.5 146.6 219.6 147.3 220.8C148.1 222 148.5 223.4 148.7 224.9C149.3 227.9 148.8 231 147.4 233.7C146 236.4 143.7 238.5 140.9 239.8C134.8 242.7 127.8 240.4 122.4 237.1C119.5 235.6 116.9 233.6 114.7 231.2C112.1 228.2 111.1 223 115.3 220.7ZM243.6 247.4C243.2 247.4 234.9 247.5 221.8 247.6C223.5 246 224.9 244.3 225.8 242.5C226.6 241 227.2 239.3 227.6 237.6C228.8 237.6 229.9 237.3 231 236.7C232 236.1 232.9 235.3 233.4 234.3C233.7 233.6 233.8 232.8 233.6 232.1C233.7 232.1 233.8 232.2 233.9 232.2C234.3 232.3 234.8 232.3 235.3 232.1C235.9 233.6 236.9 234.8 238.2 235.8C239.4 236.8 240.9 237.5 242.5 237.8C242.8 237.9 243.2 238 243.6 238.1C243.6 241.1 243.6 244.3 243.6 247.4ZM234.1 220.1C235 219.6 236 219.1 237 218.7C237.3 218.6 237.6 218.5 237.9 218.4C239.8 217.8 241.2 219.1 243 219.4C243.1 219.4 243.3 219.5 243.4 219.5C244.4 219.7 245.2 219.9 245.9 220C246.4 220.2 246.8 220.3 247.1 220.4C247.1 220.8 247.3 221.3 247.5 221.5C246.8 222 245.1 222.2 243.5 222.2C243.1 222.2 242.7 222.2 242.3 222.1C241.6 222 241 221.8 240.6 221.5C240.3 221.2 239.2 221.9 241.3 222.7L241.6 222.5L241.3 222.7L238.1 224.8C236.9 225.9 235.9 227.1 235.4 228.5L235.2 230C235.2 230.3 235.2 230.7 235.2 231H233.4C232 228 231.2 224.8 231.2 221.5C232.2 221.4 233.2 220.9 234.1 220.1ZM251.8 221.8C251.9 221.9 252.1 221.9 252.2 222C252.2 222 252.3 222 252.3 222.1C253 222.4 253.6 222.6 254.1 222.6C254.7 222.6 255.3 222.4 255.9 222C256.7 221.5 257.7 220.8 259.3 220.3C259.5 220.2 259.7 220.2 259.9 220.1C260.6 219.9 261.5 219.5 262.3 219.6C262.6 219.7 263 219.7 263.3 219.7C263.6 219.7 264 219.7 264.3 219.6C264.7 219.5 265 219.3 265.2 219C265.3 218.8 265.4 218.6 265.7 218.6C266.4 218.5 267.1 219.3 267.8 218.2C268.5 217 270 217.5 271 216.7C271.4 217.1 271.6 217.3 271.6 217.8C271.6 218.2 271.6 218.6 271.4 218.9C271.3 219.1 271.1 219.3 270.9 219.5C270.6 219.8 270.3 220 269.9 220.2C269.7 220.3 269.6 220.4 269.4 220.5C267 221.8 266.1 222.2 264.7 222.6C261.6 223.5 261.8 223.6 259.4 224C257.2 224.3 255.1 224.6 252.9 224.3C252.3 224.2 251.7 224.1 251.1 223.9C250.6 223.8 250.2 223.6 249.8 223.4C249.5 223.2 249.2 223 248.9 222.7C248.7 222.5 248.4 222 248.5 221.9H248.6C248.8 221.8 249.7 220.7 250 220.9C250.6 221.2 251.2 221.5 251.8 221.8ZM250.2 220.7C251 220.1 252 219.8 253 219.8C253.8 219.8 254.7 219.7 255.5 219.6C258 219.1 258.5 218.8 261.8 219.5C260.5 219.6 259.3 220 258.3 220.5C256.8 221.2 255.7 222.1 254.8 222.3C254.2 222.4 253.7 222.4 253.1 222.2C252.9 222.1 252.6 222 252.4 221.9C251.6 221.6 250.9 221.2 250.2 220.7ZM273.9 220.7C275.8 221.2 279.4 222.1 279.3 224.1C279.2 226.1 279.7 229.6 267.5 232.2C267.4 232.2 267.4 232.2 267.3 232.2C267 232.3 266.7 232.3 266.4 232.4C262.8 233.1 259.2 233.5 256.5 233.4C255.6 233.4 254 233.3 252.4 233C248.5 232.4 244.3 230.7 247.2 226.8C247.8 226 248.6 225.3 249.5 224.6C249.6 224.7 249.7 224.8 249.8 224.9C249.9 225.1 249.7 225.2 249.6 225.3C249.4 225.7 249.2 226.1 249.2 226.5C249.2 226.6 249.2 226.7 249.2 226.7C249.3 227.4 249.6 228 250 228.6C251.8 230.8 254.4 231 255.9 231.2C265.5 232 270.7 228.1 272.4 225.1C272.4 225.1 272.4 225 272.5 225C272.6 224.7 272.8 224.5 272.8 224.2C272.8 224.1 272.9 224 272.9 223.8C273 223.6 273 223.4 273 223.2C273 223 273 222.9 273 222.8C273 222.5 272.7 221.5 272.5 221.3C272.3 221.1 272.1 220.9 271.9 220.7C271.8 220.6 271.7 220.6 271.6 220.5C271.7 220.4 271.8 220.2 271.8 220.1C272.6 220.5 273.3 220.6 273.9 220.7ZM271.6 221.3C271.5 221.1 271.5 221.1 271.6 220.9C271.7 220.9 271.8 221 271.8 221.1C272.1 221.3 272.3 221.6 272.5 221.9C272.5 221.9 272.5 221.9 272.7 222.2C272.8 222.4 272.8 222.5 272.8 222.6C272.8 222.7 272.8 222.8 272.8 222.8C272.9 223.2 272.9 223.6 272.8 223.9C272.6 224.9 272 225.8 271.4 226.5C268.7 229.5 264.6 230.8 260.6 231.2C258.4 231.4 256 231.5 253.8 230.9C251.9 230.4 249.7 229.1 249.3 227.1C249.2 226.5 249.4 225.8 249.8 225.3C250 227.6 254.2 228.1 256.4 228.1C258.8 228 261.1 227.7 263.4 227.3C265.7 226.8 267.9 226.1 269.8 224.8C271 224.1 272.3 222.8 271.6 221.3ZM231.5 230C234.8 235.7 228.8 236.2 227.7 236.5C227.6 235.9 227.5 235.3 227.3 234.6C230.5 234 231.4 231 230.5 231.5C229.6 232 227.4 233.3 226.9 233.4C226.7 232.6 226.4 231.7 226 230.9C227.4 230.6 228.7 229.7 229.5 228.5V228.4L229.4 228.3H229.3H229.2C228 229 226.8 229.5 225.4 229.9C224.9 228.9 224.4 228 223.7 227.1C225 225.9 226.6 225.2 228 224.1C228.2 224.1 228 223.8 227.9 223.8C226.1 224.1 224.5 224.8 223.1 226C222.6 225.4 222.2 224.9 221.8 224.5C223.5 223.4 225.4 222.5 227.3 221.9V221.8C229.3 221.3 229.5 221.2 229.8 222.9C230.1 225.4 230.6 227.8 231.5 230ZM78.0997 284.9C77.0997 278.1 76.1997 270.8 75.4997 263.1L80.9997 261.1C78.7997 268.6 77.7997 276.8 78.0997 284.9ZM89.9997 340.1C89.9997 340.4 89.9997 340.7 89.9997 341.1V341.2C89.9997 341.6 89.9997 341.9 89.9997 342.1L83.7997 342.2C67.9997 312 65.6997 272.6 65.4997 270.4C67.1997 267 73.6997 263.9 74.8997 263.4C78.3997 300.6 85.7997 328.3 89.9997 340.1ZM90.2997 345.4C90.2997 345.5 90.2997 345.5 90.2997 345.6C90.2997 346 90.3997 346.4 90.4997 346.9V347V347.2V347.3V347.4L90.6997 348.4C90.6997 348.4 90.6997 348.4 90.6997 348.5C90.6997 348.6 90.7997 348.8 90.7997 348.9C90.0997 349.5 89.3997 350.1 88.6997 350.8L88.5997 350.7C86.9997 348.3 85.4997 345.7 84.0997 343.1L89.8997 343V343.1C90.0997 343.7 90.1997 344.5 90.2997 345.4ZM82.6997 342.2L79.8997 342.3C73.4997 331 64.6997 312.5 62.0997 292.4C61.2997 285.3 61.0997 278 64.5997 271.7C67.3997 308.4 76.4997 330.7 82.6997 342.2ZM83.1997 343.1C85.5997 347.5 87.4997 350.1 88.2997 351.3C87.6997 351.9 87.1997 352.6 86.7997 353.3C86.4997 352.8 83.8997 349.1 80.4997 343.1H83.1997ZM90.9997 342.9C90.9997 343 90.9997 343 91.0997 343.1C91.0997 343.8 91.1997 344.5 91.2997 345.2C91.1997 344.4 91.0997 343.7 90.9997 342.9ZM80.6997 300.1L80.9997 301.1C83.0997 308.5 87.0997 315.3 92.6997 320.5C92.4997 320.5 92.2997 320.6 92.1997 320.7C91.9997 320.9 91.7997 321.2 91.7997 321.5V322.4C91.3997 324.4 90.4997 334.4 90.0997 338.4C88.0997 332.7 84.1997 319.2 80.6997 300.1ZM160.4 316.4C161.7 315.6 162.9 314.7 164 313.8C166.2 314.9 168.7 315.9 171.5 316.8C165.6 319.2 159.1 320.8 152.4 321.6C155.1 320 157.8 318.3 160.4 316.4ZM391.2 208C393.3 209.4 399.6 214.5 401 215.3C397.3 217.1 393.4 218.6 389.4 219.8C389.3 219.8 389.3 219.9 389.2 219.9C389.2 219.9 389.1 220 389.1 220.1C389.1 220.2 389.1 220.3 389.1 220.3C389.1 220.4 389.2 220.4 389.2 220.5C392 222.9 395 225 398.1 227C384.4 231.3 367 242.7 365.1 244C365.5 243.3 384.5 214 391.2 208ZM371.9 232.4L368.2 224.7C368.2 224.7 366.4 221.1 365.6 219.3L369.2 216.6L372.2 214.5L375.9 217.9C375.9 217.9 378.9 221.5 379.2 221.7C378.4 222.9 376.7 225.4 376.7 225.4L371.9 232.4ZM388.7 209.3C385.5 213.1 382.4 217.1 379.5 221.2C379 220.6 374 215.2 372.9 214.1C373.7 213.8 384 207.4 385.1 206.8C386.2 207.6 388.6 209.3 388.7 209.3ZM356.8 199.9C351.4 194.4 355.7 176 357.5 168.6C359.1 165.3 362.6 165.4 365.1 167.5C369.3 171 378.1 167.3 381.9 169.2C383.1 169.8 383.7 171.2 383.3 172.5C382.5 174.6 382.2 176.9 382.2 179.1C382.3 180.6 382.1 182.2 381.5 183.6C380.4 187.3 383.2 187.6 383.9 186.1C384.7 185.1 386.1 184.6 387.4 184.9C389.3 185.3 390.6 187.2 390.2 189.2C389.9 191.9 387.9 194 385.8 194.2C385 194.3 384.2 194.1 383.5 193.5C383.4 193.4 383.2 193.4 383.1 193.5C383 193.6 383 193.8 383.1 193.9C384 194.8 385.4 195.2 386.7 194.9C386 195.8 383.4 202 383.2 207.7C379.9 209.7 373.9 213.2 372.5 213.8C372.5 213.8 369.6 211 367.9 209.4L367.8 209.3C367.7 209.2 367.6 209.1 367.5 209L366.6 207.9C366.5 207.8 366.4 207.7 366.3 207.6C366.7 206.3 367 204.9 367.4 203.6C367.6 202 360.7 204 356.8 199.9ZM364.9 207.5C366.8 209.7 368.8 211.9 371 213.8C369.1 215.3 367.2 216.9 365.2 218.4C364.4 216.8 363.6 215.1 362.7 213.4C362.9 213 364.4 208.4 364.9 207.5ZM363.4 209C362.9 210.6 362.4 212.1 362.1 213.8C362.9 215.6 370.8 231.8 371.6 233C371.6 233.1 369.9 235.5 369.1 236.7C369.1 236.7 361.2 232.1 357.4 230.1C358.7 228.1 359.9 225.9 361 223.8C361.1 223.7 361.1 223.6 361.1 223.5C361.1 223.4 361.1 223.3 361 223.2C357.5 221.5 354 219.9 350.2 218.4C352.5 216.6 362.6 209.6 363.4 209ZM350.6 219.4C350.6 219.4 357.1 222.1 360.1 223.6C357.3 229.4 355.9 230 356.6 230.5C360.5 232.7 368.5 237.1 368.8 237.1C350.2 257.9 356 278 355.3 280.6C354.7 280.6 353.2 280.4 353 280.6C352.6 282 352.4 283.4 352.4 284.8C352.4 284.8 344 281.7 343 283.3C342.6 284 343 284.6 343.6 285.1C343.1 285.1 342.6 285.1 342.1 285C342 283.6 341.9 282.1 341.8 280.2C344 273.8 352.8 266.4 350.2 254.2C349.7 251.9 348.5 249.9 346.9 248.2C345.3 246.5 343.2 245.4 340.9 244.9C335.3 244.1 330.8 249.3 330.1 254.7C329.4 259.8 331.1 266 333.4 271.7C333.4 271.9 333.3 272.1 333.3 272.2C330.6 275.5 326.7 277.7 322.4 278.2C317.9 278.5 302.2 284.2 280.3 242.6L279.3 240.6C278.6 238.7 279 238.8 279 238.8L279.3 238.5C279.5 238.4 280.2 237.9 280.3 237.8C280.3 237.8 280.3 237.7 280.4 237.7C280.5 237.5 280.7 237.4 280.9 237.2C283.1 234.7 287.8 230.9 292.6 229.3C293 229.2 293.4 229.1 293.7 228.9C294.8 228.6 295.9 228.4 297.1 228.4C301.4 233.8 305 237.2 310.6 239.1C307.6 237.7 303.6 234.6 297.5 227.5C297 226.9 294.9 227.7 294 228C294 228 294 228 293.9 228C293.8 228 293.8 228.1 293.7 228.1H293.6C293.6 228.1 293.6 228.1 293.6 228C293.3 228.1 293 228.1 292.7 228.2C292.1 228.4 291.5 228.6 290.9 228.9L291.1 228.8L289.1 227.5L288.3 228.4L289.8 229.4H289.9C287.2 230.7 284.8 232.4 284.8 232.4C283.5 233.5 281.4 235.1 280.4 236.3C280.4 236.3 277.9 238.2 277.7 238.6C277.6 239 278.2 240.3 278.8 241.7C278.8 241.8 278.9 241.9 278.9 242C278.9 242.1 278.9 242.1 279 242.2C279 242.2 279 242.3 279.1 242.3C280.2 244.7 279.9 244.9 281.2 247.2H252.6C252.6 244.4 252.6 241.6 252.6 238.8C259.1 239 266 238.2 272 236.8C272.2 236.8 272.4 236.7 272.6 236.7C273.8 236.4 276.8 235.3 280 233.8L279.8 234L281.3 235.3L281.9 234.7L280.5 233.5C284.9 231.3 289.5 228.3 290.4 225.1C292.1 219.5 283.2 215.8 277.4 215L276.7 214.9L275.8 214.7H275.7C274.4 214.5 273.1 214.3 271.7 214.2C271.5 213.7 271 213.1 270.5 213.2C271.2 212.3 271.3 211.2 270.6 210.2C270 209.3 268.9 208.9 268 208.5C266.2 207.9 264.4 207.5 262.5 207.3C262.4 207.3 262.3 207.3 262.3 207.3C262.2 207.3 262.1 207.3 262 207.3C258.5 206.9 255.8 207.9 254.3 208.3C253.6 208.5 252.9 208.8 252.3 209.1C252.1 192.3 251.8 175.2 251.7 157.9C253.8 155.2 293.2 116 297.1 112.8C310.2 113.7 322.6 110.3 335.2 106.2C334.9 114.2 333.8 232.8 333.9 232.9C331.9 235 329.5 236.7 326.9 237.9C324.2 239.1 321.4 239.8 318.5 239.8C317.1 239.7 315.7 239.9 314.2 239.8C314.9 240 315.6 240.1 316.4 240.2C320.8 240.9 325.3 240 329.1 237.7C335.9 234.3 346.6 220.5 350.6 219.4ZM342.7 248.4C343.4 249.3 341.5 249.3 342.2 248.4C342.3 248.3 342.4 248.3 342.5 248.3C342.5 248.3 342.6 248.3 342.7 248.4ZM343.9 255.4C343.8 255.5 343.7 255.5 343.5 255.5C343.4 255.5 343.3 255.4 343.2 255.3C343.1 255.2 343.1 255.1 343.1 254.9C342.9 254.2 343.5 254.1 343.5 254.1C343.7 254.2 343.8 254.3 343.9 254.4C344 254.5 344.1 254.7 344.1 254.9C344.1 255.1 344 255.3 343.9 255.4ZM344.4 263.4C344.5 263.5 344.8 264.2 344.6 264.4C344.1 264.8 343.4 263.2 344.4 263.4ZM343.4 258.6C344.5 258.4 343.9 259.3 343.9 259.5C343.4 261 342.3 259.1 343.4 258.6ZM345.1 251.7C345 251.6 344.9 251.5 344.9 251.4C344.9 251.3 344.8 251.2 344.8 251C344.8 250.9 344.9 250.8 345 250.7C345.1 250.6 345.2 250.5 345.3 250.5C346.3 250.3 346 252.1 345.1 251.7ZM347.1 261.5C346.6 261.8 345.6 261.1 345.9 260.6C346.3 259.9 347.3 260.8 347.1 261.5ZM348.1 254.7C348.2 254.7 348.4 255 348.4 255C348.4 255.1 348.4 255.3 348.4 255.4C348.4 255.5 348.3 255.7 348.2 255.8C347.7 255.9 347.6 255.9 347.5 255.7C347.4 255.4 347.3 254.6 348.1 254.7ZM275.7 108.3C282.2 110.6 289 112.2 295.9 113C289.5 118.8 252.3 156.1 251.7 156.8V153.7C258 142.1 273.8 111.7 275.7 108.3ZM251.7 152.6C251.7 136.1 251.9 119.3 252.5 102.5C260.1 103.5 267.6 105.4 274.9 108.1C268.5 120.3 252.9 150.1 251.7 152.6ZM344.3 222.2C342.8 223.4 336.4 230.4 334.5 232.3C334.8 215.9 336.4 115.2 336.3 106.1L346.1 103C345.9 110.7 344.4 213.4 344.3 222.2ZM435 91C425.6 99.7 412.3 98.3 400.6 96.5C381.6 93.8 350 93.5 311.1 63.4C310.8 63.1 310.3 63.6 310.6 63.8C329.7 80 352.9 90.6 377.7 94.5C349.2 95.7 324.9 114.1 296.2 111.9C278 110.4 262.3 99.5 244 101.3C244.3 97.1 244.5 80 244.3 76.3C244.3 75.5 242.9 75.6 243 76.3C243 79.1 242.7 97.7 242.8 101.3C236.8 102 216.8 110.4 206.4 109.6C200.4 109.2 194.4 108.1 188.7 106.3C177.6 102.8 164.6 95.7 147.8 97.4C157.7 92.4 183.8 79.7 218.9 47.7C227 56.8 238 51.9 244.5 49.5C250.7 54.8 264.4 54.6 270.4 49.2C273.5 50.2 284.1 53.2 287.8 46C291.2 46 296.3 46.3 299.1 42.5C342.4 64.1 388 80.4 435 91ZM335.4 57.6H335.5H335.4C319.5 50.9 276.4 30.2 270.3 27.3C264.9 25.2 259.3 23.4 253.6 22.1C254.6 21.9 255.6 21.3 256.3 20.5C257 19.7 257.5 18.8 257.7 17.7C262.3 17.7 314.1 17.9 335.4 18.4C335.1 20.6 335.4 54.5 335.4 57.6ZM30.5997 258.5C31.4997 242.8 31.0997 9.59997 31.1997 7.79997C50.7997 8.49997 342.7 8.29997 345 8.49997V61.6C342.1 60.4 339.1 59.1 336.2 58C336 47.5 336.4 17.3 335.7 17.3C309.7 16.8 283.5 16.7 257.5 16.7C256.2 12.3 248.2 9.49997 246 16.7L42.5997 16.8C42.3997 16.8 42.1997 232.7 41.7997 249.7C41.7997 249.8 60.1997 249.7 85.7997 249.5C84.5997 251.7 83.5997 254 82.6997 256.3C82.6997 256.3 82.5997 256.4 82.5997 256.5C82.5997 256.4 81.2997 256.9 81.1997 256.8C81.0997 256.7 79.3997 257.1 79.1997 257.2C78.6997 257.3 78.0997 257.4 77.5997 257.5C46.3997 258 31.3997 258.5 30.5997 258.5ZM72.8997 334.5C66.2997 320.4 61.8997 305.3 59.9997 289.8C59.1997 283.1 54.4997 264.6 77.9997 258.4C79.2997 258.4 80.5997 258.4 81.8997 258.3C81.7997 258.6 81.6997 259 81.5997 259.4C81.4997 259.6 81.4997 259.8 81.3997 260C68.0997 264.5 64.6997 269.2 63.1997 272.3C57.5997 284 62.6997 301.6 66.6997 315.2C69.2997 324.3 74.4997 334.5 78.8997 342.2H76.7997C74.9997 338.9 73.5997 335.9 72.8997 334.5ZM85.3997 356.3C85.2997 356.3 85.2997 356.3 85.3997 356.3C83.0997 354.1 79.7997 348.3 77.1997 343.2H79.3997C82.5997 348.8 85.3997 353 86.2997 354.1C85.8997 354.8 85.5997 355.5 85.3997 356.3ZM84.8997 451.6C84.5997 452.2 83.7997 453.6 83.1997 452.6C82.8997 451.9 82.6997 451.1 82.7997 450.3H82.8997C83.0997 448.9 92.8997 378.5 93.9997 366.9C94.3997 367.1 99.2997 368.5 101.3 369C100.9 370.2 85.1997 451 84.8997 451.6ZM88.5997 362.7C87.9997 362.1 87.3997 361.4 86.9997 360.5C86.5997 359.7 86.3997 358.8 86.3997 357.8C86.7997 358.5 87.2997 359.1 87.8997 359.6C90.7997 361.9 101 364.4 101.3 364.4C101.8 364.8 102.2 365.1 102.7 365.5C103.4 366.1 104.2 366.7 104.8 367.2C104.8 367.2 104.9 367.2 104.9 367.3C105.8 367.8 106.8 368.4 108 369C106 368.7 92.3997 366.7 88.5997 362.7ZM100.1 363.2C100.8 363.8 101.4 364.4 102.1 365C101.4 364.4 100.7 363.8 100.1 363.2ZM101.6 431.9C101.3 432.6 100.5 437.3 99.0997 436C98.3997 435.4 98.8997 433.6 98.8997 432.8H98.9997C99.0997 430.9 109 371.7 109.2 370.1C110.6 370.4 110.8 370.3 111.1 370.4C111.1 370.4 111.1 370.4 111.2 370.4C111.8 370.7 112.4 370.9 113 371.2C113.1 371.2 113.1 371.2 113.2 371.3C113.8 371.5 114.4 371.9 115.4 372.3C115 373.9 103.7 424.3 101.6 431.9ZM155 409.8C154.1 406.4 149.4 389.3 147.6 382.8C149.3 383.2 151 383.6 152.5 383.9C152.5 383.9 152.5 383.9 152.6 383.9C152.9 384 153.2 384 153.6 384.1C154.1 386.4 157.1 399 158.2 403.7C157.4 405.5 156.3 407.5 155 409.8ZM158.8 402.5C157.5 396.8 154.8 385.8 154.5 384.4H154.7C154.9 384.4 155.1 384.5 155.3 384.5C155.4 384.5 155.4 384.5 155.5 384.5H155.6L158.4 385.1H158.5L159 385.2C160 385.4 162.9 385.8 164 387.3C164.3 387.8 164.5 388.3 164.3 389C164.3 389.1 164.3 389.1 164.3 389.2C163 393.1 161.4 396.8 159.5 400.4C159.4 400.5 159.4 400.6 159.4 400.7C159.3 401.3 159.1 401.9 158.8 402.5ZM128.7 377.6C131 378.4 133.5 379.1 135.9 379.8C136.4 382.1 144.5 417.3 146.2 424.6C145.5 425.7 144.8 426.9 144.2 427.9C144.1 428.1 144 428.3 143.9 428.4L143.7 428.7L143.6 428.9C143.6 428.9 143.6 429 143.5 429L143.4 429.1C143.3 429.3 143.2 429.5 143 429.7C141.4 423.4 130.3 383 128.7 377.6ZM128.4 455.1C128.3 455.2 128.2 455.3 128.1 455.3C128.2 455.3 128.3 455.2 128.4 455.1ZM128.1 455.4C128 455.5 128 455.5 128.1 455.4C128 455.5 128 455.5 128.1 455.4ZM128.7 455C128.7 455 128.6 455 128.7 455C128.6 455 128.7 455 128.7 455ZM128.9 455.1C128.9 455.1 128.8 455.1 128.9 455.1C128.8 455.1 128.9 455.1 128.9 455.1ZM140 457.8C140 457.8 140 457.7 140 457.8C140 457.7 140 457.7 140 457.8C140.2 458.3 140.4 458.9 140.5 459.6C140.5 459.7 140.6 459.9 140.6 460C140.4 459.2 140.2 458.4 140 457.8ZM139.6 457.3C139.6 457.4 139.6 457.4 139.6 457.3C139.7 457.4 139.7 457.4 139.7 457.4C139.6 457.4 139.6 457.4 139.6 457.3ZM136.9 454.8C136.6 454.6 136.4 454.3 136.2 454.1C136.4 454.3 136.7 454.5 136.9 454.8C137.7 455.6 138.3 456.1 138.8 456.6C138.4 456.1 137.8 455.5 136.9 454.8ZM134.3 452C134.3 452 134.3 452.1 134.3 452C134.6 452.3 134.9 452.6 135.2 453C134.9 452.7 134.6 452.3 134.3 452ZM133.7 451.3C133.8 451.5 134 451.7 134.2 451.9C134 451.6 133.8 451.4 133.7 451.3ZM126.7 453.1C126.4 453.3 126.2 453.6 125.9 453.8C126.2 453.5 126.5 453.3 126.7 453.1ZM127.4 452.5L127.3 452.6C127.3 452.6 127.4 452.5 127.4 452.5ZM140.8 474.7C140.8 474.8 140.8 474.8 140.8 474.7C140.8 474.8 140.8 474.8 140.8 474.7C141 474.5 141.1 474.3 141.2 474.1C141.1 474.2 141.1 474.3 141 474.4C141 474.5 140.9 474.6 140.8 474.7ZM141.3 474C141.4 473.8 141.5 473.5 141.6 473.3C141.6 473.3 141.6 473.4 141.5 473.4C141.5 473.7 141.4 473.9 141.3 474ZM141.8 472.8C141.8 472.9 141.7 473 141.7 473C141.8 472.8 141.8 472.6 141.9 472.3C141.9 472.3 141.9 472.3 141.9 472.4C141.9 472.6 141.9 472.7 141.8 472.8ZM142 472.1V472.2C142.1 471.9 142.1 471.7 142.1 471.4C142.1 471.4 142.1 471.4 142.1 471.5C142.1 471.7 142.1 471.9 142 472.1ZM142.2 471C142.2 470.9 142.2 470.9 142.2 470.8C142.2 470.9 142.2 471 142.2 471ZM142.2 468.9C142.2 468.6 142.2 468.4 142.2 468.1C142.2 468.3 142.2 468.6 142.2 468.9ZM142.1 467.4C142.1 467.3 142.1 467.1 142.1 467C142.1 467.1 142.1 467.1 142.1 467.2C142.1 467.3 142.1 467.3 142.1 467.4ZM142 466.4C142 466.2 142 466.1 141.9 465.9C141.9 466 141.9 466.1 142 466.2C142 466.3 142 466.4 142 466.4ZM146.2 452.3C145.1 453.2 143.3 454.7 140.5 457C137.3 454.6 134.6 451.5 132.6 448.1C132.5 447.9 135.4 445.5 137.6 443.5C137.6 443.5 137.6 443.5 137.7 443.4L138.4 444L138.6 444.2L138.7 444.3C140.6 446.2 143.3 449 145.1 451C145.2 451.1 145.4 451.2 145.5 451.3L146.3 452.2C146.2 452.2 146.2 452.2 146.2 452.3ZM156.2 464.4C156.2 465 156.1 466.3 155.8 466.6C155.5 466.9 154.3 466.6 153.9 465.4H154C153.8 464.7 151.5 457.6 150.6 454.7L152.5 453.1L153.5 452.3C154.3 455.5 156.2 463.8 156.2 464.4ZM168.6 445.9C168.6 446.5 168.5 447.8 168.1 448.1C167.8 448.4 166.8 448.4 166.2 446.9C165.9 446.2 165 443.4 164.7 442.6L167.4 440.4C167.8 441.6 168.6 445.3 168.6 445.9ZM199.4 462.9C199.1 464.2 199.2 465.9 198.2 467.1C197.3 466.2 197.3 467.8 202.7 405.7L205.7 411.3L206.1 412C206.2 412.1 206.2 412.2 206.3 412.3V412.4C202.8 439 199.7 461.7 199.4 462.9ZM223.3 454.6C223 454.7 222.7 454.7 222.4 454.8C222.7 454.7 223 454.7 223.3 454.6C224.3 454.4 225 454.3 225.6 454.2C225.6 454.2 225.6 454.2 225.7 454.2C226 454.1 226.3 454.1 226.5 454.1C225.9 454.1 224.8 454.3 223.3 454.6ZM224.1 461.3C223.8 461.3 223.5 461.2 223.2 461.2C223.5 461.3 223.8 461.3 224.1 461.3ZM218.9 455.1C219.7 455.1 220.7 455 221.9 454.8C220.7 455 219.7 455.1 218.9 455.1ZM221.2 461.1C221 461.1 220.7 461.1 220.5 461.1C220.7 461.1 220.9 461.1 221.2 461.1ZM220.3 461.1C220.1 461.1 220 461.1 219.9 461.1C220 461.1 220.1 461.1 220.3 461.1ZM218.5 461.7C218.5 461.8 218.5 461.8 218.5 461.9C218.5 461.8 218.5 461.8 218.5 461.7ZM218.5 462.1C218.5 462.2 218.5 462.2 218.5 462.3C218.5 462.3 218.5 462.3 218.5 462.4C218.5 462.3 218.5 462.2 218.5 462.1ZM218.5 461.5C218.5 461.5 218.6 461.5 218.5 461.5C218.6 461.5 218.5 461.5 218.5 461.5ZM218.8 461.3C218.8 461.3 218.7 461.3 218.7 461.4C218.7 461.3 218.7 461.3 218.8 461.3ZM216.4 455.2C216.6 455.2 216.9 455.2 217.3 455.2C217.7 455.2 218.1 455.2 218.7 455.2C217.7 455.2 217 455.2 216.4 455.2ZM215.5 455.2C215.7 455.1 215.8 455.1 216 455.1H216.1C215.8 455.2 215.6 455.2 215.5 455.2ZM215.1 456.4C215.1 456.3 215.1 456.3 215.1 456.3C215.1 456.5 215.1 456.6 215.2 456.9C215.2 456.8 215.2 456.7 215.2 456.7C215.1 456.5 215.1 456.4 215.1 456.4ZM215.1 455.7C215.1 455.6 215.1 455.6 215.1 455.6C215.1 455.6 215.1 455.6 215.1 455.7ZM215.2 456.9C215.2 456.8 215.2 456.8 215.2 456.8C215.2 457 215.3 457.2 215.3 457.5C215.3 457.4 215.3 457.3 215.2 457.2C215.2 457.1 215.2 457 215.2 456.9ZM215.2 455.5C215.2 455.5 215.2 455.4 215.2 455.5C215.2 455.4 215.2 455.4 215.2 455.5C215.2 455.5 215.2 455.4 215.2 455.5ZM215.3 457.9C215.3 457.8 215.3 457.7 215.2 457.5C215.3 457.9 215.3 458.4 215.4 458.9C215.4 458.7 215.3 458.5 215.3 458.3C215.4 458.1 215.3 458 215.3 457.9ZM218.5 462.9C218.5 462.8 218.5 462.8 218.5 462.9C218.5 462.8 218.5 462.8 218.5 462.9C218.5 462.8 218.5 462.8 218.5 462.9ZM218.9 461.3C219 461.3 219.1 461.2 219.3 461.2C219.2 461.2 219.1 461.2 219 461.3C218.9 461.2 218.9 461.2 218.9 461.3ZM221.7 461.1C221.6 461.1 221.4 461.1 221.3 461.1C221.8 461.1 222.3 461.2 222.8 461.2C222.6 461.2 222.4 461.2 222.2 461.1C222.1 461.1 221.9 461.1 221.7 461.1ZM225.1 461.5C224.8 461.5 224.5 461.4 224.2 461.4C224.9 461.5 225.6 461.6 226.4 461.7C226.2 461.7 225.9 461.6 225.7 461.6C225.5 461.5 225.3 461.5 225.1 461.5ZM241.7 463C241.7 463.1 241.8 463.2 241.8 463.4C241.8 463.2 241.7 462.9 241.6 462.7C241.6 462.8 241.7 462.8 241.7 462.9V463ZM241.5 462.5C241.4 462.3 241.3 462.2 241.2 462C241.3 462.1 241.4 462.2 241.5 462.5C241.5 462.4 241.5 462.4 241.5 462.5ZM240.9 461.4L241 461.5C241 461.5 241 461.5 241 461.6C240.9 461.5 240.8 461.3 240.7 461.2L240.8 461.3C240.9 461.4 240.9 461.4 240.9 461.4ZM240.3 460.7C240.2 460.6 240.1 460.5 240 460.4C240.1 460.5 240.1 460.5 240.2 460.6C240.2 460.6 240.3 460.7 240.3 460.7ZM238 458.8C238.1 458.9 238.3 459 238.4 459.1C238.6 459.2 238.7 459.4 238.9 459.5C239.2 459.7 239.4 459.9 239.7 460.2C239 459.6 238.2 459 237.3 458.4C237.4 458.5 237.5 458.5 237.6 458.6C237.7 458.5 237.9 458.7 238 458.8ZM236.5 457.8C236.5 457.8 236.4 457.8 236.4 457.7C236.4 457.8 236.5 457.8 236.5 457.8ZM235.8 457.4C235.6 457.3 235.4 457.2 235.2 457.1C235.3 457.2 235.5 457.2 235.6 457.3C235.6 457.3 235.7 457.4 235.8 457.4ZM234.1 456.6C234 456.6 233.9 456.5 233.8 456.5C233.9 456.5 234 456.5 234.1 456.6ZM231.3 455.3C231.3 455.3 231.4 455.3 231.4 455.4C231.6 455.5 231.8 455.6 232 455.6C232.4 455.8 232.8 455.9 233.1 456.1C233.2 456.2 233.4 456.2 233.5 456.3C232.5 455.8 231.4 455.4 230.4 455C230.5 455 230.5 455 230.6 455.1C230.9 455.2 231.1 455.2 231.3 455.3ZM228.8 454.4C229 454.5 229.2 454.5 229.4 454.6C229.6 454.7 229.8 454.7 230 454.8C230.1 454.8 230.1 454.9 230.2 454.9C229.6 454.7 229 454.4 228.5 454.3C228.6 454.3 228.7 454.3 228.8 454.4ZM227.5 453.9C227.7 454 228 454.1 228.3 454.2C228 454.1 227.7 454 227.5 453.9H227.4H227.5ZM226.8 446.5C226.9 448 227 450 227.2 453C223.3 454.1 219.3 454.5 215.3 454.1C215.1 454.1 214.9 451 214.6 448.2V448.1H215.3C215.3 448.1 215.4 448.1 215.5 448.1H215.6L222.1 447.1L224.6 446.7L226.8 446.3C226.8 446.4 226.8 446.5 226.8 446.5ZM223.4 340.7C224.1 341.4 224.6 341.9 225.3 343.2C227.1 346.4 228.7 349.7 230 353.1C238.2 378.2 230.7 426.2 230.7 440.4C230.7 443.1 230.7 444.6 230.7 444.6L230.1 444.7L229.4 444.8L224.4 445.6H224.3L221.8 446L215.3 447H215.2H214.2C214.2 447 214.2 447 214.2 446.9C214 446.9 213.7 447 213.4 447C213.1 447 212.7 447.1 212.4 447.1C212 447.1 211.6 447.1 211.2 447.1C205.3 435.9 213.7 423.3 207 411.2C207 411.2 207 411.1 206.9 411.1V411.2L206.5 410.5L203.4 404.7L208.2 397.3L208.8 396.4L209 395.9L210 393.6C210 393.6 210 393.4 210.1 393.1C211.1 390.7 212 388.3 212.7 385.8C213.2 383.8 215.3 378.8 212.4 371.4C212.3 371 212.1 370.6 211.9 370.1C210.7 367.5 209 364.7 206.5 361.6C206.2 361.2 205.9 360.9 205.6 360.5C203.4 357.9 200.6 355.1 197.1 352.2C192.2 348.3 187.1 344.5 182 340.9C181.6 340.6 181.3 340.4 180.9 340.1C176.9 337.3 172.8 334.5 168.6 331.9H168.5C168.2 331.9 168 332.3 168.3 332.5C172.1 335 175.9 337.5 179.7 340.2C180.1 340.5 180.4 340.7 180.8 341C186.6 345.1 192.2 349.3 197.7 353.7C201 356.7 203.6 359.5 205.6 362.1C205.9 362.5 206.2 362.9 206.5 363.3C209.1 366.9 210.7 370.2 211.7 373.1C211.9 373.7 212.1 374.3 212.2 374.8C213.8 381.5 211.8 386.1 211.1 388C210.7 388.9 210.4 389.9 210 390.8C209.9 391.1 209.8 391.4 209.6 391.7C209.4 392.1 209.3 392.4 209.1 392.8C207.5 396 205.7 399.1 203.5 401.9C203.4 402.1 203.3 402.2 203.1 402.4C203 402.6 202.8 402.8 202.7 403C202.7 403.1 202.7 403.2 202.7 403.2C202.4 403.6 202.2 403.9 202 404.2C201.9 404.3 201.8 404.5 201.7 404.6C194.1 415.8 179.7 428.3 169.5 437.2L169.4 437.3L151.9 452.1L149.6 454C149.6 454 149.6 454 149.5 453.9L149 453.4L146 450.1C146 450.1 145.9 450.1 145.9 450.2C143.8 448 141.3 445.4 139.5 443.5L139.2 443.2L137.8 441.9L137.1 441.2C139.7 437.8 142.1 434.2 144.2 430.5C144.2 430.5 144.2 430.4 144.1 430.2C144.2 430 144.4 429.8 144.5 429.6C144.6 429.5 144.7 429.3 144.8 429.2C145 428.9 145.2 428.6 145.3 428.4C146.1 427.1 146.9 425.7 147.7 424.5C153.6 414.8 159 405.3 160.7 401V400.9C162.7 397.2 164.3 393.3 165.7 389.3H165.6C166.2 385.7 162.1 384.7 159.5 384.3L159 384.2C159 384.2 159 384.2 158.9 384.2L155.9 383.5C155.6 383.4 155.3 383.4 154.9 383.3C154.3 383.2 153.7 383.1 153.1 382.9C147 381.6 137.3 379.2 129.5 376.4V376.3C128.4 375.9 127.3 375.5 126.1 375.1C126 375.1 125.9 375 125.8 375C122.6 373.8 119.3 372.5 116.2 371.2V371.3C112.5 369.8 108.5 368 105.8 366.4C102.2 363.7 97.2997 358.7 96.7997 358.2C94.5997 355.2 93.0997 351.8 92.1997 348.2L91.9997 347.2C91.9997 347 91.8997 346.9 91.8997 346.7V346.6C91.7997 345.5 91.5997 344.3 91.4997 342.8C91.4997 342.5 91.4997 342.2 91.4997 341.9C91.4997 341.3 91.4997 340.7 91.4997 340.1C91.4997 340.6 91.3997 340.9 91.3997 341.1H91.2997V341C91.2997 340.5 91.2997 339.8 91.2997 339.3C91.4997 335.9 92.5997 324.3 92.9997 322.5V321.5C93.3997 321.6 93.7997 321.7 94.2997 321.8C95.1997 322.6 96.1997 323.4 97.0997 324.1C97.3997 324.3 97.7997 324.5 98.0997 324.6C103.7 326.7 109.6 328.1 115.6 328.7C116.9 328.8 118 328.9 118.8 329C129.5 329.5 140.1 327.4 149.7 322.8C149.9 322.7 150.2 322.7 150.5 322.6C158.4 321.9 166 320.1 173.2 317.1C179.4 318.9 186.4 320.2 192.7 321C198.1 323.7 203.3 326.5 208.5 329.5L208.6 329.6C208.9 329.8 209.2 329.9 209.4 330.1C209.6 330.2 209.7 330.3 209.8 330.3C210.1 330.5 210.3 330.6 210.6 330.8C210.8 330.9 210.8 330.9 210.8 330.9C212.4 331.9 214 332.8 215.5 333.9L215.8 334.1L216.4 334.6C216.6 334.7 216.7 334.8 216.9 334.9C216.9 334.9 216.9 334.9 217 334.9C217.3 335.1 217.6 335.3 217.8 335.5C219.4 336.7 220.9 337.9 222.3 339.2C222.4 339.3 222.4 339.3 222.5 339.4C222.8 339.7 223.1 340 223.3 340.2C223.2 340.5 223.3 340.6 223.4 340.7ZM216.9 334C216.9 334 216.9 333.9 216.9 334L216.2 333.5L215.9 333.3C215.9 333.3 215.9 333.3 215.8 333.3C214.4 332.3 213 331.4 211.5 330.5L211.2 330.3C211.2 330.3 211.1 330.2 211 330.1C210.8 330 210.6 329.9 210.4 329.8C210.3 329.7 210.3 329.7 210.2 329.6C210.1 329.5 210 329.5 209.8 329.4C209.8 329.4 209.8 329.4 209.7 329.4C209.6 329.3 209.5 329.2 209.3 329.2C209.5 327.2 209.6 325.2 209.8 323.2C212.6 323.5 215.4 323.7 218.2 323.9C218.1 325.1 217.6 328.8 216.9 334ZM208.6 328.6C204.3 326.1 200 323.7 195.5 321.5C201.4 322.2 206.4 322.7 209.1 322.9C209.2 322.9 208.9 325.4 208.6 328.6ZM223.6 339.5C223.4 339.3 223.2 339.1 223 338.9C223 338.9 223 338.9 222.9 338.8C222.8 338.7 222.8 338.7 222.8 338.7C221.3 337.3 219.8 336 218.2 334.9C218.1 334.8 217.9 334.7 217.8 334.6C218.4 330.4 219.1 325.2 219.3 323.7C219.9 323.7 237.2 324.5 245.2 324.4C245.2 324.4 245.6 338.4 245.6 339.3L223.6 339.5ZM249.7 406.1C249.2 407.6 248.1 407 247.8 406.1C247.8 405.3 246.2 328.9 245.8 324.9C245.8 324.6 244.7 324.9 251.7 324.6C251.1 331.2 250.1 404.4 249.7 406.1ZM226.4 323.2C225.1 323.2 209.2 322.5 192.8 320.1C191.7 319.9 190.6 319.8 189.5 319.6C184.4 318.8 179.2 317.7 174.6 316.5C174.1 316.4 173.6 316.2 173.1 316.1C170.1 315.2 167.3 314.2 164.9 313.1C165.7 312.5 166.4 311.8 167.2 311C170.2 312.2 173.8 313.1 177.8 314C178 314.1 178.3 314.1 178.5 314.2C200.4 318.8 232.7 319.4 242.1 319.4C255.9 319.4 269.7 318.5 283.4 316.7C290.2 315.8 329.9 310.5 336.9 300.2C336.7 301.1 336.2 303.2 336.1 303.7C327.2 316.7 282.2 321.6 267.6 322.6C253.8 323.6 240.1 323.9 226.4 323.2ZM320.2 314.1C311.8 317.9 303.7 322.1 295.7 326.8C295.7 326.5 295.2 321.2 294.9 320.4C303.5 319 312 316.9 320.2 314.1ZM281.3 337.6C277.8 338 255.1 338.9 251.9 338.8C251.9 338.2 252.1 328.7 252.4 324.4C255.4 324.4 278.2 322.9 286.4 321.7C286.4 322.1 288.1 330.4 288.4 331.6C285.9 333.4 283.5 335.4 281.3 337.6ZM286.9 321.6C289.4 321.3 291.9 320.9 294.4 320.5C294.4 321.3 294.9 326.9 295 327.3C292.9 328.6 290.9 329.8 288.9 331.2C288.7 330 287.1 322 286.9 321.6ZM307.1 350.7C286.7 369.2 292.5 381.5 293.7 385C295.7 390.4 298.6 395.4 302.1 399.9C303.3 406.6 309.3 442.6 310.9 453.9C311.3 456.7 312.6 462.9 311.6 463.2C311.5 463.2 310.3 463.2 309.8 460.7C309.6 459.8 300.1 414.2 298.6 407.1C299.8 404.9 300.3 403.6 301.5 401.5C297.1 395.9 293.8 389.5 291.9 382.7C291 379.2 285.7 367.5 307.7 349.1C316.8 341.9 326.3 335.1 336.2 328.9C336.5 328.7 336.9 329.2 336.5 329.4C326.3 336.1 316.5 343.2 307.1 350.7ZM338 442.2C337.4 443.7 336.4 443.6 336.1 443.4C335.8 443.1 335.6 441.8 335.6 441.2C335.6 440.6 336.5 436.6 336.8 435.5L339.4 437.8C339.1 438.6 338.2 441.5 338 442.2ZM339.2 386.2C338.6 382.6 342.8 381.6 345.4 381.2L349.1 380.4C349.1 380.7 346.1 393 344.8 398.9C342.5 394.9 340.7 390.6 339.2 386.2ZM345.4 400.1C346.6 395.5 349.7 382.2 350.1 380.2C352.1 379.8 354.1 379.4 356 379C354.2 385.8 349.1 404 348.5 406.3C347.6 404.4 346.4 402.3 345.4 400.1ZM349.1 407.3C349.2 407.3 357 379 357 378.7C357.6 378.6 364.1 377 366.7 376.2C366.5 377 358.3 413.5 356.6 420.2C353.7 415.9 349.6 408.4 349.1 407.3ZM350.4 460.7C350 461.9 348.8 462.2 348.5 461.9C348.2 461.6 348 460.3 348 459.7C348 459.1 350 450.7 350.8 447.5C352 448.5 353 449.3 353.8 450C352.9 452.9 350.5 460.1 350.4 460.7ZM368.4 445.5L367.8 446C365 447.9 366.3 447.1 363.6 449.3C363.5 449.2 361.4 448.1 359.1 446.8L361.5 444.4L364.3 441.5C366.3 443.7 368.3 445.4 368.4 445.5ZM360.3 426.6C360.4 426.6 360.4 426.6 360.3 426.6C359.3 424.9 358.2 423.1 357.1 421.4C358.4 415.9 367 378.4 367.6 376C370.1 375.3 372.6 374.5 374.9 373.8C373.2 379.3 361.3 423 360.3 426.6ZM405.9 428.6C406 429.5 406.5 431.2 405.8 431.8C404.4 433 403.6 428.3 403.3 427.7C401.2 420 389.9 369.7 389.6 368.1C395.5 365.4 392.6 366.5 395.7 365.9C395.9 367.5 405.7 426.7 405.9 428.6ZM358.9 320.6C358.9 320.6 357.6 311.9 357 302.3C366 303.6 400.9 308.2 414 292.6C414 293.6 414.7 315.7 414.9 317.7C398.9 322.4 363.4 320.9 358.9 320.6ZM422 446C422.2 446.8 422 447.6 421.7 448.3C421.1 449.3 420.3 447.9 420 447.3C419.7 446.7 403.9 365.9 403.6 364.7C405.6 364.3 410.5 362.8 410.9 362.6C412.1 374.3 421.9 444.6 422 446ZM417.9 356.3C417.5 357.1 416.9 357.9 416.2 358.5H416.3C412.3 362.5 398 364.6 396.7 364.8C399.1 363.5 401.4 362 403.6 360.3C403.9 360.3 414.1 357.8 417 355.5C417.6 355 418.1 354.4 418.5 353.7C418.5 354.6 418.3 355.5 417.9 356.3ZM419.5 352.1C419.3 351.3 419 350.6 418.7 349.8C420.8 347 433.6 327.2 438.3 311C442.3 297.4 447.4 279.8 441.8 268.1C440.3 265 439 260.9 425.6 256.4C425.5 252.6 425.2 253.6 425.6 253.8C450.6 259.6 445.8 278.7 445 285.5C443.1 301 438.7 316.1 432.1 330.2C430.2 334 423.5 348.2 419.5 352.1Z" fill="#663100"/>
<path d="M310.5 239.2C311.9 239.8 313.1 240.1 314.2 240.2C312.8 239.9 311.6 239.6 310.5 239.2Z" fill="#663100"/>
<path d="M190.2 170.5C198.5 163.6 207 156.9 215.2 149.8C215.4 149.6 215 149.2 214.8 149.4C206.4 156.1 198.1 163.1 189.8 169.9C189.5 170.4 190 170.8 190.2 170.5Z" fill="#663100"/>
<path d="M258.099 213.5C258.099 213.6 258.099 213.6 258.099 213.5C257.999 213.6 257.999 213.7 257.999 213.7C257.999 213.7 258.099 213.6 258.099 213.5C258.199 213.7 258.299 213.9 258.399 214C258.499 214.2 258.399 214.7 258.099 214.4C257.899 214.3 257.899 213.9 257.999 213.7C257.999 213.8 257.899 214 257.899 214.1C257.899 214.3 258.099 214.6 258.299 214.5C258.599 214.4 258.599 214.1 258.499 213.9C258.499 214 258.099 213.6 258.099 213.5Z" fill="#663100"/>
<path d="M261.6 209.4C261.9 209.6 262.2 209.7 262.5 209.7C262.9 209.7 262.9 209.3 262.5 209.2C262.2 209.1 261.8 209.1 261.6 209.4C261.8 209.2 262 209.2 262.2 209.2C262.3 209.2 262.6 209.2 262.7 209.3C262.8 209.7 261.7 209.4 261.6 209.4Z" fill="#663100"/>
<path d="M262.1 213.4C262.4 213.6 262.7 213.8 262.8 214.1C262.9 214.3 262.7 214.3 262.6 214.2C262.3 214 262.2 213.7 262.1 213.4C262.1 213.5 262.3 214.1 262.6 214.4C262.7 214.5 262.8 214.5 262.9 214.4C262.9 214.4 262.9 214.4 262.9 214.3C263.2 214 262.3 213.5 262.1 213.4Z" fill="#663100"/>
<path d="M265.1 211.3C265.5 211.3 266.1 211.4 266.4 211.7C266.7 212 266.2 211.9 266.1 211.9C265.7 211.7 265.4 211.5 265.1 211.3C265.3 211.5 266.5 212.5 266.6 211.9C266.7 211.2 265.4 211.2 265.1 211.3Z" fill="#663100"/>
<path d="M250.399 216.5C250.099 216.2 251.099 215.9 251.199 215.8C250.899 215.8 250.099 216.1 250.299 216.5C250.499 216.9 251.099 216.3 251.199 216.1C251.299 216 251.299 215.9 251.299 215.8C251.299 216 250.699 216.7 250.399 216.5Z" fill="#663100"/>
<path d="M250.699 213.1C250.599 213.3 250.599 213.2 250.399 213.2C250.299 213.2 250.199 213.2 250.199 213.2C249.999 213.2 249.799 213.3 249.699 213.4C249.299 213.8 250.099 213.6 250.299 213.5C250.399 213.5 250.599 213.3 250.699 213.1ZM249.699 213.6C249.899 213.3 250.199 213.2 250.599 213.3C250.299 213.5 249.999 213.6 249.699 213.6Z" fill="#663100"/>
<path d="M253.599 214.7C253.199 214.4 253.999 213.7 254.099 213.5C253.899 213.7 253.399 214.1 253.399 214.5C253.399 214.7 253.499 214.8 253.699 214.9C253.899 214.9 253.999 214.8 253.999 214.6C254.099 214.3 254.199 214 254.199 213.7C254.199 213.8 253.999 214.9 253.599 214.7Z" fill="#663100"/>
<path d="M250.199 309.1C250.399 308.7 250.599 308.3 250.799 307.9C251.699 305.8 242.899 301 241.999 301C241.899 301 241.899 301 241.799 301C239.999 301.7 240.199 301.1 239.299 303.2C239.099 303.8 243.099 304.6 246.499 307.4L247.199 307.9C248.099 308.6 247.999 308.6 248.299 308.7C248.999 309 249.599 309.1 250.199 309.1ZM241.999 301.4C242.899 301.3 251.299 306.3 250.499 307.7C250.399 308 250.199 308.3 249.999 308.6C249.799 308.5 247.799 306.6 246.399 305.7C244.699 304.4 242.899 303.4 240.899 302.7C240.999 302.5 241.599 301.4 241.999 301.4ZM239.699 303.3C240.499 301.4 240.399 301.8 241.299 301.5C240.999 301.8 240.799 302.2 240.699 302.7C240.699 303.3 245.699 304.8 249.899 308.9C249.299 308.9 248.699 308.7 248.199 308.4V308.5C245.599 306.3 242.799 304.6 239.699 303.3Z" fill="#663100"/>
<path d="M235.6 294.5H235.5H235.3C233.9 294.7 231.9 295.9 232 299.3C232.1 301.4 234.5 307.1 235.4 308.8C236 310.2 237.3 309.6 238.5 309.8C238.7 309.8 238.8 309.4 239.3 307.8C237.3 303.6 236.1 299.2 235.6 294.5C235.7 294.5 235.7 294.6 235.6 294.5ZM233 296.4C233.4 295.8 234 295.3 234.8 295.1C234.2 295.6 233.8 296.4 233.7 297.2C233.1 297.5 232.7 298 232.4 298.6C232.4 297.7 232.6 297 233 296.4ZM235.6 308.9C235 307.7 232.1 300.9 232.3 299.5C232.3 299.1 232.5 298.7 232.7 298.3C232.9 298 233.2 297.7 233.6 297.4C233.3 300.5 237 307.5 238 309.6C237 309.5 236.2 309.9 235.6 308.9ZM238.3 309.3C237.1 307.1 233.7 299.7 233.9 297.2C234.1 296.3 234.5 295.5 235.2 295C236.1 299.8 236.4 302.8 238.8 307.8L238.3 309.3Z" fill="#663100"/>
<path d="M364.8 188.7C362.3 188.7 361.1 188.2 362 185.3C362.7 183.3 363.7 181.4 364.9 179.6C365 179.3 364.7 179 364.4 179.2C362.9 180.9 361.8 182.9 361 185.1C360 188.2 361.3 190 364.9 189.3C365 189.3 365.1 189.2 365.1 189.1C365.1 188.8 365 188.7 364.8 188.7Z" fill="#663100"/>
<path d="M368 194.9C368.4 195.2 369 195.4 369.5 195.5C371.4 195.8 373.2 194.6 373.5 192.7C373.5 192.6 373.5 192.5 373.5 192.4C373.4 192.1 373.1 192 372.8 192.1L368 194.1C367.9 194.1 367.8 194.2 367.8 194.3C367.7 194.5 367.8 194.8 368 194.9Z" fill="#663100"/>
<path d="M371.3 184.2C372.1 184.3 372.3 181.4 371.6 181.4C370.8 181.3 370.6 184.1 371.3 184.2Z" fill="#663100"/>
<path d="M359.4 179.1C358.6 179 358.4 181.8 359.1 181.9C359.8 181.9 360.1 179.2 359.4 179.1Z" fill="#663100"/>
<path d="M371 174.8C372.2 175 373.3 175.5 374.2 176.3C374.4 176.5 374.5 176.3 374.5 176.1C373.8 174.8 372.4 174.2 371 174.5C370.8 174.5 370.8 174.9 371 174.8Z" fill="#663100"/>
<path d="M361.7 172.5C361.7 172.4 361.6 172.3 361.5 172.3C360.1 171.8 358.6 172.4 357.9 173.6C357.8 173.8 358 173.9 358.2 173.9C359.2 173.2 360.3 172.8 361.5 172.8C361.6 172.7 361.7 172.6 361.7 172.5Z" fill="#663100"/>
<path d="M128.5 192.9C128.1 191.9 127.6 191 127 190.1C126.9 189.9 126.5 189.9 126.4 190.1C125.9 191.2 126.8 193.3 128.1 193.4C128.4 193.5 128.6 193.2 128.5 192.9Z" fill="#663100"/>
<path d="M139.099 185.7C138.899 186.4 138.799 188.5 139.499 188.7C139.599 188.7 139.699 188.7 139.799 188.7C139.899 188.7 139.999 188.6 139.999 188.6C140.099 188.5 140.099 188.5 140.199 188.4C140.199 188.3 140.299 188.2 140.299 188.1C139.999 185.4 139.299 185.1 139.099 185.7Z" fill="#663100"/>
<path d="M135.199 205.6C132.299 205 129.899 205.1 127.999 202.5C127.999 202.5 127.999 202.5 127.899 202.5H127.799C127.799 202.5 127.799 202.5 127.699 202.6V202.7C128.299 204.1 129.399 205.2 130.799 205.8C132.199 206.4 133.699 206.6 135.199 206.2C135.599 206.1 135.599 205.7 135.199 205.6Z" fill="#663100"/>
<path d="M134.8 188.1C134.7 188 134.7 188 134.7 188H134.6C134.6 188 134.6 188 134.6 188.1C135.2 190.5 136.4 192.8 138 194.7C138.9 195.6 137.6 195.9 136.8 196.5C136.7 196.5 136.7 196.6 136.7 196.6C136.7 196.7 136.7 196.7 136.7 196.8C136.7 196.9 136.7 196.9 136.8 197C136.8 197 136.9 197.1 137 197.1C138.2 197.1 140.1 195.8 139.4 195.2C137.3 193.2 135.8 190.8 134.8 188.1Z" fill="#663100"/>
<path d="M136.999 181.4C136.999 181.5 137.099 181.5 136.999 181.4C138.199 181.2 139.299 181.3 140.299 181.6C140.499 181.6 140.699 181.3 140.499 181.2C139.999 180.9 139.399 180.7 138.699 180.7C138.099 180.7 137.499 180.9 136.899 181.2V181.3C136.999 181.3 136.999 181.3 136.999 181.4Z" fill="#663100"/>
<path d="M126.099 186.3C124.499 186.1 123.699 188.5 123.699 189.1C123.699 189.2 123.699 189.2 123.799 189.2C123.799 189.2 123.899 189.3 123.999 189.3C124.099 189.3 124.099 189.3 124.199 189.2L124.299 189.1C124.399 188.6 124.599 188.1 124.999 187.6C125.399 187.1 125.799 186.8 126.299 186.6C126.399 186.6 126.299 186.3 126.099 186.3Z" fill="#663100"/>
<path d="M143.3 222.5C142.2 224.7 141.8 228.3 138.9 229C138.8 229 138.7 229.1 138.6 229.2C138.5 229.3 138.5 229.4 138.5 229.5C138.5 229.6 138.6 229.7 138.7 229.8C138.8 229.9 138.9 229.9 139 229.9C140.5 229.9 144 225.5 143.4 222.6C143.5 222.4 143.4 222.4 143.3 222.5Z" fill="#663100"/>
</svg>
