<svg width="728" height="692" viewBox="0 0 728 692" fill="none" xmlns="http://www.w3.org/2000/svg">
<path fill-rule="evenodd" clip-rule="evenodd" d="M412.441 0.409953C545.788 -5.66601 691.544 55.7887 723.945 185.363C752.818 300.826 621.457 372.305 521.614 436.998C444.218 487.147 351.56 527.292 274.552 476.548C187.37 419.101 148.463 310.587 177.518 210.261C209.819 98.723 296.508 5.69249 412.441 0.409953Z" fill="#FF7B00"/>
<g style="mix-blend-mode:multiply">
<path d="M414.197 490.42C414.854 487.315 414.854 484.106 414.197 481.001C411.611 481.632 409.2 482.837 407.145 484.527C405.309 485.895 403.682 487.522 402.315 489.357C402.09 486.421 401.414 483.538 400.31 480.808C399.226 477.534 397.322 474.591 394.78 472.259C392.756 474.371 391.121 476.824 389.95 479.504C388.984 481.68 388.264 483.956 387.801 486.29C386.021 484.112 383.788 482.348 381.256 481.122C379.87 483.903 379.104 486.952 379.01 490.058C376.122 488.261 372.873 487.123 369.495 486.725V487.353C369.203 493.205 371.136 498.95 374.905 503.437C375.146 503.678 376.378 505.224 376.547 505.465H371.016V518.289L419.051 519.303L418.544 505.079L413.907 505.2C416.907 503.109 419.433 500.41 421.321 497.278C422.892 494.661 423.918 491.753 424.34 488.729V488.488C420.852 488.294 417.369 488.957 414.197 490.42V490.42ZM420.862 496.964C418.687 500.311 415.812 503.146 412.434 505.272H404.754C407.374 502.193 410.241 499.334 413.327 496.723C414.945 495.346 416.467 493.97 418.157 492.714C414.512 494.871 411.097 497.396 407.966 500.249C401.325 506.238 403.981 505.272 401.542 505.272C402.14 502.738 402.948 500.258 403.957 497.858C405.581 493.843 407.831 490.11 410.622 486.797C409.798 487.536 409.038 488.344 408.352 489.212C404.489 493.985 401.667 499.513 400.069 505.441H395.021C395.021 502.205 393.21 488.898 395.021 480.663C394.121 482.698 393.527 484.854 393.258 487.063C392.521 493.211 392.93 499.442 394.466 505.441H384.806C382.755 499.763 378.805 494.968 373.625 491.869C377.63 495.902 381.059 500.47 383.816 505.441H378.02C375.633 503.216 373.722 500.53 372.402 497.546C371.082 494.561 370.381 491.34 370.34 488.077C373.822 488.681 377.123 490.06 380 492.11C379.83 488.809 380.391 485.51 381.642 482.45C384.325 484.047 386.638 486.196 388.428 488.753L388.694 487.353C389.375 482.09 391.602 477.148 395.094 473.153C397.07 475.332 398.648 477.841 399.755 480.567C400.997 483.837 401.762 487.269 402.025 490.758C403.482 488.354 405.354 486.228 407.555 484.479C409.467 482.94 411.633 481.746 413.955 480.953C414.608 484.021 414.658 487.188 414.1 490.275C414.1 490.444 414.245 490.444 414.269 490.275C417.384 488.972 420.748 488.37 424.122 488.512C423.766 491.559 422.644 494.467 420.862 496.964V496.964ZM360.994 506.286H360.245L360.487 505.9C360.487 505.9 360.487 505.658 360.753 505.393C361.085 504.778 361.251 504.087 361.236 503.388C361.1 502.377 360.613 501.445 359.859 500.756C359.215 500.064 358.382 499.576 357.463 499.353C356.545 499.129 355.581 499.181 354.691 499.5C353.211 500.42 352.148 501.881 351.728 503.572C351.309 505.264 351.566 507.052 352.445 508.556C350.897 510.988 349.671 513.61 348.798 516.357C348.747 516.912 348.617 517.457 348.412 517.975H345.345C345.345 515.922 344.838 514.208 344.838 509.184V507.156C347.75 506.022 350.158 503.879 351.624 501.118C355.319 493.873 342.205 488.367 340.442 498.993C340.418 500.419 340.684 501.835 341.224 503.155C341.764 504.475 342.566 505.672 343.582 506.673V509.305C343.582 510.899 344.669 518.458 344.596 517.975H337.931C337.263 516.018 336.267 514.188 334.985 512.565C334.924 510.935 334.689 509.316 334.284 507.735C334.035 506.52 333.537 505.369 332.823 504.355C332.108 503.341 331.191 502.486 330.13 501.843C329.336 501.459 328.458 501.28 327.576 501.322C326.694 501.364 325.837 501.626 325.083 502.084C323.945 502.763 323.052 503.787 322.535 505.007C322.018 506.227 321.904 507.581 322.209 508.87C323.175 512.276 328.005 515.101 333.608 513C334.212 513.604 336.627 517.83 336.796 518.047H327.474V526.862L362.25 527.78L361.743 517.613L351.938 517.854C352.179 517.613 352.3 517.347 352.566 517.106C352.804 516.882 353.015 516.63 353.194 516.357C355.609 513.942 356.84 512.831 356.84 512.831C357.325 513.04 357.826 513.209 358.338 513.338C359.29 513.568 360.283 513.568 361.236 513.338C361.574 513.338 361.719 513.169 362.371 512.952C362.491 512.952 362.612 512.952 362.757 512.686C362.902 512.42 362.999 512.686 363.119 512.445L363.385 512.058C363.626 511.817 363.626 511.575 363.868 511.31C364.089 510.794 364.188 510.234 364.156 509.674C364.124 509.114 363.962 508.568 363.684 508.081C363.405 507.594 363.017 507.179 362.55 506.867C362.084 506.556 361.551 506.357 360.994 506.286V506.286ZM329.599 508.17C330.976 509.812 332.183 511.044 333.318 512.686C327.039 514.256 324.189 510.271 324.431 510.561C323.728 509.8 323.317 508.815 323.273 507.78C323.229 506.745 323.554 505.728 324.19 504.91C324.729 504.016 325.581 503.354 326.579 503.051C327.578 502.748 328.654 502.825 329.599 503.268C331.524 504.41 332.992 506.186 333.753 508.291C334.191 509.584 334.49 510.919 334.646 512.276C333.34 510.482 331.582 509.065 329.551 508.17H329.599ZM345.055 499.742C344.311 501.751 343.817 503.843 343.582 505.972C342.767 505.061 342.143 503.995 341.749 502.837C341.355 501.679 341.198 500.454 341.288 499.235C341.459 497.798 342.125 496.466 343.171 495.467C343.726 495.048 344.362 494.75 345.038 494.592C345.715 494.434 346.417 494.419 347.099 494.549C347.782 494.679 348.429 494.95 349.001 495.345C349.572 495.74 350.054 496.251 350.416 496.844C351.817 499.259 350.151 502.64 348.001 504.523C347.046 505.422 345.943 506.149 344.741 506.673C344.628 504.359 344.717 502.04 345.007 499.742H345.055ZM353.363 502.374C353.921 501.481 354.776 500.814 355.778 500.49C356.251 500.385 356.741 500.375 357.218 500.462C357.695 500.549 358.15 500.731 358.555 500.998C359.324 501.6 359.855 502.456 360.052 503.413V504.548C360.052 504.548 359.931 504.789 359.931 504.934V505.296C359.473 505.972 359.473 506.166 359.183 506.311C357.567 507.69 355.604 508.601 353.508 508.943C354.408 507.37 355.417 505.861 356.526 504.427C355.045 505.595 353.721 506.95 352.59 508.46C352.129 506.408 352.385 504.26 353.314 502.374H353.363ZM350.948 517.347C350.706 517.613 350.561 517.854 350.32 518.096H349.813C350.717 514.978 351.897 511.948 353.339 509.039C354.395 509.031 355.448 508.91 356.478 508.677H356.864C356.162 509.99 355.812 511.463 355.85 512.952C354.081 514.314 352.395 515.782 350.803 517.347H350.948ZM362.781 510.947C362.636 510.947 362.636 511.31 362.516 511.43C362.395 511.551 362.516 511.817 362.153 511.817H361.646C361.512 511.96 361.333 512.054 361.139 512.082C359.911 512.426 358.619 512.468 357.372 512.203C358.748 510.827 360.245 509.571 361.767 508.315C359.8 509.459 357.912 510.734 356.116 512.131C356.412 510.425 357.26 508.863 358.531 507.687C358.838 507.473 359.187 507.325 359.554 507.253C359.922 507.181 360.3 507.186 360.666 507.268C361.031 507.349 361.376 507.506 361.678 507.728C361.979 507.95 362.232 508.232 362.419 508.556C362.627 508.902 362.755 509.289 362.793 509.691C362.83 510.092 362.777 510.497 362.636 510.875L362.781 510.947Z" fill="#663100"/>
<path d="M22.7734 221.075V679.925H459.478V221.075H22.7734ZM344.138 633.581C347.92 633.128 351.564 631.885 354.836 629.934C355.603 629.516 356.252 628.91 356.72 628.172C357.734 626.264 357.951 625.394 355.464 623.342C348.75 618.512 331.821 616.338 329.792 615.662C326.967 614.895 324.322 613.574 322.012 611.774C319.703 609.975 317.775 607.733 316.341 605.181C314.844 602.766 312.187 597.211 311.511 597.549C310.835 597.887 313.926 603.031 315.327 605.543C319.625 613.054 325.566 615.734 333.777 617.618C334.405 617.763 335.154 618.004 335.782 618.125C335.274 620.395 334.019 627.954 338.921 632.615C331.224 633.294 323.482 633.294 315.785 632.615C314.78 629.808 313.215 627.234 311.185 625.051C309.155 622.867 306.703 621.119 303.976 619.912C299.462 618.023 294.404 617.893 289.8 619.55C288.399 617.425 287.119 615.058 285.912 612.788C285.381 611.798 285.091 610.059 284.221 610.18C283.352 610.3 284.535 612.063 284.97 612.981C287.868 619.357 293.253 628.534 299.726 631.335C301.147 631.893 302.631 632.274 304.145 632.47C308.844 633.439 313.621 633.981 318.418 634.088H25.0677V529.277C26.565 544.419 28.98 559.175 31.8297 574.196C33.979 586.126 36.0318 600.568 40.741 613.174C42.2142 617.087 43.2768 619.477 47.4306 619.429C52.6989 619.263 57.943 618.641 63.1039 617.57C67.7649 620.709 100.875 642.372 143.137 630.562C171.248 622.689 192.62 597.815 206.724 573.206H249.783C256.058 581.688 262.874 589.755 270.19 597.356C276.778 594.469 283.126 591.061 289.172 587.165C294.917 583.685 300.235 579.543 305.015 574.824C304.845 574.269 304.652 573.737 304.459 573.206H457.884V634.402H336.989C339.38 634.233 341.771 634.04 344.138 633.581ZM337.472 618.342C338.197 618.342 345.538 620.492 346.77 620.878C349.185 621.796 354.812 623.486 355.971 625.708C356.213 626.336 356.213 626.843 355.826 627.205C355.47 627.725 354.999 628.154 354.45 628.461C354.194 628.683 353.899 628.855 353.58 628.968C349.712 630.694 345.581 631.756 341.36 632.108C335.685 628.413 336.965 620.492 337.472 618.342V618.342ZM314.336 632.446C311.042 632.25 307.76 631.871 304.507 631.311C302.348 631.081 300.26 630.404 298.377 629.323C296.493 628.242 294.855 626.78 293.567 625.032C292.416 623.772 291.367 622.424 290.428 620.999C301.392 617.642 309.796 622.496 314.336 632.446V632.446ZM110.052 334.846C109.963 334.465 109.952 334.07 110.019 333.685C110.086 333.299 110.229 332.931 110.441 332.603C110.653 332.274 110.928 331.991 111.251 331.77C111.574 331.55 111.938 331.397 112.322 331.32C115.648 330.725 118.644 328.939 120.75 326.296C121.136 325.789 123.165 321.128 123.165 321.128C124.978 320.888 126.754 320.426 128.454 319.752C129.951 324.896 134.998 341.632 135.119 350.181L131.207 353.345C130.912 353.579 130.687 353.89 130.555 354.243C130.423 354.596 130.389 354.978 130.458 355.349C130.458 356.098 130.845 357.474 131.086 359.116C130.395 359.07 129.703 359.191 129.069 359.469C128.434 359.746 127.875 360.172 127.44 360.71C127.077 361.097 126.425 361.483 126.691 361.894C126.957 362.304 127.56 361.725 128.067 361.483C128.961 360.879 130.217 359.937 131.086 360.372C131.787 374.283 120.726 371.433 113.867 377.615C111.91 379.175 110.319 381.145 109.206 383.387C102.805 382.34 96.2715 382.389 89.8863 383.532C94.0781 382.297 97.8311 379.893 100.705 376.601C103.603 372.954 105.535 366.941 103.338 362.642C102.583 361.095 101.428 359.778 99.9928 358.826C98.5576 357.875 96.8944 357.325 95.1751 357.233C94.3442 357.218 93.5253 357.032 92.7692 356.687C92.0131 356.342 91.3359 355.846 90.7798 355.228C85.9498 350.833 91.5768 342.912 97.6867 344.288C100.464 344.916 100.971 347.5 103.217 348.297C106.26 349.384 108.506 344.288 109.255 342.139C110.207 339.833 110.484 337.303 110.052 334.846V334.846ZM126.039 393.216C134.926 399.205 140.674 407.44 145.914 416.859C157.748 438.763 156.299 452.794 178.348 466.028C181.938 467.937 185.74 469.42 189.674 470.448C194.899 471.743 200.283 472.288 205.661 472.066C205.396 474.843 202.111 483.392 202.836 495.298C203.161 502.849 205.334 510.204 209.163 516.719C204.961 518.081 200.678 519.178 196.34 520.004C183.276 522.709 169.797 522.709 156.734 520.004C122.151 512.469 111.09 490.468 101.188 468.299C97.5418 460.16 92.736 442.724 90.804 443.521C88.872 444.318 94.4265 461.537 98.049 469.844C104.811 485.566 115.799 506.504 142.123 518.144C140.754 523.526 139.028 528.811 136.955 533.962C132.331 545.457 126.554 556.453 119.712 566.782C100.392 593.347 69.9384 606.799 41.5863 609.165C32.4263 577.278 27.3625 544.355 26.5167 511.189C26.5167 476.389 33.2545 437.725 54.3133 410.194C57.9676 404.812 62.46 400.051 67.62 396.09C84.7906 383.291 110.51 382.59 126.039 393.216ZM457.763 551.568V571.805H303.952C301.32 563.981 300.209 561.204 296.393 551.568H457.763ZM331.942 530.557C333.724 536.552 334.234 542.853 333.439 549.056C331.648 543.063 331.138 536.76 331.942 530.557V530.557ZM377.223 523.143C379.2 531.498 379.876 540.108 379.227 548.67C377.248 540.315 376.572 531.704 377.223 523.143ZM413.714 550.191L416.467 519.497L373.311 520.366L375.46 550.191H358.555L360.535 528.046L329.14 528.915L330.638 550.191H295.838C285.26 523.843 270.818 493.004 248.407 475.592C246.408 473.975 244.266 472.544 242.007 471.317C242.17 471.179 242.301 471.007 242.391 470.813C242.48 470.619 242.527 470.408 242.527 470.194C242.527 469.981 242.48 469.769 242.391 469.576C242.301 469.382 242.17 469.21 242.007 469.071C241.162 468.468 237.636 469.071 237.395 469.071C232.98 467.099 228.257 465.906 223.436 465.545C223.396 464.442 223.226 463.348 222.929 462.285C222.858 462.063 222.736 461.86 222.572 461.694C222.408 461.528 222.207 461.403 221.985 461.33C221.764 461.257 221.528 461.237 221.297 461.273C221.066 461.309 220.847 461.399 220.659 461.536C219.628 462.659 218.934 464.048 218.654 465.545C212.913 466.092 207.278 467.45 201.918 469.578C195.423 469.415 189.02 468.005 183.057 465.425C173.511 461.068 165.71 453.625 160.911 444.293C154.753 433.184 147.291 399.133 121.692 387.324H457.86V550.215L413.714 550.191ZM211.313 496.602C211.707 501.687 212.68 506.71 214.21 511.575C214.567 512.685 214.986 513.774 215.466 514.836L210.805 516.212C202.546 505.369 204.092 484.962 207.279 471.704C208.901 471.6 210.515 471.39 212.109 471.076C210.896 479.529 210.629 488.09 211.313 496.602V496.602ZM222.518 471.559C222.977 474.771 226.189 473.056 228.048 472.452C233.241 470.883 236.163 469.434 239.616 469.434C240.123 469.434 242.031 469.434 241.621 470.569C240.437 472.984 229.811 476.606 229.546 476.727C229.28 476.848 229.304 477.234 229.546 477.355C231.673 477.082 233.779 476.662 235.849 476.099C241.693 475.205 244.809 474.529 244.905 475.713C245.05 477.62 238.723 480.253 237.105 480.76C233.748 481.798 231.454 482.305 231.574 482.644C231.574 483.706 233.579 482.257 238.819 482.257C240.389 482.257 241.814 482.402 240.582 483.392C237.68 485.533 234.404 487.114 230.922 488.053C226.632 489.388 222.197 490.199 217.712 490.468H212.665C212.592 484.956 212.89 479.446 213.558 473.974L218.388 472.476C218.423 470.039 218.706 467.611 219.234 465.231C219.451 464.362 220.32 461.947 221.214 462.068C222.108 462.189 222.035 464.338 222.035 465.111C222.373 467.163 222.18 469.409 222.518 471.559V471.559ZM234.593 550.191H218.099C220.523 544.435 222.627 538.55 224.402 532.562C226.817 537.102 233.7 548.887 234.472 550.191H234.593ZM217.688 551.568H235.463C239.93 559.006 244.495 565.768 248.938 571.805H207.497C211.21 565.25 214.556 558.494 217.519 551.568H217.688ZM150.696 520.873C147.813 526.713 145.391 532.769 143.451 538.986C138.641 556.582 129.442 572.669 116.717 585.74C104.744 598.091 89.9387 607.334 73.585 612.667C64.3993 615.516 54.8497 617.021 45.2329 617.135C43.8081 617.135 41.9002 610.687 41.8036 610.445C62.5243 609.576 93.1948 597.356 109.279 582.383C127.005 565.478 141.833 529.253 144.296 518.603C146.366 519.529 148.506 520.288 150.696 520.873ZM256.715 222.838H458.053V365.033H256.715V222.838ZM235.97 222.838H255.459V366.41H457.957V385.923H118.335C115.97 384.928 113.486 384.246 110.945 383.894C111.873 381.985 113.248 380.328 114.954 379.064C121.33 373.703 129.83 375.587 132.294 366.361H235.97V222.838ZM24.7054 222.838H234.593V364.84H132.583C133.01 361.622 132.879 358.354 132.197 355.18C132.197 354.649 131.666 355.18 136.713 351.026C136.713 342.26 132.463 327.48 129.927 319.076C134.757 316.661 139.587 310.889 135.964 298.959C134.398 295.636 131.927 292.822 128.834 290.84C125.742 288.858 122.153 287.788 118.48 287.753C115.327 285.93 111.749 284.97 108.107 284.97C104.465 284.97 100.888 285.93 97.735 287.753C96.8537 287.874 95.9599 287.874 95.0785 287.753C80.1297 288.695 86.7951 298.162 71.5806 303.233C66.9196 304.731 61.9206 303.982 57.477 305.866C47.1408 310.43 44.1945 326.321 46.2955 337.478C47.5513 344.143 50.6908 348.925 54.3375 354.383C56.2183 357.542 57.1802 361.164 57.1147 364.84H24.7054V222.838ZM24.7054 366.216H57.1389C57.1389 371.771 55.6657 376.166 61.2444 378.291C62.6451 378.678 64.0216 378.919 65.3982 379.306C67.8132 379.934 67.8132 380.924 68.8033 382.952C69.4445 384.231 70.5505 385.216 71.8945 385.705H24.6571L24.7054 366.216ZM24.7054 387.106H78.1735C43.0353 401.596 27.8691 448.085 24.633 486.121L24.7054 387.106ZM458.101 678.573H25.4541L24.8262 636.841H458.101V678.573Z" fill="#663100"/>
<path d="M190.181 292.462C185.8 282.46 180.623 272.825 174.701 263.651C179.101 273.644 184.277 283.277 190.181 292.462V292.462ZM205.395 292.462C223.484 323.616 217.325 313.159 201.749 282.005C192.886 265.873 184.457 250.441 174.846 234.72C177.985 241.264 187.911 260.753 189.553 263.893C189.553 263.893 203.512 289.323 205.395 292.462ZM211.819 268.94C207.289 258.872 201.866 249.23 195.615 240.129C200.153 250.194 205.576 259.835 211.819 268.94V268.94ZM331.313 287.174C336.433 298.017 349.233 321.901 360.1 339.507C355.005 328.736 342.278 304.924 331.313 287.174ZM331.193 258.363C344.789 286.691 361.694 316.709 372.803 334.846C360.221 308.643 342.736 277.248 331.193 258.363ZM368.166 292.462C363.655 282.404 358.264 272.763 352.058 263.651C356.59 273.7 361.979 283.339 368.166 292.462ZM401.614 467.791C397.026 458.131 383.55 432.701 372.803 415.338C377.537 425.36 390.771 450.234 401.614 467.791ZM391.688 399.785C404.15 424.684 420.041 453.47 433.323 476.389C424.508 458.88 408.328 428.572 391.688 399.785ZM417.336 405.291C418.423 408.093 421.804 415.482 422.383 416.593C425.583 422.716 429.282 428.564 433.444 434.078C429.243 423.874 423.835 414.209 417.336 405.291V405.291ZM126.28 341.27C126.28 342.525 127.029 343.685 127.922 343.685C128.816 343.685 129.564 342.549 129.564 341.27C129.564 338.178 126.28 337.985 126.28 341.27ZM126.159 335.232C126.85 334.575 127.376 333.765 127.695 332.867C128.014 331.969 128.116 331.009 127.995 330.064C127.487 330.813 127.101 331.585 126.618 332.213C123.793 335.715 123.237 335.957 121.788 337.985C122.64 337.773 123.455 337.431 124.203 336.971C124.89 336.432 125.543 335.851 126.159 335.232ZM270.166 598.105C273.996 602.121 278.026 605.941 282.241 609.552C298.228 606.412 311.68 593.565 311.68 593.565C309.675 587.793 307.671 581.997 305.521 576.225C297.045 586.923 283.086 594.579 270.166 598.105Z" fill="#663100"/>
</g>
</svg>
