<svg width="483" height="483" viewBox="0 0 483 483" fill="none" xmlns="http://www.w3.org/2000/svg">
<path fill-rule="evenodd" clip-rule="evenodd" d="M205.396 210.564C205.316 210.693 205.251 210.831 205.203 210.974C205.146 211.1 205.098 211.229 205.058 211.361C205.045 211.489 205.045 211.619 205.058 211.747V212.568C205.041 212.664 205.041 212.762 205.058 212.858C205.131 213.017 205.229 213.164 205.348 213.293C205.416 213.392 205.497 213.481 205.589 213.558C205.601 213.65 205.648 213.734 205.72 213.792C205.792 213.851 205.883 213.879 205.976 213.872C206.02 213.867 206.063 213.852 206.102 213.829C206.141 213.806 206.175 213.776 206.202 213.74C206.229 213.704 206.248 213.663 206.259 213.619C206.27 213.576 206.272 213.53 206.265 213.486C206.344 213.391 206.409 213.285 206.458 213.172C206.526 213.015 206.583 212.854 206.628 212.689C206.64 212.585 206.64 212.479 206.628 212.375C206.64 212.23 206.64 212.085 206.628 211.94V211.554C206.638 211.434 206.638 211.312 206.628 211.192C206.566 211.065 206.493 210.944 206.41 210.83C206.317 210.707 206.211 210.594 206.096 210.491C206.093 210.445 206.081 210.399 206.059 210.357C206.038 210.316 206.008 210.279 205.972 210.25C205.936 210.22 205.894 210.198 205.848 210.186C205.803 210.174 205.756 210.171 205.71 210.177C205.618 210.19 205.534 210.236 205.476 210.308C205.418 210.38 205.389 210.472 205.396 210.564V210.564ZM208.463 215.901C208.392 216.065 208.335 216.234 208.294 216.408C208.277 216.585 208.277 216.763 208.294 216.939C208.282 217.1 208.282 217.262 208.294 217.422C208.281 217.583 208.281 217.745 208.294 217.905C208.278 218.098 208.278 218.292 208.294 218.485C208.28 218.614 208.28 218.743 208.294 218.871C208.377 219.068 208.483 219.254 208.608 219.427C208.685 219.556 208.774 219.677 208.873 219.789C208.873 219.879 208.909 219.965 208.973 220.028C209.036 220.092 209.122 220.127 209.212 220.127C209.301 220.127 209.387 220.092 209.451 220.028C209.514 219.965 209.55 219.879 209.55 219.789C209.619 219.658 209.675 219.52 209.719 219.379C209.787 219.174 209.835 218.964 209.864 218.751C209.876 218.622 209.876 218.493 209.864 218.364C209.886 218.164 209.886 217.961 209.864 217.761V217.278C209.83 217.12 209.781 216.967 209.719 216.819C209.654 216.658 209.573 216.504 209.477 216.36C209.391 216.195 209.285 216.041 209.163 215.901C209.146 215.807 209.094 215.723 209.018 215.665C208.942 215.607 208.848 215.579 208.753 215.587C208.661 215.605 208.579 215.657 208.525 215.734C208.471 215.81 208.449 215.905 208.463 215.998V215.901ZM206.241 220.683C206.179 220.862 206.139 221.049 206.12 221.238C206.092 221.414 206.092 221.594 206.12 221.769C206.099 221.93 206.099 222.092 206.12 222.252C206.109 222.413 206.109 222.575 206.12 222.735L206.265 223.315C206.312 223.44 206.368 223.561 206.434 223.677C206.546 223.853 206.667 224.022 206.797 224.184L207.111 224.523C207.133 224.61 207.188 224.686 207.264 224.735C207.34 224.784 207.432 224.803 207.521 224.788C207.614 224.765 207.694 224.707 207.743 224.625C207.793 224.544 207.809 224.446 207.787 224.354C207.801 224.209 207.801 224.063 207.787 223.919C207.804 223.71 207.804 223.5 207.787 223.291C207.797 223.154 207.797 223.017 207.787 222.88V222.301L207.69 221.842C207.634 221.685 207.57 221.532 207.497 221.383C207.418 221.227 207.32 221.081 207.207 220.948C207.095 220.797 206.974 220.652 206.845 220.514C206.834 220.468 206.814 220.426 206.785 220.388C206.757 220.351 206.721 220.32 206.68 220.298C206.64 220.275 206.595 220.261 206.548 220.257C206.501 220.252 206.455 220.258 206.41 220.272C206.324 220.295 206.25 220.351 206.205 220.428C206.16 220.505 206.147 220.596 206.169 220.683H206.241ZM226.6 212.52C227.018 212.546 227.437 212.546 227.855 212.52H228.338L229.039 212.375C229.453 212.307 229.865 212.219 230.27 212.109L231.092 211.916L231.888 211.602L232.42 211.385C232.468 211.392 232.517 211.388 232.564 211.375C232.611 211.361 232.654 211.337 232.691 211.305C232.727 211.273 232.757 211.233 232.777 211.188C232.797 211.144 232.807 211.096 232.806 211.047C232.809 210.999 232.803 210.951 232.788 210.906C232.773 210.861 232.749 210.819 232.717 210.783C232.686 210.748 232.648 210.718 232.605 210.697C232.562 210.676 232.516 210.664 232.468 210.66C232.217 210.554 231.959 210.465 231.695 210.395C231.423 210.358 231.147 210.358 230.874 210.395C230.529 210.36 230.181 210.36 229.836 210.395C229.384 210.46 228.94 210.565 228.507 210.709C228.211 210.795 227.921 210.9 227.638 211.023C227.412 211.135 227.194 211.265 226.986 211.409C226.759 211.556 226.541 211.718 226.334 211.892C226.275 211.899 226.219 211.919 226.17 211.95C226.12 211.982 226.078 212.025 226.048 212.075C226.017 212.125 225.999 212.182 225.993 212.24C225.988 212.299 225.996 212.358 226.017 212.413C226.037 212.468 226.071 212.518 226.114 212.558C226.156 212.598 226.208 212.628 226.264 212.645C226.32 212.663 226.38 212.667 226.438 212.658C226.496 212.649 226.551 212.626 226.6 212.592V212.52ZM254.952 210.25C254.952 210.25 255.483 210.25 256.328 210.467H261.424C261.656 210.428 261.892 210.428 262.124 210.467C262.198 210.53 262.293 210.565 262.39 210.565C262.487 210.565 262.581 210.53 262.656 210.467C262.723 210.396 262.761 210.3 262.761 210.202C262.761 210.103 262.723 210.008 262.656 209.936C262.309 209.565 261.879 209.283 261.4 209.115C261.217 209.018 261.022 208.945 260.82 208.898C260.399 208.803 259.971 208.747 259.54 208.728C258.977 208.692 258.413 208.692 257.85 208.728L256.739 208.898C256.432 208.965 256.133 209.062 255.845 209.187C255.538 209.285 255.24 209.406 254.952 209.55C254.858 209.567 254.774 209.619 254.716 209.695C254.658 209.77 254.63 209.865 254.638 209.96C254.64 210.009 254.653 210.057 254.676 210.101C254.699 210.145 254.731 210.183 254.77 210.212C254.809 210.242 254.854 210.263 254.902 210.274C254.95 210.285 255 210.285 255.048 210.274L254.952 210.25ZM248.528 216.939C248.528 216.939 248.528 218.123 248.721 219.886C248.721 220.755 248.866 221.745 248.938 222.808C249.011 223.871 249.132 224.74 249.228 225.706C249.325 226.672 249.373 227.686 249.446 228.604C249.531 229.729 249.531 230.86 249.446 231.985C249.462 232.234 249.462 232.484 249.446 232.734C249.459 232.814 249.459 232.895 249.446 232.975C249.021 233.501 248.449 233.888 247.803 234.086C246.692 234.503 245.531 234.771 244.35 234.883C244.258 234.883 244.169 234.918 244.102 234.98C244.035 235.043 243.994 235.129 243.988 235.221C243.981 235.269 243.984 235.319 243.998 235.365C244.012 235.412 244.036 235.455 244.068 235.492C244.1 235.529 244.14 235.558 244.184 235.578C244.229 235.598 244.277 235.608 244.326 235.607C245.631 235.754 246.951 235.697 248.238 235.438C249.198 235.233 250.079 234.755 250.774 234.062C251.164 233.508 251.39 232.855 251.426 232.178C251.526 230.957 251.526 229.729 251.426 228.507C251.426 227.565 251.281 226.551 251.16 225.537C251.039 224.523 250.919 223.532 250.75 222.591C250.581 221.649 250.339 220.538 250.146 219.693C249.735 217.978 249.421 216.819 249.421 216.819C249.436 216.762 249.437 216.702 249.425 216.644C249.413 216.587 249.388 216.532 249.352 216.486C249.316 216.439 249.27 216.402 249.217 216.376C249.164 216.35 249.106 216.336 249.047 216.336C248.988 216.336 248.93 216.35 248.877 216.376C248.824 216.402 248.778 216.439 248.742 216.486C248.706 216.532 248.681 216.587 248.669 216.644C248.657 216.702 248.658 216.762 248.673 216.819L248.528 216.939ZM245.606 245.895L247.031 245.219L247.562 244.953L248.31 244.495L249.252 243.987L250.194 243.504L251.039 243.046C251.455 242.798 251.891 242.588 252.343 242.418C252.391 242.415 252.438 242.402 252.48 242.381C252.523 242.36 252.561 242.331 252.593 242.295C252.624 242.259 252.648 242.217 252.664 242.172C252.679 242.127 252.685 242.079 252.682 242.031C252.679 241.984 252.666 241.937 252.645 241.894C252.624 241.852 252.595 241.813 252.559 241.782C252.523 241.751 252.481 241.727 252.436 241.711C252.391 241.696 252.343 241.69 252.295 241.693C251.594 241.548 250.871 241.548 250.17 241.693C249.719 241.783 249.281 241.929 248.866 242.128C248.319 242.391 247.794 242.697 247.296 243.046C246.678 243.453 246.132 243.958 245.678 244.543C245.292 245.074 245.098 245.388 245.098 245.388C245.036 245.462 245.001 245.557 245.001 245.654C245.001 245.751 245.036 245.845 245.098 245.919C245.17 245.987 245.265 246.025 245.364 246.025C245.463 246.025 245.558 245.987 245.63 245.919" fill="#663100"/>
<path fill-rule="evenodd" clip-rule="evenodd" d="M116.452 396.06V394.949C116.121 389.982 116.578 384.994 117.804 380.169C120.89 368.424 125.331 357.078 131.039 346.359L127.199 345.562C157.797 282.12 220.273 274.006 228.122 273.112L229.063 257.97C224.807 256.571 220.914 254.245 217.665 251.16C215.268 248.824 213.218 246.157 211.579 243.239C210.868 244.221 209.874 244.963 208.729 245.364C208.088 245.598 207.407 245.704 206.725 245.678C206.115 245.694 205.509 245.588 204.941 245.366C204.373 245.144 203.856 244.81 203.419 244.385C202.982 243.959 202.635 243.45 202.398 242.889C202.161 242.327 202.039 241.723 202.04 241.114C202.055 240.276 202.253 239.452 202.619 238.699C201.544 238.014 200.596 237.148 199.818 236.139C197.996 233.856 197.13 230.956 197.403 228.048C197.465 227.377 197.662 226.726 197.982 226.133C198.301 225.539 198.737 225.016 199.262 224.595C199.794 224.138 200.423 223.81 201.101 223.634C201.779 223.458 202.488 223.44 203.175 223.581C203.68 223.703 204.156 223.925 204.575 224.233C204.31 222.591 204.068 220.828 203.875 219.065C203.344 214.5 202.981 210.081 202.861 208.39L202.329 209.211C200.494 212.254 194.481 217.108 188.926 211.264C188.926 211.264 196.002 209.236 194.795 206.313C193.587 203.391 190.81 206.313 188.757 200.01C186.704 193.707 189.651 192.765 191.752 191.92C193.853 191.075 196.896 191.92 197.548 187.742C198.2 183.564 198.948 170.837 216.53 172.89C216.53 172.89 220.128 162.312 226.383 161.491C232.638 160.67 235.656 164.461 241.138 162.843C246.621 161.225 247.345 155.792 253.213 155.888C259.082 155.985 264.153 164.92 269.901 155.043C270.468 155.241 270.98 155.568 271.397 155.999C271.815 156.431 272.125 156.954 272.303 157.527C272.482 158.1 272.523 158.707 272.425 159.299C272.327 159.891 272.091 160.451 271.737 160.936C271.737 160.936 278.716 158.931 280.962 162.723C283.208 166.514 281.179 174.049 285.792 176.126C290.404 178.203 296.007 177.816 295.742 183.178C295.476 188.539 290.549 191.944 294.727 195.253C298.905 198.561 303.542 198.899 301.972 204.913C300.403 210.926 292.312 215.08 297.142 218.799C301.972 222.518 303.759 215.635 303.759 215.635C303.759 215.635 302.383 229.425 287.386 226.43C287.436 227.178 287.436 227.929 287.386 228.676C287.316 229.497 287.154 230.307 286.903 231.091C286.551 232.116 286.01 233.066 285.309 233.893C284.25 235.173 282.827 236.1 281.227 236.549C280.711 236.721 280.176 236.835 279.634 236.887C279.28 236.909 278.925 236.909 278.571 236.887C278.408 237.296 278.214 237.692 277.991 238.071C277.715 238.525 277.408 238.961 277.074 239.375C277.773 240.987 278.166 242.715 278.233 244.47C278.174 246.549 277.882 248.615 277.363 250.629C276.542 254.227 275.383 258.019 274.948 259.105C275.504 260.361 277.774 265.457 280.455 270.939C288.11 272.774 342.786 287.602 366.235 343.558L356.575 345.538C360.971 362.153 360.295 377.609 355.078 389.008C354.499 390.24 353.871 391.423 353.194 392.607H378.624L387.512 392.727L398.186 392.92L405.431 393.114C409.512 393.114 413.183 393.403 416.105 393.548L423.229 393.886C423.326 393.886 423.418 393.925 423.486 393.993C423.554 394.061 423.592 394.153 423.592 394.249C423.586 394.347 423.542 394.439 423.47 394.506C423.399 394.574 423.304 394.611 423.205 394.611H398.283L387.608 394.442L378.697 394.273L369.81 394.056L360.898 393.717L352.832 393.331C350.511 397.113 347.415 400.359 343.748 402.857C340.08 405.355 335.925 407.046 331.556 407.821C319.264 410.236 309.29 405.406 301.32 397.799C300.338 396.833 299.372 395.818 298.422 394.756L233.604 394.394C233.942 395.191 234.038 396.277 234.546 397.557C234.616 397.755 234.696 397.948 234.787 398.137H297.022C297.161 398.138 297.297 398.177 297.416 398.249C297.535 398.321 297.632 398.424 297.698 398.547C297.698 398.547 304.001 410.888 311.101 424.895C320.399 443.225 331.073 464.453 331.073 464.453C331.149 464.589 331.189 464.743 331.189 464.9C331.189 465.056 331.149 465.21 331.073 465.346C330.986 465.479 330.868 465.587 330.729 465.663C330.59 465.739 330.434 465.779 330.276 465.781C330.276 465.781 283.594 464.791 243.167 463.849C232.783 463.632 222.809 463.39 214.187 463.173L185.207 462.4C185.095 462.402 184.984 462.374 184.887 462.319C184.789 462.264 184.708 462.183 184.652 462.086C184.599 461.986 184.571 461.874 184.571 461.76C184.571 461.646 184.599 461.535 184.652 461.434L205.227 421.007C203.464 421.562 201.46 422.094 199.166 422.577C195.04 423.412 190.872 424.025 186.68 424.412C176.775 425.445 166.773 425.063 156.976 423.277C140.071 420.041 126.957 412.796 119.857 404.416C118.112 402.229 116.971 399.623 116.549 396.857L112.516 397.05C110.511 397.05 108.048 397.267 105.271 397.34H81.1206L75.0831 397.171C71.3881 397.171 69.0456 396.929 69.0456 396.929C68.996 396.933 68.9463 396.926 68.8995 396.909C68.8527 396.892 68.8099 396.866 68.7737 396.832C68.7374 396.798 68.7086 396.757 68.6889 396.712C68.6692 396.666 68.6591 396.617 68.6592 396.567C68.6653 396.469 68.7087 396.377 68.7806 396.309C68.8524 396.242 68.9472 396.205 69.0456 396.205L75.1072 396.06L81.1447 395.843H105.295C108.072 395.843 110.559 395.988 112.54 396.06L116.452 396.229V396.06ZM234.956 399.272C235.391 400.31 235.825 401.445 236.284 402.605L237.806 406.734C238.057 406.872 238.299 407.025 238.53 407.193C239.037 407.547 239.514 407.943 239.955 408.376C240.269 408.69 240.583 409.053 240.921 409.463C241.365 410.044 241.776 410.648 242.153 411.274C242.783 412.358 243.247 413.53 243.529 414.752C243.62 415.181 243.669 415.618 243.674 416.056C243.67 416.545 243.571 417.029 243.384 417.481C243.07 418.133 242.636 418.495 242.056 418.447C241.896 418.467 241.734 418.467 241.573 418.447C241.573 419.292 242.225 423.784 242.322 424.581C242.418 425.378 242.491 426.199 242.491 426.199C242.51 426.386 242.472 426.574 242.381 426.738C242.291 426.902 242.152 427.034 241.984 427.117C241.809 427.201 241.612 427.228 241.421 427.193C241.23 427.158 241.055 427.064 240.921 426.924C240.921 426.924 240.704 426.682 240.414 426.296C240.29 426.166 240.185 426.019 240.1 425.861C239.907 425.595 239.738 425.33 239.593 425.088L236.671 421.562C234.821 422.49 232.685 422.672 230.706 422.07C228.534 421.323 226.589 420.034 225.055 418.326C222.553 417.568 219.927 417.314 217.327 417.578C213.471 418.345 209.701 419.494 206.073 421.007L185.956 461.265L213.946 461.724L242.926 462.279C279.151 463.004 320.206 463.897 328.513 464.091C326.098 459.116 317.114 441.462 309.193 425.837C302.914 413.303 297.336 402.073 296.225 399.803L234.956 399.272ZM131.691 346.504C126.232 357.316 122.027 368.717 119.157 380.483C118.054 385.155 117.671 389.968 118.022 394.756C118.199 397.866 119.32 400.848 121.234 403.305C128.165 411.444 141.037 418.35 157.459 421.514C167.008 423.314 176.759 423.794 186.439 422.939C190.57 422.596 194.681 422.04 198.755 421.273C207.884 419.558 212.062 416.781 217.254 416.298C220.073 415.965 222.93 416.313 225.586 417.312C226.19 417.529 226.552 418.978 228.001 419.727C233.966 422.142 234.594 420.427 235.246 419.582C235.246 419.775 234.159 419.582 234.038 419.582C232.764 419.509 231.535 419.082 230.488 418.35C229.535 417.66 228.764 416.749 228.242 415.694C228.181 415.624 228.148 415.534 228.148 415.44C228.148 415.347 228.181 415.257 228.242 415.187C228.31 415.12 228.401 415.083 228.496 415.083C228.591 415.083 228.682 415.12 228.75 415.187C229.479 416.064 230.43 416.731 231.503 417.119C232.107 417.347 232.742 417.486 233.386 417.529C234.431 417.626 235.482 417.626 236.526 417.529C236.733 417.573 236.947 417.573 237.154 417.529C237.209 417.51 237.257 417.474 237.292 417.427C237.326 417.379 237.345 417.322 237.347 417.264C237.296 417.046 237.187 416.846 237.033 416.684C236.831 416.477 236.582 416.32 236.308 416.225C235.513 416.052 234.769 415.696 234.135 415.187C233.506 414.337 233.001 413.402 232.638 412.41C232.275 411.54 231.792 410.478 231.285 409.27C231.02 408.618 230.754 407.893 230.464 407.145C230.464 406.976 230.464 406.783 230.271 406.589C228.87 406.509 227.475 406.348 226.093 406.106C225.369 405.986 224.62 405.841 223.895 405.648C222.682 405.342 221.489 404.963 220.321 404.512C219.115 404.059 217.958 403.484 216.868 402.798L213.583 400.6C212.859 400.141 212.134 399.634 211.41 399.127C210.685 398.62 209.526 397.799 208.729 397.219L206.073 395.239C206.012 395.169 205.978 395.078 205.978 394.985C205.978 394.892 206.012 394.802 206.073 394.732C201.841 392.405 197.901 389.584 194.336 386.328C189.772 382.441 184.703 379.191 179.266 376.668C178.463 376.752 177.654 376.752 176.851 376.668H163.255L160.84 376.523L158.57 376.354C158.519 376.357 158.468 376.35 158.42 376.334C158.372 376.317 158.327 376.291 158.289 376.258C158.251 376.224 158.22 376.183 158.198 376.137C158.175 376.092 158.162 376.042 158.159 375.991C158.164 375.895 158.203 375.803 158.27 375.732C158.336 375.661 158.425 375.616 158.521 375.605L160.936 375.291C161.637 375.291 162.482 375.098 163.351 375.049C164.221 375.001 165.259 375.049 166.298 375.049H170.717C172.19 375.049 172.963 375.049 174.001 375.315C174.816 375.41 175.623 375.564 176.416 375.774C176.98 375.897 177.536 376.05 178.083 376.233C180.963 370.933 183.504 365.456 185.69 359.835C170.91 355.005 142.727 348.774 131.691 346.408V346.504ZM228.677 380.338C226.84 380.819 225.04 381.433 223.292 382.174L224.596 386.859C224.596 386.714 224.596 386.69 225.272 385.989C225.402 385.852 225.548 385.73 225.707 385.627L226.19 385.386L226.697 385.192L227.301 384.999C228.017 384.731 228.782 384.616 229.546 384.661C229.74 384.661 229.957 385.217 229.546 385.724C230.247 385.724 230.392 386.472 230.199 386.545L229.86 386.859C229.702 387.019 229.524 387.157 229.329 387.269L228.967 387.463L227.735 387.994H226.165C225.296 387.994 225.199 387.873 225.127 387.632C225.055 387.39 225.272 387.269 225.562 387.004C225.079 387.004 224.886 387.004 224.765 386.714C224.644 386.424 227.373 393.428 228.073 395.022C228.411 395.77 228.798 396.64 229.208 397.63C229.619 398.62 229.86 399.344 230.199 400.286C230.537 401.228 230.851 402.049 231.165 402.943C231.478 403.836 231.937 405.116 232.275 406.179L232.976 408.328C233.338 409.584 233.628 410.743 233.845 411.637C233.845 412.096 234.28 412.965 234.304 413.062C234.415 413.424 234.634 413.745 234.932 413.979C235.07 414.046 235.216 414.094 235.367 414.124C235.819 414.24 236.279 414.32 236.743 414.366C237.412 414.481 238.028 414.801 238.506 415.283C238.843 415.651 239.076 416.101 239.182 416.587C239.242 416.886 239.232 417.193 239.153 417.487C239.073 417.78 238.926 418.051 238.723 418.278C238.399 418.625 237.979 418.869 237.516 418.978C237.298 419.379 237.021 419.746 236.695 420.065C236.507 420.282 236.287 420.469 236.043 420.621L235.874 420.741C236.284 420.572 237.081 420.21 237.54 420.741L239.279 422.528V422.287C239.439 422.089 239.635 421.925 239.859 421.804C239.982 421.719 240.122 421.662 240.269 421.635V421.248C239.979 419.292 239.762 417.336 239.689 416.877C239.617 416.418 238.458 413.448 237.274 409.85C236.502 407.604 235.632 405.02 234.859 402.605C234.304 400.89 233.821 399.248 233.386 397.775L228.677 380.338ZM238.941 408.932V409.125C240.366 413.086 241.356 416.225 241.356 416.225C241.364 416.289 241.364 416.354 241.356 416.418V416.636C241.443 416.675 241.538 416.695 241.634 416.695C241.729 416.695 241.824 416.675 241.911 416.636C241.911 416.636 242.08 416.249 241.911 414.969C241.911 414.68 241.766 414.39 241.67 414.1C241.399 413.215 241.026 412.364 240.559 411.564C240.168 410.874 239.741 410.205 239.279 409.56L238.796 408.884L238.941 408.932ZM338.535 348.726C339.139 350.223 339.646 351.672 340.081 353.097C340.105 353.19 340.093 353.288 340.049 353.373C340.004 353.458 339.93 353.523 339.84 353.556C339.792 353.57 339.742 353.575 339.692 353.569C339.643 353.564 339.595 353.548 339.552 353.523C339.509 353.498 339.472 353.465 339.442 353.425C339.413 353.384 339.392 353.339 339.381 353.29C337.457 347.922 334.878 342.812 331.701 338.076C328.779 333.511 325.325 328.826 321.679 324.214C317.356 318.756 312.743 313.443 308.348 308.54C298.302 297.383 289.318 288.544 287.168 285.912C284.778 282.606 282.692 279.09 280.938 275.407C276.977 267.679 273.258 259.033 273.258 259.033C273.186 258.838 273.186 258.624 273.258 258.429C273.258 258.429 274.707 253.961 275.673 249.783C276.207 247.91 276.523 245.981 276.615 244.036C276.591 242.756 276.379 241.487 275.987 240.268C275.801 239.572 275.472 238.922 275.021 238.36C274.968 238.292 274.903 238.234 274.828 238.191C274.768 238.227 274.718 238.277 274.683 238.336C274.223 239.11 273.989 239.997 274.007 240.896C273.789 243.577 274.176 246.982 273.789 248.141C273.767 248.233 273.719 248.316 273.65 248.38C273.582 248.444 273.496 248.487 273.403 248.503C273.315 248.523 273.223 248.518 273.137 248.488C273.052 248.458 272.976 248.405 272.92 248.334C271.751 247.032 270.192 246.143 268.476 245.799C267.546 245.681 266.603 245.877 265.796 246.354H266.061C266.902 246.365 267.729 246.572 268.476 246.958C268.914 247.173 269.334 247.424 269.732 247.707C270.298 248.141 270.817 248.635 271.278 249.18C271.346 249.251 271.383 249.347 271.383 249.445C271.383 249.544 271.346 249.639 271.278 249.711C271.246 249.747 271.207 249.776 271.163 249.795C271.119 249.815 271.072 249.825 271.024 249.825C270.976 249.825 270.929 249.815 270.885 249.795C270.841 249.776 270.802 249.747 270.771 249.711C270.277 249.384 269.761 249.093 269.225 248.842C268.468 248.461 267.651 248.216 266.81 248.117C266.189 248.029 265.556 248.111 264.978 248.353C264.4 248.595 263.898 248.989 263.526 249.494C263.032 250.04 262.64 250.67 262.366 251.353C262.209 251.762 262.127 252.195 262.125 252.633C262.12 253.031 262.194 253.426 262.343 253.795C262.492 254.164 262.714 254.5 262.994 254.782C263.216 255.041 263.498 255.24 263.815 255.362V255.024C264.164 253.833 264.813 252.752 265.699 251.884C265.771 251.817 265.866 251.779 265.965 251.779C266.063 251.779 266.159 251.817 266.23 251.884C266.291 251.955 266.325 252.045 266.325 252.138C266.325 252.231 266.291 252.321 266.23 252.392C265.277 253.39 264.646 254.652 264.419 256.014C264.102 257.391 263.988 258.807 264.081 260.216C264.298 265.046 265.554 270.021 266.158 275.165C266.303 276.421 266.399 277.58 266.448 278.981C266.448 281.396 267.679 290.549 269.346 301.754C270.408 308.806 271.761 316.727 273.065 324.455C274.697 334.526 276.882 344.498 279.609 354.329C283.232 366.042 290.429 384.637 302.31 396.157C309.845 403.402 319.215 407.942 330.952 405.817C335.908 404.933 340.568 402.836 344.516 399.713C348.464 396.591 351.579 392.54 353.581 387.921C358.87 376.74 359.16 361.67 355.102 345.273L338.535 348.726ZM227.735 399.199L225.827 399.417H216.916L216.385 400.262L217.834 401.204C219.44 402.207 221.158 403.017 222.954 403.619C224.04 404.005 225.151 404.368 226.238 404.682C227.325 404.995 228.653 405.43 229.86 405.672L229.281 404.029C228.967 403.112 228.653 402.218 228.363 401.325C228.073 400.431 227.928 400.021 227.735 399.393V399.199ZM206.99 394.973L209.405 396.229C210.275 396.712 211.265 397.243 212.279 397.847L214.525 399.199L215.564 399.852L215.95 398.499C216.003 398.37 216.093 398.26 216.21 398.182C216.326 398.105 216.462 398.064 216.602 398.064C216.602 398.064 217.158 398.064 218.075 397.944H223.92L225.876 398.064L227.445 398.258C227.18 397.388 226.359 395.311 226.286 395.046L206.99 394.973ZM228.725 274.078C227.107 279.778 224.137 289.172 232.541 293.229C241.694 297.48 251.161 284.97 251.161 284.97C256.45 297.045 264.588 295.089 267.027 294.171C266.11 286.926 265.554 281.492 265.53 279.681C265.53 278.619 265.53 277.556 265.337 276.493C263.537 278.523 261.446 280.273 259.13 281.686C256.53 283.285 253.613 284.299 250.581 284.656C247.129 284.774 243.712 283.939 240.704 282.241C236.346 279.999 232.289 277.216 228.629 273.958L228.725 274.078ZM273.62 216.432C272.344 215.994 271.216 215.207 270.362 214.162C269.509 213.117 268.964 211.854 268.79 210.516C267.776 203.44 269.587 202.643 263.018 199.431C256.45 196.219 252.32 196.629 247.973 191.123C243.626 185.617 245.558 183.878 237.975 183.371C230.392 182.864 225.755 186.631 219.886 177.913C219.886 177.913 222.301 189.843 218.8 193.031C215.298 196.219 212.545 193.611 211.337 199.382C211.072 200.711 210.879 201.797 210.685 202.474C210.749 202.54 210.791 202.624 210.806 202.715C210.806 202.715 211.192 205.589 211.603 209.525C211.748 210.926 211.869 212.472 212.014 214.066C212.158 215.659 212.231 217.495 212.352 219.185C212.472 220.876 212.545 222.735 212.641 224.305C212.738 225.875 212.811 227.879 212.859 229.135C212.907 230.391 212.859 231.188 212.859 231.188C212.859 231.316 212.828 231.442 212.769 231.555C212.711 231.669 212.625 231.766 212.521 231.84C212.404 231.921 212.265 231.964 212.122 231.964C211.98 231.964 211.841 231.921 211.724 231.84C210.468 231.019 209.309 230.222 208.464 229.425C203.368 225.271 204.237 225.054 202.837 224.74C202.349 224.675 201.854 224.719 201.386 224.869C200.918 225.02 200.49 225.273 200.132 225.609C199.787 225.914 199.508 226.285 199.308 226.7C199.109 227.115 198.995 227.565 198.973 228.024C198.771 230.495 199.542 232.948 201.122 234.859C201.837 235.76 202.713 236.522 203.706 237.105C204.242 236.64 204.855 236.273 205.517 236.018C206.288 235.702 207.102 235.506 207.932 235.438C207.982 235.428 208.033 235.428 208.082 235.438C208.131 235.449 208.178 235.47 208.219 235.499C208.26 235.529 208.294 235.566 208.32 235.61C208.345 235.654 208.361 235.702 208.367 235.752C208.374 235.8 208.371 235.848 208.359 235.895C208.347 235.942 208.325 235.985 208.296 236.023C208.267 236.062 208.23 236.094 208.189 236.118C208.147 236.141 208.101 236.157 208.053 236.163C207.003 236.514 206.033 237.072 205.203 237.805C206.912 238.384 208.739 238.525 210.516 238.216C210.722 238.188 210.932 238.233 211.108 238.344C211.284 238.454 211.417 238.622 211.482 238.819C213.173 242.903 215.698 246.588 218.896 249.639C222.07 252.727 225.925 255.026 230.15 256.352C230.341 256.423 230.504 256.552 230.617 256.722C230.729 256.891 230.786 257.091 230.778 257.294L229.716 272.388C233.212 275.584 237.079 278.349 241.235 280.623C243.991 282.226 247.127 283.06 250.315 283.038C253.193 282.785 255.98 281.903 258.478 280.454C260.951 279.043 263.184 277.25 265.095 275.141C264.564 270.118 263.453 265.288 263.308 260.651C263.254 259.231 263.384 257.811 263.695 256.425C262.907 256.307 262.183 255.923 261.642 255.338C261.04 254.728 260.65 253.941 260.531 253.092C260.488 252.435 260.587 251.776 260.821 251.16C261.139 250.272 261.622 249.453 262.246 248.745C262.732 248.167 263.322 247.683 263.984 247.32C264.536 246.635 265.247 246.096 266.055 245.751C266.864 245.406 267.745 245.264 268.621 245.34C270.243 245.58 271.761 246.285 272.992 247.368C272.992 245.847 272.727 243.311 272.847 241.234C272.834 240.081 273.134 238.945 273.717 237.95C273.84 237.774 273.998 237.626 274.181 237.514C274.363 237.402 274.567 237.328 274.779 237.298C275.143 237.318 275.496 237.433 275.801 237.632C276.106 237.832 276.353 238.108 276.518 238.433C276.655 238.142 276.776 237.844 276.88 237.539C277.06 237.015 277.181 236.472 277.243 235.921C277.267 235.727 277.367 235.549 277.52 235.428C277.674 235.306 277.869 235.249 278.064 235.269C278.938 235.234 279.802 235.063 280.624 234.762C281.877 234.338 283 233.597 283.884 232.613C284.465 231.932 284.953 231.177 285.333 230.367C285.699 229.586 286.005 228.779 286.251 227.952C286.396 227.445 286.565 226.889 286.685 226.285C284.573 225.902 282.618 224.912 281.058 223.436C279.909 223.895 278.847 224.549 277.919 225.368C277.57 225.697 277.247 226.052 276.953 226.43C276.517 226.938 276.174 227.519 275.939 228.145C275.883 228.353 275.755 228.535 275.579 228.659C275.402 228.782 275.187 228.84 274.973 228.821C274.758 228.799 274.559 228.702 274.408 228.548C274.258 228.393 274.167 228.191 274.152 227.976C274.152 227.976 273.982 226.02 273.813 223.677C273.813 222.735 273.813 221.745 273.669 220.779V216.408L273.62 216.432ZM204.165 239.423C203.927 239.936 203.819 240.5 203.851 241.065C203.857 241.448 203.939 241.826 204.092 242.176C204.245 242.527 204.466 242.844 204.742 243.109C205.018 243.374 205.344 243.582 205.701 243.72C206.058 243.858 206.439 243.925 206.821 243.915C207.494 243.99 208.175 243.932 208.826 243.746C209.734 243.524 210.567 243.066 211.241 242.418C210.782 241.5 210.444 240.751 210.251 240.268C208.227 240.502 206.177 240.228 204.286 239.471L204.165 239.423ZM210.106 204.454C209.647 205.154 208.971 205.347 207.425 205.855C205.01 206.652 204.455 206.386 203.561 207.376C202.668 208.366 204.141 212.931 204.986 218.702C205.372 221.311 205.735 223.17 206.218 225.754C206.218 226.285 207.763 227.493 209.236 228.435C209.84 228.821 210.492 229.256 211.241 229.691V229.111C211.241 227.904 211.023 226.237 210.903 224.281C210.782 222.325 210.685 220.948 210.565 219.161C210.444 217.374 210.371 215.708 210.299 214.041C210.226 212.375 210.299 210.878 210.154 209.477V204.309L210.106 204.454ZM274.659 216.625C274.659 217.036 274.828 217.543 274.924 218.123C275.021 218.702 275.19 219.644 275.311 220.538C275.431 221.431 275.528 222.47 275.625 223.412C275.625 223.967 275.625 224.523 275.77 225.03C276.139 224.652 276.553 224.32 277.001 224.04C278.058 223.355 279.24 222.887 280.479 222.663C279.272 221.156 278.678 219.251 278.812 217.326C277.403 217.301 276.004 217.074 274.659 216.65" fill="#663100"/>
<path fill-rule="evenodd" clip-rule="evenodd" d="M56.8012 273.933C44.9904 273.933 33.6633 278.625 25.3119 286.977C16.9604 295.328 12.2686 306.655 12.2686 318.466C12.2686 330.277 16.9604 341.604 25.3119 349.955C33.6633 358.307 44.9904 362.999 56.8012 362.999C65.6458 363.01 74.294 360.391 81.6456 355.473C88.9972 350.556 94.7199 343.563 98.0858 335.383C101.452 327.204 102.309 318.209 100.548 309.541C98.7865 300.874 94.4871 292.926 88.1962 286.709C84.0628 282.616 79.1614 279.38 73.7736 277.188C68.3858 274.996 62.6178 273.89 56.8012 273.933V273.933ZM56.8012 274.658C68.263 274.76 79.2208 279.385 87.2896 287.526C95.3584 295.667 99.8852 306.666 99.8848 318.128C99.78 326.591 97.1765 334.834 92.4015 341.822C87.6265 348.81 80.8929 354.231 73.0466 357.404C65.2003 360.576 56.5913 361.36 48.3013 359.655C40.0112 357.951 32.4097 353.834 26.4519 347.823C20.494 341.812 16.4455 334.174 14.815 325.869C13.1845 317.564 14.0447 308.962 17.2875 301.144C20.5303 293.327 26.0111 286.642 33.0413 281.929C40.0716 277.217 48.3377 274.687 56.8012 274.658V274.658ZM103.628 71.7496C88.2354 71.8047 73.338 77.1952 61.4742 87.0027C49.6104 96.8101 41.5142 110.428 38.5651 125.535C35.616 140.643 37.9965 156.306 45.301 169.855C52.6054 183.404 64.3819 194.002 78.6238 199.841C92.8658 205.681 108.692 206.402 123.406 201.882C138.12 197.361 150.811 187.878 159.317 175.049C167.823 162.22 171.618 146.839 170.055 131.526C168.492 116.213 161.668 101.915 150.745 91.0696C144.557 84.896 137.207 80.0099 129.12 76.6938C121.033 73.3777 112.369 71.6972 103.628 71.7496V71.7496ZM103.628 72.4983C118.788 72.4437 133.498 77.6482 145.251 87.2248C157.004 96.8014 165.072 110.157 168.08 125.016C171.088 139.875 168.85 155.317 161.748 168.711C154.646 182.105 143.118 192.621 129.131 198.468C115.143 204.314 99.5606 205.129 85.0395 200.773C70.5183 196.418 57.957 187.161 49.4965 174.581C41.036 162.001 37.1999 146.876 38.6419 131.785C40.084 116.693 46.7151 102.568 57.4049 91.8183C63.4553 85.7095 70.6541 80.8576 78.5869 77.5419C86.5198 74.2262 95.0301 72.5121 103.628 72.4983V72.4983ZM253.769 16.905C241.341 16.971 229.321 21.3445 219.757 29.2802C210.193 37.2158 203.677 48.2225 201.32 60.4243C198.962 72.6261 200.909 85.268 206.828 96.1953C212.747 107.123 222.272 115.659 233.78 120.35C245.289 125.041 258.067 125.596 269.939 121.921C281.81 118.245 292.04 110.566 298.884 100.193C305.729 89.8204 308.764 77.395 307.473 65.0347C306.182 52.6744 300.645 41.1442 291.805 32.4093C286.799 27.4463 280.862 23.5216 274.334 20.8608C267.807 18.2001 260.817 16.8557 253.769 16.905ZM253.769 17.6536C265.946 17.5591 277.78 21.689 287.254 29.3401C296.729 36.9912 303.257 47.6901 305.729 59.6146C308.2 71.5391 306.461 83.9516 300.808 94.738C295.155 105.524 285.938 114.017 274.726 118.77C263.514 123.524 251.001 124.243 239.318 120.805C227.635 117.368 217.505 109.987 210.654 99.9196C203.802 89.852 200.652 77.7204 201.741 65.5913C202.83 53.4621 208.09 42.0856 216.626 33.3994C221.482 28.474 227.263 24.556 233.636 21.8705C240.01 19.185 246.852 17.7848 253.769 17.7502V17.6536ZM390.771 93.9918C376.555 94.0548 362.8 99.0465 351.851 108.116C340.902 117.185 333.438 129.771 330.731 143.728C328.023 157.685 330.24 172.149 337.003 184.654C343.766 197.16 354.656 206.933 367.818 212.307C380.98 217.682 395.599 218.325 409.182 214.128C422.766 209.93 434.473 201.152 442.308 189.289C450.144 177.426 453.623 163.213 452.152 149.072C450.681 134.931 444.351 121.738 434.241 111.742C428.525 106.062 421.741 101.569 414.28 98.5226C406.82 95.4762 398.83 93.9363 390.771 93.9918V93.9918ZM390.771 94.7163C404.739 94.6352 418.302 99.3993 429.15 108.197C439.999 116.994 447.461 129.281 450.267 142.964C453.072 156.647 451.046 170.879 444.535 183.235C438.024 195.592 427.43 205.309 414.558 210.731C401.686 216.153 387.332 216.944 373.942 212.969C360.552 208.995 348.955 200.501 341.125 188.935C333.295 177.368 329.718 163.445 331.003 149.537C332.288 135.629 338.355 122.596 348.171 112.66C353.741 107.012 360.372 102.52 367.682 99.4403C374.993 96.3611 382.839 94.7557 390.771 94.7163V94.7163ZM428.228 274.441C418.42 274.536 408.949 278.031 401.429 284.328C393.91 290.626 388.807 299.337 386.991 308.975C385.175 318.614 386.759 328.585 391.472 337.187C396.184 345.788 403.735 352.49 412.836 356.147C421.936 359.805 432.024 360.194 441.379 357.246C450.734 354.298 458.777 348.197 464.137 339.983C469.497 331.768 471.842 321.949 470.772 312.199C469.703 302.449 465.284 293.372 458.271 286.516C454.305 282.624 449.609 279.554 444.454 277.481C439.298 275.409 433.784 274.376 428.228 274.441ZM428.228 275.165C439.161 275.165 449.647 279.508 457.378 287.239C465.109 294.97 469.452 305.456 469.452 316.389C469.452 327.322 465.109 337.808 457.378 345.539C449.647 353.27 439.161 357.613 428.228 357.613C420.108 357.627 412.167 355.232 405.408 350.733C398.649 346.233 393.376 339.83 390.256 332.334C387.136 324.837 386.309 316.584 387.88 308.618C389.45 300.651 393.348 293.33 399.079 287.578C402.889 283.707 407.424 280.625 412.426 278.508C417.427 276.39 422.797 275.279 428.228 275.238V275.165ZM50.4014 262.438L53.4202 262.849C52.4971 249.115 56.6095 235.516 64.988 224.595C64.988 224.595 63.9254 234.641 66.7027 241.138C66.7027 241.138 71.5327 220.393 71.2429 213.872C71.2429 213.872 55.9076 219.016 47.0929 226.141C47.0929 226.141 57.5498 223.943 61.2448 223.412C57.6323 228.282 54.8872 233.74 53.1304 239.544C50.8179 246.943 49.8607 254.699 50.3048 262.438H50.4014ZM146.156 77.28L148.064 79.695C156.821 69.0557 169.162 61.9796 182.768 59.7954C182.768 59.7954 175.088 66.3642 172.649 73.0054C172.649 73.0054 190.447 61.2444 194.673 56.2936C194.673 56.2936 179.966 49.5075 168.712 48.6864C168.712 48.6864 177.841 54.265 180.787 56.4144C174.836 57.4928 169.117 59.5926 163.882 62.6209C157.147 66.4114 151.144 71.3759 146.156 77.28V77.28ZM312.356 58.129L311.149 60.9304C324.636 63.6927 336.656 71.2734 344.959 82.2549C344.959 82.2549 335.54 78.5599 328.537 79.5018C328.537 79.5018 347.253 89.7172 353.629 91.1179C353.629 91.1179 352.735 74.9857 348.195 64.5529C348.195 64.5529 347.519 75.2272 347.06 78.9222C343.306 74.1605 338.765 70.0765 333.633 66.8472C327.101 62.6781 319.881 59.7017 312.308 58.0566L312.356 58.129ZM429.194 211.916L426.248 212.713C432.443 225.017 433.946 239.157 430.474 252.488C430.474 252.488 427.552 242.828 422.456 237.998C422.456 237.998 426.03 259.009 428.88 264.877C428.88 264.877 440.955 254.179 446.292 244.205C446.292 244.205 437.502 250.315 434.217 252.223C435.637 246.329 436.029 240.234 435.377 234.207C434.629 226.493 432.502 218.975 429.098 212.013" fill="#663100"/>
<path fill-rule="evenodd" clip-rule="evenodd" d="M58.6611 296.369C57.1511 296.224 55.6308 296.224 54.1209 296.369L53.3722 299.991C51.9278 300.221 50.5113 300.602 49.146 301.126L46.731 298.349C45.3587 298.982 44.0489 299.742 42.8187 300.619L43.9779 304.169C42.836 305.082 41.7992 306.119 40.8867 307.26L37.3608 306.077C36.4749 307.31 35.7144 308.629 35.0907 310.014L37.8679 312.429C37.3323 313.79 36.9516 315.208 36.7329 316.655L33.0862 317.403C32.9413 318.913 32.9413 320.434 33.0862 321.944L36.7329 322.692C36.9516 324.139 37.3323 325.557 37.8679 326.919L35.0907 329.334C35.7147 330.71 36.4752 332.021 37.3608 333.246L40.8867 332.087C41.8056 333.223 42.8417 334.259 43.9779 335.178L42.8187 338.704C44.0436 339.589 45.3543 340.35 46.731 340.974L49.146 338.197C50.5077 338.732 51.9254 339.113 53.3722 339.332L54.1209 342.978C55.6308 343.123 57.1511 343.123 58.6611 342.978L59.4097 339.332C60.8638 339.11 62.2891 338.729 63.6601 338.197L66.0751 340.974C67.4596 340.35 68.7783 339.59 70.0116 338.704L68.8282 335.178C69.9758 334.272 71.0133 333.234 71.9194 332.087L75.4695 333.246C76.3469 332.016 77.1069 330.706 77.7396 329.334L74.9623 326.919C75.4869 325.553 75.8673 324.137 76.0974 322.692L79.7199 321.944C79.8648 320.434 79.8648 318.913 79.7199 317.403L76.0974 316.655C75.8673 315.21 75.4869 313.794 74.9623 312.429L77.7396 310.014C77.1065 308.634 76.3465 307.316 75.4695 306.077L71.9194 307.26C71.0273 306.152 70.0057 305.155 68.8765 304.29L70.0599 300.74C68.8209 299.863 67.5031 299.103 66.1234 298.47L63.7084 301.247C62.3337 300.726 60.9096 300.346 59.458 300.112L58.6611 296.369ZM56.391 315.037C57.3519 315.008 58.2996 315.266 59.1127 315.779C59.9258 316.292 60.5674 317.036 60.9553 317.916C61.3432 318.795 61.4597 319.771 61.29 320.717C61.1204 321.663 60.6722 322.537 60.0028 323.227C59.3334 323.918 58.4734 324.392 57.5327 324.591C56.5921 324.789 55.6136 324.702 54.7225 324.341C53.8315 323.98 53.0684 323.362 52.531 322.565C51.9936 321.767 51.7063 320.828 51.7059 319.867C51.6898 319.24 51.7989 318.617 52.0269 318.033C52.2548 317.449 52.597 316.917 53.0333 316.467C53.4697 316.017 53.9914 315.659 54.5679 315.413C55.1445 315.168 55.7643 315.04 56.391 315.037V315.037ZM90.5632 157.337C86.0578 153.413 82.2023 148.799 79.1403 143.668C75.9896 138.461 73.7823 132.738 72.6198 126.763C71.0403 119.623 72.3514 112.147 76.2664 105.97C80.3338 99.9129 86.4605 95.5367 93.5095 93.6537C96.9284 92.9231 100.467 92.9645 103.868 93.775C107.269 94.5855 110.446 96.1447 113.168 98.3388C115.87 100.535 118.083 103.273 119.663 106.375C121.244 109.478 122.157 112.878 122.345 116.355C122.756 122.242 122.586 128.155 121.837 134.008C121.155 139.82 119.983 145.564 118.336 151.179L123.89 172.697C123.925 172.777 123.944 172.863 123.944 172.95C123.944 173.038 123.925 173.124 123.89 173.204C123.792 173.346 123.647 173.449 123.48 173.494L95.8279 179.338C95.7411 179.363 95.6491 179.363 95.5623 179.338C95.478 179.281 95.4177 179.195 95.3932 179.096L90.5632 157.337ZM121.354 168.229L119.543 168.881C118.456 169.267 117.128 169.75 115.607 170.257L112.95 171.079L108.966 172.238L105.633 173.18L102.276 174.049L99.0157 174.846L95.6106 175.57L96.2143 178.517L122.659 172.407L121.354 168.229ZM119.857 162.843L117.66 163.689C116.621 164.075 115.245 164.558 113.844 165.065C113.023 165.355 112.177 165.621 111.284 165.886C110.39 166.152 108.7 166.683 107.396 167.07L104.16 168.012L100.899 168.905L97.615 169.702L94.4031 170.427L95.3208 174.918L98.581 173.735L101.865 172.6L105.174 171.586L108.507 170.62L112.491 169.485L115.172 168.784C116.742 168.398 118.118 168.108 119.229 167.867L121.137 167.456L119.857 162.843ZM81.6036 161.805C79.144 164.321 77.1418 167.247 75.6868 170.451C75.6598 170.478 75.6384 170.51 75.6237 170.545C75.6091 170.58 75.6016 170.618 75.6016 170.656C75.6016 170.694 75.6091 170.732 75.6237 170.767C75.6384 170.802 75.6598 170.834 75.6868 170.861C75.7137 170.888 75.7457 170.91 75.781 170.924C75.8162 170.939 75.854 170.946 75.8921 170.946C75.9302 170.946 75.968 170.939 76.0032 170.924C76.0385 170.91 76.0704 170.888 76.0974 170.861C78.5952 168.338 80.6306 165.395 82.1107 162.167C82.1481 162.114 82.1682 162.051 82.1682 161.986C82.1682 161.921 82.1481 161.858 82.1107 161.805C82.0523 161.749 81.9744 161.718 81.8934 161.718C81.8124 161.718 81.7345 161.749 81.676 161.805H81.6036ZM118.553 157.748L116.355 158.545C115.317 158.907 113.94 159.366 112.588 159.825L110.052 160.597L106.261 161.805L103.073 162.674L99.861 163.495C98.6776 163.785 97.5909 164.003 96.649 164.196C94.6687 164.631 93.3888 164.848 93.3888 164.848L94.1857 169.75L97.2286 168.591C98.1463 168.277 99.2089 167.867 100.392 167.48L103.628 166.442L106.84 165.452L110.801 164.22L113.409 163.495C114.906 163.109 116.259 162.819 117.346 162.578L119.761 162.046L118.553 157.748ZM116.959 152.145L114.544 152.845C113.506 153.135 112.129 153.522 110.728 153.884C109.932 154.101 109.086 154.294 108.313 154.488L104.474 155.333L101.262 155.985L98.0497 156.589C96.8664 156.806 95.6347 156.975 94.8136 157.096L91.7707 157.579L93.099 164.075L96.2143 162.964C97.1079 162.65 98.1705 162.288 99.3538 161.926L102.517 160.984L105.681 160.066C106.985 159.704 108.265 159.342 109.521 159.028L112.081 158.376L115.921 157.53L118.336 156.975L116.959 152.145ZM77.7637 148.957C70.2617 152.932 63.1257 157.563 56.4393 162.795C56.3595 162.849 56.3028 162.931 56.2805 163.025C56.2581 163.119 56.2717 163.218 56.3185 163.302C56.3862 163.369 56.4773 163.406 56.5721 163.406C56.6669 163.406 56.758 163.369 56.8257 163.302C64.3389 159.342 71.4835 154.719 78.1743 149.488C78.2406 149.421 78.2778 149.33 78.2778 149.235C78.2778 149.14 78.2406 149.049 78.1743 148.981C78.1039 148.92 78.0139 148.886 77.9207 148.886C77.8275 148.886 77.7374 148.92 77.6671 148.981L77.7637 148.957ZM127.199 151.396C127.199 151.396 127.537 151.759 128.141 152.314C130.389 154.414 132.947 156.157 135.724 157.482C135.751 157.509 135.783 157.531 135.818 157.545C135.853 157.56 135.891 157.567 135.929 157.567C135.967 157.567 136.005 157.56 136.04 157.545C136.075 157.531 136.107 157.509 136.134 157.482C136.161 157.455 136.183 157.423 136.197 157.388C136.212 157.353 136.22 157.315 136.22 157.277C136.22 157.239 136.212 157.201 136.197 157.166C136.183 157.13 136.161 157.099 136.134 157.072C133.671 154.547 130.786 152.471 127.609 150.937C127.543 150.914 127.471 150.913 127.405 150.935C127.338 150.957 127.281 151 127.242 151.059C127.203 151.117 127.185 151.187 127.19 151.257C127.195 151.327 127.224 151.393 127.271 151.445L127.199 151.396ZM116.742 151.445V151.276C116.694 151.135 116.694 150.982 116.742 150.841C118.314 145.305 119.436 139.652 120.099 133.936C120.801 128.191 120.938 122.392 120.509 116.62C120.35 113.393 119.511 110.235 118.046 107.355C116.581 104.475 114.523 101.937 112.008 99.9085C109.517 97.8824 106.604 96.4402 103.482 95.6879C100.36 94.9356 97.1091 94.8925 93.9684 95.5615C87.3426 97.296 81.5742 101.382 77.7396 107.057C74.0588 112.86 72.8096 119.878 74.262 126.594C75.3433 132.366 77.4188 137.906 80.3961 142.968C83.3381 148.066 87.0715 152.663 91.4568 156.589C91.5393 156.618 91.6121 156.67 91.6674 156.738C91.7227 156.806 91.7584 156.888 91.7707 156.975L94.5963 156.154C95.514 155.912 96.5766 155.598 97.7599 155.309L100.827 154.56L102.662 154.174C102.228 152.024 100.827 145.48 98.9916 138.814C98.6228 138.595 98.268 138.353 97.929 138.09C95.0572 135.296 92.6881 132.028 90.9255 128.43C89.9233 126.654 89.2369 124.717 88.8969 122.706C88.8245 122.357 88.8302 121.996 88.9137 121.65C88.9972 121.303 89.1564 120.979 89.3799 120.702C89.887 120.195 90.853 120.001 92.3503 120.702C93.3863 121.335 94.2232 122.247 94.7653 123.334C95.9533 125.587 96.9237 127.948 97.6633 130.386C98.3878 132.632 99.064 135.216 99.7161 137.631C99.8352 137.707 99.9656 137.764 100.102 137.8H100.561C100.78 137.597 100.974 137.371 101.141 137.124C100.562 135.719 100.236 134.223 100.175 132.704C100.102 132.224 100.102 131.735 100.175 131.255C100.217 131.108 100.287 130.97 100.382 130.849C100.478 130.729 100.596 130.629 100.73 130.555C100.87 130.474 101.028 130.432 101.189 130.432C101.35 130.432 101.509 130.474 101.648 130.555C101.838 130.694 102.002 130.865 102.131 131.062C102.449 131.601 102.678 132.188 102.807 132.801C103.173 134.195 103.114 135.667 102.638 137.027C102.755 137.234 102.893 137.428 103.049 137.607C103.134 137.742 103.247 137.857 103.38 137.944C103.513 138.032 103.664 138.09 103.822 138.114C104.232 138.114 104.643 137.824 105.102 137.196C104.643 134.226 104.232 131.183 103.966 128.43C103.613 125.502 103.613 122.543 103.966 119.615C104.059 119.022 104.273 118.455 104.594 117.949C104.788 117.636 105.088 117.405 105.44 117.297C105.674 117.213 105.923 117.176 106.172 117.189C106.421 117.202 106.664 117.264 106.889 117.372C107.114 117.48 107.315 117.631 107.48 117.817C107.646 118.003 107.773 118.22 107.855 118.456C108.404 119.881 108.683 121.396 108.676 122.923C108.811 126.463 108.519 130.007 107.806 133.477C107.584 135.052 107.059 136.569 106.261 137.945C106.985 143.258 107.879 148.257 108.507 150.937C108.622 151.492 108.767 152.04 108.941 152.58V152.725L110.342 152.459L114.23 151.879L116.645 151.541L116.742 151.445ZM108.338 152.845C108.193 152.435 107.975 151.71 107.734 150.744C107.082 148.112 106.164 143.644 105.319 138.814C104.858 139.234 104.252 139.459 103.628 139.442C103.268 139.416 102.918 139.308 102.605 139.129C102.291 138.949 102.022 138.701 101.817 138.404V138.259C101.693 138.407 101.555 138.545 101.407 138.669C101.223 138.828 101.007 138.945 100.773 139.012C100.54 139.079 100.294 139.094 100.054 139.056C101.648 145.576 102.807 151.807 103.194 153.908L103.991 153.739L107.83 152.942H108.41L108.338 152.845ZM126.667 138.452C134.731 141.095 143.016 143.011 151.421 144.175C151.514 144.197 151.612 144.182 151.693 144.132C151.775 144.082 151.833 144.002 151.856 143.91C151.879 143.814 151.864 143.713 151.814 143.628C151.765 143.542 151.685 143.479 151.59 143.451C143.54 140.803 135.273 138.864 126.885 137.655C126.786 137.633 126.682 137.652 126.596 137.706C126.51 137.76 126.449 137.846 126.426 137.945C126.411 138.04 126.433 138.138 126.486 138.219C126.54 138.299 126.622 138.356 126.716 138.379L126.667 138.452ZM67.3792 140.794C64.7152 140.779 62.0711 141.254 59.5788 142.195L58.7577 142.557C58.7194 142.563 58.6826 142.577 58.6496 142.597C58.6166 142.617 58.588 142.644 58.5655 142.675C58.543 142.707 58.527 142.743 58.5186 142.781C58.5101 142.818 58.5093 142.857 58.5162 142.896C58.5336 142.975 58.5811 143.044 58.6486 143.089C58.7162 143.134 58.7985 143.151 58.8784 143.137C61.8893 143.148 64.8684 142.522 67.6207 141.302C67.659 141.296 67.6957 141.282 67.7288 141.262C67.7618 141.242 67.7904 141.215 67.8129 141.184C67.8354 141.152 67.8514 141.116 67.8598 141.079C67.8683 141.041 67.8691 141.002 67.8622 140.964C67.8448 140.884 67.7973 140.815 67.7298 140.77C67.6622 140.725 67.5799 140.708 67.5 140.722L67.3792 140.794ZM98.4844 136.472C97.9048 134.443 97.3011 132.463 96.6732 130.627C95.9126 128.287 94.9343 126.023 93.751 123.865C93.3403 123.012 92.706 122.286 91.9156 121.764C91.5641 121.597 91.1897 121.483 90.8047 121.426H90.4666C90.3942 121.426 90.2976 121.957 90.4666 122.392C90.8182 124.226 91.471 125.988 92.3986 127.609C94.0022 130.841 96.0958 133.806 98.6052 136.399L98.4844 136.472ZM105.971 135.24C106.116 134.781 106.237 134.274 106.381 133.719C107.016 130.854 107.364 127.934 107.42 125C107.514 123.097 107.31 121.19 106.816 119.349C106.729 119.029 106.572 118.733 106.357 118.48C106.298 118.407 106.217 118.353 106.127 118.327C106.036 118.301 105.939 118.304 105.85 118.335C105.705 118.335 105.633 118.552 105.536 118.77C105.363 119.261 105.25 119.772 105.198 120.291C104.921 124.085 105.043 127.897 105.56 131.666C105.56 132.849 105.802 134.081 105.971 135.24V135.24ZM68.5867 129.178C62.4936 127.618 56.2326 126.807 49.9429 126.763C49.8468 126.763 49.7547 126.802 49.6868 126.869C49.6188 126.937 49.5807 127.03 49.5807 127.126C49.5807 127.222 49.6188 127.314 49.6868 127.382C49.7547 127.45 49.8468 127.488 49.9429 127.488C56.0361 129.049 62.297 129.86 68.5867 129.903C68.6818 129.91 68.7764 129.883 68.8522 129.825C68.928 129.767 68.9797 129.683 68.9973 129.589C69.0114 129.49 68.9865 129.389 68.928 129.308C68.8694 129.227 68.7817 129.172 68.6833 129.154L68.5867 129.178ZM134.009 126.739C136.932 126.957 139.869 126.562 142.631 125.58C142.705 125.563 142.771 125.519 142.815 125.457C142.86 125.394 142.88 125.318 142.872 125.242C142.869 125.201 142.858 125.162 142.839 125.126C142.82 125.09 142.794 125.059 142.762 125.034C142.73 125.009 142.693 124.991 142.654 124.981C142.615 124.971 142.574 124.969 142.534 124.976C139.576 124.792 136.613 125.236 133.84 126.28C133.8 126.283 133.76 126.294 133.724 126.313C133.689 126.332 133.657 126.359 133.632 126.39C133.607 126.422 133.589 126.459 133.579 126.498C133.569 126.538 133.568 126.578 133.574 126.618C133.58 126.657 133.594 126.693 133.614 126.726C133.634 126.759 133.661 126.788 133.692 126.811C133.724 126.833 133.76 126.849 133.797 126.858C133.835 126.866 133.874 126.867 133.912 126.86L134.009 126.739ZM78.7539 112.225C78.6762 112.93 78.7336 113.643 78.9229 114.326C79.1348 115.083 79.6271 115.731 80.2995 116.137C81.1338 116.565 82.0943 116.676 83.0043 116.451C84.2213 116.155 85.3859 115.675 86.4577 115.026C88.2765 114.034 89.7567 112.52 90.7081 110.679C91.3252 109.405 91.568 107.981 91.4085 106.574C91.3393 106.103 91.2178 105.641 91.0462 105.197C90.9213 104.723 90.6926 104.283 90.3767 103.908C90.0608 103.533 89.6655 103.233 89.2195 103.03C88.7735 102.827 88.2878 102.725 87.7976 102.732C87.3075 102.74 86.8251 102.856 86.3853 103.072C86.3502 103.088 86.3186 103.11 86.2923 103.138C86.266 103.166 86.2455 103.199 86.232 103.235C86.2185 103.271 86.2123 103.309 86.2138 103.348C86.2152 103.386 86.2242 103.424 86.2404 103.459C86.2535 103.493 86.2735 103.524 86.2992 103.55C86.3249 103.576 86.3558 103.597 86.3898 103.61C86.4238 103.624 86.4603 103.63 86.4969 103.629C86.5335 103.628 86.5695 103.619 86.6026 103.603C86.9281 103.477 87.2771 103.422 87.6256 103.444C87.9742 103.465 88.314 103.561 88.6216 103.727C88.9292 103.892 89.1973 104.122 89.4075 104.401C89.6176 104.68 89.7647 105.001 89.8387 105.342C90.1601 106.24 90.2351 107.207 90.0561 108.144C89.8896 109.101 89.5279 110.013 88.9935 110.824C88.1629 112.067 87.0551 113.101 85.7574 113.843C84.809 114.436 83.7856 114.899 82.7145 115.22C82.0879 115.431 81.4091 115.431 80.7825 115.22C80.4865 115.076 80.2252 114.87 80.0167 114.616C79.8082 114.361 79.6575 114.065 79.575 113.746C79.4269 113.276 79.3377 112.79 79.3093 112.297C79.3126 112.259 79.3084 112.221 79.2968 112.185C79.2852 112.148 79.2665 112.114 79.2418 112.085C79.2171 112.056 79.1869 112.032 79.1529 112.015C79.1189 111.997 79.0818 111.987 79.0437 111.984C78.9708 111.983 78.9005 112.01 78.8468 112.06C78.7931 112.109 78.7599 112.177 78.7539 112.249V112.225ZM129.107 116.524C135.019 114.375 140.648 111.512 145.867 107.999C145.949 107.953 146.01 107.877 146.037 107.787C146.064 107.696 146.055 107.599 146.012 107.516C145.966 107.434 145.891 107.371 145.802 107.34C145.713 107.309 145.616 107.311 145.529 107.347C139.618 109.521 133.991 112.4 128.769 115.92C128.686 115.966 128.625 116.042 128.598 116.132C128.571 116.222 128.58 116.319 128.624 116.403C128.641 116.448 128.669 116.489 128.704 116.523C128.739 116.556 128.781 116.582 128.826 116.598C128.872 116.614 128.921 116.62 128.969 116.616C129.018 116.611 129.065 116.596 129.107 116.572V116.524ZM289.366 78.9705H289.125C287.941 78.5599 286.468 78.0286 284.826 77.3766L282 76.2415L277.726 74.3578L274.224 72.8364L270.746 71.2666C269.466 70.687 268.331 70.1074 267.293 69.6244L263.888 67.9098C263.838 67.9001 263.791 67.8793 263.75 67.849C263.71 67.8187 263.676 67.7796 263.653 67.7346C263.629 67.6897 263.616 67.64 263.615 67.5893C263.613 67.5386 263.623 67.4882 263.643 67.4418C263.663 67.3953 263.694 67.3541 263.733 67.3211C263.771 67.2881 263.817 67.2642 263.866 67.2512C263.915 67.2382 263.966 67.2363 264.016 67.2458C264.066 67.2553 264.113 67.2759 264.153 67.306L267.752 68.586C268.79 68.9724 269.998 69.4071 271.326 69.9384L274.852 71.3632L278.354 72.8605L282.556 74.6718L285.357 75.9276C286.951 76.6762 288.352 77.3766 289.463 77.932L291.129 78.7531H291.395C292.151 78.7913 292.865 79.1099 293.399 79.6467C293.902 80.2037 294.185 80.9248 294.196 81.6753C294.167 83.1493 293.795 84.5963 293.109 85.9015C290.987 89.9263 288.176 93.5474 284.802 96.6C281.535 99.8063 277.724 102.407 273.548 104.28C272.406 104.764 271.188 105.042 269.949 105.101C269.459 105.146 268.965 105.083 268.502 104.916C268.038 104.749 267.617 104.483 267.269 104.135C266.763 103.572 266.487 102.839 266.496 102.082V101.382C266.496 101.14 266.085 100.198 265.844 99.4255C265.409 98.1214 264.854 96.5034 264.298 94.5955C263.984 93.5812 263.67 92.4945 263.356 91.4077C262.922 89.838 262.463 88.2199 262.028 86.5777C261.594 84.9355 261.28 83.8729 260.941 82.5688C260.603 81.2647 260.217 79.8157 259.903 78.5358C259.25 75.8422 258.646 73.137 258.092 70.4214C258.07 70.3413 258.08 70.2557 258.121 70.1833C258.161 70.1108 258.229 70.0575 258.309 70.035C258.35 70.0202 258.394 70.0141 258.438 70.0172C258.481 70.0202 258.524 70.0324 258.562 70.0529C258.601 70.0733 258.635 70.1017 258.662 70.136C258.689 70.1703 258.709 70.21 258.72 70.2523C258.72 70.2523 259.251 71.7979 260.048 74.1888C260.434 75.348 260.869 76.6038 261.304 78.1494C261.738 79.695 262.077 80.7576 262.487 82.1341C262.898 83.5107 263.236 84.7906 263.598 86.143C263.96 87.4954 264.492 89.3791 264.902 90.973C265.192 92.0839 265.482 93.1707 265.723 94.185C266.182 96.0445 266.544 97.7109 266.834 99.015V99.4255C267.025 98.8609 267.259 98.3118 267.534 97.7833C269.76 93.8172 272.671 90.2768 276.132 87.3264C279.359 84.1514 283.119 81.5683 287.241 79.695C287.926 79.3963 288.637 79.1618 289.366 78.9946V78.9705ZM276.711 88.0509C279.518 85.5069 282.643 83.3394 286.009 81.6028C287.503 80.799 289.148 80.3138 290.839 80.178C291.118 80.1451 291.401 80.1734 291.668 80.261C291.935 80.3486 292.18 80.4933 292.385 80.6851C292.561 80.9065 292.685 81.1648 292.748 81.4407C292.811 81.7167 292.81 82.0032 292.747 82.279C292.459 83.9303 291.825 85.5022 290.887 86.8917C288.87 90.0772 286.433 92.9771 283.642 95.5132C280.926 98.1058 277.882 100.331 274.586 102.13C273.1 102.972 271.455 103.499 269.756 103.676C269.48 103.74 269.191 103.731 268.919 103.651C268.647 103.57 268.4 103.42 268.203 103.216C268.006 103.012 267.865 102.76 267.795 102.485C267.724 102.21 267.726 101.921 267.8 101.647C268.027 99.9313 268.62 98.2841 269.539 96.8173C271.47 93.5589 273.834 90.5774 276.567 87.9543L276.711 88.0509ZM221.867 89.355L225.779 92.3254L244.326 72.0394C247.022 72.6337 249.828 72.4995 252.455 71.6506C255.083 70.8018 257.436 69.2689 259.275 67.2094C265.892 59.9644 264.733 54.4824 264.733 54.4824C263.815 53.2507 258.237 40.7169 244.206 51.7293C243.24 52.4779 232.372 60.4716 240.994 69.3346L221.867 89.355ZM240.1 63.0798C239.834 66.3642 243.264 69.6969 250.702 65.4948C258.14 61.2927 263.864 53.4198 258.985 49.8214C254.107 46.2231 240.559 57.0664 240.1 63.0073V63.0798ZM384.3 131.738L385.338 129.058C385.344 129.029 385.355 129.001 385.372 128.977C385.388 128.953 385.41 128.932 385.435 128.916C385.46 128.9 385.487 128.89 385.516 128.885C385.545 128.88 385.575 128.881 385.604 128.889L390.675 129.033L395.723 129.227L398.427 129.372L402.485 129.613C402.581 129.614 402.675 129.638 402.76 129.685C402.844 129.731 402.916 129.798 402.968 129.879C403.009 129.966 403.03 130.06 403.03 130.156C403.03 130.252 403.009 130.347 402.968 130.434L402.436 132.414L412.338 132.801C412.446 132.806 412.551 132.835 412.647 132.885C412.743 132.935 412.827 133.005 412.893 133.091C412.962 133.174 413.013 133.271 413.042 133.375C413.071 133.479 413.078 133.588 413.062 133.694C413.062 133.694 411.734 143.065 410.189 153.691C408.16 167.601 405.745 183.661 405.745 183.661C405.715 183.889 405.597 184.097 405.417 184.241C405.237 184.385 405.009 184.454 404.779 184.434L361.889 181.125C361.76 181.117 361.634 181.08 361.522 181.017C361.409 180.955 361.311 180.868 361.236 180.763C361.163 180.659 361.114 180.54 361.093 180.414C361.072 180.289 361.08 180.16 361.116 180.038C361.116 180.038 362.758 173.638 364.883 165.548C368.626 151.276 373.843 131.738 373.843 131.738C373.865 131.653 373.915 131.578 373.985 131.526C374.055 131.473 374.141 131.446 374.229 131.448L384.3 131.738ZM383.962 132.68L374.495 132.125C373.891 134.54 369.665 152.604 366.356 165.935C364.835 172.189 363.555 177.406 363.024 179.531L404.079 182.55C404.61 179.072 406.638 165.452 408.474 153.57C409.802 144.852 411.034 136.979 411.42 134.443L402.074 133.888L401.446 136.303C401.402 136.451 401.309 136.58 401.181 136.668C401.054 136.756 400.9 136.797 400.746 136.786C400.746 136.786 395.24 136.278 390.506 135.795C386.86 135.409 383.672 134.998 383.672 134.998C383.539 134.977 383.419 134.908 383.334 134.805C383.286 134.673 383.286 134.527 383.334 134.395L383.937 132.873L383.962 132.68ZM375.63 136.375C375.57 136.373 375.512 136.391 375.464 136.426C375.415 136.461 375.38 136.511 375.364 136.568C375.364 136.568 370.776 152.918 367.491 164.824C365.608 171.61 364.159 176.899 364.159 176.899C364.118 176.977 364.097 177.064 364.097 177.152C364.097 177.241 364.118 177.327 364.159 177.406C364.203 177.488 364.27 177.557 364.351 177.603C364.432 177.65 364.524 177.674 364.617 177.672L382.657 179.024L400.698 180.352C400.863 180.366 401.028 180.317 401.158 180.213C401.288 180.11 401.374 179.961 401.398 179.797C401.398 179.797 403.813 166.297 406.059 154.584L409.102 137.679C409.162 137.532 409.162 137.367 409.102 137.22C408.995 137.102 408.849 137.025 408.691 137.003L392.173 136.592L375.654 136.23L375.63 136.375ZM375.823 136.906C375.316 138.862 371.428 153.956 368.578 165.114C367.201 170.427 366.042 174.774 365.583 176.536L382.899 177.768L400.359 179.024C400.867 176.319 403.016 164.679 404.948 154.415C406.349 147.001 407.629 140.311 408.015 138.259L392.173 137.607L375.871 136.906H375.823ZM369.979 173.687L373.36 174.121L376.741 174.508L380.122 174.798L383.527 175.063L387.584 175.329L390.289 175.474H397.099C397.171 175.469 397.238 175.44 397.291 175.392C397.344 175.344 397.378 175.279 397.389 175.208C397.392 175.175 397.389 175.141 397.378 175.108C397.367 175.076 397.35 175.047 397.327 175.022C397.305 174.997 397.277 174.977 397.246 174.963C397.215 174.949 397.181 174.942 397.147 174.943L394.443 174.58C393.332 174.58 392.028 174.266 390.385 174.121L387.681 173.88L383.624 173.566L380.218 173.349L376.837 173.155H370.027C369.958 173.155 369.891 173.178 369.837 173.223C369.784 173.267 369.749 173.329 369.737 173.397C369.734 173.432 369.738 173.467 369.748 173.501C369.758 173.534 369.775 173.565 369.798 173.592C369.82 173.619 369.848 173.641 369.879 173.658C369.91 173.674 369.944 173.684 369.979 173.687V173.687ZM370.993 169.992L374.447 170.451C375.461 170.451 376.62 170.74 377.924 170.861L381.378 171.199L384.855 171.489L389.033 171.827L391.81 171.996C393.428 171.996 394.853 171.996 396.012 172.165H398.79C398.825 172.169 398.86 172.165 398.893 172.155C398.927 172.144 398.958 172.127 398.985 172.105C399.012 172.083 399.034 172.055 399.05 172.024C399.067 171.993 399.076 171.959 399.079 171.924C399.083 171.89 399.079 171.856 399.069 171.824C399.058 171.792 399.041 171.762 399.018 171.737C398.995 171.712 398.967 171.692 398.936 171.679C398.905 171.665 398.872 171.658 398.838 171.658L396.061 171.32L391.907 170.789L389.13 170.523L384.976 170.185L381.571 169.919L378.093 169.678L374.591 169.533H371.114C371.079 169.53 371.044 169.533 371.01 169.544C370.977 169.554 370.946 169.571 370.919 169.593C370.892 169.616 370.869 169.643 370.853 169.674C370.837 169.706 370.827 169.74 370.824 169.774C370.821 169.809 370.824 169.845 370.835 169.878C370.845 169.912 370.862 169.943 370.884 169.97C370.907 169.997 370.934 170.019 370.965 170.035C370.997 170.051 371.031 170.061 371.065 170.064L370.993 169.992ZM371.186 166.635L374.712 167.094L378.214 167.504L381.74 167.842L385.266 168.132L389.492 168.47L392.317 168.639L396.568 168.784H399.418C399.451 168.788 399.485 168.784 399.517 168.773C399.55 168.763 399.579 168.746 399.604 168.723C399.629 168.7 399.649 168.672 399.663 168.641C399.676 168.61 399.683 168.577 399.683 168.543C399.687 168.508 399.683 168.473 399.673 168.439C399.662 168.406 399.645 168.375 399.623 168.348C399.6 168.321 399.573 168.298 399.542 168.282C399.511 168.266 399.477 168.256 399.442 168.253L396.64 167.891L392.414 167.359L389.613 167.094L385.386 166.756L381.861 166.635L378.31 166.393L374.785 166.249H371.235C371.163 166.253 371.096 166.282 371.043 166.33C370.99 166.379 370.956 166.444 370.945 166.514C370.944 166.583 370.968 166.651 371.012 166.704C371.056 166.757 371.118 166.793 371.186 166.804V166.635ZM420.911 149.73C420.869 149.712 420.824 149.703 420.778 149.703C420.733 149.703 420.687 149.712 420.645 149.73C420.57 149.791 420.519 149.876 420.501 149.971C420.501 149.971 420.235 152.217 419.921 154.801C419.535 158.158 419.124 162.046 419.124 162.046C419.111 162.223 419.16 162.398 419.261 162.543C419.362 162.688 419.51 162.794 419.679 162.843L424.365 164.123L431.392 165.983C431.513 166.008 431.637 166.009 431.758 165.984C431.878 165.959 431.992 165.909 432.093 165.838C432.192 165.766 432.275 165.671 432.333 165.563C432.392 165.454 432.425 165.333 432.431 165.21C432.431 165.21 432.6 161.129 432.696 157.627C432.696 154.922 432.841 152.556 432.841 152.556C432.846 152.383 432.79 152.214 432.685 152.078C432.579 151.942 432.43 151.846 432.262 151.807C432.262 151.807 429.436 151.251 426.586 150.744L420.911 149.73V149.73ZM421.153 150.479C421.153 151.227 421.153 152.894 420.984 154.922C420.984 157.458 420.718 160.284 420.67 161.539L424.775 162.554L430.837 164.123C430.837 162.699 431.006 159.994 431.127 157.555C431.127 155.671 431.296 153.956 431.344 153.087L426.345 151.831L421.153 150.479ZM372.708 162.071L376.089 162.481L379.47 162.843L382.851 163.109L386.256 163.351L390.313 163.616L393.042 163.761H399.828C399.863 163.764 399.898 163.761 399.932 163.75C399.965 163.74 399.996 163.723 400.023 163.701C400.05 163.678 400.073 163.651 400.089 163.62C400.105 163.589 400.115 163.555 400.118 163.52C400.119 163.45 400.095 163.383 400.051 163.33C400.006 163.277 399.945 163.241 399.876 163.23L397.172 162.892L393.114 162.457L390.41 162.216L386.401 161.926L383.02 161.708C381.836 161.708 380.605 161.563 379.615 161.539H372.828C372.793 161.532 372.756 161.533 372.721 161.542C372.686 161.551 372.653 161.567 372.625 161.59C372.598 161.614 372.575 161.643 372.56 161.676C372.545 161.709 372.538 161.745 372.539 161.781C372.535 161.816 372.539 161.851 372.549 161.884C372.56 161.918 372.577 161.949 372.599 161.976C372.621 162.003 372.649 162.025 372.68 162.041C372.711 162.058 372.745 162.068 372.78 162.071H372.708ZM425.644 157.772L425.017 156.903C424.703 156.492 424.413 156.106 424.147 155.719L423.374 154.439C422.916 153.642 422.65 153.135 422.65 153.135C422.59 153.069 422.558 152.983 422.558 152.894C422.558 152.805 422.59 152.719 422.65 152.652C422.712 152.594 422.794 152.562 422.879 152.562C422.964 152.562 423.046 152.594 423.109 152.652C423.109 152.652 423.543 153.014 424.195 153.666L425.258 154.729C425.572 155.067 425.886 155.454 426.2 155.84L426.804 156.589L427.552 155.961L428.398 155.333C428.881 154.971 429.339 154.705 429.702 154.463L430.619 153.932C430.688 153.89 430.769 153.873 430.849 153.886C430.929 153.898 431.001 153.939 431.053 154C431.106 154.061 431.135 154.139 431.135 154.219C431.135 154.3 431.106 154.378 431.054 154.439L430.402 155.26C430.112 155.598 429.798 156.009 429.364 156.468C428.929 156.927 428.881 156.927 428.639 157.192L427.818 157.893L428.204 158.4C428.446 158.738 428.687 159.052 428.881 159.366C429.074 159.68 429.557 160.477 429.798 160.911L430.378 161.974C430.407 162.044 430.411 162.122 430.39 162.195C430.37 162.268 430.325 162.331 430.264 162.376C430.203 162.42 430.128 162.443 430.053 162.44C429.977 162.438 429.904 162.409 429.847 162.36L428.977 161.563L427.697 160.308L426.924 159.414C426.798 159.272 426.685 159.118 426.586 158.955C426.248 159.245 425.91 159.511 425.572 159.752L424.485 160.477L423.35 161.153C423.319 161.19 423.279 161.22 423.235 161.24C423.191 161.261 423.142 161.272 423.093 161.272C423.045 161.272 422.996 161.261 422.952 161.241C422.907 161.221 422.868 161.191 422.836 161.154C422.804 161.117 422.781 161.073 422.768 161.026C422.754 160.979 422.751 160.93 422.759 160.881C422.766 160.833 422.784 160.787 422.811 160.746C422.838 160.706 422.874 160.671 422.916 160.646C422.916 160.646 423.205 160.259 423.737 159.631L424.606 158.641C424.872 158.352 425.21 158.062 425.524 157.748L425.693 157.603L425.644 157.772ZM373.819 157.603L377.272 158.062L380.75 158.472L384.227 158.786L387.705 159.076L391.859 159.39L394.66 159.559H401.639C401.709 159.56 401.776 159.536 401.829 159.492C401.882 159.448 401.918 159.386 401.929 159.318C401.932 159.283 401.929 159.247 401.919 159.214C401.908 159.18 401.891 159.149 401.869 159.122C401.846 159.095 401.819 159.073 401.788 159.057C401.757 159.041 401.723 159.031 401.688 159.028L398.91 158.665C397.775 158.521 396.351 158.327 394.757 158.158L391.979 157.893L387.801 157.555L384.324 157.313L380.846 157.096H373.867C373.83 157.092 373.793 157.097 373.758 157.109C373.723 157.12 373.691 157.139 373.663 157.164C373.636 157.189 373.614 157.22 373.599 157.254C373.585 157.288 373.577 157.324 373.577 157.361C373.574 157.395 373.577 157.429 373.588 157.461C373.599 157.493 373.616 157.523 373.639 157.548C373.661 157.573 373.689 157.593 373.72 157.607C373.751 157.62 373.785 157.627 373.819 157.627V157.603ZM374.012 153.835L377.538 154.294L381.039 154.705L384.565 155.019L388.091 155.309L392.342 155.598L395.167 155.767L399.393 155.912H402.243C402.277 155.916 402.311 155.912 402.343 155.901C402.375 155.891 402.405 155.874 402.43 155.851C402.455 155.828 402.475 155.8 402.488 155.769C402.502 155.738 402.509 155.705 402.509 155.671C402.512 155.636 402.509 155.601 402.498 155.567C402.488 155.534 402.471 155.503 402.448 155.476C402.426 155.449 402.398 155.426 402.367 155.41C402.336 155.394 402.302 155.384 402.267 155.381L399.466 155.019C398.307 154.874 396.858 154.681 395.24 154.512L392.438 154.27L388.188 153.932L384.662 153.691L381.136 153.473L377.586 153.328H374.06C374.025 153.325 373.99 153.329 373.956 153.339C373.923 153.349 373.892 153.366 373.865 153.389C373.838 153.411 373.816 153.439 373.799 153.47C373.783 153.501 373.773 153.535 373.77 153.57C373.763 153.605 373.764 153.642 373.773 153.677C373.782 153.712 373.798 153.745 373.821 153.773C373.845 153.801 373.874 153.823 373.907 153.838C373.94 153.853 373.976 153.86 374.012 153.86V153.835ZM375.944 148.426L379.349 148.716L382.73 148.957L386.135 149.102H389.54L393.597 149.223H403.137C403.207 149.223 403.275 149.195 403.325 149.145C403.374 149.095 403.402 149.028 403.402 148.957C403.402 148.887 403.374 148.819 403.325 148.769C403.275 148.72 403.207 148.692 403.137 148.692L400.432 148.45L396.351 148.16H393.646L389.564 148.039H375.968C375.897 148.039 375.83 148.067 375.78 148.117C375.73 148.167 375.702 148.235 375.702 148.305C375.699 148.339 375.703 148.373 375.713 148.405C375.724 148.437 375.741 148.467 375.764 148.492C375.787 148.517 375.814 148.537 375.845 148.55C375.876 148.564 375.91 148.571 375.944 148.571V148.426ZM376.789 144.32L380.267 144.634C381.281 144.634 382.44 144.828 383.744 144.9L387.222 145.093L390.699 145.238L394.877 145.383H404.658C404.729 145.383 404.796 145.355 404.846 145.305C404.896 145.255 404.924 145.188 404.924 145.117C404.927 145.084 404.923 145.05 404.913 145.017C404.902 144.985 404.885 144.956 404.862 144.931C404.839 144.906 404.812 144.886 404.781 144.872C404.75 144.858 404.716 144.852 404.682 144.852L401.905 144.586C400.746 144.586 399.321 144.345 397.727 144.248L394.95 144.079L390.748 143.91H376.813C376.74 143.91 376.67 143.937 376.616 143.986C376.563 144.035 376.529 144.103 376.523 144.175C376.528 144.247 376.557 144.314 376.605 144.367C376.654 144.42 376.718 144.454 376.789 144.465V144.32ZM355.006 126.377V125.242C355.006 124.324 355.006 123.431 355.175 122.61C355.368 120.195 355.561 118.625 355.561 118.625C355.561 118.548 355.592 118.474 355.646 118.42C355.7 118.366 355.774 118.335 355.851 118.335C355.891 118.335 355.931 118.343 355.968 118.359C356.005 118.375 356.038 118.399 356.065 118.428C356.092 118.458 356.113 118.493 356.126 118.531C356.139 118.569 356.144 118.609 356.141 118.649C356.141 118.649 356.262 120.315 356.358 122.634V125.435L357.131 124.928C357.309 124.857 357.508 124.857 357.686 124.928C357.781 124.96 357.868 125.011 357.943 125.077C358.017 125.144 358.078 125.224 358.121 125.314C358.121 125.314 358.991 127.198 359.957 129.347C361.212 132.173 362.637 135.433 362.637 135.433C362.707 135.593 362.718 135.772 362.67 135.94C362.621 136.107 362.516 136.253 362.372 136.351L357.421 139.732C354.837 141.471 352.204 143.185 352.204 143.185C352.12 143.221 352.03 143.24 351.939 143.24C351.847 143.24 351.757 143.221 351.673 143.185C351.578 143.161 351.49 143.117 351.414 143.054C351.339 142.991 351.279 142.912 351.238 142.823C351.238 142.823 350.127 140.142 349.041 137.462L346.867 132.1C346.828 132.044 346.807 131.976 346.807 131.907C346.807 131.838 346.828 131.771 346.867 131.714L350.997 128.961L355.03 126.304L355.006 126.377ZM355.03 127.778L351.552 129.782L347.471 132.197L349.886 137.148L352.035 141.664C352.953 141.036 354.74 139.78 356.551 138.573C358.363 137.365 360.319 136.013 361.212 135.409C360.729 134.346 359.691 132.004 358.797 129.879C358.218 128.526 357.686 127.27 357.348 126.522L356.551 126.981V130.289C356.551 133.066 356.382 135.264 356.382 135.264C356.38 135.375 356.35 135.484 356.295 135.581C356.24 135.678 356.162 135.76 356.068 135.82C355.97 135.867 355.863 135.891 355.754 135.891C355.646 135.891 355.538 135.867 355.44 135.82L353.025 134.491L350.61 133.139C350.561 133.16 350.507 133.168 350.453 133.161C350.4 133.155 350.349 133.136 350.305 133.104C350.261 133.073 350.226 133.03 350.204 132.981C350.181 132.933 350.172 132.879 350.176 132.825C350.191 132.787 350.214 132.752 350.244 132.724C350.274 132.695 350.309 132.673 350.348 132.66C350.387 132.646 350.428 132.641 350.469 132.644C350.511 132.648 350.55 132.66 350.586 132.68C350.586 132.68 351.915 133.139 353.243 133.646L354.933 134.298V127.874L355.03 127.778ZM376.668 140.432L380.194 140.746C381.208 140.746 382.416 140.939 383.72 141.012L387.246 141.205L390.796 141.35L395.022 141.495H404.948C404.982 141.498 405.016 141.494 405.048 141.484C405.08 141.473 405.109 141.456 405.135 141.433C405.16 141.41 405.18 141.383 405.193 141.352C405.207 141.321 405.214 141.287 405.214 141.253C405.217 141.22 405.213 141.186 405.203 141.153C405.192 141.121 405.175 141.092 405.152 141.067C405.129 141.042 405.101 141.022 405.07 141.008C405.039 140.994 405.006 140.988 404.972 140.988L402.147 140.722C400.987 140.722 399.538 140.481 397.896 140.384L395.119 140.07H376.741C376.704 140.067 376.667 140.071 376.632 140.083C376.597 140.095 376.564 140.114 376.537 140.139C376.51 140.164 376.488 140.194 376.473 140.228C376.458 140.262 376.451 140.299 376.451 140.336C376.451 140.406 376.479 140.474 376.529 140.523C376.579 140.573 376.646 140.601 376.717 140.601L376.668 140.432ZM384.759 132.825L384.396 134.032L390.675 134.467L400.335 135.312L400.77 133.767L384.759 132.825ZM385.048 131.859L401.181 132.463L401.591 130.941L398.355 130.7L395.65 130.41L390.603 129.951L385.773 129.468L385.048 131.859ZM427.77 338.535C426.166 339.392 424.425 339.964 422.626 340.225C420.877 340.511 419.087 340.404 417.385 339.911C416.046 339.51 414.793 338.863 413.69 338.003C412.024 336.679 410.636 335.038 409.609 333.173C407.593 329.581 406.693 325.47 407.025 321.364C407.083 320.127 407.204 318.894 407.387 317.669C407.58 316.389 407.846 315.254 408.112 313.974C408.991 310.277 410.279 306.689 411.951 303.276C411.977 303.233 411.993 303.186 411.999 303.137C412.006 303.088 412.002 303.038 411.989 302.991C411.975 302.943 411.952 302.899 411.92 302.861C411.889 302.823 411.85 302.791 411.807 302.769C411.764 302.743 411.717 302.727 411.668 302.721C411.619 302.714 411.569 302.718 411.522 302.731C411.474 302.745 411.43 302.768 411.392 302.799C411.354 302.831 411.322 302.87 411.299 302.913C410.289 304.573 409.393 306.3 408.619 308.082C407.822 309.862 407.144 311.693 406.59 313.564C406.216 314.81 405.91 316.076 405.672 317.355C405.445 318.649 405.292 319.956 405.214 321.267C404.855 325.736 405.839 330.21 408.039 334.115C409.213 336.165 410.791 337.956 412.676 339.38C413.973 340.327 415.441 341.016 416.999 341.409C418.921 341.857 420.921 341.857 422.843 341.409C424.731 340.988 426.53 340.235 428.156 339.187C428.236 339.133 428.293 339.05 428.315 338.957C428.337 338.863 428.324 338.764 428.277 338.68C428.209 338.613 428.118 338.576 428.023 338.576C427.928 338.576 427.837 338.613 427.77 338.68V338.535ZM412.507 339.887C411.114 339.193 409.782 338.386 408.522 337.472C407.254 336.569 406.051 335.576 404.924 334.502C403.812 333.44 402.794 332.285 401.881 331.048C400.934 329.811 400.124 328.475 399.466 327.063C398.729 325.38 398.241 323.599 398.017 321.775C397.906 320.545 397.906 319.309 398.017 318.08C398.121 316.226 398.42 314.388 398.91 312.598C399.249 311.463 399.635 310.183 400.118 309.048C400.14 309 400.143 308.945 400.125 308.895C400.107 308.845 400.069 308.804 400.021 308.782C399.973 308.759 399.918 308.757 399.869 308.775C399.819 308.793 399.778 308.83 399.756 308.878C399.054 310.312 398.464 311.797 397.993 313.322C397.506 314.892 397.198 316.513 397.075 318.152C396.942 319.437 396.942 320.732 397.075 322.016C397.292 323.94 397.797 325.821 398.572 327.595C399.213 329.076 400.024 330.478 400.987 331.773C401.939 333.066 403.024 334.256 404.223 335.323C405.416 336.381 406.692 337.342 408.039 338.197C409.377 339.065 410.792 339.808 412.265 340.418C412.265 340.418 412.507 340.418 412.531 340.298C412.565 340.262 412.584 340.214 412.584 340.165C412.584 340.115 412.565 340.068 412.531 340.032L412.507 339.887ZM439.917 300.136C439.917 300.136 446.655 294.026 452.282 293.785C452.882 298.42 452.232 303.131 450.398 307.429C450.125 308.202 449.811 309.007 449.456 309.844C448.571 311.777 447.503 313.62 446.269 315.351C443.364 319.311 439.963 322.882 436.15 325.977C436.026 326.025 435.888 326.025 435.763 325.977V330.807L425.886 335.347L433.131 329.406L433.904 325.614L431.199 328.029L423.785 333.632L427.939 325.808L430.354 322.741L426.272 324.021L421.756 331.507L424.171 321.847L428.059 320.398C428.035 320.311 428.035 320.219 428.059 320.132C429.011 316.788 430.306 313.551 431.924 310.472C433.531 307.401 435.519 304.545 437.84 301.972C438.512 301.243 439.222 300.55 439.965 299.895L439.917 300.136ZM440.714 301.658C440.183 302.165 439.652 302.672 439.169 303.203C436.914 305.645 434.968 308.354 433.372 311.269C431.81 314.062 430.477 316.978 429.388 319.987L435.932 324.817C438.888 322.095 441.566 319.086 443.926 315.834C445.504 313.629 446.848 311.266 447.935 308.782C448.201 308.154 448.418 307.55 448.611 306.971C446.981 306.695 445.431 306.069 444.067 305.135C442.704 304.201 441.56 302.981 440.714 301.561V301.658ZM443.829 308.492C443.588 308.004 443.249 307.57 442.833 307.217C442.418 306.864 441.935 306.599 441.414 306.439C440.904 306.261 440.362 306.188 439.822 306.225C439.283 306.262 438.756 306.409 438.275 306.657C437.796 306.904 437.371 307.245 437.027 307.66C436.682 308.075 436.425 308.555 436.27 309.072C435.973 310.139 436.094 311.279 436.609 312.259C437.132 313.219 437.992 313.95 439.024 314.312C439.55 314.473 440.104 314.525 440.652 314.467C441.2 314.409 441.73 314.241 442.211 313.974C442.671 313.718 443.074 313.372 443.398 312.957C443.721 312.543 443.958 312.067 444.095 311.559C444.228 311.048 444.258 310.516 444.183 309.994C444.108 309.472 443.931 308.969 443.66 308.516L443.829 308.492ZM443.564 308.637C443.98 309.495 444.057 310.478 443.781 311.39C443.644 311.827 443.422 312.232 443.127 312.582C442.833 312.933 442.473 313.221 442.067 313.432C441.661 313.643 441.217 313.772 440.761 313.811C440.305 313.85 439.846 313.799 439.41 313.66C438.542 313.379 437.815 312.773 437.381 311.97C436.948 311.163 436.836 310.223 437.067 309.337C437.189 308.899 437.396 308.489 437.678 308.133C437.96 307.776 438.311 307.479 438.71 307.26C439.107 307.027 439.548 306.879 440.005 306.825C440.462 306.771 440.926 306.812 441.366 306.946C441.826 307.07 442.256 307.283 442.633 307.573C443.01 307.863 443.326 308.225 443.564 308.637V308.637ZM442.743 309.072C442.428 308.386 441.868 307.843 441.173 307.55C440.809 307.4 440.416 307.331 440.022 307.348C439.629 307.366 439.244 307.469 438.894 307.651C438.544 307.832 438.239 308.088 437.998 308.4C437.758 308.713 437.588 309.074 437.502 309.458C437.278 310.27 437.382 311.137 437.792 311.873C438.171 312.566 438.789 313.098 439.531 313.37C439.921 313.52 440.34 313.582 440.757 313.553C441.174 313.523 441.58 313.404 441.946 313.201C442.282 313.001 442.572 312.731 442.797 312.411C443.021 312.091 443.176 311.726 443.25 311.342C443.389 310.599 443.242 309.831 442.839 309.192L442.743 309.072ZM442.574 309.337C442.868 309.921 442.929 310.595 442.743 311.221C442.663 311.515 442.52 311.789 442.324 312.022C442.128 312.256 441.884 312.444 441.608 312.573C441.339 312.699 441.047 312.763 440.75 312.763C440.454 312.763 440.161 312.699 439.893 312.573C439.32 312.368 438.846 311.954 438.565 311.414C438.255 310.882 438.16 310.251 438.299 309.651C438.366 309.359 438.493 309.083 438.672 308.842C438.85 308.601 439.077 308.4 439.338 308.251C439.603 308.099 439.897 308.005 440.201 307.976C440.505 307.947 440.811 307.983 441.1 308.082C441.411 308.167 441.701 308.313 441.954 308.512C442.207 308.711 442.418 308.959 442.574 309.241V309.337ZM402.171 297.045C402.515 296.154 403.023 295.335 403.668 294.63C403.961 294.289 404.338 294.03 404.761 293.878C405.184 293.725 405.64 293.685 406.083 293.761C406.619 293.911 407.114 294.181 407.532 294.549C407.95 294.916 408.28 295.373 408.498 295.886C409.077 295.261 409.765 294.746 410.527 294.364C410.884 294.143 411.289 294.008 411.708 293.97C412.128 293.932 412.55 293.993 412.942 294.147C413.298 294.364 413.591 294.669 413.795 295.033C413.998 295.397 414.103 295.807 414.101 296.224C414.193 297.128 414.144 298.04 413.956 298.929C414.697 299.121 415.41 299.405 416.081 299.774C416.117 299.814 416.136 299.865 416.136 299.919C416.136 299.972 416.117 300.024 416.081 300.064C416.065 300.084 416.045 300.1 416.022 300.111C415.999 300.122 415.974 300.128 415.948 300.128C415.923 300.128 415.897 300.122 415.874 300.111C415.851 300.1 415.831 300.084 415.815 300.064C415.167 299.73 414.477 299.486 413.763 299.339C413.603 299.847 413.367 300.328 413.062 300.764C412.8 301.181 412.434 301.522 412 301.754C411.865 301.822 411.716 301.858 411.565 301.858C411.414 301.858 411.265 301.822 411.13 301.754C410.942 301.555 410.816 301.304 410.769 301.033C410.722 300.763 410.755 300.485 410.865 300.233C410.955 299.805 411.194 299.423 411.538 299.153C411.883 298.884 412.311 298.744 412.748 298.76H413.062C413.205 297.961 413.205 297.143 413.062 296.345C413.062 295.62 412.748 295.21 412.386 295.041C412.134 294.967 411.869 294.95 411.61 294.992C411.351 295.034 411.105 295.133 410.889 295.282C410.093 295.704 409.387 296.278 408.812 296.973L408.957 297.552C409.027 298.089 409.027 298.633 408.957 299.17C408.93 299.468 408.821 299.752 408.643 299.991C408.571 300.086 408.48 300.165 408.376 300.223C408.272 300.281 408.158 300.317 408.039 300.329C407.85 300.316 407.667 300.258 407.503 300.162C407.34 300.066 407.201 299.933 407.097 299.774C406.885 299.433 406.773 299.04 406.773 298.639C406.773 298.238 406.885 297.845 407.097 297.504C407.219 297.251 407.373 297.016 407.556 296.803C407.51 296.678 407.453 296.557 407.387 296.441C407.244 296.052 407.013 295.7 406.711 295.415C406.409 295.13 406.045 294.919 405.648 294.799C405.366 294.75 405.076 294.778 404.808 294.88C404.54 294.982 404.305 295.154 404.127 295.379C403.526 296.017 403.066 296.774 402.774 297.6C403.669 298.423 404.221 299.553 404.32 300.764C404.424 301.545 404.28 302.339 403.909 303.034C403.743 303.332 403.478 303.562 403.161 303.686C402.835 303.813 402.473 303.813 402.147 303.686C401.833 303.503 401.571 303.242 401.385 302.93C401.199 302.617 401.095 302.263 401.084 301.899C400.969 300.524 401.15 299.141 401.615 297.842C401.37 297.696 401.1 297.597 400.818 297.552C400.438 297.416 400.023 297.405 399.636 297.523C399.249 297.64 398.91 297.879 398.669 298.204C398.068 299.371 397.84 300.695 398.017 301.996C398.024 302.023 398.025 302.051 398.02 302.079C398.015 302.106 398.004 302.133 397.988 302.156C397.972 302.179 397.951 302.198 397.927 302.212C397.903 302.226 397.876 302.235 397.848 302.237C397.821 302.244 397.792 302.246 397.765 302.241C397.737 302.236 397.711 302.225 397.688 302.209C397.665 302.193 397.646 302.172 397.632 302.147C397.618 302.123 397.609 302.096 397.606 302.068C397.371 300.633 397.573 299.161 398.186 297.842C398.473 297.398 398.898 297.061 399.395 296.883C399.893 296.704 400.435 296.693 400.939 296.852C401.267 296.893 401.586 296.991 401.881 297.142L402.171 297.045ZM402.485 298.518C402.127 299.566 401.987 300.675 402.074 301.778C402.074 302.261 402.243 302.672 402.557 302.817C402.659 302.85 402.769 302.85 402.871 302.817C403.04 302.817 403.161 302.599 403.257 302.358C403.467 301.624 403.467 300.846 403.257 300.112C403.118 299.507 402.836 298.944 402.436 298.47L402.485 298.518ZM412.7 299.412H412.966C412.659 299.413 412.362 299.523 412.128 299.722C411.893 299.92 411.737 300.196 411.686 300.498C411.653 300.682 411.653 300.87 411.686 301.054C411.669 301.125 411.669 301.2 411.686 301.271H411.807C412.037 301.148 412.229 300.965 412.362 300.74C412.558 300.488 412.72 300.212 412.845 299.919C412.916 299.772 412.972 299.618 413.014 299.46L412.7 299.412ZM408.184 298.446C408.174 298.55 408.174 298.655 408.184 298.76C408.157 298.895 408.157 299.035 408.184 299.17C408.196 299.074 408.196 298.977 408.184 298.88V298.446V298.446ZM233.338 223.653V220.031C233.366 219.541 233.207 219.059 232.893 218.682C232.58 218.306 232.134 218.063 231.648 218.002C231.414 217.989 231.181 218.023 230.962 218.104C230.742 218.184 230.542 218.308 230.372 218.469C230.203 218.629 230.068 218.823 229.975 219.037C229.883 219.252 229.836 219.483 229.836 219.717V223.629C229.848 224.117 230.044 224.582 230.384 224.931C230.724 225.281 231.184 225.488 231.672 225.513C231.905 225.507 232.136 225.453 232.348 225.355C232.56 225.257 232.75 225.117 232.907 224.943C233.063 224.769 233.181 224.564 233.256 224.343C233.33 224.121 233.358 223.886 233.338 223.653V223.653ZM263.236 222.18V218.557C263.253 218.071 263.09 217.595 262.778 217.22C262.466 216.846 262.027 216.6 261.545 216.529C261.311 216.512 261.076 216.544 260.855 216.623C260.634 216.702 260.432 216.826 260.262 216.987C260.092 217.149 259.957 217.344 259.866 217.56C259.775 217.776 259.73 218.009 259.734 218.244V222.156C259.74 222.641 259.93 223.106 260.266 223.456C260.603 223.806 261.06 224.015 261.545 224.04C261.78 224.034 262.011 223.98 262.225 223.882C262.438 223.785 262.63 223.645 262.788 223.471C262.946 223.297 263.067 223.093 263.144 222.871C263.221 222.649 263.252 222.414 263.236 222.18" fill="#663100"/>
</svg>
