<?xml version="1.0" encoding="utf-8"?>
<!-- Generator: Adobe Illustrator 26.3.1, SVG Export Plug-In . SVG Version: 6.00 Build 0)  -->
<svg version="1.1" id="Ebene_1" xmlns="http://www.w3.org/2000/svg" xmlns:xlink="http://www.w3.org/1999/xlink" x="0px" y="0px"
	 viewBox="0 0 119 29" style="enable-background:new 0 0 119 29;" xml:space="preserve">
<style type="text/css">
	.st0{fill:#CC6300;}
</style>
<path class="st0" d="M20.9,9.7c-0.3,0.1-0.6,0.2-1,0.3c-0.4,0.1-0.8,0.1-1.2,0.1c-0.1-1.2-0.4-2.1-0.9-2.6c-0.5-0.6-1.2-0.9-2.2-0.9
	h-1v12.8c0,0.7,0.1,1.3,0.2,1.7c0.1,0.4,0.4,0.7,0.7,0.8c0.4,0.1,0.9,0.2,1.6,0.3c0.1,0.2,0.1,0.4,0.2,0.8c0,0.3,0.1,0.6,0.1,1
	c-0.6,0-1.2-0.1-2-0.1c-0.8,0-1.7,0-2.6,0c-0.6,0-1.2,0-1.9,0c-0.7,0-1.3,0-1.8,0c-0.6,0-1,0-1.4,0.1c0-0.3,0-0.6,0.1-0.9
	c0.1-0.3,0.1-0.6,0.2-0.8c0.7,0,1.2-0.1,1.6-0.3c0.4-0.1,0.7-0.4,0.8-0.8c0.1-0.4,0.2-1,0.2-1.7V6.5H9.7C8.9,6.5,8.3,6.7,7.8,7
	C7.4,7.2,7,7.6,6.8,8.2C6.5,8.7,6.3,9.3,6.2,10C5.8,10,5.4,10,5,10c-0.4,0-0.7-0.1-1-0.3c0.2-0.8,0.3-1.6,0.4-2.5
	c0.1-0.9,0.2-1.7,0.2-2.4c0.7,0,1.4,0,2.1,0.1s1.6,0,2.5,0c1,0,2.1,0,3.3,0c1.2,0,2.2,0,3.2,0c1,0,1.8,0,2.6,0c0.8,0,1.5,0,2.2-0.1
	c0,0.7,0,1.5,0.1,2.4C20.7,8,20.8,8.8,20.9,9.7z M33.1,21.1c0.2,0.1,0.6,0.2,1.1,0.2c0,0.3,0,0.6,0,0.9c0,0.3-0.1,0.6-0.3,0.8
	c-0.7,0-1.4,0.1-2.1,0.3c-0.7,0.1-1.4,0.4-2,0.6c-0.3-0.1-0.5-0.3-0.7-0.6c-0.1-0.3-0.2-0.6-0.2-1.1c0-0.2,0-0.5,0.1-0.8
	c0-0.2,0.1-0.3,0.1-0.4c-0.1,0.3-0.2,0.6-0.4,0.8c-0.2,0.4-0.5,0.7-0.9,1c-0.4,0.3-0.8,0.6-1.4,0.8C26,23.9,25.4,24,24.7,24
	c-1.3,0-2.2-0.3-2.9-0.8c-0.7-0.5-1-1.3-1-2.3c0-0.7,0.2-1.3,0.5-1.8c0.3-0.5,0.8-1,1.3-1.3s1.2-0.6,1.9-0.9
	c0.7-0.2,1.4-0.4,2.1-0.5c0.7-0.1,1.4-0.2,2-0.3c0-0.5,0-1-0.1-1.3c0-0.4-0.1-0.7-0.2-0.9c-0.1-0.3-0.2-0.5-0.4-0.7
	c-0.2-0.3-0.4-0.4-0.7-0.5c-0.3-0.1-0.5-0.2-0.8-0.2c-0.5,0-0.9,0.2-1.3,0.5c-0.3,0.3-0.5,0.7-0.7,1.2s-0.2,1-0.3,1.5
	c-0.4,0-0.9,0-1.3-0.1c-0.4,0-0.7-0.1-1-0.2c0-0.5,0-1,0-1.6c0-0.6-0.1-1.2-0.2-1.7c0.8-0.4,1.7-0.6,2.7-0.8c1-0.2,2-0.3,2.9-0.3
	c1.1,0,1.9,0.1,2.6,0.4c0.7,0.2,1.1,0.5,1.5,0.9c0.4,0.4,0.7,1,0.9,1.7c0.2,0.7,0.3,1.7,0.3,3v2.4c0,0.6,0,1.1,0.1,1.4
	C32.7,20.8,32.9,21,33.1,21.1z M28.6,17.5c-0.5,0.1-1.1,0.2-1.5,0.3c-0.5,0.1-0.9,0.3-1.2,0.5c-0.3,0.2-0.6,0.4-0.8,0.7
	c-0.2,0.3-0.3,0.6-0.3,1.1c0,0.6,0.1,1,0.4,1.2c0.3,0.2,0.6,0.4,1,0.4c0.4,0,0.8-0.1,1.1-0.4c0.4-0.3,0.7-0.6,1-1.1
	c0.3-0.5,0.4-1.1,0.4-1.9V17.5z M46.6,11c-0.5,0-1,0-1.5,0c-0.5,0-0.9,0-1.3-0.1c0,0.3,0,0.6,0.1,0.9c0.1,0.3,0.1,0.6,0.2,0.8
	c0.6,0.1,1,0.3,1.2,0.6c0.2,0.4,0.1,1-0.3,1.9c-0.4,0.9-0.7,1.8-1.1,2.7c-0.3,0.6-0.5,1.3-0.8,2.1c-0.1-0.2-0.2-0.5-0.3-0.7
	c-0.2-0.6-0.5-1.2-0.7-1.8c-0.2-0.6-0.4-1.1-0.6-1.6c-0.2-0.5-0.4-0.9-0.6-1.3c-0.3-0.7-0.4-1.2-0.3-1.4c0.1-0.2,0.6-0.4,1.3-0.5
	c0.1-0.2,0.1-0.5,0.2-0.8c0.1-0.3,0.1-0.6,0.1-0.9c-0.3,0-0.7,0-1.1,0.1c-0.4,0-0.9,0-1.5,0c-0.5,0-1,0-1.5,0c-0.7,0-1.4,0-2.1,0
	c-0.7,0-1.2,0-1.6-0.1c0,0.3,0,0.6,0.1,0.9c0.1,0.3,0.1,0.5,0.2,0.8c0.2,0,0.4,0.1,0.6,0.2c0.2,0.1,0.4,0.3,0.5,0.5
	c0.2,0.2,0.4,0.6,0.6,1c0.2,0.4,0.4,0.8,0.7,1.5c0.3,0.6,0.6,1.3,1,2c0.4,0.7,0.7,1.5,1,2.3c0.4,0.8,0.7,1.5,1,2.2
	c0.3,0.7,0.6,1.3,0.8,1.8c0.4,0,0.8,0,1.2-0.1c0.4-0.1,0.8-0.1,1-0.3L47,15c0.2-0.6,0.4-1,0.6-1.3c0.2-0.3,0.4-0.6,0.6-0.7
	c0.2-0.2,0.5-0.3,0.8-0.4c0.1-0.2,0.2-0.5,0.2-0.8c0.1-0.3,0.1-0.6,0.1-0.9c-0.4,0-0.8,0-1.3,0.1C47.6,11,47.1,11,46.6,11z
	 M63.5,13.9c0.5,1,0.8,2.1,0.8,3.4c0,1.4-0.3,2.6-0.9,3.6c-0.6,1-1.4,1.8-2.5,2.4c-1.1,0.6-2.3,0.8-3.8,0.8c-1.5,0-2.7-0.3-3.8-0.8
	c-1-0.5-1.8-1.3-2.4-2.3c-0.5-1-0.8-2.1-0.8-3.5c0-1.4,0.3-2.7,0.9-3.7c0.6-1,1.5-1.8,2.5-2.3c1.1-0.5,2.3-0.8,3.6-0.8
	c1.5,0,2.8,0.3,3.8,0.8C62.2,12.1,63,12.9,63.5,13.9z M60.2,17.9c0-1.2-0.1-2.2-0.4-3s-0.7-1.4-1.2-1.8s-1-0.6-1.6-0.6
	c-0.9,0-1.5,0.4-2,1.2c-0.4,0.8-0.6,1.8-0.6,3c0,1.1,0.1,2.1,0.4,2.9c0.3,0.8,0.6,1.5,1.1,2c0.5,0.5,1.1,0.7,1.7,0.7
	c0.9,0,1.5-0.4,2-1.2C60,20.2,60.2,19.2,60.2,17.9z M73.8,22.2c-0.7,0-1.2-0.2-1.4-0.5c-0.2-0.3-0.4-1-0.4-1.9V5.2
	c0-0.4-0.1-0.8-0.2-1c-0.1-0.2-0.3-0.4-0.6-0.5C70.9,3.9,70.5,4,70,4.2c-0.5,0.1-1.1,0.2-1.8,0.3c-0.7,0.1-1.3,0.1-1.9,0.1
	C66.1,4.9,66,5.1,66,5.4c0,0.3-0.1,0.5-0.1,0.8c0.6,0,1,0.1,1.3,0.3c0.3,0.1,0.5,0.3,0.6,0.6C68,7.3,68,7.7,68,8.1v11.6
	c0,0.9-0.1,1.6-0.4,1.9c-0.2,0.3-0.7,0.5-1.5,0.5c-0.1,0.2-0.1,0.5-0.2,0.8c0,0.3,0,0.6,0,0.9c0.3,0,0.6,0,1-0.1c0.4,0,0.9,0,1.4,0
	c0.5,0,1,0,1.5,0c0.5,0,1,0,1.5,0c0.5,0,1,0,1.4,0c0.4,0,0.8,0,1.1,0.1c0-0.3,0-0.6,0-0.9C73.9,22.7,73.8,22.4,73.8,22.2z
	 M88.1,21.1c0.2,0.1,0.6,0.2,1.1,0.2c0,0.3,0,0.6,0,0.9c0,0.3-0.1,0.6-0.3,0.8c-0.7,0-1.4,0.1-2.1,0.3c-0.7,0.1-1.4,0.4-2,0.6
	c-0.3-0.1-0.5-0.3-0.7-0.6c-0.1-0.3-0.2-0.6-0.2-1.1c0-0.2,0-0.5,0.1-0.8c0-0.2,0.1-0.3,0.1-0.4c-0.1,0.3-0.2,0.6-0.4,0.8
	c-0.2,0.4-0.5,0.7-0.9,1c-0.4,0.3-0.8,0.6-1.4,0.8C81,23.9,80.4,24,79.7,24c-1.3,0-2.2-0.3-2.9-0.8c-0.7-0.5-1-1.3-1-2.3
	c0-0.7,0.2-1.3,0.5-1.8c0.3-0.5,0.8-1,1.3-1.3s1.2-0.6,1.9-0.9c0.7-0.2,1.4-0.4,2.1-0.5c0.7-0.1,1.4-0.2,2-0.3c0-0.5,0-1-0.1-1.3
	c0-0.4-0.1-0.7-0.2-0.9c-0.1-0.3-0.2-0.5-0.4-0.7c-0.2-0.3-0.4-0.4-0.7-0.5c-0.3-0.1-0.5-0.2-0.8-0.2c-0.5,0-0.9,0.2-1.3,0.5
	c-0.3,0.3-0.5,0.7-0.7,1.2s-0.2,1-0.3,1.5c-0.4,0-0.9,0-1.3-0.1c-0.4,0-0.7-0.1-1-0.2c0-0.5,0-1,0-1.6c0-0.6-0.1-1.2-0.2-1.7
	c0.8-0.4,1.7-0.6,2.7-0.8c1-0.2,2-0.3,2.9-0.3c1.1,0,1.9,0.1,2.6,0.4c0.7,0.2,1.1,0.5,1.5,0.9c0.4,0.4,0.7,1,0.9,1.7
	c0.2,0.7,0.3,1.7,0.3,3v2.4c0,0.6,0,1.1,0.1,1.4C87.8,20.8,87.9,21,88.1,21.1z M83.6,17.5c-0.5,0.1-1.1,0.2-1.5,0.3
	c-0.5,0.1-0.9,0.3-1.2,0.5c-0.3,0.2-0.6,0.4-0.8,0.7c-0.2,0.3-0.3,0.6-0.3,1.1c0,0.6,0.1,1,0.4,1.2c0.3,0.2,0.6,0.4,1,0.4
	c0.4,0,0.8-0.1,1.1-0.4c0.4-0.3,0.7-0.6,1-1.1c0.3-0.5,0.4-1.1,0.4-1.9V17.5z M98.4,21.9c-0.3,0.1-0.6,0.1-0.9,0.1
	c-0.3,0-0.6-0.1-0.8-0.3c-0.2-0.2-0.4-0.5-0.5-0.9c-0.1-0.4-0.1-1-0.1-1.8v-5.7c0.4-0.1,0.9-0.2,1.5-0.3s1.1-0.1,1.7-0.1
	c0.1-0.3,0.2-0.5,0.2-0.8c0-0.3,0.1-0.6,0.1-1H96V8.1c0-0.6,0-1-0.1-1.2c-0.1-0.2-0.3-0.4-0.5-0.5C95,6.7,94.5,7,93.9,7.3
	c-0.6,0.2-1.2,0.4-1.8,0.5v3.4h-1.7c-0.1,0.3-0.2,0.6-0.3,0.8c0,0.3-0.1,0.6-0.1,0.9c0.4,0,0.8,0.1,1.1,0.1c0.3,0.1,0.6,0.1,0.9,0.3
	v6.3c0,1.6,0.3,2.7,1,3.4c0.7,0.7,1.6,1,2.9,1c0.7,0,1.4-0.1,2.1-0.3c0.7-0.2,1.2-0.5,1.6-0.8c0-0.6-0.2-1-0.4-1.4
	C99,21.7,98.7,21.8,98.4,21.9z M114.7,21.4c0,0.3,0,0.6,0,0.9c0,0.3-0.1,0.6-0.3,0.8c-0.7,0-1.4,0.1-2.1,0.3c-0.7,0.1-1.4,0.4-2,0.6
	c-0.3-0.1-0.5-0.3-0.7-0.6c-0.1-0.3-0.2-0.6-0.2-1.1c0-0.2,0-0.5,0.1-0.8c0-0.2,0.1-0.3,0.1-0.4c-0.1,0.3-0.2,0.6-0.4,0.8
	c-0.2,0.4-0.5,0.7-0.9,1c-0.4,0.3-0.8,0.6-1.4,0.8c-0.5,0.2-1.1,0.3-1.9,0.3c-1.3,0-2.2-0.3-2.9-0.8c-0.7-0.5-1-1.3-1-2.3
	c0-0.7,0.2-1.3,0.5-1.8c0.3-0.5,0.8-1,1.3-1.3c0.6-0.4,1.2-0.6,1.9-0.9s1.4-0.4,2.1-0.5c0.7-0.1,1.4-0.2,2-0.3c0-0.5,0-1-0.1-1.3
	c0-0.4-0.1-0.7-0.2-0.9c-0.1-0.3-0.2-0.5-0.4-0.7c-0.2-0.3-0.4-0.4-0.7-0.5c-0.3-0.1-0.5-0.2-0.8-0.2c-0.5,0-0.9,0.2-1.3,0.5
	c-0.3,0.3-0.5,0.7-0.7,1.2c-0.1,0.5-0.2,1-0.3,1.5c-0.4,0-0.9,0-1.3-0.1c-0.4,0-0.7-0.1-1-0.2c0-0.5,0-1,0-1.6
	c0-0.6-0.1-1.2-0.2-1.7c0.8-0.4,1.7-0.6,2.7-0.8c1-0.2,2-0.3,2.9-0.3c1.1,0,1.9,0.1,2.6,0.4c0.7,0.2,1.1,0.5,1.5,0.9
	c0.4,0.4,0.7,1,0.9,1.7c0.2,0.7,0.3,1.7,0.3,3v2.4c0,0.6,0,1.1,0.1,1.4c0.1,0.3,0.2,0.5,0.4,0.7C113.9,21.3,114.2,21.3,114.7,21.4z
	 M109.1,17.5c-0.5,0.1-1.1,0.2-1.5,0.3c-0.5,0.1-0.9,0.3-1.2,0.5c-0.3,0.2-0.6,0.4-0.8,0.7c-0.2,0.3-0.3,0.6-0.3,1.1
	c0,0.6,0.1,1,0.4,1.2c0.3,0.2,0.6,0.4,1,0.4c0.4,0,0.8-0.1,1.1-0.4c0.4-0.3,0.7-0.6,1-1.1c0.3-0.5,0.4-1.1,0.4-1.9V17.5z"/>
</svg>
