<svg width="24" height="24" viewBox="0 0 24 24" fill="none" xmlns="http://www.w3.org/2000/svg">
<g clip-path="url(#clip0_344_58850)">
<path d="M11.975 22.7041C11.675 22.7041 11.475 22.6041 11.275 22.4041L1.875 12.4041C0.875 11.4041 0.275 10.2041 0.075 8.80405C-0.125 7.40405 0.075 6.00405 0.675 4.80405C1.175 3.90405 1.775 3.00405 2.675 2.40405C3.475 1.70405 4.475 1.30405 5.475 1.10405C6.475 0.904052 7.575 1.00405 8.575 1.30405C9.475 1.60405 10.475 2.20405 11.175 3.00405L11.975 3.80405L12.775 3.00405C13.475 2.20405 14.475 1.60405 15.375 1.30405C16.375 1.00405 17.375 0.904052 18.475 1.10405C19.475 1.30405 20.475 1.70405 21.275 2.30405C22.075 2.90405 22.775 3.80405 23.275 4.70405C23.875 6.00405 24.075 7.40405 23.875 8.70405C23.675 10.1041 22.975 11.3041 22.075 12.3041L12.675 22.3041C12.475 22.6041 12.275 22.7041 11.975 22.7041ZM6.475 3.00405C6.275 3.00405 6.075 3.00405 5.775 3.10405C5.075 3.20405 4.375 3.50405 3.775 3.90405C3.275 4.30405 2.775 4.90405 2.475 5.60405C2.075 6.50405 1.875 7.40405 2.075 8.40405C2.275 9.40405 2.675 10.3041 3.375 11.0041L12.075 20.2041L20.675 11.0041C21.375 10.3041 21.775 9.40405 21.975 8.40405C22.175 7.40405 21.975 6.40405 21.575 5.60405C21.275 4.90405 20.775 4.40405 20.175 3.90405C19.575 3.50405 18.875 3.20405 18.175 3.10405C17.475 2.90405 16.675 3.00405 16.075 3.20405C15.475 3.40405 14.775 3.80405 14.275 4.30405L12.775 5.90405C12.375 6.30405 11.675 6.30405 11.375 5.90405L9.875 4.30405C9.175 3.80405 8.575 3.40405 7.875 3.20405C7.475 3.10405 6.975 3.00405 6.475 3.00405Z" fill="#FFC800"/>
</g>
<defs>
<clipPath id="clip0_344_58850">
<rect width="24" height="24" fill="white"/>
</clipPath>
</defs>
</svg>
