<svg width="483" height="483" viewBox="0 0 483 483" fill="none" xmlns="http://www.w3.org/2000/svg">
<path d="M229.812 206.458C230.077 206.217 229.812 204.816 228.314 203.898C227.698 203.559 227.001 203.395 226.298 203.425C225.596 203.455 224.915 203.677 224.33 204.067C222.857 205.058 222.615 206.772 223.171 206.917C223.726 207.062 223.774 206.652 224.402 206.193C224.96 205.709 225.661 205.421 226.398 205.373C227.135 205.325 227.868 205.519 228.483 205.927C229.111 206.386 229.643 206.652 229.812 206.458V206.458ZM320.35 141.447C321.099 141.447 320.809 141.012 319.094 144.2C314.627 152.797 312.839 165.645 313.419 165.814C313.999 165.983 315.834 159.97 317.694 153.304C319.553 146.639 321.268 142.896 321.582 141.398C323.331 141.309 325.072 141.116 326.798 140.819C327.771 140.749 328.715 140.451 329.551 139.949C329.358 139.37 319.891 138.911 313.781 140.215C312.091 140.553 310.956 140.915 311.028 141.277C311.028 142.123 317.911 141.495 320.35 141.447V141.447ZM329.817 163.061C330.324 163.278 332.811 157.603 335.009 151.759C338.504 152.591 342.153 152.516 345.611 151.541C344.403 154.463 340.515 165.403 341.167 165.717C341.819 166.031 353.242 139.321 351.866 138.79C351.383 138.549 348.75 144.031 346.094 150.334C342.559 150.212 339.02 150.276 335.492 150.527C341.24 134.974 338.777 135.844 333.27 150.841C331.616 154.755 330.456 158.86 329.817 163.061V163.061ZM348.944 163.326C349.475 163.495 349.765 161.394 355.875 154.029C359.069 154.608 362.341 154.608 365.535 154.029C365.04 156.345 364.902 158.723 365.124 161.08C365.728 161.201 368.892 151.928 368.143 143.644C368.133 142.573 367.886 141.517 367.418 140.553C366.573 138.573 355.223 149.464 350.513 159.052C349.652 160.329 349.113 161.796 348.944 163.326V163.326ZM366.815 141.447C366.597 142.871 366.815 143.862 365.631 152.821C362.762 152.48 359.865 152.432 356.986 152.676C360.97 147.991 365.293 143.403 366.815 141.447V141.447ZM376.861 161.636C380.233 155.238 382.967 148.525 385.024 141.591C385.265 143.499 386.183 147.291 386.69 151.251C388.163 163.326 387.028 165.427 390.047 159.148C393.066 152.869 398.427 139.176 397.751 138.862C397.075 138.549 394.394 143.982 391.834 150.285C390.69 152.806 389.682 155.385 388.815 158.013C389.588 149.319 385.99 140.336 385.072 139.949C384.154 139.563 381.884 144.997 379.759 150.841C378.658 153.431 377.738 156.093 377.006 158.81C376.354 161.298 375.243 163.592 376.861 161.636ZM399.079 162.529C399.61 162.747 402.219 156.903 404.44 151.107C405.585 151.477 406.792 151.617 407.99 151.517C408.232 152.676 409.077 154.85 409.464 157.216C409.786 159.421 410.229 161.606 410.792 163.761C411.854 163.761 412.651 155.792 409.077 151.372C412.229 150.636 415.078 148.95 417.24 146.542C418.884 144.982 420.056 142.99 420.621 140.794C420.355 140.601 419.558 141.591 418.206 142.992C415.78 145.593 412.899 147.729 409.705 149.295C408.083 149.886 406.382 150.228 404.658 150.31C409.898 136.423 407.894 136.665 402.243 150.962C400.662 154.654 399.598 158.547 399.079 162.529V162.529ZM327.957 197.33C328.223 197.33 331.073 187.67 332.111 186.172C332.328 185.955 334.212 183.178 334.333 182.985C338.946 176.078 343.824 170.04 343.293 169.605C342.761 169.171 334.937 177.961 331.073 184.337C330.952 177.623 328.344 170.064 327.426 170.33C326.895 170.596 327.788 174.749 328.585 179.265C329.068 182.043 329.575 184.651 329.986 186.293C328.708 189.836 328.023 193.564 327.957 197.33V197.33ZM348.944 196.267C355.005 198.296 357.734 194.939 360.825 190.616C363.41 186.969 363.24 180.545 361.888 179.265C362.709 179.265 359.835 174.146 353.991 174.435C342.447 174.315 339.525 192.886 348.944 196.267V196.267ZM347.012 180.594C347.608 179.163 348.614 177.941 349.903 177.082C351.192 176.222 352.707 175.764 354.257 175.764C355.726 175.658 357.199 175.918 358.544 176.52C359.888 177.123 361.062 178.049 361.961 179.217C362.511 182.211 362.141 185.301 360.898 188.08C358.483 192.91 354.86 196.243 349.813 194.456C346.335 193.2 343.437 187.332 347.012 180.594V180.594ZM375.968 195.615C378.561 194.38 380.835 192.562 382.609 190.302C385.628 185.786 390.095 171.948 389.612 171.706C388.767 171.417 378.938 201.725 371.621 192.789C369.833 191.002 371.838 186.969 372.78 184.627C372.78 184.385 377.392 172.842 376.861 172.552C376.33 172.262 369.616 187.476 369.423 188.225C367.515 193.973 372.224 196.871 375.968 195.615ZM397.316 180.594C396.284 184.312 395.78 188.158 395.819 192.017C396.906 192.258 402.194 169.968 400.939 169.605C400.335 169.533 398.644 174.749 397.316 180.594ZM391.23 197.788C390.965 198.585 392.196 199.648 392.897 199.817C395.143 200.324 396.084 197.547 393.621 196.798C392.534 196.46 391.472 196.895 391.23 197.788ZM253.986 199.986C251.04 200.735 249.977 203.705 250.991 203.705C259.371 200.928 256.522 203.705 257.971 202.932C258.236 202.932 257.971 202.111 257.439 201.411C257.041 200.89 256.511 200.484 255.905 200.233C255.298 199.983 254.636 199.898 253.986 199.986V199.986ZM245.751 210.805C243.336 206.652 242.201 202.594 241.597 202.739C241.681 206.917 243.037 210.969 245.485 214.355C246.644 215.829 246.089 215.007 248.069 217.616C248.721 218.292 248.552 218.388 248.069 218.606C246.533 219.718 244.919 220.719 243.239 221.6C241.894 222.116 240.503 222.504 239.085 222.76C239.085 222.76 239.52 223.122 240.317 223.194C243.568 223.215 246.729 222.124 249.277 220.103C252.73 217.93 248.166 215.346 245.751 210.805ZM19.7792 192.741C22.0493 196.46 22.3632 201.29 25.4544 196.098C27.9105 191.8 31.303 188.11 35.3801 185.303C35.6186 185.162 35.8015 184.944 35.8982 184.685C35.9949 184.425 35.9996 184.14 35.9114 183.878C35.6457 183.202 35.0903 183.033 32.8926 181.463C30.0309 179.597 27.6151 177.123 25.8167 174.218C23.5224 170.113 24.5367 169.388 23.5949 169.388C23.3292 169.388 23.4258 169.654 23.4258 169.654C23.4258 169.654 23.6673 169.509 23.6915 170.233C23.9088 179.507 35.1144 184.361 33.5205 184.361C30.3097 186.543 27.5403 189.313 25.3578 192.524C25.2371 192.765 23.6673 195.277 23.4258 195.518C22.8704 194.407 23.1843 195.035 22.6289 193.852C20.3442 190.149 17.6107 186.742 14.4903 183.709C16.5484 182.679 18.3165 181.152 19.6343 179.265C20.7137 177.77 21.6059 176.148 22.2908 174.435C23.1064 173.034 23.5394 171.444 23.5466 169.823C23.3534 169.823 22.8221 171.417 21.4214 173.904C20.1975 176.417 18.4715 178.653 16.3499 180.473C15.4276 181.285 14.3399 181.886 13.1621 182.236C11.7131 183.274 12.2202 184.289 12.7274 184.651C15.4757 186.973 17.8537 189.701 19.7792 192.741V192.741ZM161.612 72.2568C164.406 74.5796 166.846 77.2968 168.857 80.3229C169.827 81.7139 170.516 83.2807 170.886 84.9355C171.61 85.7808 171.634 86.3604 173.446 85.4668C176.086 80.4795 179.848 76.1726 184.434 72.8847C184.679 72.7511 184.868 72.5333 184.966 72.2715C185.063 72.0097 185.063 71.7215 184.965 71.4598C184.7 70.7836 184.168 70.6387 181.971 69.1656C179.103 67.2981 176.68 64.8252 174.871 61.9206C172.625 57.8634 173.591 57.2355 172.649 57.2355C172.383 57.2355 172.48 57.5011 172.48 57.5011C172.48 57.5011 172.721 57.3321 172.745 58.1049C173.011 66.0744 182.405 71.7979 182.768 72.1119C182.547 72.2127 182.337 72.334 182.14 72.4741C178.221 75.4195 174.936 79.1236 172.48 83.3658C171.924 82.2549 172.262 82.9069 171.683 81.6753C169.002 75.9759 162.626 71.4115 163.351 71.4115C165.43 70.3412 167.226 68.7936 168.591 66.8955C169.652 65.3879 170.543 63.7681 171.248 62.0655C172.052 60.6697 172.477 59.0878 172.48 57.477C172.311 57.477 171.779 59.0709 170.354 61.5342C169.136 64.0444 167.419 66.2796 165.307 68.103C164.383 68.9116 163.296 69.5127 162.119 69.8659C160.574 70.9285 161.081 71.9187 161.612 72.2568V72.2568ZM311.535 427.866V428.179C311.39 428.783 311.535 428.614 311.535 427.866ZM247.176 231.526C244.761 233.386 241.524 236.525 238.482 235.511C236.674 234.784 235.031 233.7 233.652 232.323C236.004 232.558 238.375 232.558 240.728 232.323C251.136 230.439 251.402 229.739 240.558 230.826C238.451 230.885 236.342 230.764 234.255 230.463C232.034 230.246 229.836 230.029 227.614 229.763C229.28 231.429 229.184 231.14 231.768 233.579C236.598 237.564 239.568 239.302 244.519 235.438C245.702 234.495 246.779 233.426 247.731 232.251C248.456 231.381 248.697 230.826 248.6 230.729C248.078 230.899 247.594 231.17 247.176 231.526V231.526Z" fill="#663100"/>
<path d="M435.594 232.854C433.913 232.267 432.118 232.085 430.353 232.323C432.479 230.995 434 229.449 434 227.807C433.034 224.015 429.846 223.774 426.006 224.716C422.046 225.884 418.285 227.642 414.849 229.932C416.588 228.193 413.98 220.127 409.464 221.528C405.914 222.615 409.464 231.188 403.764 237.032C402.757 233.891 402.078 230.654 401.736 227.372C393.646 231.14 375.412 239.085 362.516 243.915C337.352 253.792 325.277 256.908 315.206 258.139C313.178 246.064 298.301 241.862 292.529 235.607C291.413 234.401 290.623 232.929 290.234 231.331C289.845 229.734 289.871 228.064 290.308 226.479C292.868 216.239 301.948 209.888 302.189 201.314C302.189 195.518 297.359 190.109 293.399 185.907C289.438 181.705 285.067 177.792 285.164 172.359C285.384 169.464 285.09 166.553 284.294 163.761C282.145 156.927 277.049 156.516 271.277 154.801C261.762 151.879 265.82 149.416 263.646 145.141C261.418 141.41 258.023 138.515 253.986 136.906C248.258 135.064 242.049 135.425 236.574 137.921C226.672 126.618 197.089 126.908 177.624 149.03C174.802 152.222 172.503 155.841 170.813 159.752C165.621 171.827 169.968 183.347 161.516 188.998C156.951 192.041 147.629 193.224 144.611 206.796C142.968 214.331 145.504 220.852 144.248 225.223C143.674 226.78 142.583 228.093 141.157 228.942C135.265 232.468 126.667 236.694 121.499 245.581C119.448 249.043 118.171 252.907 117.754 256.909C117.337 260.911 117.791 264.955 119.084 268.765C105.279 269.231 91.4588 268.561 77.7635 266.761C69.3205 265.708 60.9492 264.143 52.6958 262.076C52.6958 262.076 52.3335 264.708 51.923 268.934C44.5572 265.771 44.678 259.757 41.8041 257.463C40.4517 256.111 38.399 257.197 37.2639 258.622C35.2353 261.158 36.9741 265.867 37.8918 266.664C35.5064 266.166 33.0824 265.876 30.6468 265.795C28.1222 265.645 25.5895 265.881 23.1362 266.495C22.1125 266.712 21.187 267.256 20.4988 268.044C19.8107 268.832 19.3972 269.823 19.3205 270.866C19.3205 273.112 21.7355 274.223 24.8025 274.73C22.1702 275.503 19.248 276.638 19.248 279.271C19.248 282.796 25.4063 282.555 28.908 282.12C27.9179 282.821 27.0485 283.956 27.5798 285.042C29.6084 289.075 49.6529 283.304 49.6529 282.99C49.6529 282.676 30.9849 286.685 28.8356 284.511C28.6424 284.197 28.5941 283.642 30.1638 282.821C33.4241 281.106 34.9938 281.227 40.4276 279.633C40.4276 279.367 39.7272 277.604 39.7997 277.87C35.5734 279.126 26.324 281.154 22.629 280.285C20.214 279.657 20.9868 278.136 23.0637 277.363C26.0785 276.146 29.264 275.404 32.5064 275.165C34.535 275.165 36.4187 274.924 37.7711 274.803C37.7711 274.006 37.4571 272.388 37.5054 272.654C33.4965 273.064 25.841 273.571 22.1943 271.881C20.9627 271.06 21.0834 270.094 22.1943 269.128C26.1549 265.36 41.3453 268.862 41.5143 268.862C39.7212 266.89 38.4946 264.47 37.9643 261.858C37.8804 261.056 38.0744 260.249 38.514 259.572C38.9535 258.895 39.6119 258.389 40.3793 258.139C42.9633 257.777 44.5331 268.089 51.9713 269.683C51.3192 276.928 50.474 286.588 50.2084 288.254C50.2084 290.235 50.4016 290.017 52.6234 291.804C85.419 317.065 125.58 340.974 166.394 345.103C166.635 345.103 157.893 399.393 159.39 424.798C159.429 425.353 159.429 425.91 159.39 426.465C159.406 426.642 159.406 426.819 159.39 426.996C159.39 404.851 164.22 365.945 167.891 344.186C167.601 344.186 162.168 343.582 159.584 343.123C123.359 337.086 89.3555 318.418 60.5445 295.934L52.2128 289.293C51.8747 288.641 54.3863 264.732 54.4104 264.491C77.4804 269.824 101.193 271.84 124.832 270.48C145.166 269.369 148.161 265.964 182.961 261.979C194.823 260.511 206.778 259.929 218.727 260.24C215.37 268.838 220.731 278.329 236.815 279.343C250.46 280.212 258.261 270.528 256.28 260.772C274.73 261.685 293.217 261.588 311.656 260.482C318.442 259.83 323.973 259.733 343.558 253.237C359.618 247.803 387.028 236.332 400.601 230.101C401.273 234.42 402.549 238.623 404.392 242.587C406.55 247.778 410.186 252.221 414.849 255.362C405.576 275.793 383.454 302.551 349.934 322.982C335.875 331.297 321.001 338.151 305.546 343.437C310.196 371.329 312.201 399.597 311.535 427.866C311.825 425.958 312.163 412.627 312.043 408.787C311.881 387.126 310.096 365.508 306.705 344.113C306.705 342.568 374.325 326.436 411.855 264.418C413.713 261.293 415.398 258.068 416.902 254.758C415.735 254.011 414.606 253.205 413.521 252.343C412.31 251.346 411.195 250.238 410.188 249.035C415.978 248.779 421.713 247.805 427.262 246.137C428.458 245.785 429.591 245.247 430.619 244.543C432.285 242.901 431.44 241.307 429.218 240.727C439.192 238.143 437.816 233.82 435.594 232.854V232.854ZM228.653 275.745C217.809 272.098 218.993 263.018 219.331 260.192L221.746 260.313C221.359 269.78 230.512 272.388 239.979 272.895C247.9 272.484 254.324 270.142 254.324 262.172C254.324 261.931 254.155 260.82 254.155 260.579H255.99C253.575 276.759 242.297 279.826 228.653 275.745ZM249.663 249.18C249.663 249.421 248.721 258.96 251.571 259.105C253.6 267.22 248.432 271.18 241.331 271.18C234.086 271.567 224.982 269.804 223.702 262.752C223.026 259.081 224.233 259.564 223.026 258.864C225.441 254.589 224.909 248.769 223.026 248.334C197.861 237.443 199.842 222.18 197.765 223.291C193.563 223.291 191.268 224.764 189.143 221.069C188.177 219.113 188.467 214.017 194.263 215.346C194.505 215.346 199.987 217.761 196.847 215.756C189.071 207.956 210.226 197.064 213.148 193.804C221.335 184.699 215.853 181.246 220.949 173.59C225.779 166.949 230.44 167.577 235.221 167.577C236.695 167.577 237.806 169.147 238.409 170.499C240.534 175.691 237.975 181.246 244.423 185.206C250.871 189.167 259.058 186.704 260.555 191.147C261.424 193.78 260.724 199.745 265.24 202.57C266.306 203.23 267.499 203.658 268.742 203.826C271.181 224.861 260.024 244.64 249.663 249.252V249.18ZM417.24 240.848L417.433 242.611C419.438 242.321 429.726 240.945 429.726 242.973C429.484 242.973 410.261 248.697 410.019 248.793C407.282 245.37 405.194 241.474 403.861 237.298C407.846 234.134 409.729 222.615 409.802 222.591C410.549 222.532 411.295 222.719 411.927 223.122C414.68 225.102 413.545 229.908 412.458 233.144C412.724 232.975 416.177 230.729 417.868 229.86C428.397 224.595 433.71 225.706 431.513 228.99C428.744 231.225 425.547 232.869 422.118 233.82C420.09 234.352 418.375 234.859 417.506 235.173C417.506 235.414 418.109 237.588 418.037 237.225C422.76 235.592 427.684 234.609 432.672 234.303C437.864 234.376 435.763 239.085 417.24 240.92V240.848ZM338.366 81.458C335.782 88.872 335.782 99.329 338.777 103.797C338.946 103.797 338.414 102.565 338.052 100.343C337.17 94.4248 337.751 88.3804 339.743 82.7379C341.212 84.0353 342.929 85.0212 344.79 85.6359C351.624 87.3506 354.45 81.627 351.794 76.8695C351.053 75.3999 349.76 74.2843 348.198 73.7681C346.635 73.2518 344.932 73.3771 343.462 74.1164C341.482 75.4142 339.968 77.3091 339.139 79.526C330.855 70.1799 338.39 54.7722 337.787 54.4583C337.787 54.4583 336.893 55.4243 335.927 57.7427C332.884 66.171 332.16 75.0582 338.366 81.458V81.458ZM344.428 75.8069C345.473 75.3836 346.629 75.324 347.712 75.6378C350.997 76.8212 352.325 82.3998 348.775 83.6798C346.36 84.7907 342.979 82.8828 340.54 80.8301C341.273 78.7874 342.634 77.0292 344.428 75.8069V75.8069ZM114.423 153.618C118.215 159.752 125.363 165.911 131.207 167.577C133.743 168.301 130.845 167.166 129.01 166.08C123.814 162.896 119.438 158.536 116.234 153.353C119.736 152.628 123.769 150.938 124.832 147.46C126.933 140.843 116.959 136.858 112.974 142.413C110.849 144.538 111.839 148.643 113.264 151.541C100.44 152.507 92.9538 135.892 92.3259 136.23C92.1569 136.23 92.5916 137.558 94.1131 139.853C98.4359 147.846 106.019 154.319 114.423 153.618V153.618ZM122.803 146.663C121.886 149.416 118.335 150.793 115.124 151.324C108.869 138.428 125.001 140.07 122.803 146.663ZM458.005 168.012C456.894 168.012 456.749 175.257 458.005 175.257C458.609 175.257 459.068 173.494 459.068 171.634C459.068 169.775 458.343 168.012 458.005 168.012ZM458.005 186.535C456.894 186.535 456.749 193.78 458.005 193.78C458.609 193.78 459.068 192.017 459.068 190.157C459.068 188.298 458.343 186.535 458.005 186.535ZM448.78 179.797C446.92 179.797 445.23 180.521 445.23 180.859C445.23 181.97 452.475 182.115 452.475 180.859C452.427 180.231 450.639 179.797 448.78 179.797ZM467.303 179.797C465.443 179.797 463.753 180.521 463.753 180.859C463.753 181.946 470.998 182.115 470.998 180.859C470.925 180.231 469.163 179.797 467.303 179.797ZM78.1499 366.452C77.0631 366.452 76.9182 373.697 78.1499 373.697C78.7778 373.697 79.2125 372.007 79.2125 370.05C79.2125 368.094 78.5121 366.452 78.1499 366.452ZM78.1499 385.048C77.0631 385.048 76.9182 392.293 78.1499 392.293C78.7778 392.293 79.2125 390.53 79.2125 388.646C79.2125 386.762 78.5121 385.048 78.1499 385.048ZM68.9487 378.31C67.0892 378.31 65.3987 379.01 65.3987 379.372C65.3987 380.483 72.6437 380.604 72.6437 379.372C72.5712 378.744 70.8083 378.31 68.9487 378.31ZM87.4718 378.31C85.5881 378.31 83.9217 379.01 83.9217 379.372C83.9217 380.483 91.1667 380.604 91.1667 379.372C91.0943 378.744 89.3555 378.31 87.4718 378.31Z" fill="#663100"/>
<path d="M74.2612 220.103C76.7552 222.057 79.4228 223.779 82.2307 225.247C83.9937 222.132 83.1243 220.828 83.1243 212.303C72.9088 218.654 69.7452 222.277 81.4338 215.587V222.591C78.8759 221.616 76.3903 220.462 73.9956 219.137C73.6816 219.137 73.8507 219.765 74.2612 220.103V220.103ZM445.857 122.32C453.344 122.32 453.102 111.356 448.152 109.738C446.646 108.958 444.893 108.807 443.276 109.319C441.66 109.83 440.312 110.962 439.53 112.467C436.39 120.46 443.949 122.996 444.36 122.127C444.36 122.247 444.94 122.392 445.857 122.32ZM444.36 122.054C444.36 121.764 441.438 121.161 440.641 118.601C438.226 109.351 451.702 108.458 449.842 117.707C449.767 118.525 449.494 119.313 449.045 120.001C447.451 122.151 444.36 121.764 444.36 122.054V122.054ZM272.605 90.8765C273.668 91.2146 274.272 91.1421 274.272 90.8765C274.272 90.6108 273.74 90.5384 272.943 90.1761C271.836 89.5753 270.98 88.599 270.528 87.423C268.113 78.1253 281.589 77.28 279.754 86.5295C278.836 91.5527 274.247 90.4418 274.247 90.8765C274.247 91.3112 274.779 91.2387 275.769 91.1421C283.183 91.1421 283.014 80.2263 278.184 78.56C268.983 74.7201 265.143 88.389 272.605 90.8765V90.8765ZM134.032 99.6912C134.032 99.6912 134.298 99.9086 134.685 99.981C137.486 100.561 138.79 95.948 136.979 94.1367C136.583 93.74 136.099 93.4426 135.566 93.2689C135.033 93.0952 134.467 93.05 133.913 93.1372C133.36 93.2244 132.835 93.4413 132.381 93.7703C131.928 94.0994 131.558 94.5311 131.304 95.0303C131.073 95.5598 130.954 96.1311 130.954 96.7087C130.954 97.2862 131.073 97.8576 131.304 98.3871C132.197 99.9569 133.863 100.029 134.032 99.6912V99.6912ZM132.825 96.8898C133.743 93.3156 137.438 95.5374 136.037 98.3871C135.53 99.2324 134.081 99.4014 134.081 99.6429C134.057 99.2324 132.439 98.4113 132.825 96.8898V96.8898ZM152.29 139.056C152.29 139.056 152.121 138.79 151.855 138.428C149.15 135.723 153.642 132.656 154.415 135.771C155.188 138.887 152.29 138.718 152.29 139.056C152.29 139.394 153.908 139.853 155.043 138.693C155.661 137.989 156.018 137.093 156.053 136.156C156.088 135.219 155.8 134.299 155.236 133.55C154.84 133.153 154.356 132.855 153.824 132.682C153.291 132.508 152.724 132.463 152.171 132.55C151.617 132.637 151.092 132.854 150.639 133.183C150.185 133.512 149.816 133.944 149.561 134.443C149.325 134.976 149.204 135.551 149.204 136.134C149.204 136.716 149.325 137.292 149.561 137.824C150.479 139.442 152.29 139.442 152.29 139.056V139.056Z" fill="#663100"/>
</svg>
