<svg width="483" height="483" viewBox="0 0 483 483" fill="none" xmlns="http://www.w3.org/2000/svg">
<path d="M267.051 317.379C250.894 316.8 186.414 315.375 170.595 315.979C170.257 315.979 170.04 315.979 170.04 316.268C170.04 316.558 168.639 316.631 209.525 317.403C256.956 318.321 267.63 318.683 267.051 318.683C267.224 318.683 267.389 318.615 267.512 318.492C267.634 318.37 267.703 318.204 267.703 318.031C267.703 317.858 267.634 317.693 267.512 317.57C267.389 317.448 267.224 317.379 267.051 317.379V317.379ZM232.033 306.705C238.723 306.898 258.139 307.502 264.515 307.454C264.675 307.454 264.829 307.39 264.942 307.277C265.055 307.164 265.119 307.01 265.119 306.85C265.119 306.69 265.055 306.536 264.942 306.423C264.829 306.31 264.675 306.246 264.515 306.246C249.445 305.377 177.913 303.831 169.943 305.015C169.828 305.015 169.718 305.06 169.636 305.142C169.555 305.223 169.509 305.334 169.509 305.449C169.509 305.565 169.555 305.675 169.636 305.757C169.718 305.838 169.828 305.884 169.943 305.884C174.17 305.811 169.919 304.845 232.033 306.705V306.705ZM213.486 296.272C283.521 296.997 256.835 297.021 264.901 297.021C265.05 296.992 265.183 296.912 265.28 296.795C265.376 296.679 265.428 296.532 265.428 296.381C265.428 296.23 265.376 296.083 265.28 295.966C265.183 295.85 265.05 295.77 264.901 295.741C249.035 294.799 185.206 293.712 169.702 294.92C169.599 294.92 169.501 294.961 169.429 295.033C169.356 295.105 169.316 295.204 169.316 295.306C169.316 295.409 169.356 295.507 169.429 295.579C169.501 295.652 169.599 295.693 169.702 295.693C177.14 295.91 194.794 296.079 213.486 296.272V296.272ZM287.916 126.329C288.034 126.087 288.083 125.818 288.059 125.551C288.034 125.283 287.937 125.027 287.778 124.811C287.619 124.595 287.404 124.426 287.156 124.323C286.908 124.22 286.636 124.187 286.371 124.228C286.1 124.297 285.852 124.436 285.651 124.631C285.451 124.826 285.306 125.071 285.23 125.34C285.154 125.609 285.15 125.893 285.219 126.164C285.288 126.436 285.427 126.684 285.622 126.884C285.802 127.021 286.01 127.116 286.231 127.162C286.453 127.209 286.681 127.205 286.901 127.152C287.121 127.099 287.326 126.997 287.502 126.855C287.677 126.712 287.819 126.533 287.916 126.329V126.329ZM278.329 126.16C278.329 125.701 278.329 123.914 276.493 124.083C276.083 124.18 275.72 124.42 275.472 124.762C275.224 125.103 275.106 125.522 275.141 125.942C275.112 126.365 275.252 126.782 275.531 127.101C275.809 127.42 276.203 127.616 276.626 127.645C277.049 127.674 277.466 127.533 277.785 127.255C278.104 126.976 278.3 126.582 278.329 126.16V126.16ZM266.954 127.367C269.079 126.111 266.495 123.237 264.901 124.662C263.307 126.087 264.925 128.164 266.954 127.367ZM112.539 108.047C113.091 108.063 113.631 107.89 114.071 107.556C114.51 107.222 114.822 106.748 114.954 106.212C115.099 105.028 114.036 103.628 113.529 102.734C113.384 102.444 112.925 102.734 113.046 102.976C113.433 103.759 113.772 104.566 114.06 105.391C114.326 106.453 113.36 106.646 112.394 107.129C112.334 107.139 112.276 107.16 112.224 107.192C112.172 107.224 112.127 107.266 112.091 107.315C112.055 107.364 112.029 107.42 112.015 107.48C112.001 107.539 111.998 107.6 112.008 107.661C112.017 107.721 112.038 107.779 112.07 107.831C112.102 107.883 112.144 107.928 112.193 107.964C112.243 108 112.298 108.026 112.358 108.04C112.417 108.054 112.479 108.057 112.539 108.047V108.047ZM104.255 112.418C105 113.492 106.076 114.293 107.319 114.699C108.562 115.104 109.903 115.092 111.138 114.664C111.225 114.611 111.293 114.531 111.332 114.437C111.371 114.342 111.379 114.238 111.355 114.138C111.331 114.039 111.276 113.95 111.198 113.884C111.12 113.818 111.023 113.778 110.921 113.771C109.837 113.983 108.718 113.926 107.662 113.607C106.605 113.287 105.643 112.713 104.859 111.935C104.795 111.855 104.702 111.804 104.6 111.793C104.498 111.781 104.396 111.811 104.316 111.875C104.236 111.939 104.184 112.032 104.173 112.134C104.162 112.236 104.191 112.338 104.255 112.418V112.418ZM106.477 99.015C106.578 100.047 106.814 101.062 107.178 102.034C107.234 102.128 107.319 102.201 107.42 102.242C107.521 102.284 107.633 102.292 107.739 102.264C107.845 102.237 107.939 102.177 108.007 102.092C108.076 102.006 108.115 101.901 108.119 101.792C107.984 100.764 107.716 99.7575 107.322 98.7977C107.271 98.7159 107.194 98.6526 107.104 98.617C107.014 98.5814 106.915 98.5752 106.821 98.5993C106.727 98.6234 106.643 98.6767 106.582 98.7513C106.52 98.826 106.483 98.9183 106.477 99.015V99.015ZM116.137 96.8657C116.403 99.2807 116.717 99.4497 116.838 99.5463C116.893 99.5947 116.959 99.6299 117.03 99.649C117.101 99.6682 117.175 99.6709 117.247 99.6569C117.32 99.643 117.388 99.6127 117.446 99.5684C117.505 99.5241 117.553 99.467 117.586 99.4014C117.852 98.8701 117.127 96.6966 117.127 96.6966C116.934 96.1895 116.089 96.2619 116.137 96.8657V96.8657ZM104.69 97.3004C105.125 96.914 107.298 95.7548 107.781 95.3925C108.264 95.0303 107.975 94.4024 107.492 94.499C106.128 94.7857 104.902 95.5264 104.014 96.6C103.968 96.6444 103.931 96.6974 103.906 96.756C103.88 96.8147 103.866 96.8777 103.865 96.9416C103.864 97.0056 103.876 97.0691 103.899 97.1285C103.923 97.188 103.957 97.2423 104.002 97.2883C104.046 97.3343 104.099 97.3711 104.158 97.3966C104.217 97.422 104.28 97.4357 104.344 97.4369C104.407 97.438 104.471 97.4265 104.53 97.4031C104.59 97.3797 104.644 97.3448 104.69 97.3004V97.3004ZM115.316 94.668C116.33 94.4748 116.499 95.151 116.934 95.2718C117.369 95.3925 118.069 94.5714 117.127 93.8469C116.186 93.1224 114.519 93.1949 114.712 94.2092C114.736 94.3479 114.812 94.4725 114.924 94.5576C115.036 94.6428 115.176 94.6823 115.316 94.668V94.668ZM132.511 181.367C119.784 181.367 72.5948 182.477 60.9545 183.299C60.8456 183.299 60.7412 183.342 60.6642 183.419C60.5872 183.496 60.5439 183.6 60.5439 183.709C60.5439 183.818 60.5872 183.922 60.6642 183.999C60.7412 184.076 60.8456 184.12 60.9545 184.12C61.4616 184.12 132.559 182.816 132.946 182.357C133.018 182.27 133.064 182.166 133.08 182.055C133.096 181.943 133.08 181.83 133.035 181.727C132.99 181.624 132.917 181.536 132.824 181.472C132.732 181.408 132.623 181.372 132.511 181.367V181.367ZM62.2103 196.967C62.1036 196.979 62.005 197.03 61.9337 197.111C61.8623 197.191 61.8232 197.295 61.8239 197.402C61.8239 198.875 121.595 195.253 128.067 196.484C128.985 196.484 129.251 195.301 128.381 195.132C122.972 194.094 73.3676 195.615 62.2103 196.967V196.967ZM131.231 214.718C131.423 214.718 131.607 214.641 131.743 214.505C131.879 214.37 131.955 214.185 131.955 213.993C131.955 213.801 131.879 213.617 131.743 213.481C131.607 213.345 131.423 213.269 131.231 213.269C131.231 213.269 65.6396 213.583 61.7514 213.897C61.6468 213.903 61.5485 213.949 61.4766 214.025C61.4048 214.101 61.3649 214.202 61.365 214.307C61.365 215.539 129.927 214.742 131.231 214.718V214.718ZM129.975 231.454C130.167 231.454 130.352 231.377 130.487 231.241C130.623 231.106 130.7 230.921 130.7 230.729C130.7 230.537 130.623 230.353 130.487 230.217C130.352 230.081 130.167 230.005 129.975 230.005L116.475 230.198C59.5296 231.019 62.9589 231.405 62.9348 231.864C62.9346 231.975 62.9771 232.082 63.0535 232.163C63.1298 232.244 63.2343 232.293 63.3453 232.299C74.3577 233.168 118.89 232.009 129.975 231.454V231.454ZM180.908 52.478C181.319 52.481 181.721 52.3508 182.052 52.1068C182.384 51.8628 182.628 51.5181 182.747 51.1241C182.867 50.7302 182.856 50.3081 182.716 49.921C182.576 49.5339 182.314 49.2024 181.97 48.9762C180.086 48.131 178.589 49.5558 179.12 51.1739C179.232 51.5581 179.468 51.8945 179.792 52.1305C180.115 52.3664 180.507 52.4886 180.908 52.478V52.478ZM172.914 50.232C172.89 49.9328 172.785 49.6458 172.611 49.4011C172.437 49.1565 172.201 48.9633 171.926 48.8421C171.651 48.7209 171.349 48.6761 171.051 48.7125C170.753 48.7488 170.471 48.865 170.233 49.0487C169.982 49.2272 169.773 49.4576 169.618 49.7243C169.464 49.991 169.369 50.2876 169.34 50.5943C169.34 52.8885 172.962 52.6712 172.914 50.232V50.232ZM159.921 51.8259C160.296 51.9895 160.711 52.04 161.114 51.9714C161.517 51.9028 161.892 51.7179 162.191 51.4395C162.437 51.1422 162.581 50.7742 162.603 50.3892C162.625 50.0042 162.524 49.6222 162.313 49.2989C162.103 48.9755 161.795 48.7277 161.435 48.5915C161.074 48.4553 160.679 48.4378 160.308 48.5415C159.936 48.5979 159.594 48.7747 159.332 49.0448C159.071 49.3149 158.906 49.6633 158.862 50.0364C158.818 50.4095 158.898 50.7867 159.089 51.11C159.281 51.4333 159.573 51.6848 159.921 51.8259V51.8259ZM265.384 252.295C265.427 252.211 265.447 252.118 265.442 252.024C265.437 251.93 265.407 251.839 265.356 251.761C265.304 251.682 265.233 251.619 265.149 251.577C265.065 251.535 264.971 251.516 264.877 251.522C262.027 251.788 256.763 252.054 255.676 252.054C253.261 222.059 243.794 206.845 226.696 205.541C226.43 202.691 226.551 202.836 226.237 202.643C225.923 202.449 226.068 203.222 226.237 200.783C232.106 200.252 235.704 198.368 236.477 190.085C237.108 190.171 237.751 190.076 238.33 189.811C238.909 189.546 239.401 189.121 239.748 188.587C240.095 188.053 240.283 187.43 240.29 186.793C240.296 186.156 240.121 185.53 239.785 184.989C240.207 184.962 240.611 184.808 240.942 184.546C241.274 184.284 241.517 183.927 241.641 183.523C241.764 183.118 241.761 182.686 241.632 182.284C241.504 181.881 241.255 181.528 240.92 181.27C241.42 180.969 241.834 180.545 242.122 180.037C242.409 179.529 242.56 178.955 242.56 178.372C242.56 177.788 242.409 177.215 242.122 176.707C241.834 176.199 241.42 175.774 240.92 175.474C241.383 175.182 241.753 174.765 241.987 174.27C242.221 173.776 242.309 173.225 242.24 172.682C242.172 172.139 241.95 171.628 241.601 171.207C241.251 170.786 240.789 170.473 240.268 170.306C242.683 168.398 241.717 164.317 237.612 163.061C238 162.501 238.187 161.827 238.143 161.147C238.099 160.468 237.827 159.823 237.37 159.318C236.421 158.328 235.174 157.675 233.82 157.458C233.778 156.776 233.581 156.112 233.244 155.516C232.908 154.921 232.441 154.41 231.878 154.022C231.315 153.633 230.671 153.378 229.996 153.274C229.32 153.171 228.629 153.223 227.976 153.425C227.937 152.733 227.684 152.071 227.251 151.53C226.818 150.989 226.227 150.596 225.561 150.406C224.232 150.066 222.83 150.151 221.552 150.648C221.432 149.956 221.091 149.322 220.579 148.841C220.067 148.361 219.413 148.06 218.715 147.983C218.017 147.907 217.314 148.06 216.71 148.418C216.107 148.777 215.636 149.322 215.37 149.972C214.941 149.423 214.383 148.99 213.745 148.712C213.107 148.434 212.409 148.32 211.716 148.38C211.023 148.44 210.355 148.672 209.775 149.055C209.194 149.439 208.718 149.961 208.39 150.575C207.535 149.731 206.449 149.159 205.269 148.932C204.09 148.704 202.869 148.83 201.761 149.295C200.653 149.76 199.708 150.543 199.044 151.544C198.38 152.545 198.027 153.721 198.03 154.922C197.419 154.789 196.781 154.845 196.202 155.082C195.623 155.319 195.129 155.726 194.787 156.249C194.444 156.772 194.268 157.387 194.282 158.013C194.296 158.639 194.5 159.245 194.866 159.752C194.289 159.734 193.718 159.867 193.208 160.137C192.699 160.408 192.269 160.807 191.961 161.296C191.654 161.784 191.479 162.344 191.455 162.921C191.431 163.497 191.558 164.07 191.823 164.582C191.218 164.69 190.644 164.933 190.145 165.292C189.645 165.652 189.233 166.119 188.939 166.659C188.644 167.2 188.475 167.799 188.443 168.413C188.412 169.028 188.519 169.642 188.756 170.209C188.149 170.359 187.598 170.682 187.171 171.139C186.744 171.596 186.458 172.166 186.348 172.782C186.238 173.398 186.309 174.032 186.552 174.609C186.795 175.185 187.2 175.678 187.718 176.029C187.066 176.271 186.655 176.343 186.631 176.585C186.524 177.916 186.689 179.255 187.114 180.521C185.786 180.521 185.061 182.381 185.303 183.733C185.503 184.741 185.934 185.689 186.563 186.502C187.192 187.315 188 187.971 188.925 188.418C188.513 188.739 188.197 189.168 188.013 189.657C187.83 190.147 187.785 190.678 187.885 191.191C187.986 191.704 188.226 192.179 188.58 192.564C188.934 192.948 189.388 193.227 189.891 193.369C190.465 193.551 191.081 193.551 191.654 193.369C191.41 195.008 191.808 196.678 192.765 198.03C193.264 198.671 193.959 199.132 194.744 199.341C195.529 199.551 196.36 199.497 197.112 199.189C197.112 201.097 199.527 202.087 201.29 200.204C201.458 200.933 201.793 201.614 202.269 202.191C202.745 202.769 203.349 203.228 204.033 203.533C204.717 203.837 205.462 203.979 206.21 203.946C206.958 203.913 207.687 203.706 208.342 203.343C208.291 204.341 208.291 205.34 208.342 206.338C203.468 206.778 198.747 208.272 194.507 210.715C190.267 213.159 186.607 216.494 183.781 220.49C177.14 230.15 174.29 244.301 175.715 252.802C139.828 255.338 264.442 254.275 265.384 252.295V252.295ZM205.275 189.867C204.656 189.129 204.35 188.178 204.422 187.217C204.494 186.256 204.939 185.361 205.661 184.723C207.545 183.54 210.153 185.158 210.491 185.013C210.505 184.983 210.511 184.95 210.511 184.917C210.511 184.883 210.505 184.85 210.491 184.82C211.481 172.986 214.959 170.475 222.373 169.34C233.144 167.698 236.066 172.576 235.656 182.791C235.511 186.752 235.487 193.079 233.482 196.195C231.478 199.31 228.652 199.527 225.488 199.72C224.933 199.72 224.716 202.305 224.716 202.836C218.775 204.43 213.921 203.995 210.226 201.508C211.047 200.373 210.878 201.17 210.491 193.224C210.612 192.765 207.134 192.234 205.275 189.867V189.867ZM176.536 252.778C175.522 230.536 185.424 216.046 197.402 210.443C200.887 209.016 204.514 207.964 208.221 207.304V207.883C208.221 208.704 209.549 208.704 209.525 207.883C209.437 206.116 209.526 204.344 209.791 202.594C213.752 207.086 222.977 204.406 225.585 203.536C225.452 204.756 225.452 205.987 225.585 207.207C225.617 207.304 225.678 207.388 225.761 207.447C225.843 207.507 225.942 207.539 226.044 207.539C226.146 207.539 226.245 207.507 226.327 207.447C226.41 207.388 226.471 207.304 226.503 207.207C226.515 207.006 226.515 206.804 226.503 206.603C248.238 210.033 252.754 230.439 254.251 252.102C252.971 252.247 245.871 252.633 244.591 252.681C244.591 241.476 244.084 229.763 239.592 220.538C239.569 220.485 239.535 220.438 239.493 220.399C239.45 220.36 239.4 220.33 239.345 220.312C239.291 220.294 239.233 220.287 239.175 220.293C239.118 220.298 239.063 220.316 239.012 220.345C237.056 221.19 242.707 221.6 243.577 252.706H201.58C208.149 231.26 207.907 229.159 207.376 229.087C206.845 229.014 207.376 227.614 200.445 252.681C192.813 252.392 184.747 252.271 176.609 252.778H176.536Z" fill="#663100"/>
<path d="M227.976 189.07C227.913 189.131 227.869 189.21 227.851 189.296C227.833 189.382 227.842 189.471 227.876 189.553C227.91 189.634 227.968 189.703 228.042 189.75C228.116 189.798 228.202 189.822 228.29 189.819C228.942 189.819 230.295 188.515 229.981 187.404C229.836 186.873 228.073 184.723 228 183.806C227.977 183.748 227.936 183.699 227.885 183.665C227.833 183.631 227.773 183.612 227.711 183.612C227.649 183.612 227.588 183.631 227.536 183.665C227.485 183.699 227.445 183.748 227.421 183.806C226.962 184.844 228.604 187.187 228.628 187.187C229.425 188.032 228.628 188.37 227.976 189.07V189.07ZM220.224 192.379C220.153 192.301 220.057 192.25 219.953 192.234C219.848 192.219 219.742 192.24 219.651 192.293C219.56 192.347 219.491 192.431 219.454 192.53C219.418 192.629 219.417 192.738 219.451 192.838C219.891 193.605 220.5 194.262 221.231 194.759C221.963 195.255 222.798 195.579 223.673 195.704C224.549 195.83 225.441 195.755 226.283 195.484C227.125 195.213 227.894 194.754 228.532 194.142C228.942 193.731 228.387 193.055 227.928 193.393C227.359 193.84 226.706 194.169 226.008 194.36C225.31 194.552 224.58 194.601 223.863 194.507C223.145 194.412 222.453 194.175 221.829 193.81C221.204 193.445 220.658 192.958 220.224 192.379ZM231.502 179.314C230.898 179.314 230.947 179.845 230.898 180.4C230.85 180.956 230.633 182.815 231.333 182.815C232.033 182.815 232.009 181.463 231.985 180.545C231.961 179.628 232.082 179.338 231.502 179.314ZM220.369 180.642C220.187 181.795 220.261 182.974 220.586 184.095C220.62 184.176 220.678 184.244 220.751 184.291C220.824 184.339 220.91 184.363 220.997 184.361C221.096 184.348 221.19 184.307 221.266 184.243C221.343 184.178 221.401 184.094 221.432 183.999C221.596 182.863 221.489 181.704 221.118 180.618C221.073 180.559 221.016 180.512 220.949 180.481C220.883 180.449 220.81 180.434 220.737 180.436C220.664 180.439 220.592 180.458 220.528 180.494C220.464 180.53 220.409 180.581 220.369 180.642V180.642ZM218.244 178.517C218.727 178.01 220.828 176.536 221.311 176.102C221.794 175.667 220.949 173.952 217.471 177.744C217.369 177.846 217.311 177.985 217.311 178.13C217.311 178.275 217.369 178.414 217.471 178.517C217.573 178.619 217.712 178.677 217.857 178.677C218.002 178.677 218.141 178.619 218.244 178.517V178.517ZM232.758 176.826C232.842 176.875 232.938 176.896 233.035 176.887C233.131 176.877 233.222 176.837 233.294 176.773C233.367 176.709 233.417 176.623 233.438 176.529C233.458 176.434 233.449 176.335 233.41 176.247C232.999 175.16 231.526 174.58 230.826 174.29C230.126 174.001 229.788 175.039 230.391 175.305C230.995 175.57 232.275 176.633 232.758 176.826ZM208.391 189.191C206.966 189.433 207.545 191.799 209.284 191.075C210.226 190.785 209.743 188.95 208.391 189.191ZM331.073 109.882C329.672 111.211 328.658 112.756 326.677 112.104C326.584 112.059 326.478 112.053 326.38 112.087C326.283 112.121 326.203 112.192 326.158 112.285C326.113 112.378 326.107 112.485 326.141 112.582C326.175 112.68 326.246 112.76 326.339 112.805C328.344 114.036 330.541 112.394 331.725 110.39C331.758 110.347 331.783 110.298 331.797 110.245C331.811 110.193 331.815 110.139 331.808 110.085C331.802 110.031 331.785 109.979 331.758 109.932C331.731 109.885 331.695 109.843 331.652 109.81C331.609 109.777 331.56 109.752 331.508 109.738C331.456 109.723 331.401 109.719 331.347 109.726C331.294 109.733 331.242 109.75 331.194 109.777C331.147 109.804 331.106 109.84 331.073 109.882ZM324.069 102.058C324.238 101.599 323.538 101.309 323.296 101.744C321.871 104.618 320.881 106.187 323.948 106.429C324.054 106.455 324.165 106.442 324.263 106.394C324.36 106.345 324.437 106.263 324.48 106.163C324.794 105.511 323.9 105.366 323.272 105.149C323.393 104.087 323.662 103.046 324.069 102.058V102.058ZM330.855 98.0972C330.227 98.0972 330.372 98.8459 330.396 99.3289C330.421 99.8119 330.396 101.092 331.024 101.116C331.652 101.14 331.773 100.416 331.459 98.5078C331.451 98.439 331.428 98.3728 331.392 98.3136C331.356 98.2543 331.308 98.2035 331.251 98.1646C331.194 98.1257 331.129 98.0995 331.06 98.0879C330.992 98.0763 330.922 98.0794 330.855 98.0972V98.0972ZM319.819 99.353C319.287 99.353 319.384 99.9568 319.408 100.367C319.408 101.333 319.408 102.637 320.205 102.637C321.002 102.637 320.954 101.599 320.495 99.7394C320.442 99.6083 320.347 99.4988 320.224 99.4287C320.101 99.3586 319.958 99.3319 319.819 99.353V99.353ZM320.229 95.9237C319.347 96.3268 318.532 96.8645 317.814 97.5176C317.746 97.5975 317.701 97.6954 317.686 97.7997C317.67 97.904 317.685 98.0105 317.728 98.1068C317.771 98.203 317.841 98.285 317.929 98.3432C318.017 98.4014 318.119 98.4333 318.225 98.4353C318.466 98.4353 318.466 98.4353 319.384 97.7108C320.302 96.9863 321.05 96.7207 320.736 96.1652C320.681 96.0835 320.605 96.0181 320.516 95.9756C320.426 95.9332 320.328 95.9153 320.229 95.9237ZM329.116 95.32C330.18 95.6251 331.221 96.0044 332.232 96.455C332.299 96.4909 332.373 96.5098 332.449 96.5098C332.525 96.5098 332.6 96.4909 332.667 96.455C333.174 95.8754 331.845 94.2574 329.116 94.4747C329.041 94.5165 328.978 94.5777 328.934 94.652C328.89 94.7264 328.867 94.8111 328.867 94.8973C328.867 94.9836 328.89 95.0683 328.934 95.1426C328.978 95.217 329.041 95.2782 329.116 95.32V95.32ZM306.029 192.838C317.669 192.838 375.026 193.707 375.026 193.707C375.174 193.678 375.308 193.598 375.404 193.482C375.5 193.365 375.553 193.218 375.553 193.067C375.553 192.916 375.5 192.769 375.404 192.653C375.308 192.536 375.174 192.456 375.026 192.427C298.156 189.964 305.425 192.838 306.029 192.838ZM307.116 205.758C306.994 205.758 306.877 205.806 306.791 205.892C306.705 205.978 306.657 206.095 306.657 206.217C306.657 206.338 306.705 206.455 306.791 206.541C306.877 206.627 306.994 206.676 307.116 206.676C313.395 206.676 368.553 204.261 378.914 205.758C379.055 205.775 379.197 205.753 379.326 205.694C379.455 205.636 379.566 205.543 379.646 205.426C379.726 205.308 379.772 205.172 379.779 205.03C379.786 204.888 379.754 204.748 379.687 204.623C378.624 202.86 321.871 203.657 307.116 205.758ZM363.796 221.866C348.195 221.721 330.469 221.576 313.081 222.59C312.966 222.59 312.855 222.636 312.774 222.718C312.692 222.799 312.646 222.91 312.646 223.025C312.646 223.14 312.692 223.251 312.774 223.333C312.855 223.414 312.966 223.46 313.081 223.46H363.796C364.007 223.46 364.21 223.376 364.359 223.226C364.509 223.077 364.593 222.874 364.593 222.663C364.593 222.452 364.509 222.249 364.359 222.099C364.21 221.95 364.007 221.866 363.796 221.866ZM407.99 51.3911C408.361 51.2151 408.665 50.9242 408.858 50.5615C409.05 50.1989 409.12 49.7839 409.058 49.3782C408.996 48.9725 408.804 48.5976 408.512 48.3094C408.22 48.0211 407.842 47.8348 407.436 47.7781C407.029 47.7213 406.615 47.7972 406.255 47.9945C405.895 48.1918 405.609 48.4998 405.438 48.873C405.267 49.2462 405.221 49.6646 405.306 50.066C405.392 50.4674 405.605 50.8305 405.913 51.1013C406.185 51.3623 406.532 51.5308 406.905 51.5829C407.278 51.6349 407.658 51.5678 407.99 51.3911V51.3911ZM396.06 51.2462C396.547 51.2718 397.024 51.103 397.386 50.7769C397.749 50.4509 397.967 49.9942 397.992 49.5074C398.018 49.0206 397.849 48.5436 397.523 48.1813C397.197 47.819 396.74 47.601 396.253 47.5754C396.012 47.5627 395.771 47.5976 395.544 47.6782C395.316 47.7587 395.107 47.8832 394.927 48.0447C394.748 48.2061 394.602 48.4014 394.498 48.6192C394.394 48.837 394.334 49.0732 394.321 49.3142C394.309 49.5552 394.344 49.7964 394.424 50.0239C394.505 50.2515 394.629 50.4609 394.791 50.6403C394.952 50.8197 395.147 50.9656 395.365 51.0695C395.583 51.1735 395.819 51.2335 396.06 51.2462V51.2462ZM384.661 51.0289C385.046 51.2867 385.504 51.4121 385.966 51.3859C386.428 51.3598 386.869 51.1835 387.221 50.884C387.467 50.6333 387.638 50.319 387.715 49.9765C387.791 49.6339 387.771 49.2768 387.655 48.9454C387.54 48.6139 387.334 48.3213 387.061 48.1006C386.788 47.8799 386.459 47.7398 386.11 47.6962C384.178 47.672 383.14 50.1353 384.661 51.0289ZM255.29 263.235C242.176 262.921 192.838 261.569 179.7 262.148C179.564 262.176 179.441 262.25 179.353 262.358C179.265 262.466 179.217 262.601 179.217 262.74C179.217 262.879 179.265 263.014 179.353 263.122C179.441 263.23 179.564 263.304 179.7 263.332C188.805 263.959 250.049 264.684 255.338 264.781C255.44 264.777 255.54 264.754 255.632 264.712C255.725 264.671 255.808 264.611 255.878 264.537C255.947 264.463 256.001 264.376 256.037 264.281C256.073 264.186 256.09 264.085 256.087 263.984C256.084 263.882 256.061 263.782 256.019 263.69C255.977 263.597 255.917 263.514 255.843 263.444C255.769 263.375 255.682 263.32 255.587 263.284C255.493 263.249 255.391 263.232 255.29 263.235V263.235Z" fill="#663100"/>
<path d="M201.532 279.126C219.319 282.111 237.594 279.202 253.575 270.842C269.747 261.812 281.845 246.93 287.385 229.256C287.385 229.087 291.611 210.878 290.307 201.242C287.627 181.391 281.299 170.378 268.258 157.072C252.827 141.374 228.99 132.922 208.873 136.351C150.092 146.011 125.653 210.685 163.544 255.773C174.194 268.306 188.008 276.831 201.532 279.126ZM278.595 171.465C283.425 178.155 286.564 186.583 288.762 198.03C290.79 208.632 286.347 228.797 286.178 229.063C281.093 244.598 270.939 257.976 257.343 267.051C237.153 280.478 206.048 282.169 187.984 273.354C177.557 268.091 168.499 260.475 161.524 251.107C154.549 241.739 149.85 230.876 147.798 219.379C135.723 151.614 228.266 100.198 278.595 171.465Z" fill="#663100"/>
<path d="M156.709 200.445C156.999 193.49 157.506 181.849 170.185 166.635C170.348 166.472 170.44 166.25 170.44 166.019C170.44 165.788 170.348 165.567 170.185 165.403C170.022 165.24 169.8 165.148 169.569 165.148C169.338 165.148 169.117 165.24 168.953 165.403C156.975 175.112 153.473 195.615 154.56 202.111C154.613 202.353 154.754 202.567 154.954 202.713C155.154 202.859 155.401 202.926 155.648 202.902C155.894 202.879 156.124 202.765 156.293 202.584C156.462 202.403 156.558 202.166 156.565 201.918C156.645 201.435 156.693 200.944 156.709 200.445ZM156.975 223.291C156.718 223.541 156.543 223.862 156.471 224.213C156.399 224.564 156.435 224.929 156.573 225.259C156.711 225.59 156.945 225.872 157.245 226.067C157.545 226.263 157.897 226.365 158.255 226.358C159.1 226.358 159.801 225.778 159.776 224.571C159.801 224.236 159.723 223.902 159.552 223.613C159.381 223.325 159.126 223.095 158.821 222.956C158.516 222.816 158.176 222.774 157.846 222.834C157.516 222.894 157.212 223.053 156.975 223.291V223.291ZM398.475 189.746C398.299 190.656 398.299 191.59 398.475 192.5C398.522 192.58 398.589 192.646 398.669 192.692C398.75 192.739 398.841 192.763 398.934 192.763C399.027 192.763 399.118 192.739 399.198 192.692C399.279 192.646 399.346 192.58 399.393 192.5C399.576 191.591 399.576 190.655 399.393 189.746C399.342 189.672 399.273 189.611 399.193 189.568C399.113 189.526 399.024 189.504 398.934 189.504C398.843 189.504 398.754 189.526 398.674 189.568C398.594 189.611 398.526 189.672 398.475 189.746ZM390.361 189.529C390.095 190.46 390.095 191.448 390.361 192.379C390.405 192.447 390.466 192.502 390.538 192.54C390.61 192.578 390.69 192.597 390.771 192.596C391.737 192.596 391.375 189.867 391.23 189.505C391.183 189.431 391.118 189.371 391.04 189.33C390.963 189.289 390.876 189.269 390.789 189.271C390.701 189.273 390.616 189.298 390.541 189.344C390.466 189.389 390.404 189.453 390.361 189.529V189.529ZM390.675 185.689C389.828 185.981 389.099 186.541 388.598 187.283C388.163 187.839 388.888 188.587 389.419 188.056C389.95 187.525 390.602 187.114 391.182 186.51C391.251 186.429 391.293 186.327 391.301 186.22C391.309 186.113 391.283 186.007 391.227 185.915C391.171 185.824 391.087 185.753 390.988 185.712C390.888 185.672 390.779 185.664 390.675 185.689V185.689ZM398.692 185.255C398.113 185.255 397.678 186.027 398.306 186.293C398.934 186.559 400.045 187.935 400.48 188.201C400.546 188.237 400.621 188.256 400.697 188.256C400.773 188.256 400.847 188.237 400.914 188.201C402.049 187.766 399.538 185.472 398.692 185.255V185.255ZM399.006 233.893C394.774 233.656 390.534 234.196 386.497 235.487C386.415 235.492 386.339 235.527 386.281 235.585C386.223 235.643 386.188 235.719 386.183 235.801C385.796 239.16 385.951 242.56 386.642 245.871C388.975 247.533 391.393 249.073 393.887 250.484C396.19 248.862 398.362 247.061 400.383 245.098C400.257 241.427 399.919 237.766 399.369 234.134C399.369 234.134 399.175 233.917 399.006 233.893V233.893ZM393.645 249.421C393.645 249.421 388.163 245.823 387.728 245.509C387.149 242.418 387.294 239.423 386.931 236.259C388.211 236.066 394.659 235.1 398.306 234.955C398.388 238.101 398.727 241.235 399.32 244.325L393.645 249.421ZM403.305 221.045C403.121 221.024 402.935 221.069 402.78 221.171C402.625 221.273 402.51 221.426 402.456 221.603C402.401 221.781 402.41 221.972 402.482 222.143C402.553 222.315 402.682 222.456 402.846 222.542C403.691 222.904 404.295 221.214 403.305 221.045ZM404.174 225.344C404.203 225.203 404.19 225.057 404.135 224.924C404.081 224.791 403.989 224.678 403.87 224.597C403.751 224.517 403.61 224.474 403.467 224.474C403.323 224.473 403.183 224.515 403.064 224.595C402.957 224.696 402.882 224.824 402.846 224.966C402.809 225.108 402.815 225.258 402.86 225.397C402.906 225.536 402.99 225.659 403.103 225.753C403.216 225.846 403.353 225.905 403.498 225.923C403.662 225.925 403.821 225.867 403.945 225.76C404.07 225.654 404.151 225.506 404.174 225.344ZM404.005 227.879C402.774 227.879 403.064 229.618 404.005 229.618C404.947 229.618 405.068 227.879 404.005 227.879Z" fill="#663100"/>
<path d="M470.925 299.798C470.2 297.383 468.051 296.32 466.095 295.258C460.424 291.964 454.486 289.153 448.344 286.854C450.578 282.695 452.499 278.377 454.092 273.933C458.512 261.496 459.598 253.478 452.691 240.775C454.358 239.206 454.261 238.964 454.237 238.868C451.363 231.225 446.652 224.407 440.52 219.016C435.835 215.176 426.682 208.897 418.012 209.863C417.141 208.387 415.868 207.19 414.341 206.41V205.396C417.843 207.811 421.973 204.623 422.021 204.599C422.051 204.574 422.076 204.543 422.093 204.507C422.109 204.472 422.118 204.433 422.118 204.393C422.118 204.354 422.109 204.315 422.093 204.28C422.076 204.244 422.051 204.213 422.021 204.188C418.495 202.087 419.461 195.494 419.461 195.47C421.538 188.66 421.321 178.203 416.491 172.552C416.491 165.162 416.877 50.2803 416.491 42.2866C416.491 41.3206 272.967 41.707 266.495 41.9002C266.353 41.9248 266.222 41.9944 266.122 42.0987C266.022 42.203 265.958 42.3365 265.94 42.4798C265.795 48.8796 266.278 109.472 266.181 115.389L189.191 114.978C189.191 76.9419 189.022 42.3108 188.587 41.9002C188.152 41.4897 43.2766 41.055 38.6398 41.2723C37.9877 41.2723 38.2292 261.037 38.2534 261.858C38.2534 262.019 38.317 262.172 38.4302 262.285C38.5435 262.399 38.697 262.462 38.8571 262.462C46.3436 262.8 62.2343 263.187 70.4453 262.655C70.1339 265.166 70.3394 267.714 71.0491 270.142C68.5361 268.471 65.5642 267.627 62.5483 267.727C61.3477 268.045 60.2428 268.651 59.3296 269.493C58.4163 270.334 57.7223 271.386 57.3077 272.557C54.1682 267.727 47.8892 271.905 45.764 276.856C45.63 275.597 45.2175 274.385 44.5565 273.306C43.3082 271.458 41.7665 269.826 39.9922 268.476C35.6935 265.529 28.7383 269.103 28.0862 277.29C27.7643 281.175 28.8817 285.043 31.2257 288.158C21.131 285.743 14.7796 301.609 22.411 307.478C25.8403 310.11 29.656 308.347 33.3026 307.84C34.3169 307.84 36.2972 307.84 36.5629 308.54C36.5629 308.83 36.5629 309.7 33.5683 311.559C31.8778 312.622 29.9458 313.177 28.2553 314.288C16.615 321.847 19.6096 331.676 35.2105 335.685C26.0093 341.312 25.8886 358.966 52.1155 359.183L62.0411 371.258C37.2874 371.258 38.4707 371.258 38.4707 371.499V380.942C28.8107 381.063 20.2375 381.208 12.1472 381.377C12.0465 381.4 11.9566 381.457 11.8923 381.538C11.828 381.62 11.793 381.72 11.793 381.824C11.793 381.927 11.828 382.028 11.8923 382.109C11.9566 382.19 12.0465 382.247 12.1472 382.27H38.4949C39.6299 412.989 49.3624 426.537 81.9649 426.537C108.095 426.537 120.267 407.773 122.054 381.836C248.238 380.918 327.112 380.314 376.402 379.879C377.488 403.716 380.024 420.113 380.024 420.113H382.27C384.685 429.194 381.377 429.773 381.377 429.773C375.242 432.188 376.764 434.289 376.764 434.289C381.594 436.415 390.215 434.966 394.345 434.072C394.921 433.918 395.42 433.557 395.745 433.058C396.07 432.558 396.2 431.956 396.108 431.367C395.489 427.601 395.489 423.759 396.108 419.993H401.759L406.179 379.686H416.974C423.808 407.362 429.991 427.986 429.991 427.986L433.879 427.479C436.294 435.932 432.792 436.318 432.792 436.318C426.658 438.733 428.179 440.858 428.179 440.858C433.009 443.032 442.017 441.438 446.026 440.568C446.554 440.447 447.016 440.13 447.32 439.683C447.625 439.235 447.749 438.689 447.668 438.153C446.865 434.1 446.621 429.956 446.944 425.837L450.663 425.354C452.112 418.35 451.387 399.682 449.963 379.227C459.792 379.01 458.27 378.817 458.27 378.575C458.27 378.334 460.999 378.117 449.866 377.996C447.717 348.05 444.07 314.723 443.418 308.782C447.113 310.569 456.797 315.785 460.806 315.785C467.834 315.52 472.325 304.604 470.925 299.798ZM456.435 258.743C456.048 269.635 447.717 287.506 440.761 296.924C440.133 296.491 439.48 296.096 438.805 295.741C438.322 292.964 436.753 291.78 434.144 292.988C433.462 292.61 432.718 292.356 431.947 292.239C433.64 282.289 436.443 272.561 440.303 263.235V262.631C439.24 261.617 436.076 256.932 434.893 255.7C440.973 251.322 446.75 246.538 452.184 241.379C454.382 247.224 456.749 252.561 456.435 258.816V258.743ZM436.342 298.301C436.062 298.407 435.761 298.447 435.464 298.416C435.166 298.384 434.88 298.284 434.628 298.121C434.377 297.959 434.167 297.74 434.016 297.482C433.864 297.223 433.776 296.933 433.758 296.634C433.758 295.403 434.241 293.857 435.497 293.857C435.911 293.866 436.312 294.004 436.645 294.25C436.978 294.497 437.227 294.84 437.356 295.234C437.67 296.659 437.719 297.939 436.414 298.373L436.342 298.301ZM418.06 211.023C425.716 210.177 434.821 215.515 440.81 220.828C445.074 224.887 448.596 229.66 451.218 234.931C451.926 235.933 452.426 237.066 452.691 238.264C452.691 239.713 433.372 255.652 431.464 256.618C430.739 255.99 426.634 250.435 424.798 247.707C424.533 247.344 423.953 247.707 424.219 248.093C426.175 251.015 428.397 254.106 431.005 257.56C431.391 258.091 431.753 257.56 433.975 256.135C435.562 258.531 437.313 260.815 439.216 262.969C436.62 268.915 434.591 275.093 433.154 281.42C424.074 278.015 403.063 270.287 380.435 262.1C380.013 252.232 380.392 242.347 381.57 232.54C381.57 232.451 381.534 232.365 381.471 232.301C381.407 232.238 381.321 232.202 381.232 232.202C381.142 232.202 381.056 232.238 380.993 232.301C380.929 232.365 380.894 232.451 380.894 232.54C379.643 239.48 379.061 246.524 379.155 253.575C375.054 250.469 371.128 247.14 367.394 243.601C368.172 241.135 369.092 238.717 370.147 236.356C374.446 226.213 380.676 218.92 391.568 216.046C392.123 217.012 395.19 222.132 397.074 224.619C397.125 224.694 397.193 224.755 397.273 224.797C397.353 224.839 397.442 224.862 397.533 224.862C397.623 224.862 397.712 224.839 397.792 224.797C397.872 224.755 397.941 224.694 397.992 224.619C399.199 222.88 400.141 221.48 400.914 220.127C400.85 223.018 401.02 225.909 401.421 228.773C401.711 230.729 402.653 231.647 404.15 231.429C404.257 231.405 404.352 231.345 404.42 231.26C404.489 231.174 404.526 231.068 404.526 230.958C404.526 230.849 404.489 230.743 404.42 230.657C404.352 230.572 404.257 230.512 404.15 230.488C401.59 230.246 402.435 225.199 401.952 218.244L403.039 217.543C404.512 219.258 409.197 224.595 410.043 225.561C410.236 225.778 410.526 225.802 410.84 225.295C411.154 224.788 411.395 224.305 412.095 223.098C414.409 219.255 416.427 215.243 418.133 211.095L418.06 211.023ZM202.498 128.236C227.855 122.127 260.192 131.014 282.845 159.631C288.761 167.094 293.471 173.711 296.2 185.23C301.199 206.434 298.977 226.285 289.631 244.084C283.396 256.089 274.337 266.399 263.235 274.127C240.365 289.486 204.864 291.418 184.53 281.661C172.707 275.795 162.4 267.276 154.411 256.77C146.423 246.264 140.969 234.054 138.476 221.093C131.038 181.68 154.56 139.804 202.498 128.236ZM146.639 132.1C153.425 131.569 178.661 131.448 188.853 131.231C171.405 137.789 156.661 150.008 146.977 165.935C146.904 155.478 146.639 132.1 146.639 132.1ZM295.209 177.985C289.027 161.974 273.088 142.944 252.609 133.091C260.071 133.888 274.658 134.274 294.485 134.153C294.461 148.667 294.002 163.326 295.209 178.106V177.985ZM187.452 284.559C171.103 283.762 169.726 284.559 168.132 284.559C168.03 284.559 167.931 284.6 167.859 284.673C167.786 284.745 167.746 284.843 167.746 284.946C167.746 285.048 167.786 285.147 167.859 285.219C167.931 285.292 168.03 285.332 168.132 285.332C175.635 285.933 183.169 286.062 190.688 285.719C193.418 286.643 196.21 287.37 199.044 287.892C205.315 289.005 211.686 289.451 218.05 289.22C227.37 288.918 236.599 287.291 245.46 284.39C249.711 284.559 264.104 284.825 267.195 284.39C267.33 284.39 267.459 284.337 267.554 284.242C267.649 284.147 267.703 284.018 267.703 283.883C267.703 283.749 267.649 283.62 267.554 283.525C267.459 283.43 267.33 283.376 267.195 283.376C264.78 283.159 254.034 283.207 248.165 283.376C249.711 282.821 251.232 282.217 252.681 281.589C270.458 273.388 284.827 259.257 293.326 241.621C295.958 243.021 292.794 236.187 294.606 334.767L146.808 334.985C146.808 328.875 146.808 256.884 146.566 246.765C155.453 263.235 170.426 277.725 187.452 284.559ZM293.712 240.8C294.678 238.723 295.523 236.622 296.127 234.545C297.958 235.691 299.88 236.685 301.875 237.515C301.464 238.578 300.353 241.572 299.46 243.746C297.592 242.612 295.638 241.627 293.615 240.8H293.712ZM296.513 233.748C299.629 224.257 302.092 210.371 300.716 200.445C299.873 193.808 298.402 187.266 296.32 180.908C295.209 163.423 295.596 121.209 295.572 116.065C295.572 115.292 297.19 115.558 267.678 115.389C267.944 102.927 267.896 64.9393 267.678 56.9215C302.43 57.8875 400.503 56.9215 415.235 56.4144V171.32C414.267 170.498 413.052 170.024 411.783 169.971C410.514 169.919 409.264 170.291 408.231 171.03C402.653 166.393 391.616 167.649 391.133 167.698C388.707 168.029 386.435 169.081 384.613 170.716C383.309 161.298 377.778 140.625 365.727 129.299C366.331 124.783 363.023 121.74 360.318 118.142C357.613 114.543 357.42 99.2806 357.42 99.2806C356.671 78.3909 342.495 78.0769 342.495 78.0769C342.254 75.4929 346.093 76 346.093 76C345.028 75.3922 343.784 75.1754 342.576 75.387C341.368 75.5987 340.272 76.2255 339.476 77.1592C339.743 76.6357 339.883 76.0564 339.883 75.4687C339.883 74.881 339.743 74.3017 339.476 73.7782C339.428 74.1215 339.301 74.4488 339.104 74.734C338.907 75.0191 338.645 75.2542 338.341 75.4204C338.131 74.8337 337.727 74.3364 337.196 74.0113C336.664 73.6862 336.037 73.5528 335.419 73.6333C337.834 75.1065 336.747 76.966 336.747 76.966C333.788 75.1682 330.349 74.3222 326.894 74.5425C323.438 74.7627 320.134 76.0386 317.427 78.1977C315.41 80.5384 313.931 83.2941 313.096 86.2696C312.262 89.2452 312.091 92.3679 312.597 95.4166C313.629 102.147 313.767 108.984 313.008 115.751C310.271 122.774 309.301 130.362 310.182 137.848C300.691 150.358 299.701 170.257 300.74 176.85C297.238 176.85 297.117 176.85 297.093 177.309C297.093 179 361.187 177.309 383.598 178.106C384.1 179.997 385.277 181.638 386.907 182.719C386.4 186.124 386.4 189.674 386.4 193.2C386.319 196.13 386.694 199.055 387.511 201.87C387.243 201.816 386.988 201.709 386.762 201.556C385.989 200.952 386.327 203.802 388.911 205.13C390.457 208.004 392.92 210.757 396.156 210.66C394.321 212.037 391.64 214.5 391.133 214.911C381.063 217.326 373.866 224.184 369.157 235.462C367.932 238.123 366.923 240.876 366.138 243.698C366.353 244.348 366.767 244.914 367.321 245.316C365.435 248.635 363.959 252.17 362.926 255.845C335.033 245.678 308.733 236.404 303.469 234.69C303.179 234.69 303.01 234.979 302.213 236.67C300.365 235.537 298.426 234.56 296.417 233.748H296.513ZM383.188 176.681C374.88 176.319 366.621 176.681 358.603 176.826C355.898 168.398 354.208 159.366 352.228 150.575C352.205 150.473 352.143 150.383 352.055 150.327C351.966 150.27 351.859 150.251 351.757 150.273C351.654 150.296 351.565 150.358 351.508 150.446C351.451 150.535 351.432 150.642 351.455 150.744C352.903 159.582 354.977 168.306 357.661 176.85C354.981 176.85 343.485 176.85 332.449 176.995C331.483 168.808 332.038 138.766 331.869 129.444C332.932 131.642 334.139 134.032 335.492 136.303C335.529 136.373 335.585 136.432 335.653 136.475C335.72 136.517 335.798 136.541 335.878 136.544C336.699 136.665 344.306 125.604 346.915 122.996C353.167 124.169 359.171 126.407 364.665 129.613C376.305 139.273 382.222 163.713 383.309 172.624C382.816 173.921 382.74 175.339 383.091 176.681H383.188ZM314.24 148.571C311.1 156.42 309.41 174.194 309.41 176.947H301.537C300.62 163.166 303.995 149.44 311.197 137.655C311.221 137.584 311.221 137.508 311.197 137.438C315.278 132.028 322.982 129.83 325.3 129.275V131.69C325.3 133.525 325.3 133.743 325.614 133.912C325.928 134.081 325.832 134.153 330.927 128.913C329.792 137.534 330.71 168.615 331.507 177.068H310.52C311.278 167.564 312.772 158.133 314.988 148.861C315.027 148.761 315.024 148.651 314.981 148.553C314.938 148.456 314.858 148.38 314.759 148.341C314.66 148.303 314.549 148.306 314.452 148.349C314.354 148.392 314.278 148.471 314.24 148.571ZM326.073 127.56L326.484 123.962H329.116C329.816 125.314 330.758 127.246 330.879 127.488C329.309 128.985 327.739 130.555 326.242 132.1V129.685C326.025 128.406 326.025 127.826 326.025 127.56H326.073ZM329.744 123.382L329.454 120.267C317.379 119.591 317.645 108.892 317.645 108.892L316.848 93.7744C323.682 92.6152 334.526 86.2638 334.526 86.2638C333.366 104.111 341.771 101.671 341.771 101.671C343.195 96.6966 346.432 98.6527 346.432 98.6527C350.368 101.792 343.051 109.255 343.051 109.255L343.872 118.238C343.171 118.746 342.229 119.422 340.925 120.315C337.858 122.465 334.67 124.686 331.724 127.053C330.976 125.58 330.372 124.421 329.744 123.382ZM346.093 122.61C343.413 125.025 336.433 135.047 336.071 135.312C334.622 132.9 333.308 130.408 332.135 127.85C336.599 125.153 340.86 122.134 344.886 118.818L346.093 122.61ZM397.002 214.935C397.702 216.046 399.006 216.336 400.721 218.099C399.712 219.916 398.599 221.674 397.388 223.363C396.205 221.745 393.138 216.988 392.123 215.346C393.462 213.961 394.916 212.692 396.47 211.554C396.309 212.709 396.494 213.885 397.002 214.935ZM368.022 245.871C371.497 248.991 375.141 251.917 378.937 254.638C378.937 257.053 379.082 259.468 379.251 261.714L363.964 256.159C365.196 253.43 367.394 247.827 368.118 245.823L368.022 245.871ZM417.119 210.612C415.101 215.441 412.744 220.122 410.067 224.619C409.246 223.895 405.237 219.016 403.474 217.036C407.324 214.261 410.813 211.016 413.858 207.376C415.322 208.003 416.513 209.134 417.215 210.564L417.119 210.612ZM412.699 195.615C412.678 195.652 412.667 195.693 412.667 195.736C412.667 195.778 412.678 195.82 412.699 195.856C412.699 196.46 413.11 206.482 413.279 206.821C409.788 210.854 405.767 214.397 401.324 217.35C401.035 216.988 400.503 216.505 399.948 215.949C396.905 213.075 398.064 214.09 397.364 210.105C397.364 209.719 397.364 209.38 396.808 209.284C395.532 209.36 394.263 209.047 393.168 208.388C392.073 207.728 391.204 206.752 390.674 205.589C391.15 205.71 391.648 205.717 392.127 205.608C392.606 205.499 393.051 205.277 393.427 204.961C394.587 203.729 396.857 204.55 396.905 204.575C397.865 204.856 398.874 204.924 399.863 204.773C400.852 204.623 401.796 204.259 402.629 203.705C403.206 203.208 403.675 202.598 404.007 201.913C404.339 201.227 404.528 200.481 404.561 199.72C404.56 199.673 404.545 199.627 404.519 199.588C404.492 199.549 404.455 199.519 404.411 199.501C404.367 199.483 404.319 199.478 404.273 199.487C404.227 199.496 404.184 199.518 404.15 199.551C403.916 199.892 403.607 200.175 403.247 200.378C402.887 200.581 402.485 200.699 402.072 200.722C401.659 200.745 401.247 200.674 400.866 200.513C400.485 200.352 400.146 200.105 399.875 199.793C399.093 199.022 398.152 198.433 397.117 198.066C396.082 197.698 394.979 197.563 393.886 197.668C393.848 197.562 393.77 197.476 393.669 197.426C392.486 196.895 392.365 197.426 393.307 195.422C393.7 194.65 394.016 193.841 394.249 193.007C394.29 192.904 394.289 192.789 394.246 192.688C394.203 192.586 394.122 192.505 394.019 192.463C393.917 192.422 393.802 192.423 393.7 192.466C393.598 192.509 393.517 192.59 393.476 192.693C392.661 194.073 391.982 195.529 391.447 197.04C391.452 197.319 391.546 197.589 391.715 197.811C391.885 198.033 392.121 198.194 392.389 198.271C390.264 199.479 390.409 201 388.791 201.677C386.376 194.915 387.945 189.771 387.776 183.25C393.355 185.665 401.687 181.463 403.739 180.328C402.194 189.408 408.135 192.403 408.207 192.403C408.242 192.418 408.28 192.425 408.318 192.424C408.355 192.422 408.392 192.411 408.425 192.392C408.458 192.373 408.486 192.347 408.507 192.315C408.528 192.284 408.541 192.247 408.545 192.21C409.101 189.239 413.375 185.52 414.921 188.732C416.467 191.944 412.723 195.615 412.699 195.615ZM415.38 42.8662C415.235 46.537 415.162 50.4493 415.138 55.1103C402.822 55.4242 267.558 55.8106 267.558 55.8106C267.558 50.8599 267.22 46.6819 266.906 42.7696C292.215 43.47 390.288 42.6972 415.38 42.8662ZM294.364 116.596C294.364 134.612 294.678 133.332 294.364 133.332C288.158 133.332 260.071 132.777 250.315 132.149C241.343 127.912 231.613 125.516 221.7 125.101C211.786 124.686 201.89 126.261 192.596 129.734C184.675 130.217 154.608 129.734 146.711 131.062C146.711 126.522 146.373 116.862 146.47 115.413C190.423 116.282 227.855 116.958 294.364 116.596ZM187.476 43.3251C187.307 47.3823 187.259 51.7051 187.307 57.2596L39.5816 55.545V42.504C45.6191 42.4074 161.805 43.47 187.476 43.3251ZM70.5902 261.665C60.3265 261.231 49.5556 261.472 39.485 261.496C38.5673 214.669 39.485 58.6362 39.485 56.3419C52.9124 57.4045 180.811 58.3222 187.211 58.3705C187.211 60.3991 187.669 106.067 187.718 114.978C156.323 114.833 147.991 114.664 146.107 114.761C145.576 114.761 145.528 114.761 145.504 115.244C145.504 116.814 145.673 124.686 145.793 167.818C145.407 168.567 144.996 169.316 144.634 170.064H143.402C142.243 153.159 141.205 137.075 127.391 128.43C123.167 125.474 118.25 123.66 113.118 123.165C112.973 121.788 112.925 120.967 112.732 120.001C117.707 119.229 120.581 114.423 121.257 109.955C122.078 104.449 119.422 92.4462 117.779 88.2199C120.532 85.1046 122.416 79.0188 120.194 75.0823C119.457 73.9699 118.5 73.0193 117.384 72.2886C116.267 71.5578 115.013 71.0622 113.698 70.8319C113.659 70.8282 113.62 70.8331 113.583 70.8463C113.546 70.8596 113.512 70.8808 113.485 70.9085C113.457 70.9362 113.436 70.9697 113.423 71.0065C113.409 71.0434 113.404 71.0827 113.408 71.1217C113.616 71.9819 113.639 72.8762 113.477 73.7461C113.314 74.6159 112.97 75.4416 112.466 76.1691C111.811 76.731 111.029 77.1257 110.188 77.3192C109.347 77.5126 108.471 77.4992 107.636 77.28C102.806 76.5313 96.7688 75.2755 93.1463 78.1494C92.1298 79.0951 91.3229 80.2437 90.778 81.5208C90.2331 82.7979 89.9621 84.1751 89.9827 85.5634C88.608 84.9829 87.0774 84.8841 85.6394 85.283C84.2015 85.682 82.9406 86.5552 82.0615 87.7611C78.125 92.5911 82.0615 104.666 92.1803 118.287C92.8258 120.516 93.2942 122.794 93.581 125.097C84.7132 128.401 77.0408 134.29 71.5562 142.002C65.6395 150.213 63.7558 159.221 65.4463 171.151C60.3023 171.562 60.3023 171.537 60.3265 171.996C60.3265 172.099 60.3672 172.197 60.4397 172.269C60.5121 172.342 60.6104 172.383 60.7129 172.383C62.3792 172.383 140.529 171.393 144.127 171.32C138.535 182.753 135.727 195.348 135.933 208.073C136.139 220.799 139.352 233.296 145.31 244.543C145.31 248.19 145.117 254.203 145.093 261.448C126.377 261.206 107.685 260.265 89.1133 261.593C88.7993 254.348 85.37 251.546 80.6366 251.546C74.8648 251.643 71.5804 255.99 70.5902 261.665ZM130.41 157.192C133.991 157.878 137.699 157.188 140.794 155.26C141.591 160.235 141.978 165.234 142.412 170.161C139.152 170.33 133.38 170.427 131.835 170.427C131.207 170.427 132.342 170.861 130.41 157.192ZM65.6636 163.133C65.4805 160.114 65.8071 157.085 66.6296 154.174C76.9144 153.707 87.0931 156.422 95.7787 161.95C95.7787 162.626 95.9236 167.239 95.7787 170.306H86.5292C79.7689 167.382 72.793 164.984 65.6636 163.133ZM83.4622 170.378C77.2073 170.378 71.6045 170.716 66.3881 171.103C66.1225 168.688 65.8327 166.273 65.7119 164.027C69.5759 165.162 79.9363 169.05 83.4622 170.354V170.378ZM66.9436 153.159C68.1516 149.237 70.0132 145.546 72.4498 142.243C77.7628 141.447 80.0812 140.384 86.3602 143.789C89.6204 145.552 93.6052 147.726 95.1991 151.324C95.1991 151.59 95.6338 157.265 95.7304 160.525C87.2798 154.803 77.1054 152.191 66.9436 153.135V153.159ZM87.2054 142.896C85.1412 141.707 82.8628 140.938 80.5007 140.631C78.1386 140.324 75.7392 140.487 73.4399 141.108C75.9881 137.968 78.9445 135.182 82.2305 132.825C92.1562 146.011 117.417 142.823 127.319 129.879C130.898 132.457 133.907 135.745 136.157 139.539C133.833 141.703 131.075 143.349 128.067 144.369C127.578 142.433 126.923 140.542 126.111 138.718C126.074 138.633 126.005 138.566 125.92 138.53C125.835 138.494 125.739 138.492 125.652 138.524C125 138.742 125.507 139.418 127.584 148.184C118.987 154.56 108.264 155.864 96.5998 152.145C95.7304 147.508 91.3351 145.093 87.2054 142.871V142.896ZM100.343 92.1805C102.444 92.6152 111.718 94.185 117.248 88.8961C119.808 100.633 124.493 116.161 111.887 119.253C111.831 119.264 111.782 119.294 111.746 119.338C111.711 119.383 111.692 119.438 111.694 119.494C111.694 119.494 111.935 122.296 112.152 123.865C107.443 130.821 101.454 131.545 94.9334 125.604C92.9048 109.931 93.0014 109.617 92.7599 109.448C92.5184 109.279 88.4854 106.501 90.3449 102.589C92.2045 98.6769 97.1552 105.004 97.4209 105.004H97.5899C99.1428 103.302 100.216 101.217 100.7 98.9644C101.183 96.7114 101.06 94.3704 100.343 92.1805ZM113.312 124.276H114.422C113.64 126.38 112.305 128.235 110.559 129.645C108.812 131.056 106.719 131.971 104.497 132.294C100.15 132.873 96.1892 131.086 92.4218 126.86C93.0256 126.57 93.6535 126.304 94.2572 126.063C98.6767 133.646 110.003 132.173 113.312 124.276ZM104.762 133.622C107.237 133.24 109.561 132.193 111.488 130.594C113.414 128.995 114.871 126.903 115.702 124.542C119.536 125.352 123.171 126.912 126.401 129.13C117.2 140.674 95.6096 144.9 82.786 132.318C85.6193 130.356 88.6265 128.659 91.7698 127.246C93.0638 129.473 94.9883 131.267 97.3006 132.402C99.6128 133.537 102.209 133.961 104.762 133.622ZM136.761 140.481C138.772 144.765 140.069 149.35 140.601 154.053C137.461 155.82 133.845 156.555 130.265 156.154C130.023 154.657 129.009 148.136 128.285 145.093C131.526 144.489 134.493 142.874 136.761 140.481ZM127.85 149.247C128.67 152.828 129.259 156.458 129.613 160.114C124.529 162.446 119.15 164.071 113.626 164.944C108.196 165.756 102.651 165.234 97.4692 163.423C97.5361 160.012 97.3018 156.602 96.7688 153.232C101.845 155.348 107.387 156.094 112.842 155.394C118.297 154.695 123.472 152.575 127.85 149.247ZM97.445 164.437C103.024 167.48 120.001 167.311 129.758 161.274C130.434 167.698 130.361 169.364 130.482 170.547C119.301 170.716 107.491 170.402 96.9862 170.306C97.2035 168.495 97.3726 166.635 97.445 164.437ZM35.3795 353.701C33.8299 352.701 32.5879 351.291 31.7915 349.627C30.9951 347.964 30.6755 346.112 30.8681 344.278C31.0608 342.444 31.7582 340.699 32.8829 339.238C34.0076 337.776 35.5155 336.655 37.2391 335.999C37.3761 335.961 37.4968 335.878 37.5828 335.765C37.6688 335.652 37.7153 335.513 37.7153 335.371C37.7153 335.229 37.6688 335.09 37.5828 334.977C37.4968 334.864 37.3761 334.781 37.2391 334.743C33.4931 334.239 29.9052 332.911 26.7338 330.855C25.5377 330.068 24.5315 329.025 23.788 327.801C23.0445 326.577 22.5824 325.203 22.4351 323.779C22.5573 322.564 22.9267 321.386 23.5206 320.319C24.1145 319.252 24.9203 318.317 25.8886 317.572C27.5914 316.044 29.5436 314.819 31.6604 313.95C33.5441 313.032 38.2292 310.883 38.2534 308.613C38.2534 304.048 27.6757 307.816 26.1784 307.599C15.1418 306.391 20.7688 284.487 32.5057 289.389C32.9645 289.583 33.206 288.762 32.9645 288.544C28.7624 284.559 27.3859 275.527 31.5397 270.939C32.0697 270.213 32.7587 269.618 33.554 269.199C34.3493 268.781 35.2298 268.55 36.1282 268.524C37.2943 268.628 38.4249 268.979 39.4449 269.554C40.465 270.129 41.3513 270.913 42.0449 271.857C45.6674 275.696 44.3392 276.373 45.281 279.102C45.3321 279.214 45.4205 279.304 45.5312 279.358C45.6418 279.413 45.7677 279.426 45.8875 279.398C46.0073 279.369 46.1135 279.3 46.1878 279.202C46.2622 279.104 46.3002 278.983 46.2953 278.86C46.2953 278.691 46.2953 275.962 50.3284 272.678C50.7751 272.234 51.3092 271.887 51.897 271.661C52.4847 271.434 53.1131 271.333 53.7423 271.362C54.3714 271.392 54.9876 271.552 55.5515 271.832C56.1154 272.113 56.6148 272.508 57.0179 272.992C55.2308 278.908 58.6601 291.539 67.4266 297.142C64.888 297.173 62.3919 297.797 60.1364 298.962C57.881 300.128 55.9284 301.803 54.4339 303.855C52.6468 306.802 51.077 311.535 52.5743 315.206C54.8686 320.784 64.3354 326.242 67.0643 330.372C69.3344 333.898 70.0348 336.723 65.8327 336.796C63.9441 336.446 62.1938 335.566 60.7853 334.26C49.0726 325.542 39.0503 334.26 42.9143 345.152C44.8776 349.685 47.6336 353.831 51.0529 357.396C48.6379 357.42 39.316 356.382 35.3795 353.701ZM60.3748 414.317C59.8759 414.43 59.3577 414.426 58.8608 414.304C58.3639 414.183 57.9019 413.948 57.5111 413.618C57.1203 413.288 56.8113 412.872 56.6084 412.403C56.4055 411.933 56.3142 411.423 56.3417 410.912C56.3148 410.22 56.4898 409.534 56.8454 408.939C57.201 408.344 57.722 407.866 58.3448 407.561C58.9677 407.257 59.6655 407.141 60.3534 407.226C61.0412 407.311 61.6894 407.595 62.219 408.042C62.7486 408.489 63.1368 409.081 63.3363 409.745C63.5357 410.408 63.5378 411.116 63.3424 411.781C63.147 412.446 62.7624 413.04 62.2355 413.49C61.7086 413.94 61.0621 414.228 60.3748 414.317ZM59.119 394.273C51.874 395.649 50.425 387.221 52.0189 384.396C52.4777 381.401 61.9445 377.996 63.6592 386.811C63.8659 388.392 63.5228 389.996 62.6874 391.355C61.852 392.713 60.5752 393.744 59.0707 394.273H59.119ZM74.8648 404.682C74.1152 405.149 73.211 405.299 72.3507 405.1C71.4904 404.9 70.7443 404.368 70.2763 403.619C70.0609 403.043 70.0251 402.415 70.1736 401.818C70.322 401.222 70.6478 400.684 71.108 400.276C71.5682 399.868 72.1413 399.609 72.7515 399.533C73.3618 399.458 73.9807 399.569 74.5267 399.852C74.9452 400.087 75.2986 400.422 75.5554 400.828C75.8121 401.233 75.964 401.697 75.9976 402.175C76.0311 402.654 75.9451 403.134 75.7474 403.571C75.5497 404.009 75.2464 404.39 74.8648 404.682ZM87.8333 387.149C86.6983 390.192 81.1679 389.226 81.0955 385.917C81.0819 385.172 81.3097 384.442 81.745 383.837C82.1803 383.232 82.7996 382.784 83.5105 382.56C88.6061 382.222 87.9299 386.714 87.7609 387.149H87.8333ZM95.5372 414.969C94.8141 415.059 94.0802 414.993 93.3846 414.776C92.6891 414.559 92.0478 414.196 91.5038 413.711C90.9597 413.227 90.5253 412.632 90.2297 411.966C89.9341 411.3 89.784 410.578 89.7895 409.85C89.7895 409.656 90.4415 399.731 98.9182 402.605C104.98 404.657 101.671 414.124 95.4647 414.969H95.5372ZM82.1098 371.065C83.0758 352.759 83.0999 332.98 82.1098 310.69C82.0885 310.607 82.0402 310.533 81.9724 310.48C81.9046 310.428 81.8213 310.399 81.7355 310.399C81.6497 310.399 81.5663 310.428 81.4985 310.48C81.4308 310.533 81.3824 310.607 81.3611 310.69C81.506 326.967 81.0472 367.225 81.023 371.065H63.7075C55.5448 361.212 48.2998 352.59 46.2712 349.499C38.0119 336.482 47.5753 326.967 60.1333 335.443C62.7415 337.231 65.8085 339.525 68.6582 337.858C70.1314 337.037 70.5178 335.443 69.8174 333.294C67.982 327.667 61.3649 324.383 55.3274 317.307C51.391 312.742 53.7818 304.169 58.9016 301.15C62.3097 299.124 66.2898 298.276 70.228 298.735C70.8076 298.977 71.1215 297.649 70.6144 297.552C63.6833 294.63 59.119 287.482 58.0805 277.942C57.6217 273.861 58.9982 269.272 63.1037 268.765C65.8033 268.826 68.4279 269.665 70.6627 271.18C71.846 271.832 71.9668 272.05 72.4981 271.591C73.0294 271.132 72.7637 271.06 72.7154 270.939C71.7537 268.441 71.3989 265.75 71.6802 263.088C71.9615 260.427 72.8709 257.869 74.3335 255.628C75.038 254.693 75.95 253.934 76.9977 253.411C78.0455 252.889 79.2002 252.617 80.371 252.617C81.5418 252.617 82.6965 252.889 83.7443 253.411C84.792 253.934 85.704 254.693 86.4085 255.628C88.8235 259.25 88.0748 265.288 86.9881 270.673C86.9685 270.816 86.9988 270.962 87.0739 271.085C87.149 271.208 87.2644 271.302 87.4005 271.35C87.5367 271.399 87.6853 271.398 87.8213 271.35C87.9574 271.301 88.0725 271.207 88.1473 271.084C88.9442 270.673 96.3583 267.099 100.029 269.973C103.7 272.847 102.879 278.667 101.188 282.869C99.4978 287.071 95.8994 289.703 92.2286 292.215C90.7675 293.094 89.407 294.131 88.1714 295.306C88.1714 295.499 88.4854 295.934 88.7269 295.886C91.2711 295.259 93.9392 295.349 96.435 296.147C98.9309 296.945 101.157 298.419 102.866 300.406C104.574 302.392 105.699 304.813 106.115 307.4C106.531 309.987 106.221 312.639 105.221 315.061C102.154 323.199 88.6061 328.778 91.2868 334.381C92.4943 336.917 95.7062 336.458 98.3144 336.265C105.825 335.782 110.389 338.221 112.346 343.727C113.839 349.083 113.508 354.784 111.404 359.932C109.713 364.303 105.608 367.491 102.517 370.896L82.1098 371.065ZM124.227 289.389C124.662 289.752 129.565 288.109 133.887 290.887C141.35 295.717 139.031 308.202 127.608 306.415C125.853 305.908 124.011 305.769 122.199 306.005C120.339 306.512 118.311 308.42 119.301 310.231C120.291 312.042 128.309 314.071 130.724 316.051C134.66 319.263 132.68 328.416 125.58 329.14C124.421 329.261 119.277 328.609 119.011 330.638C118.745 332.666 122.537 332.835 124.348 333.053C126.454 333.171 128.503 333.783 130.328 334.84C132.153 335.898 133.703 337.37 134.853 339.138C135.454 340.395 135.734 341.781 135.666 343.172C135.599 344.563 135.187 345.916 134.467 347.108C130.386 355.174 119.977 358.048 112.08 361.429C113.237 358.873 113.94 356.136 114.157 353.339C115.002 346.818 113.529 338.849 106.912 336.12C105.54 335.506 104.066 335.154 102.565 335.081C101.261 335.081 94.0399 336.748 92.7358 333.632C92.5438 332.952 92.551 332.231 92.7564 331.555C92.9619 330.878 93.357 330.275 93.895 329.817C93.895 329.817 101.14 323.055 101.84 322.282C113.263 310.81 105.535 293.592 91.4317 294.63C97.0828 291.273 103.507 285.67 103.676 277.218C104.258 276.165 105.107 275.283 106.136 274.66C107.166 274.037 108.341 273.695 109.544 273.668C110.965 273.944 112.246 274.708 113.163 275.828C114.08 276.948 114.577 278.354 114.567 279.802C114.567 280.406 115.461 280.116 115.582 279.802C116.341 277.38 117.395 275.06 118.721 272.895C121.885 268.451 127.222 267.34 129.323 272.895C131.738 279.585 129.13 283.907 124.058 288.713C123.889 288.906 124.01 289.269 124.155 289.389H124.227ZM107.83 394.997C106.284 395.963 103.724 395.577 103.386 393.5C103.289 392.788 103.382 392.062 103.657 391.398C103.932 390.734 104.379 390.155 104.952 389.72C105.524 389.285 106.202 389.01 106.915 388.923C107.629 388.837 108.353 388.941 109.013 389.226C112.37 390.505 108.82 394.563 107.757 394.997H107.83ZM376.595 377.899C327.184 378.189 248.286 378.817 122.416 380C122.589 377.105 122.589 374.202 122.416 371.306C122.416 370.968 123.358 371.089 103.627 371.089C106.2 368.716 108.619 366.183 110.872 363.506C112.635 361.477 127.005 358.676 133.742 350.223C139.176 343.365 137.341 335.299 128.912 332.666C127.54 332.269 126.133 332.002 124.71 331.869C119.88 331.241 120.895 330.976 120.46 330.976C120.605 330.734 121.764 330.469 122.006 330.42C124.179 329.865 127.198 331.193 130.458 328.44C133.718 325.687 135.288 320.277 132.873 316.679C131.559 314.983 129.728 313.762 127.657 313.201C121.426 310.98 120.557 309.361 120.581 308.613C120.605 307.864 121.764 307.212 122.368 307.043C125.29 306.222 129.613 309.072 134.032 306.802C136.162 305.663 137.775 303.753 138.543 301.463C139.311 299.174 139.174 296.677 138.162 294.485C137.048 292.208 135.204 290.369 132.924 289.262C130.644 288.154 128.058 287.842 125.58 288.375C128.266 286.292 130.233 283.421 131.207 280.164C131.561 278.248 131.501 276.278 131.03 274.386C130.56 272.495 129.689 270.727 128.478 269.2C125.556 266.157 118.649 267.872 115.316 277.314C114.935 276.161 114.278 275.119 113.403 274.277C112.527 273.435 111.46 272.82 110.293 272.484C109.009 272.357 107.714 272.555 106.528 273.062C105.341 273.568 104.302 274.367 103.507 275.382C102.83 268.548 96.8654 264.612 88.268 269.925C88.75 267.458 89.0007 264.951 89.0167 262.438C107.781 263.09 126.208 261.351 144.972 262.438C144.972 290.162 145.334 334.598 145.334 335.178C145.334 335.178 145.479 335.83 145.817 335.854C154.028 336.047 291.297 336.096 295.282 336.071C296.272 336.071 295.282 248.962 295.282 242.587C296.803 243.335 298.156 243.987 299.267 244.639C299.001 245.292 298.445 246.306 298.88 246.523C307.647 251.015 317.017 255.217 325.904 258.912C323.972 267.896 337.52 270.19 341.288 265.578C349.885 269.152 364.858 275.527 379.928 281.975C379.505 285.666 380.357 289.39 382.343 292.529C376.112 322.282 375.532 353.677 376.522 377.899H376.595ZM328.971 261.4C328.982 261.496 329.027 261.585 329.098 261.651C329.169 261.718 329.261 261.757 329.358 261.762C330.396 261.762 329.937 255.966 332.28 255.869C332.463 255.865 332.645 255.902 332.812 255.977C332.979 256.053 333.127 256.164 333.246 256.304C331.676 257.27 331.362 261.134 331.41 262.849C331.434 262.949 331.491 263.039 331.572 263.104C331.653 263.168 331.753 263.203 331.857 263.203C331.961 263.203 332.061 263.168 332.142 263.104C332.223 263.039 332.28 262.949 332.304 262.849C332.305 261.701 332.443 260.558 332.714 259.443C332.859 258.84 333.632 257.222 334.091 257.197C334.091 257.197 334.332 257.391 334.453 257.705C334.597 258.681 334.597 259.674 334.453 260.651C334.453 263.066 333.946 264.273 334.67 264.322C335.395 264.37 335.057 263.863 335.178 263.163L340.442 265.288C337.986 266.575 335.152 266.943 332.449 266.326C331.449 266.184 330.495 265.817 329.659 265.252C328.822 264.687 328.124 263.94 327.619 263.066C326.749 261.351 326.87 254.952 330.348 256.159C329.327 257.711 328.821 259.544 328.899 261.4H328.971ZM394.442 427.455C393.139 428.585 391.462 429.188 389.739 429.148C388.015 429.108 386.368 428.427 385.12 427.238C384.951 426.32 384.275 421.418 383.961 420.138H394.756C394.499 422.568 394.394 425.012 394.442 427.455ZM406.517 377.851L408.787 357.203C407.966 353.701 402.749 326.46 402.411 322.427C402.411 320.978 404.512 320.857 404.826 322.088C408.159 341.095 412.578 360.729 416.78 377.827L406.517 377.851ZM383.767 293.036C382.573 291.406 381.749 289.535 381.352 287.554C380.899 285.917 380.655 284.229 380.628 282.531C397.533 289.776 414.076 297.021 421.224 300.426C399.054 302.116 387.366 295.548 383.695 292.915L383.767 293.036ZM335.25 262.486C335.395 260.965 335.419 259.878 335.443 258.502C335.467 257.125 335.323 256.087 333.97 256.207C333.847 255.904 333.649 255.638 333.394 255.434C333.139 255.23 332.836 255.094 332.513 255.041C332.191 254.988 331.86 255.018 331.553 255.129C331.245 255.241 330.972 255.429 330.758 255.676C329.237 254.179 326.967 256.231 326.194 258.26C304.024 247.32 301.392 246.668 300.088 246.185C301.826 241.355 303.179 237.829 304.121 235.801C308.299 237.539 424.122 279.754 432.985 283.038C431.994 287.512 431.236 292.034 430.715 296.586C429.025 296.586 425.45 297.721 425.354 299.532C425.354 300.619 426.634 301.102 427.769 301.175C428.904 301.247 429 301.295 428.517 302.334L424.678 300.837C416.877 296.731 344.379 265.65 335.178 262.366L335.25 262.486ZM434.265 309.217C434.033 309.417 433.757 309.561 433.459 309.636C433.161 309.711 432.85 309.717 432.55 309.651C433.65 308.177 434.529 306.55 435.159 304.821C435.197 304.725 435.196 304.618 435.155 304.523C435.114 304.428 435.037 304.353 434.941 304.314C434.845 304.276 434.738 304.277 434.643 304.318C434.548 304.359 434.473 304.435 434.434 304.531C433.675 306.305 432.622 307.938 431.319 309.361C430.377 309.555 429.942 309.361 429.749 309.12C431.14 307.324 432.054 305.206 432.406 302.962C432.417 302.873 432.396 302.783 432.345 302.709C432.294 302.636 432.218 302.583 432.131 302.562C432.044 302.541 431.953 302.553 431.874 302.596C431.795 302.638 431.735 302.708 431.705 302.793C431.027 304.938 430.069 306.984 428.855 308.878C428.059 308.709 427.986 307.478 428.203 306.198C428.686 302.889 429.169 303.541 429.628 301.827C429.722 301.471 429.722 301.096 429.628 300.74C429.314 299.798 428.155 300.281 427.213 299.991C426.271 299.701 426.175 299.605 426.61 298.88C427.044 298.156 429.314 297.625 430.256 297.431C431.778 297.117 431.584 297.166 431.633 296.538C432.719 296.828 432.309 296.538 432.478 297.431C432.612 297.943 432.864 298.416 433.213 298.813C433.562 299.21 433.999 299.521 434.488 299.72C434.978 299.919 435.508 300.001 436.035 299.96C436.562 299.92 437.072 299.756 437.525 299.484L438.685 300.329C437.853 302.043 437.135 303.81 436.535 305.618C436.207 307.019 435.394 308.259 434.241 309.12L434.265 309.217ZM445.447 425.909C445.447 427.527 445.447 432.575 445.326 433.927C439.602 436.342 438.081 434.338 436.801 433.372C436.68 431.28 436.422 429.199 436.028 427.141L445.447 425.909ZM468.268 308.154C467.199 310.824 465.14 312.979 462.521 314.167C460.326 314.554 458.065 314.17 456.121 313.081C450.397 310.81 437.888 305.304 437.646 305.184C438.805 300.957 444.674 293.688 447.765 288.134C450.735 289.293 466.771 296.659 468.461 298.373C470.925 300.812 469.524 305.063 468.244 308.033L468.268 308.154Z" fill="#663100"/>
</svg>
