<svg width="483" height="483" viewBox="0 0 483 483" fill="none" xmlns="http://www.w3.org/2000/svg">
<path d="M97.7113 187.018C97.7113 186.486 96.1415 183.926 96.1174 182.936C96.1174 182.891 96.0996 182.848 96.0679 182.817C96.0362 182.785 95.9932 182.767 95.9483 182.767C95.9035 182.767 95.8605 182.785 95.8288 182.817C95.7971 182.848 95.7793 182.891 95.7793 182.936C95.5619 183.781 96.8419 186.076 96.6728 186.679C96.5038 187.283 96.0932 187.114 95.6344 187.452C94.7167 188.056 97.3973 188.587 97.7113 187.018V187.018ZM99.3293 179.241C99.0637 182.791 100.682 182.695 99.8606 179.241C99.7882 178.855 99.3535 178.951 99.3293 179.241ZM90.2972 181.825C91.384 182.84 90.9734 178.565 90.2972 179.41C89.9881 180.186 89.9881 181.05 90.2972 181.825ZM87.7373 178.71C88.0754 178.324 89.7176 177.188 90.0074 176.826C90.0531 176.785 90.0867 176.732 90.1047 176.674C90.1226 176.615 90.1242 176.552 90.1094 176.493C90.0945 176.433 90.0636 176.379 90.0201 176.335C89.9766 176.292 89.9222 176.261 89.8625 176.247C89.2829 176.078 87.4475 177.889 87.2785 178.444C87.1094 179 87.5441 178.927 87.7373 178.71V178.71ZM100.561 177.961C100.614 178.028 100.688 178.074 100.772 178.091C100.855 178.108 100.942 178.095 101.016 178.055C101.091 178.015 101.15 177.949 101.181 177.87C101.213 177.791 101.215 177.704 101.189 177.623C100.694 176.749 100.009 175.998 99.1844 175.426C99.1196 175.39 99.0444 175.378 98.9719 175.393C98.8995 175.407 98.8344 175.447 98.7882 175.505C98.7421 175.562 98.7178 175.634 98.7195 175.708C98.7213 175.782 98.7491 175.853 98.798 175.909C99.0154 176.295 100.247 177.647 100.561 177.961ZM88.2686 189.843C87.4234 188.974 88.003 191.775 89.7176 193.055C89.8384 193.055 90.0316 193.055 89.935 192.838C87.3268 189.143 89.5486 192.596 92.35 192.403C92.6398 192.403 92.7122 191.92 92.35 191.896C90.8038 191.67 89.3721 190.95 88.2686 189.843V189.843ZM372.055 176.947C371.717 176.367 370.341 179.555 370.365 180.014C370.365 181.052 371.717 181.463 372.587 181.222C372.649 181.196 372.703 181.153 372.741 181.097C372.779 181.041 372.799 180.975 372.799 180.908C372.799 180.84 372.779 180.774 372.741 180.718C372.703 180.662 372.649 180.619 372.587 180.594C372.224 180.594 371.572 180.594 371.331 180.231C371.089 179.869 372.393 177.527 372.055 176.947V176.947ZM377.392 175.715C377.392 176.198 378.189 176.392 378.334 175.715C378.557 174.701 378.447 173.643 378.02 172.697C377.513 171.827 377.296 174.967 377.392 175.715ZM369.495 175.812C369.689 174.809 369.509 173.769 368.988 172.89C368.095 172.141 368.578 176.875 369.495 175.812ZM366.67 172.238C366.549 172.576 367.056 172.769 367.225 172.479C367.921 171.452 368.869 170.62 369.978 170.064C370.993 169.581 367.853 169.05 366.67 172.238V172.238ZM380.194 170.909C378.165 169.122 376.282 169.702 377.103 170.306C377.513 170.571 379.276 171.344 379.711 171.586C380.146 171.827 380.58 171.248 380.194 170.909ZM377.151 185.569C378.044 186.052 381.305 185.569 380.894 182.888C380.894 182.695 380.556 182.646 380.508 182.888C380.327 183.59 379.902 184.204 379.309 184.62C378.715 185.036 377.993 185.227 377.272 185.158C377.228 185.167 377.188 185.187 377.156 185.217C377.123 185.246 377.1 185.284 377.087 185.327C377.075 185.369 377.074 185.414 377.085 185.457C377.097 185.499 377.119 185.538 377.151 185.569V185.569ZM361.139 229.835L355.295 237.974L368.505 236.887L361.139 229.835ZM466.868 135.409C463.923 131.222 459.679 128.123 454.793 126.594C429.774 120.315 408.473 182.719 437.067 192.596C448.538 196.533 457.281 185.979 462.473 177.261C469.839 164.775 474.838 149.03 466.868 135.409V135.409ZM442.911 192.62C430.619 193.514 423.833 180.352 423.857 169.799C423.857 154.077 434.894 126.981 450.905 126.691C457.208 126.546 464.864 133.26 466.168 135.795C471.964 146.977 470.563 159.487 465.347 170.282C461.048 179.193 454.02 191.823 442.911 192.62Z" fill="#663100"/>
<path d="M440.328 195.422C440.569 195.422 440.666 195.036 440.328 194.915C440.298 194.898 440.265 194.889 440.231 194.889C440.197 194.889 440.164 194.898 440.134 194.915C438.437 194.764 436.756 194.465 435.111 194.021C434.29 193.152 434.049 198.61 433.203 199.672C431.223 201.894 433.01 201.822 435.473 202.401C437.647 210.395 428.591 216.674 428.88 223.629C425.146 215.196 418.873 208.138 410.937 203.44C411.396 200.687 409.923 195.832 411.058 192.596C416.564 168.954 408.643 168.64 404.006 153.739C402.291 146.494 405.552 140.312 408.208 133.839L412.628 135.627V128.913C412.628 128.913 409.488 128.043 409.15 127.126L404.827 132.487L407.894 133.743C396.35 153.546 407.194 158.835 411.589 173.228C414.004 182.888 407.435 194.963 410.406 203.198C407.472 201.573 404.302 200.416 401.011 199.769C400.793 198.268 400.11 196.873 399.057 195.781C398.004 194.689 396.635 193.956 395.143 193.683C395.143 187.935 395.336 180.642 396.254 178.807C397.774 175.28 398.332 171.414 397.872 167.601C394.891 167.282 391.985 166.465 389.275 165.186C387.004 163.761 383.116 162.771 382.343 163.399C383.241 165.729 383.842 168.164 384.131 170.644C384.396 173.542 383.527 176.537 383.889 176.682C384.758 177.068 386.473 172.359 389.975 173.301C394.491 174.508 390.192 179.048 389.975 179.99C389.758 180.932 392.197 181.246 393.694 184.82C393.477 199.31 394.684 197.112 394.346 200.662C391.334 203.41 387.992 205.77 384.396 207.69C381.426 208.825 377.972 202.86 376.378 200.735C376.721 198.003 376.785 195.244 376.572 192.5C363.796 189.602 365.801 175.45 365.921 165.307C367.495 166.054 369.255 166.313 370.977 166.051C372.699 165.788 374.303 165.016 375.581 163.834C379.88 159.414 388.284 163.834 388.284 163.834C388.284 163.834 399.659 169.702 399.466 164.003C399.273 158.303 394.636 154.56 390.82 152.507C387.004 150.455 383.261 151.324 380.291 151.107C378.895 151.1 377.511 150.838 376.209 150.334C376.209 150.334 369.858 146.977 365.366 150.841C360.874 154.705 361.55 163.375 365.608 165.186C363.893 174.846 363.651 191.099 376.282 193.176C376.137 193.876 375.968 194.625 375.799 195.422C373.211 196.573 371.121 198.612 369.906 201.17C362.954 204.139 356.663 208.464 351.401 213.891C346.139 219.319 342.012 225.741 339.26 232.782C340.129 213.776 341.119 118.722 340.733 108.772C341.313 107.878 344.138 107.709 261.28 106.719C264.566 102.699 267.409 98.3342 269.756 93.7021C290.694 53.9754 263.018 47.6722 263.018 47.6722C250.581 43.0837 239.231 47.8896 228.894 70.4215C220.466 88.7755 224.427 100.368 228.339 106.308L136.013 105.294C135.938 105.29 135.862 105.305 135.795 105.339C135.727 105.373 135.669 105.424 135.627 105.487C135.599 105.548 135.584 105.614 135.584 105.681C135.584 105.747 135.599 105.813 135.627 105.874C135.482 121.885 136.931 171.079 137.825 230.778C134.685 233.112 131.578 235.527 128.503 238.023C127.588 235.748 126.325 233.63 124.76 231.744C125.122 231.405 126.281 230.367 126.16 230.125C118.36 215.635 109.545 208.39 107.106 206.797C107.637 204.237 111.115 187.114 109.521 173.397C107.83 158.545 99.4262 160.332 99.4262 160.332C92.9057 147.943 74.8657 156.492 74.8657 156.492C71.2793 158.281 68.483 161.335 67.0169 165.065C63.6601 155.985 71.2673 147.025 69.0938 137.872L73.9238 137.438L70.9292 131.424C70.9292 131.424 67.7173 132.101 66.9928 131.424L65.5921 138.211L68.7074 137.921C70.4704 146.204 61.6315 159.511 66.8237 165.621C60.5447 179.676 61.9937 203.826 62.1628 206.676C41.6353 218.751 41.6353 241.09 43.0601 241.597L45.6925 242.49C43.8812 253.285 47.383 271.036 55.3525 276.783C52.696 279.488 40.2104 295.379 40.0655 355.029C40.0655 355.029 37.6505 386.811 32.4824 387.632C32.4824 387.632 37.1192 403.522 57.4535 409.149C58.9289 421.903 59.6546 434.733 59.627 447.572H81.7726C83.1974 446.872 82.1831 444.602 81.7726 443.78C79.1318 441.641 76.357 439.673 73.465 437.888C74.2647 435.872 74.555 433.691 74.3102 431.536C74.2857 431.17 74.1353 430.823 73.8845 430.555C73.6336 430.286 73.2978 430.113 72.9337 430.063C74.9425 423.927 75.866 417.487 75.6626 411.033C87.5927 410.526 91.1669 405.165 103.725 405.889C109.98 432.841 110.463 445.737 110.463 445.737H132.584C134.033 445.012 133.019 442.766 132.584 441.945C129.951 439.799 127.184 437.823 124.301 436.028C125.096 433.851 125.304 431.502 124.904 429.218C124.687 427.793 123.238 427.938 121.886 428.155C122.055 426.682 122.972 410.164 123.021 408.642C130.266 407.676 138.187 404.416 139.056 398.475C140.481 388.815 132.005 304.145 116.814 270.48C119.114 270.136 121.279 269.178 123.081 267.707C124.883 266.237 126.255 264.308 127.054 262.124C127.223 261.52 132.174 262.124 139.419 256.232C139.95 280.72 143.838 412.192 144.514 412.506C146.883 413.287 149.304 413.901 151.759 414.342C152.097 414.342 187.767 404.947 207.57 400.673C207.711 400.669 207.848 400.618 207.956 400.528C208.005 400.487 208.044 400.435 208.069 400.376C208.094 400.317 208.105 400.254 208.101 400.19C208.27 342.93 205.276 186.197 203.972 135.796H207.546C217.64 135.264 231.503 132.125 234.739 121.644L238.603 122.996L238.409 116.307C238.409 116.307 235.222 115.558 234.859 114.664L230.754 120.195L234.256 121.475C225.393 136.134 214.018 134.129 203.972 134.95C203.754 126.667 203.682 127.174 203.513 127.126C193.442 124.469 160.574 115.413 147.799 112.781C162.289 113.191 199.528 113.819 236.695 114.399C238.983 115.744 241.58 116.473 244.234 116.515C246.888 116.558 249.507 115.912 251.837 114.64L328.32 115.775C325.325 116.21 271.736 124.228 269.297 124.88C269.056 124.88 268.863 119.518 272.026 254.855C275.311 394.925 275.6 399.344 275.625 399.755L329.431 421.49C329.431 421.49 336.458 419.92 336.483 419.22C337.111 394.201 338.753 292.432 338.68 266.181C342.406 266.697 346.192 265.838 349.33 263.766C349.137 268.427 348.05 295.765 351.504 298.977C352.133 299.674 352.886 300.247 353.726 300.668C353.436 311.173 351.166 402.87 358.556 428.397L356.455 428.566C356.455 428.566 356.237 428.856 356.213 428.928C355.886 431.852 356.008 434.808 356.575 437.695C356.589 437.741 356.612 437.784 356.643 437.82C356.674 437.857 356.712 437.887 356.756 437.907C356.799 437.928 356.846 437.939 356.894 437.94C356.942 437.94 356.99 437.931 357.034 437.912C358.636 438.121 360.249 438.226 361.864 438.226C361.761 439.272 361.893 440.329 362.251 441.317C357.952 445.664 354.668 445.109 354.692 445.833C354.861 449.166 354.837 450.325 355.32 449.987C362.567 451.21 369.997 450.781 377.055 448.731C377.248 448.731 377.489 448.248 377.489 448.127C377.489 445.882 377.489 441.341 375.074 440.182C375.047 439.253 374.966 438.325 374.833 437.405C376.293 437.207 377.737 436.909 379.156 436.511C379.366 433.702 379.301 430.879 378.962 428.083C378.962 428.083 378.745 427.624 378.552 427.648H377.779C388.188 393.114 387.004 357.203 387.029 356.913L380.581 324.48C380.581 324.48 380.436 321.485 381.885 323.562C381.885 323.562 401.011 410.188 408.16 428.059C407.532 428.059 405.938 428.373 405.938 428.614C406.233 431.361 406.733 434.081 407.435 436.753C409.768 437.317 412.16 437.601 414.56 437.598C414.569 438.318 414.634 439.037 414.753 439.747C410.382 444.312 407.001 443.66 407.049 444.433C406.969 445.869 407.099 447.309 407.435 448.707C414.342 450.47 422.626 449.021 429.436 447.331C429.649 447.188 429.803 446.974 429.871 446.727C429.871 444.481 429.871 439.868 427.456 438.757V437.26C428.937 437.179 430.403 436.928 431.827 436.511C432.273 433.695 432.273 430.827 431.827 428.011H430.209C430.45 422.07 432.986 357.541 422.819 302.431C425.089 301.73 425.5 301.561 425.5 300.933C425.5 294.389 425.886 287.675 425.355 281.154C437.43 275.117 435.932 263.863 435.015 250.87C434.569 241.859 432.618 232.986 429.243 224.619C430.499 216.263 438.42 209.815 435.812 202.329C445.254 205.058 439.7 200.904 440.328 195.422ZM260.579 78.0288C260.893 75.6138 262.994 67.5477 262.825 62.5245C262.656 58.9261 264.685 59.2642 265.24 60.4476C266.182 62.8626 269.442 73.4161 262.825 80.5887C262.753 80.5887 259.927 83.3176 260.579 78.0288ZM256.86 89.9347C257.198 89.4517 257.971 89.4034 258.84 89.6932C259.71 89.983 259.758 91.746 259.372 92.4946C259.233 92.7355 259.039 92.9396 258.805 93.0899C258.571 93.2401 258.304 93.3321 258.028 93.3581C257.751 93.3842 257.472 93.3434 257.214 93.2394C256.956 93.1354 256.727 92.9711 256.546 92.7603C255.508 91.7701 256.86 89.9347 256.86 89.9347ZM395.167 197.088V194.094C408.256 201.942 394.901 218.606 390.603 229.57C392.076 213.245 396.761 200.059 395.167 197.088ZM383.43 209.163C387.248 207.042 390.89 204.619 394.322 201.918C393.09 212.955 387.946 221.914 389.275 260.12C388.043 260.265 376.596 260.965 372.2 261.472C372.539 212.834 373.311 208.68 375.75 201.339H375.92C377.683 205.13 382.706 209.719 383.43 209.284V209.163ZM368.119 262.583C370.283 262.716 372.452 262.716 374.615 262.583C374.446 268.065 375.437 273.789 373.698 279.078C371.737 278.16 369.862 277.069 368.095 275.817C368.095 275.817 368.506 266.954 368.119 262.704V262.583ZM375.557 196.195C375.217 197.656 375.217 199.177 375.557 200.638C371.041 208.56 372.176 217.543 371.935 233.724C370.51 227.276 367.805 221.19 367.757 214.404C367.709 207.618 369.496 200.252 375.557 196.315V196.195ZM76.0973 183.105C78.6572 178.275 82.159 183.105 82.159 183.105L82.8593 175.233C91.8914 175.426 96.818 166.104 96.818 166.104C101.455 166.104 104.063 172.793 103.677 177.72C103.524 182.708 103.023 187.678 102.179 192.596C100.537 198.537 92.6642 198.03 92.6642 198.03L93.268 202.86C94.7069 202.816 96.1467 202.913 97.5667 203.15C94.8619 206.483 91.7707 209.622 89.1866 213.124C89.1866 213.124 80.71 205.565 76.0732 202.16C79.0436 201.339 79.1402 201.484 79.0919 201.121H79.2851L80.1062 189.747C80.1062 189.747 73.5374 187.96 76.0973 183.226V183.105ZM75.6143 202.16C79.8592 206.216 84.343 210.014 89.0417 213.534C89.0417 213.534 89.3315 213.752 89.4281 213.679C92.5793 210.319 95.523 206.771 98.2429 203.053C99.2919 203.262 100.325 203.544 101.334 203.899C97.7599 208.294 93.3646 211.747 89.8145 216.118C89.8145 216.118 78.5848 207.545 72.9095 202.908L75.6143 202.16ZM43.2292 240.8C42.7703 223.653 52.0681 209.405 72.6439 203.005C77.1358 208.825 83.7046 212.834 89.7662 216.795C89.9353 216.795 99.1123 209.018 101.841 204.068C103.549 204.66 105.173 205.471 106.671 206.483C106.715 206.551 106.772 206.608 106.84 206.652C114.221 213.536 120.537 221.48 125.581 230.222C125.581 230.222 115.679 237.709 113.506 238.699C113.132 235.123 112.535 231.574 111.719 228.073H111.501C112.467 237.153 113.312 259.178 113.192 261.158C113.192 261.158 109.062 260.603 107.082 260.12C91.022 256.159 82.1348 253.527 74.1653 255.29C74.5861 252.99 74.5861 250.634 74.1653 248.335C75.2521 248.335 76.1456 248.335 76.3388 247.876C78.2225 242.466 76.3388 234.183 76.3388 236.767C76.3388 238.602 75.9766 247.489 75.88 247.489C64.4812 248.069 43.2292 240.969 43.2292 240.945V240.8ZM62.4043 286.878C62.3519 287.268 62.2233 287.644 62.0257 287.984C61.828 288.325 61.5653 288.623 61.2525 288.862C60.9396 289.101 60.5828 289.275 60.2024 289.376C59.822 289.477 59.4254 289.502 59.0353 289.45C58.6453 289.398 58.2693 289.269 57.9289 289.071C57.5886 288.874 57.2905 288.611 57.0516 288.298C56.8128 287.985 56.6379 287.629 56.537 287.248C56.4361 286.868 56.411 286.471 56.4634 286.081C56.5252 285.691 56.6633 285.317 56.8697 284.98C57.0761 284.643 57.3468 284.351 57.6664 284.119C57.986 283.886 58.3481 283.72 58.7322 283.627C59.1162 283.535 59.5147 283.52 59.9047 283.582C60.2948 283.643 60.6689 283.781 61.0056 283.988C61.3424 284.194 61.6351 284.465 61.8672 284.785C62.0993 285.104 62.2662 285.466 62.3584 285.85C62.4505 286.234 62.4661 286.633 62.4043 287.023V286.878ZM62.4043 317.283C62.4043 317.875 62.2286 318.454 61.8996 318.947C61.5705 319.439 61.1028 319.823 60.5557 320.049C60.0085 320.276 59.4063 320.335 58.8255 320.22C58.2446 320.104 57.711 319.819 57.2922 319.4C56.8734 318.982 56.5882 318.448 56.4726 317.867C56.3571 317.286 56.4164 316.684 56.643 316.137C56.8697 315.59 57.2535 315.122 57.746 314.793C58.2384 314.464 58.8174 314.288 59.4097 314.288C59.8175 314.284 60.2217 314.364 60.5976 314.522C60.9736 314.68 61.3133 314.913 61.5959 315.207C61.8786 315.501 62.0982 315.85 62.2414 316.232C62.3845 316.613 62.4482 317.02 62.4284 317.428L62.4043 317.283ZM48.7354 331.242C49.3267 331.214 49.913 331.362 50.4203 331.667C50.9275 331.972 51.333 332.421 51.5854 332.956C51.8378 333.491 51.9258 334.09 51.8383 334.675C51.7509 335.261 51.4918 335.807 51.094 336.245C50.6961 336.684 50.1772 336.994 49.6029 337.138C49.0286 337.282 48.4247 337.252 47.8673 337.052C47.31 336.853 46.8243 336.492 46.4716 336.017C46.1189 335.542 45.915 334.972 45.8857 334.381C45.885 333.607 46.1839 332.863 46.7197 332.305C47.2554 331.747 47.9864 331.418 48.7595 331.386L48.7354 331.242ZM45.3061 371.886C44.7078 371.885 44.1234 371.705 43.6283 371.369C43.1332 371.034 42.7501 370.557 42.5283 370.001C42.3065 369.446 42.2563 368.836 42.3841 368.252C42.5119 367.667 42.8118 367.134 43.2452 366.722C43.6786 366.31 44.2257 366.036 44.8158 365.938C45.4059 365.839 46.012 365.919 46.556 366.168C47.1 366.417 47.557 366.824 47.8679 367.335C48.1789 367.846 48.3296 368.439 48.3007 369.036C48.3007 369.826 47.9885 370.584 47.4321 371.145C46.8757 371.706 46.1202 372.024 45.3302 372.031L45.3061 371.886ZM54.5072 387.221C54.4522 387.818 54.2191 388.385 53.8383 388.848C53.4574 389.311 52.9463 389.65 52.3711 389.819C51.7959 389.988 51.1831 389.981 50.612 389.798C50.041 389.615 49.538 389.265 49.1681 388.793C48.7983 388.321 48.5787 387.749 48.5377 387.151C48.4967 386.553 48.6362 385.956 48.9383 385.438C49.2403 384.92 49.6909 384.505 50.2316 384.245C50.7724 383.986 51.3785 383.896 51.9715 383.985C52.3618 384.039 52.7377 384.168 53.0777 384.367C53.4178 384.566 53.7152 384.83 53.953 385.144C54.1908 385.458 54.3643 385.816 54.4635 386.198C54.5628 386.579 54.5858 386.976 54.5314 387.366L54.5072 387.221ZM56.4392 357.42C56.046 357.42 55.6566 357.343 55.2932 357.192C54.9299 357.042 54.5998 356.821 54.3217 356.543C54.0436 356.265 53.8231 355.935 53.6726 355.571C53.5221 355.208 53.4446 354.819 53.4446 354.426C53.4446 354.032 53.5221 353.643 53.6726 353.28C53.8231 352.916 54.0436 352.586 54.3217 352.308C54.5998 352.03 54.9299 351.809 55.2932 351.659C55.6566 351.508 56.046 351.431 56.4392 351.431C57.2334 351.431 57.9951 351.746 58.5567 352.308C59.1183 352.87 59.4338 353.631 59.4338 354.426C59.4338 355.22 59.1183 355.981 58.5567 356.543C57.9951 357.105 57.2334 357.42 56.4392 357.42ZM72.2092 429.87C70.6153 429.87 68.7074 430.208 69.3353 431.392C69.6267 432.054 69.7772 432.769 69.7772 433.493C69.7772 434.216 69.6267 434.931 69.3353 435.594C66.9203 439.627 62.8873 436.849 61.0519 435.256C59.9651 426.537 59.0716 417.843 58.1297 409.149C63.6545 410.522 69.3469 411.099 75.0347 410.864C74.8657 414.245 72.8854 426.9 72.2092 429.87ZM67.3792 332.328C68.1734 332.328 68.9351 332.644 69.4967 333.205C70.0583 333.767 70.3738 334.529 70.3738 335.323C70.3738 336.117 70.0583 336.879 69.4967 337.44C68.9351 338.002 68.1734 338.317 67.3792 338.317C66.9859 338.317 66.5965 338.24 66.2332 338.09C65.8699 337.939 65.5397 337.718 65.2617 337.44C64.9836 337.162 64.763 336.832 64.6125 336.469C64.462 336.106 64.3846 335.716 64.3846 335.323C64.3846 334.93 64.462 334.54 64.6125 334.177C64.763 333.814 64.9836 333.483 65.2617 333.205C65.5397 332.927 65.8699 332.707 66.2332 332.556C66.5965 332.406 66.9859 332.328 67.3792 332.328ZM65.6162 297.045C66.0799 296.676 66.6426 296.453 67.2332 296.404C67.8238 296.355 68.4156 296.482 68.9338 296.77C69.4519 297.057 69.8732 297.492 70.1442 298.019C70.4151 298.546 70.5236 299.142 70.456 299.73C70.3883 300.319 70.1475 300.874 69.764 301.326C69.3805 301.778 68.8716 302.106 68.3017 302.268C67.7319 302.431 67.1266 302.42 66.5625 302.239C65.9985 302.057 65.5011 301.712 65.1332 301.247C64.641 300.626 64.4154 299.834 64.506 299.046C64.5965 298.259 64.9958 297.539 65.6162 297.045ZM70.4462 370.002C70.3644 370.589 70.1106 371.137 69.717 371.579C69.3234 372.022 68.8076 372.337 68.2348 372.486C67.662 372.635 67.0578 372.611 66.4986 372.417C65.9394 372.223 65.4502 371.868 65.0929 371.396C64.7356 370.924 64.5262 370.357 64.4911 369.766C64.4559 369.175 64.5967 368.587 64.8956 368.076C65.1946 367.565 65.6382 367.154 66.1705 366.895C66.7028 366.636 67.2999 366.541 67.8863 366.621C68.6577 366.735 69.3551 367.143 69.8323 367.76C70.3095 368.377 70.5295 369.154 70.4462 369.93V370.002ZM82.1107 287.023C82.0026 287.806 81.589 288.515 80.96 288.995C80.3311 289.475 79.538 289.686 78.7538 289.583C78.1658 289.505 77.614 289.255 77.1683 288.864C76.7226 288.473 76.4032 287.958 76.2505 287.385C76.0978 286.812 76.1187 286.206 76.3106 285.645C76.5025 285.084 76.8567 284.592 77.3283 284.233C77.7999 283.873 78.3676 283.661 78.9596 283.625C79.5516 283.588 80.141 283.728 80.6533 284.027C81.1656 284.326 81.5775 284.77 81.837 285.304C82.0964 285.837 82.1917 286.435 82.1107 287.023ZM82.4729 317.428C82.4729 318.222 82.1574 318.984 81.5958 319.545C81.0342 320.107 80.2725 320.422 79.4783 320.422C78.6841 320.422 77.9224 320.107 77.3608 319.545C76.7992 318.984 76.4837 318.222 76.4837 317.428C76.4837 316.634 76.7992 315.872 77.3608 315.31C77.9224 314.749 78.6841 314.433 79.4783 314.433C80.2725 314.433 81.0342 314.749 81.5958 315.31C82.1574 315.872 82.4729 316.634 82.4729 317.428ZM76.1698 353.653C76.1698 353.06 76.3454 352.481 76.6744 351.989C77.0035 351.497 77.4712 351.113 78.0184 350.886C78.5656 350.659 79.1677 350.6 79.7486 350.716C80.3295 350.831 80.8631 351.116 81.2819 351.535C81.7007 351.954 81.9859 352.488 82.1014 353.069C82.217 353.649 82.1577 354.252 81.931 354.799C81.7044 355.346 81.3205 355.814 80.8281 356.143C80.3356 356.472 79.7566 356.647 79.1644 356.647C78.3866 356.648 77.6392 356.346 77.0803 355.805C76.5214 355.264 76.1949 354.527 76.1698 353.749V353.653ZM85.1053 387.269C84.9972 388.053 84.5836 388.762 83.9546 389.242C83.3257 389.721 82.5326 389.932 81.7484 389.829C81.1604 389.752 80.6086 389.502 80.1629 389.111C79.7172 388.719 79.3978 388.204 79.2451 387.631C79.0924 387.058 79.1133 386.453 79.3052 385.892C79.4971 385.33 79.8513 384.839 80.3229 384.479C80.7945 384.12 81.3622 383.908 81.9542 383.871C82.5462 383.835 83.1356 383.975 83.6479 384.274C84.1602 384.573 84.5721 385.017 84.8316 385.55C85.0911 386.084 85.1863 386.682 85.1053 387.269ZM88.2689 333.874C88.35 333.288 88.6025 332.74 88.9947 332.298C89.3869 331.856 89.9011 331.539 90.4727 331.389C91.0442 331.238 91.6475 331.26 92.2066 331.452C92.7657 331.644 93.2555 331.997 93.6145 332.466C93.9734 332.936 94.1853 333.501 94.2235 334.091C94.2618 334.681 94.1246 335.269 93.8293 335.781C93.5341 336.293 93.0939 336.706 92.5642 336.968C92.0346 337.231 91.4392 337.33 90.853 337.255C90.0818 337.146 89.3823 336.744 88.9007 336.132C88.4192 335.52 88.1928 334.746 88.2689 333.97V333.874ZM88.2689 297.89C88.3212 297.5 88.4499 297.124 88.6475 296.784C88.8451 296.444 89.1079 296.145 89.4207 295.907C89.7335 295.668 90.0904 295.493 90.4708 295.392C90.8512 295.291 91.2478 295.266 91.6378 295.318C92.0279 295.371 92.4039 295.499 92.7443 295.697C93.0846 295.895 93.3827 296.157 93.6216 296.47C93.8604 296.783 94.0353 297.14 94.1362 297.52C94.2371 297.901 94.2621 298.297 94.2098 298.687C94.1041 299.475 93.6898 300.189 93.058 300.671C92.4262 301.153 91.6287 301.365 90.8409 301.259C90.0531 301.154 89.3395 300.739 88.8572 300.108C88.3748 299.476 88.1632 298.678 88.2689 297.89ZM95.6588 367.925C95.5531 368.713 95.1388 369.427 94.507 369.909C93.8752 370.391 93.0777 370.603 92.2899 370.497C91.5021 370.392 90.7885 369.977 90.3062 369.346C89.8238 368.714 89.6122 367.916 89.7179 367.128C89.8236 366.341 90.2379 365.627 90.8697 365.145C91.5015 364.662 92.299 364.451 93.0868 364.556C93.8746 364.662 94.5882 365.076 95.0706 365.708C95.5529 366.34 95.7645 367.138 95.6588 367.925ZM100.754 281.444C100.863 280.87 101.137 280.339 101.544 279.919C101.95 279.498 102.471 279.206 103.042 279.078C103.612 278.95 104.208 278.992 104.755 279.199C105.302 279.405 105.777 279.767 106.12 280.241C106.464 280.714 106.661 281.277 106.688 281.862C106.715 282.446 106.571 283.025 106.272 283.528C105.974 284.031 105.535 284.436 105.009 284.692C104.484 284.948 103.894 285.045 103.314 284.97C102.918 284.914 102.537 284.78 102.194 284.575C101.85 284.371 101.55 284.1 101.312 283.779C101.074 283.457 100.902 283.092 100.806 282.704C100.711 282.315 100.693 281.912 100.754 281.517V281.444ZM109.183 316.365C109.106 316.953 108.855 317.505 108.464 317.951C108.073 318.396 107.558 318.716 106.985 318.868C106.412 319.021 105.806 319 105.245 318.808C104.684 318.616 104.192 318.262 103.833 317.791C103.473 317.319 103.261 316.751 103.225 316.159C103.188 315.567 103.328 314.978 103.627 314.466C103.926 313.953 104.37 313.541 104.904 313.282C105.437 313.022 106.035 312.927 106.623 313.008C107.012 313.059 107.388 313.186 107.728 313.382C108.067 313.579 108.365 313.841 108.603 314.153C108.841 314.465 109.015 314.821 109.114 315.201C109.214 315.581 109.237 315.976 109.183 316.365ZM112.153 383.985C112.741 384.062 113.293 384.313 113.739 384.704C114.184 385.095 114.504 385.61 114.657 386.183C114.809 386.756 114.788 387.362 114.596 387.923C114.405 388.484 114.05 388.976 113.579 389.335C113.107 389.695 112.539 389.907 111.947 389.943C111.356 389.98 110.766 389.84 110.254 389.541C109.742 389.242 109.33 388.798 109.07 388.264C108.811 387.731 108.715 387.133 108.796 386.545C108.847 386.156 108.974 385.78 109.17 385.44C109.367 385.101 109.629 384.803 109.941 384.565C110.253 384.327 110.609 384.153 110.989 384.054C111.369 383.954 111.764 383.931 112.153 383.985ZM101.817 351.407C101.894 350.819 102.145 350.267 102.536 349.821C102.927 349.376 103.442 349.056 104.015 348.903C104.588 348.751 105.194 348.772 105.755 348.964C106.316 349.155 106.808 349.51 107.167 349.981C107.527 350.453 107.738 351.021 107.775 351.613C107.812 352.205 107.672 352.794 107.373 353.306C107.074 353.819 106.629 354.23 106.096 354.49C105.563 354.749 104.964 354.845 104.377 354.764C103.99 354.713 103.617 354.587 103.279 354.392C102.941 354.197 102.644 353.937 102.406 353.628C102.169 353.318 101.994 352.965 101.893 352.588C101.792 352.211 101.766 351.818 101.817 351.431V351.407ZM120.871 428.276C120.219 428.542 119.833 428.952 120.171 429.604C122.176 433.396 118.142 439.433 111.38 433.01C110.173 428.59 105.584 410.381 104.135 405.793C113.24 406.493 109.956 409.946 122.151 408.594C121.934 411.395 120.871 424.557 120.871 428.3V428.276ZM128.889 386.545C128.967 385.957 129.217 385.405 129.608 384.959C129.999 384.514 130.514 384.194 131.087 384.042C131.66 383.889 132.266 383.91 132.827 384.102C133.388 384.294 133.88 384.648 134.239 385.119C134.599 385.591 134.811 386.159 134.847 386.751C134.884 387.343 134.744 387.932 134.445 388.444C134.146 388.957 133.702 389.369 133.168 389.628C132.635 389.888 132.037 389.983 131.449 389.902C131.061 389.854 130.686 389.73 130.346 389.536C130.007 389.342 129.709 389.082 129.471 388.772C129.232 388.462 129.058 388.107 128.958 387.729C128.859 387.351 128.835 386.957 128.889 386.569V386.545ZM119.036 333.946C119.118 333.36 119.372 332.811 119.765 332.369C120.159 331.927 120.675 331.611 121.247 331.462C121.82 331.313 122.424 331.337 122.984 331.531C123.543 331.725 124.032 332.081 124.389 332.553C124.747 333.025 124.956 333.592 124.991 334.183C125.026 334.774 124.886 335.362 124.587 335.873C124.288 336.383 123.844 336.794 123.312 337.053C122.779 337.312 122.182 337.408 121.596 337.327C120.815 337.213 120.11 336.798 119.632 336.171C119.153 335.543 118.939 334.754 119.036 333.97V333.946ZM120.968 363.192C121.554 363.274 122.103 363.528 122.545 363.921C122.987 364.315 123.303 364.831 123.452 365.403C123.601 365.976 123.577 366.58 123.383 367.14C123.189 367.699 122.834 368.188 122.362 368.545C121.89 368.903 121.322 369.112 120.732 369.147C120.141 369.182 119.553 369.041 119.042 368.743C118.531 368.444 118.12 368 117.861 367.468C117.602 366.935 117.507 366.338 117.587 365.752C117.707 364.971 118.128 364.268 118.76 363.794C119.392 363.32 120.185 363.112 120.968 363.216V363.192ZM117.587 296.828C117.51 297.416 117.26 297.968 116.868 298.413C116.477 298.859 115.962 299.178 115.389 299.331C114.816 299.484 114.21 299.463 113.649 299.271C113.088 299.079 112.596 298.725 112.237 298.253C111.877 297.782 111.666 297.214 111.629 296.622C111.593 296.03 111.733 295.441 112.031 294.928C112.33 294.416 112.775 294.004 113.308 293.745C113.841 293.485 114.44 293.39 115.027 293.471C115.417 293.524 115.793 293.654 116.133 293.853C116.473 294.052 116.771 294.316 117.009 294.63C117.246 294.944 117.42 295.302 117.519 295.683C117.618 296.065 117.641 296.462 117.587 296.852V296.828ZM113.675 270.021C112.457 270.193 111.221 270.193 110.004 270.021C110.004 270.021 77.1599 288.907 57.3328 277.266C57.3328 277.097 57.3328 277.266 55.8113 276.276C47.7211 270.528 44.8955 253.913 46.0306 242.587C54.8879 246.049 64.2542 248.032 73.7548 248.455C73.9238 262.559 65.7853 250.87 99.1606 259.105C114.085 262.752 111.453 263.139 118.481 260.53C118.094 261.452 117.508 262.276 116.766 262.945C115.027 264.563 123.335 263.549 126.088 262.462C123.166 269.828 113.965 269.683 113.675 270.045V270.021ZM114.109 261.207C114.109 261.207 114.109 258.115 114.254 256.57C115.219 257.877 116.414 258.998 117.78 259.878C116.602 260.443 115.373 260.896 114.109 261.231V261.207ZM119.326 260.699C121.295 261.585 123.449 261.983 125.605 261.859C123.063 262.624 120.433 263.054 117.78 263.139C118.436 262.47 118.961 261.683 119.326 260.82V260.699ZM114.303 254.952C114.395 249.784 114.186 244.615 113.675 239.472C117.528 237.489 121.101 235.004 124.301 232.082C125.687 234.105 126.922 236.228 127.996 238.433C127.996 238.626 128.599 238.626 128.648 238.433C131.811 236.018 134.999 233.603 138.308 231.188C138.397 231.213 138.491 231.219 138.583 231.203C138.674 231.188 138.761 231.152 138.838 231.099C138.914 231.046 138.977 230.976 139.024 230.896C139.07 230.815 139.097 230.725 139.105 230.633C153.595 219.838 156.831 219.21 157.724 216.674C158.328 214.959 159.053 209.815 160.695 214.718C160.936 215.515 164.124 213.752 166.66 213.993C172.915 214.5 161.323 218.05 158.714 224.257C153.884 235.97 146.495 252.73 132.995 259.009C128.406 261.134 119.447 263.235 114.303 254.976V254.952ZM145.36 411.516C141.375 283.956 141.013 255.773 139.853 255.652C141.48 254.274 142.998 252.772 144.394 251.16C145.215 294.63 150.552 401.953 151.131 412.965C149.9 412.724 146.084 411.782 145.36 411.54V411.516ZM202.547 127.995C202.547 129.806 202.547 132.149 202.692 134.974C194.939 135.82 188.081 138.887 183.927 153.425C182.381 158.859 174.798 158.497 177.914 159.124C188.709 159.124 183.251 137.172 202.692 135.771C203.73 186.486 207.184 379.686 207.159 399.538C188.878 403.474 170.355 408.352 152.315 412.82C149.658 363.458 145.36 250.605 145.07 250.267C147.305 247.592 149.354 244.768 151.204 241.814C159.149 229.208 157.652 224.474 161.588 220.9C163.714 218.968 172.697 213.969 168.205 213.076C166.177 212.665 163.762 214.621 161.806 214.09C160.26 213.679 160.622 211.916 159.173 211.433C159.128 211.4 159.073 211.382 159.016 211.382C158.96 211.382 158.905 211.4 158.859 211.433C157.821 212.558 157.176 213.991 157.024 215.515C156.082 218.316 152.025 220.345 144.756 225.44C144.973 206.7 142.679 132.366 142.148 112.467C146.398 113.722 192.09 125.58 202.547 127.995ZM141.375 112.056C140.578 142.968 142.486 156.178 143.79 226.286L138.96 229.787C139.539 208.052 136.69 127.416 136.545 106.139C148.885 106.622 188.25 107.154 229.305 107.613C230.252 108.933 231.382 110.112 232.662 111.114C233.245 111.758 233.893 112.34 234.594 112.853C137.656 111.452 141.302 111.621 141.375 112.153V112.056ZM254.155 113.167C256.321 111.68 258.3 109.936 260.048 107.975C286.371 108.265 332.498 108.748 339.743 108.917C339.598 112.491 336.99 234.835 338.052 235.583L337.907 236.042C336.072 235.004 334.285 233.917 332.498 232.83C333.488 217.157 332.063 114.785 332.063 114.495C332.063 114.205 304.919 114.085 254.155 113.264V113.167ZM328.803 419.872C311.101 413.665 293.906 406.107 276.736 399.248C274.007 326.532 270.698 148.088 270.118 125.604C278.668 124.035 318.66 119.18 330.952 116.524C330.373 136.496 330.711 219.499 331.435 232.178C322.968 226.602 313.479 222.761 303.518 220.876C303.228 220.61 303.011 220.876 302.093 222.011C301.682 221.576 300.403 221.504 299.026 217.664C298.833 217.109 298.664 216.046 298.157 215.66C297.649 215.273 297.335 215.273 296.828 215.78C296.321 216.288 296.587 217.398 296.514 217.881C296.321 219.548 296.345 219.862 294.8 220.007C291.153 220.345 283.256 217.592 286.782 222.108C289.559 225.634 294.196 227.131 298.205 228.58C297.784 229.312 297.591 230.153 297.649 230.995C304.154 245.45 315.676 257.058 330.083 263.67C329.479 275.938 328.924 404.73 328.803 419.92V419.872ZM298.06 217.012C298.809 217.471 298.06 220.562 301.586 222.663C300.482 224.305 299.481 226.015 298.591 227.783C294.631 226.503 289.994 224.957 287.482 221.649C285.816 219.451 288.086 220.635 294.317 220.852C296.273 220.852 297.118 220.997 297.263 218.896C297.311 218.364 297.046 216.408 298.06 217.036V217.012ZM303.47 221.431C305.16 221.818 306.826 222.277 308.493 222.736C305.426 226.581 302.862 230.801 300.861 235.294C299.92 233.772 298.978 232.227 298.06 230.681C299.669 227.496 301.476 224.415 303.47 221.456V221.431ZM335.275 418.713C334.188 418.954 331.025 419.993 329.986 420.355C330.179 388.211 331.387 278.208 330.928 263.96C333.102 264.852 335.371 265.492 337.69 265.867C336.772 291.684 335.492 394.321 335.275 418.737V418.713ZM351.48 296.248C348.582 289.003 351.093 254.034 350.852 243.118C350.852 243.067 350.831 243.018 350.795 242.982C350.759 242.945 350.71 242.925 350.659 242.925C350.607 242.925 350.558 242.945 350.522 242.982C350.486 243.018 350.465 243.067 350.465 243.118C349.741 248.938 349.089 263.042 348.92 263.163C341.361 268.282 331.001 264.008 323.248 259.057C314.202 253.126 306.641 245.194 301.151 235.873C304.001 231.768 309.169 223.05 309.193 223.025C329.672 228.942 337.859 239.761 338.608 237.274C341.107 229.627 345.134 222.567 350.443 216.523C355.753 210.479 362.235 205.576 369.496 202.111C363.676 214.863 369.641 225.923 371.379 236.284C371.379 236.284 371.597 253.189 371.379 261.69C366.791 262.293 367.829 262.197 367.636 264.105C366.525 262.728 364.497 259.806 363.144 260.748C362.83 260.965 362.613 261.931 362.492 262.269C361.888 263.839 361.961 264.249 359.908 264.491C357.855 264.732 355.295 263.549 353.774 264.491C351.359 265.94 355.126 268.814 356.189 269.635C359.353 272.05 363.434 274.223 367.346 272.509C367.346 275.141 367.346 276.228 367.684 276.469C369.352 277.702 371.131 278.778 372.997 279.681C372.828 280.72 372.78 281.758 372.78 300.112C372.37 300.16 353.798 302.068 351.48 296.272V296.248ZM367.177 271.808C367.177 271.808 362.71 273.861 356.382 269.079C355.677 268.598 355.022 268.048 354.426 267.437C353.677 266.568 353.677 265.505 355.054 265.022C356.089 265.021 357.123 265.102 358.145 265.264C363.193 265.264 361.816 264.515 362.806 262.704C363.168 262.052 362.806 261.231 364.11 261.545C364.448 261.545 365.197 262.656 365.414 262.873C366.01 263.593 366.665 264.264 367.37 264.877C367.201 267.22 367.081 269.538 367.081 271.833L367.177 271.808ZM376.837 447.886C365.004 450.615 361.695 449.093 355.513 449.601C355.344 446.509 354.74 446.365 357.662 445.326C359.184 447.741 360.077 446.823 358.218 445.085C358.476 444.984 358.727 444.862 358.966 444.722C359.159 445.012 360.005 446.292 360.391 446.413C360.443 446.428 360.497 446.431 360.55 446.421C360.603 446.411 360.653 446.389 360.696 446.356C360.738 446.323 360.772 446.28 360.795 446.231C360.817 446.182 360.828 446.129 360.826 446.075C360.519 445.443 360.093 444.877 359.57 444.408L360.681 443.684C360.984 444.278 361.375 444.824 361.84 445.302C362.057 445.302 362.396 445.302 362.371 444.988C362.107 444.353 361.74 443.765 361.285 443.249C362.637 442.187 362.396 442.018 363.7 442.959C364.535 443.653 365.51 444.159 366.558 444.444C367.606 444.728 368.703 444.784 369.775 444.608C370.847 444.431 371.868 444.027 372.77 443.422C373.671 442.817 374.433 442.025 375.002 441.1C376.089 440.713 376.861 446.606 376.886 447.91L376.837 447.886ZM374.422 440.399C373.963 443.297 366.549 446.292 363.12 441.148C363.12 440.665 362.637 438.733 362.516 438.178C364.4 438.178 372.297 437.671 374.398 437.429C374.356 438.428 374.388 439.429 374.495 440.424L374.422 440.399ZM378.504 428.324C378.45 430.85 378.579 433.376 378.89 435.883L357.155 437.622C356.817 434.7 356.962 431.85 356.769 428.928C361.357 429.315 378.31 428.421 378.576 428.324H378.504ZM373.529 291.611C373.529 288.399 373.36 281.541 373.07 279.923C377.973 282.195 383.221 283.632 388.598 284.173C388.598 286.95 388.767 289.704 388.936 292.457L373.529 291.611ZM429.219 446.558C425.572 447.403 411.299 448.248 407.894 448.466C407.387 444.336 407.894 444.698 410.043 443.974C411.565 446.389 412.579 445.471 410.599 443.756L411.348 443.394C411.541 443.684 412.386 444.94 412.772 445.085C412.824 445.095 412.877 445.094 412.928 445.083C412.979 445.071 413.026 445.048 413.068 445.016C413.109 444.984 413.143 444.943 413.167 444.896C413.191 444.85 413.205 444.799 413.207 444.746C412.901 444.108 412.474 443.534 411.951 443.056C412.338 442.839 412.7 442.597 413.062 442.356C413.376 442.936 413.766 443.472 414.221 443.95C414.273 443.986 414.334 444.006 414.396 444.01C414.459 444.013 414.522 443.999 414.577 443.969C414.632 443.939 414.678 443.894 414.709 443.839C414.74 443.785 414.755 443.723 414.753 443.66C414.483 443.02 414.116 442.425 413.666 441.897C414.994 440.858 414.777 440.665 416.081 441.607C417.063 442.428 418.233 442.992 419.486 443.249C421.029 443.437 422.595 443.188 424.003 442.531C425.412 441.873 426.608 440.834 427.456 439.53C429.025 439.337 429.267 445.23 429.291 446.558H429.219ZM426.804 439.313C425.982 442.042 419.003 444.746 415.622 439.82C415.603 439.073 415.514 438.329 415.357 437.598C416.757 437.598 424.413 437.477 426.876 437.284C426.813 437.975 426.797 438.668 426.828 439.361L426.804 439.313ZM431.634 428.735C431.392 431.15 431.634 433.565 431.126 435.98C399.973 436.487 410.382 436.342 408.208 436.415C407.883 433.781 407.366 431.173 406.663 428.614C415.021 429.244 423.412 429.301 431.778 428.783L431.634 428.735ZM423.954 300.74C422.046 302.262 398.717 305.57 390.917 302.431L389.613 292.771C389.419 289.945 389.468 287.168 389.178 284.342C398.282 285.405 415.743 285.888 424.775 281.637C424.63 286.033 425.475 299.653 424.099 300.74H423.954ZM434.314 261.665C434.314 267.51 434.073 272.992 429.484 277.194C421.708 284.439 409.44 283.763 399.538 283.763C390.946 284.101 382.378 282.654 374.374 279.512C375.898 273.999 376.064 268.199 374.857 262.607C378.793 262.342 382.73 261.786 386.546 261.448C392.511 260.893 405.866 260.337 405.552 258.792C403.78 251.688 403.37 244.313 404.344 237.057C404.344 236.912 404.103 236.887 404.054 237.057C401.881 243.915 404.392 258.574 404.32 258.574C399.49 259.033 395.288 259.758 390.458 260.313C389.955 251.036 390.019 241.737 390.651 232.468C393.501 221.335 403.716 213.39 401.108 201.073C421.756 206.193 431.006 226.044 433.348 245.606C434.121 250.822 434.363 256.232 434.459 261.665H434.314ZM440.666 202.401C440.907 202.812 440.666 202.884 440.183 202.619C437.696 202.245 435.229 201.745 432.793 201.121C434.052 199.038 434.767 196.671 434.87 194.239C436.319 195.127 438.002 195.556 439.7 195.47C439.696 197.825 440.071 200.165 440.811 202.401H440.666ZM444.675 137.8C441.052 135.965 434.652 144.441 434.459 154.415C434.459 158.014 436.319 158.521 437.671 155.043C437.671 155.043 439.41 150.817 440.328 148.837C442.211 144.9 446.993 138.983 444.675 137.8ZM443.153 143.065C442.718 143.886 442.211 144.683 441.728 145.48C440.043 148.52 438.574 151.675 437.333 154.922C436.391 157.603 434.918 156.661 435.087 155.671C435.14 151.805 435.961 147.988 437.502 144.441C438.299 142.654 440.569 138.09 443.032 138.404C443.443 138.355 446.776 136.399 443.153 143.065ZM434.097 163.399C433.594 163.886 433.257 164.518 433.131 165.207C433.006 165.895 433.098 166.606 433.397 167.239C433.46 167.455 433.576 167.653 433.735 167.813C433.894 167.973 434.09 168.091 434.306 168.155C434.522 168.22 434.751 168.23 434.972 168.184C435.192 168.138 435.398 168.037 435.57 167.891C436.04 167.319 436.34 166.625 436.434 165.891C436.528 165.156 436.413 164.409 436.101 163.737C435.739 162.964 434.701 163.037 434.097 163.399ZM434.338 167.577C432.793 166.708 434.145 162.24 435.739 164.341C435.763 164.389 435.715 168.35 434.338 167.577Z" fill="#663100"/>
<path d="M316.22 90.3693C327.692 87.7128 329.865 74.5027 330.034 64.5529C330.566 32.9164 313.129 21.0829 299.17 24.1741C272.895 29.9218 285.743 97.4452 316.22 90.3693ZM292.819 77.28C284.85 63.0798 280.986 32.5783 296.442 25.7197C308.251 20.455 327.088 30.0426 329.092 56.7283C329.817 66.5332 330.107 80.6127 321.34 87.2298C311.149 94.837 298.132 86.6502 292.819 77.28V77.28Z" fill="#663100"/>
<path d="M317.717 47.1891C316.147 37.2635 309.12 30.2841 305.642 31.9988C302.913 33.3029 307.622 36.4182 314.626 48.2759C316.365 51.6327 318.297 50.715 317.717 47.1891V47.1891ZM306.367 32.3369C307.526 31.709 310.255 33.7617 310.931 34.3896C314.405 38.4505 316.62 43.4353 317.307 48.7347C316.63 50.1354 315.423 48.7347 314.892 48.0585C314.892 48.0585 312.477 43.7357 311.124 41.7312C310.255 40.3064 303.807 33.81 306.367 32.3369V32.3369ZM318.369 60.689C320.543 62.2346 321.46 57.7185 319.553 56.2454C316.92 54.2409 316.534 59.3607 318.369 60.689ZM319.867 59.7954C319.263 61.172 318.224 59.7954 317.959 59.0709C317.798 58.4814 317.732 57.8699 317.765 57.2597C318.997 55.1345 320.591 58.2015 319.867 59.7954ZM319.625 99.5705C329.285 97.6626 321.509 95.5374 319.408 90.9489C318.248 90.9489 316.486 92.4945 314.578 92.5428C314.312 92.253 313.998 92.8809 314.288 92.9775C317.041 99.3048 313.515 101.985 319.553 99.6188C323.827 109.52 339.162 101.551 346.118 107.564C360.028 116.548 344.91 135.361 358.724 139.611C349.643 133.236 353.894 126.618 353.604 118.89C351.189 103 339.114 103.917 327.256 104.087C325.7 104.068 324.177 103.641 322.837 102.848C321.498 102.056 320.39 100.925 319.625 99.5705V99.5705ZM317.21 99.7395C315.616 99.5946 315.978 94.6439 314.674 92.9534C316.4 92.7855 318.059 92.1967 319.504 91.2387C323.417 99.015 326.894 96.6 317.186 99.7395H317.21ZM149.392 83.2934C161.467 81.8685 164.896 68.3687 166.297 58.3464C168.156 44.2187 166.466 28.2555 154.222 19.0785C149.901 16.669 145.016 15.4521 140.07 15.5526C113.505 18.6921 118.335 86.94 149.392 83.2934V83.2934ZM127.657 67.451C121.426 52.4055 121.378 21.566 137.317 16.736C142.823 15.0213 151.807 18.3057 153.545 19.8272C163.205 27.7242 166.611 39.7751 166.007 51.5603C164.002 94.5231 135.457 86.3121 127.681 67.451H127.657Z" fill="#663100"/>
<path d="M125.58 107.468C129.686 89.0653 141.809 98.8702 147.822 98.9427C148.562 99.0207 149.308 98.8823 149.97 98.5443C150.632 98.2064 151.182 97.6835 151.553 97.0391C151.924 96.3946 152.1 95.6564 152.059 94.914C152.018 94.1716 151.763 93.457 151.324 92.8569C161.322 92.0358 153.546 89.4759 152.435 84.3802C152.414 84.355 152.389 84.3347 152.359 84.3207C152.33 84.3068 152.298 84.2995 152.266 84.2995C152.233 84.2995 152.201 84.3068 152.172 84.3207C152.143 84.3347 152.117 84.355 152.097 84.3802C150.369 84.8921 148.584 85.1842 146.784 85.2496C148.571 93.0259 145.214 94.2817 150.696 93.0501C153.449 96.6001 148.571 98.3631 145.528 97.8801C134.516 92.2773 125.483 97.0831 124.928 108.965C128.285 127.295 123.31 133.598 109.883 137.027C129.058 134.661 127.222 120.484 125.58 107.468V107.468ZM147.919 92.8086C148.321 90.3168 148.114 87.7646 147.315 85.3704C148.132 85.6013 148.99 85.6453 149.827 85.4989C150.663 85.3526 151.455 85.0198 152.145 84.5251C151.976 86.4088 157.506 91.4562 154.294 91.6011C152.227 92.1282 150.131 92.5314 148.015 92.8086H147.919ZM154.922 43.9048C157.337 43.4701 155.816 31.6125 150.938 26.4444C149.923 25.3576 147.653 23.5222 146.108 24.0294C143.21 24.9471 148.281 31.0329 150.237 35.1142C153.232 41.6589 153.449 44.1946 154.922 43.9048ZM148.184 25.0437C153.522 25.8889 155.937 40.6687 155.429 41.9487C155.429 44.7018 153.522 42.166 153.184 41.2242C151.456 36.9829 149.388 32.8882 147.001 28.9801C144.248 23.9569 147.146 24.2709 148.184 25.0437V25.0437ZM154.56 50.0148C153.328 54.1444 156.347 55.69 157.265 53.4924C157.558 52.8681 157.651 52.1682 157.53 51.489C157.409 50.8099 157.08 50.1851 156.589 49.7008C156.271 49.4958 155.889 49.4145 155.515 49.4724C155.141 49.5303 154.801 49.7232 154.56 50.0148V50.0148ZM156.444 53.758C154.874 54.8448 154.633 51.0532 154.898 50.6427C156.468 48.4692 157.603 52.8886 156.371 53.758H156.444ZM39.8717 184.071C51.9467 182.647 55.376 169.147 56.7767 159.124C58.6604 145.021 57.1148 128.84 44.7017 119.857C44.6433 119.801 44.5654 119.769 44.4844 119.769C44.4034 119.769 44.3255 119.801 44.267 119.857C40.3054 117.046 35.4515 115.783 30.6223 116.307C4.00897 119.47 8.91142 187.766 39.8717 184.071ZM18.1367 168.253C11.906 153.184 11.8577 122.368 27.9175 117.538C40.3789 113.505 57.9601 125.29 56.6318 152.29C54.4825 195.301 25.9613 187.114 18.1609 168.253H18.1367Z" fill="#663100"/>
<path d="M43.0113 185.182C42.8181 184.627 40.9827 186.414 37.7225 186.052C36.8048 187.138 38.9541 191.992 37.8432 194.045C38.8575 194.601 40.2582 193.9 41.9246 193.659C47.31 204.744 38.0364 206.869 44.6535 217.229C45.861 218.847 44.3154 222.252 45.5954 222.566C46.7063 218.726 44.0256 214.573 43.0596 210.902C42.3351 205.033 46.827 199.141 42.3351 193.538C51.7537 192.983 43.9532 189.843 43.0113 185.182V185.182ZM44.8467 192.427C42.7636 192.955 40.6507 193.358 38.5194 193.635C38.846 191.194 38.5894 188.712 37.7708 186.39C38.5899 186.627 39.453 186.669 40.2915 186.514C41.1299 186.359 41.9207 186.01 42.6008 185.496C42.5525 187.235 48.0587 192.21 44.8467 192.379V192.427ZM45.4263 144.707C49.1937 143.982 43.3494 122.658 36.4667 124.855C33.5445 125.773 38.5677 131.666 40.5963 135.94C43.8566 142.702 43.9773 144.9 45.4263 144.707V144.707ZM36.3701 127.246C36.8772 125.532 37.65 125.073 38.7851 125.846C42.4076 126.401 44.3396 132.946 45.0882 135.916C45.8308 138.396 46.1011 140.992 45.8852 143.572C45.4182 143.538 44.9709 143.37 44.5979 143.087C44.2249 142.804 43.9421 142.419 43.7841 141.978C41.9004 138.766 42.6974 138.186 38.9541 132.1C37.9366 130.57 37.0712 128.945 36.3701 127.246V127.246ZM44.9675 150.793C43.7358 154.946 46.7546 156.492 47.6723 154.294C47.9678 153.666 48.0615 152.962 47.9404 152.279C47.8193 151.596 47.4894 150.967 46.9961 150.479C46.6752 150.284 46.2957 150.208 45.9245 150.266C45.5534 150.323 45.2145 150.51 44.9675 150.793ZM46.8512 154.56C45.2814 155.623 45.0399 151.831 45.3297 151.42C46.9478 149.247 48.107 153.691 46.8512 154.56ZM451.46 204.623C449.045 202.86 450.784 199.068 449.528 198.127C445.278 210.202 462.69 205.782 455.614 215.635C455.614 216.046 455.904 216.287 456.556 216.215C462.521 209.767 455.856 207.69 451.46 204.623V204.623ZM442.573 105.246C465.105 66.4366 436.391 60.3749 436.391 60.3749C424.147 55.2793 415.38 67.9822 415.38 67.9822C389.854 104.038 407.024 123.672 407.024 123.672C407.024 123.672 421.369 141.76 442.573 105.246V105.246ZM436.391 91.5526C436.97 88.0267 439.313 81.3371 439.265 76.1449C439.265 72.5465 441.245 72.9571 441.68 74.1646C442.501 76.7245 445.35 87.3022 438.468 94.2091C438.443 94.1849 435.521 96.8173 436.391 91.5526V91.5526ZM432.285 103.265C432.647 102.806 433.444 102.806 434.29 103.12C435.135 103.434 435.111 105.221 434.7 105.946C434.555 106.184 434.354 106.382 434.114 106.525C433.875 106.667 433.604 106.749 433.326 106.763C433.047 106.777 432.77 106.724 432.517 106.607C432.264 106.489 432.044 106.312 431.875 106.091C430.764 104.956 432.285 103.265 432.285 103.265ZM63.3456 129.251C63.3456 129.251 84.4286 138.911 86.5779 96.7207C88.848 51.8983 60.3752 59.5297 60.3752 59.5297C47.1651 60.6164 45.1848 75.9275 45.1848 75.9275C39.099 119.663 63.3456 129.251 63.3456 129.251V129.251ZM79.6952 100.995C79.668 101.267 79.5771 101.528 79.4301 101.758C79.283 101.988 79.0838 102.181 78.8486 102.319C78.6135 102.458 78.3489 102.54 78.0764 102.557C77.804 102.575 77.5312 102.528 77.2802 102.42C75.9037 101.865 76.3866 99.7153 76.3866 99.7153C76.5074 99.1357 77.1836 98.7976 78.0772 98.6768C78.9707 98.5561 79.8401 100.15 79.6952 100.995V100.995ZM71.4359 69.6002C73.3438 71.5081 80.7095 79.6225 77.739 88.9202C77.739 88.9202 76.3384 92.591 74.7203 87.4954C74.0441 85.4185 72.3053 76.6279 70.2284 72.4741C68.6586 69.1655 70.6148 68.6101 71.5325 69.4795L71.4359 69.6002ZM12.0752 213.486C23.5464 212.182 19.6824 221.6 14.3211 227.493C12.0752 229.908 18.0161 233.893 17.195 231.284L15.0939 230.004C14.909 229.495 14.8721 228.943 14.9875 228.413C15.1029 227.883 15.3658 227.397 15.746 227.01C23.6189 219.475 19.9481 209.429 12.0752 213.486ZM19.4651 107.781C17.5814 106.574 17.7504 105.101 18.9338 104.135C21.7352 101.84 23.2566 102.637 26.5652 100.947C29.8496 99.7394 29.5839 93.388 27.7968 92.1805C30.3809 104.956 15.8909 98.1214 17.1225 106.96C17.1708 108.192 20.262 109.931 19.4651 107.781V107.781ZM89.6692 33.8099C92.374 35.7902 94.3784 28.5211 91.3114 26.9755C80.7095 20.7689 97.0591 16.6634 88.5341 18.5713C80.1541 26.0578 96.4553 27.1928 89.6692 33.8099ZM210.806 30.0908C214.67 24.0533 222.398 27.2411 221.19 33.7616C220.683 36.5147 218.195 37.0702 217.543 40.3546C217.737 46.9234 224.644 41.1757 221.77 40.6685C218.896 40.1614 218.461 39.3161 220.079 37.9154C228.266 28.0381 213.196 20.4308 209.791 30.9119C210.105 31.3949 210.347 31.0327 210.806 30.0908V30.0908ZM363.482 63.3212C363.482 64.577 364.424 64.4804 365.728 63.3212C369.688 60.4232 370.558 56.68 367.732 52.0673C361.936 45.571 360.173 40.7168 366.428 35.0174C368.988 33.0613 372.49 29.8976 367.467 32.9164C348.605 46.9475 378.938 53.782 363.482 63.3212V63.3212ZM465.709 77.2799C460.879 71.2666 466.53 71.9911 463.294 71.4356C460.42 73.585 464.767 76.2656 464.936 78.415C463.946 82.5688 466.844 79.3568 465.709 77.2799ZM215.37 88.2923C221.166 89.5481 218.534 78.0769 215.95 77.5697C217.761 82.9069 219.548 84.7906 215.37 88.2923ZM253.141 130.024C253.865 131.497 251.402 133.622 252.537 134.298C257.367 129.154 248.697 125.58 252.005 122.368C247.972 124.179 252.344 126.787 253.141 130.024V130.024ZM156.661 141.446C165.645 142.171 158.738 131.786 163.085 129.854C165.5 129.154 160.984 129.251 160.888 131.303C159.366 135.771 163.303 139.635 156.371 140.963C156.347 141.108 156.371 141.181 156.661 141.446V141.446ZM309.289 170.233C309.024 174.556 316.969 176.319 317.017 173.373C316.183 173.784 315.243 173.932 314.322 173.797C313.401 173.662 312.544 173.25 311.863 172.616C311.181 171.982 310.709 171.156 310.508 170.247C310.308 169.339 310.388 168.39 310.738 167.528C313.974 162.554 307.744 156.927 306.077 160.622C313.564 160.453 309.507 165.959 309.289 170.233ZM196.316 275.31C196.257 274.778 196.317 274.24 196.493 273.734C196.668 273.229 196.954 272.769 197.33 272.388C197.982 271.808 195.398 271.591 195.543 275.31C195.543 275.412 195.583 275.511 195.656 275.583C195.728 275.656 195.827 275.696 195.929 275.696C196.032 275.696 196.13 275.656 196.202 275.583C196.275 275.511 196.316 275.412 196.316 275.31V275.31ZM195.905 277.725C195.828 277.725 195.754 277.755 195.7 277.81C195.646 277.864 195.615 277.938 195.615 278.015C195.615 278.092 195.646 278.165 195.7 278.22C195.754 278.274 195.828 278.304 195.905 278.304C195.982 278.304 196.056 278.274 196.11 278.22C196.164 278.165 196.195 278.092 196.195 278.015C196.195 277.938 196.164 277.864 196.11 277.81C196.056 277.755 195.982 277.725 195.905 277.725V277.725ZM294.63 416.467C276.252 416.853 190.037 418.882 171.634 419.292C167.215 431.246 158.617 454.575 154.222 466.771C154.192 466.822 154.177 466.881 154.177 466.94C154.177 466.999 154.192 467.058 154.222 467.109C154.397 467.303 154.638 467.424 154.898 467.447C192.886 468.027 294.968 464.912 322.403 463.825C322.496 463.825 322.587 463.8 322.668 463.753C322.749 463.706 322.815 463.639 322.862 463.559C322.908 463.478 322.933 463.386 322.933 463.293C322.933 463.2 322.908 463.108 322.862 463.028C293.278 413.931 294.292 416.225 294.63 416.467V416.467ZM155.333 466.409C161.795 451.292 167.438 435.837 172.238 420.113C192.379 420.113 272.098 418.109 294.509 417.553C296.49 422.118 316.244 454.455 321.413 462.81C278.498 464.646 169.533 466.361 155.333 466.409V466.409Z" fill="#663100"/>
<path d="M194.601 281.106C196.171 284.656 200.107 284.68 201.532 280.768C205.034 271.108 197.209 266.471 194.529 272.871C193.708 272.243 191.124 273.04 190.761 276.035C190.399 279.029 191.945 282.555 194.601 281.106ZM201.339 276.856C200.663 285.574 195.157 283.328 194.843 277.58C194.384 268.983 201.943 269.128 201.339 276.856ZM193.683 273.426C194.166 273.426 193.973 273.595 194.215 273.789C193.647 275.9 193.647 278.125 194.215 280.237C190.785 281.058 190.785 273.74 193.683 273.426V273.426ZM284.487 272.243C281.879 265.602 274.393 270.311 277.387 279.778C278.764 284.149 282.821 284.052 284.415 280.478C287.096 281.951 288.593 278.063 288.255 275.407C287.917 272.75 285.309 271.639 284.487 272.243V272.243ZM282.072 281.589C281.74 281.798 281.362 281.922 280.97 281.951C280.579 281.981 280.186 281.915 279.827 281.758C277.919 280.744 276.204 272.992 279.488 270.866C284.343 267.751 285.623 279.802 282.072 281.589V281.589ZM284.753 279.609C285.321 277.497 285.321 275.273 284.753 273.161C287.506 270.963 288.859 280.551 284.753 279.609Z" fill="#663100"/>
<path d="M281.71 271.639C282.086 272.02 282.372 272.48 282.547 272.986C282.722 273.491 282.783 274.03 282.724 274.561C282.724 274.664 282.765 274.762 282.837 274.835C282.91 274.907 283.008 274.948 283.111 274.948C283.213 274.948 283.311 274.907 283.384 274.835C283.456 274.762 283.497 274.664 283.497 274.561C283.594 270.794 281.058 271.084 281.71 271.639ZM283.111 277.025C283.034 277.025 282.96 277.055 282.906 277.11C282.851 277.164 282.821 277.238 282.821 277.315C282.821 277.391 282.851 277.465 282.906 277.519C282.96 277.574 283.034 277.604 283.111 277.604C283.187 277.604 283.261 277.574 283.315 277.519C283.37 277.465 283.4 277.391 283.4 277.315C283.4 277.238 283.37 277.164 283.315 277.11C283.261 277.055 283.187 277.025 283.111 277.025Z" fill="#663100"/>
<path d="M16.7846 192.814C17.7983 192.814 18.62 191.992 18.62 190.978C18.62 189.965 17.7983 189.143 16.7846 189.143C15.771 189.143 14.9492 189.965 14.9492 190.978C14.9492 191.992 15.771 192.814 16.7846 192.814Z" fill="#663100"/>
<path d="M24.5844 73.392C25.0712 73.392 25.538 73.1986 25.8822 72.8544C26.2265 72.5102 26.4198 72.0433 26.4198 71.5566C26.4198 71.0698 26.2265 70.603 25.8822 70.2587C25.538 69.9145 25.0712 69.7212 24.5844 69.7212C24.0976 69.7212 23.6308 69.9145 23.2866 70.2587C22.9424 70.603 22.749 71.0698 22.749 71.5566C22.749 72.0433 22.9424 72.5102 23.2866 72.8544C23.6308 73.1986 24.0976 73.392 24.5844 73.392V73.392ZM106.622 71.943C106.622 71.4562 106.429 70.9894 106.084 70.6452C105.74 70.3009 105.273 70.1076 104.787 70.1076C104.3 70.1076 103.833 70.3009 103.489 70.6452C103.145 70.9894 102.951 71.4562 102.951 71.943C102.951 72.4298 103.145 72.8966 103.489 73.2408C103.833 73.585 104.3 73.7784 104.787 73.7784C105.273 73.7784 105.74 73.585 106.084 73.2408C106.429 72.8966 106.622 72.4298 106.622 71.943V71.943ZM193.441 65.0119C193.889 64.9603 194.301 64.7461 194.601 64.4098C194.901 64.0736 195.066 63.639 195.066 63.1886C195.066 62.7382 194.901 62.3036 194.601 61.9673C194.301 61.6311 193.889 61.4169 193.441 61.3653C192.994 61.4169 192.581 61.6311 192.281 61.9673C191.982 62.3036 191.816 62.7382 191.816 63.1886C191.816 63.639 191.982 64.0736 192.281 64.4098C192.581 64.7461 192.994 64.9603 193.441 65.0119V65.0119ZM49.4106 21.0831C49.7229 21.0403 50.0091 20.8858 50.2163 20.6483C50.4235 20.4108 50.5377 20.1062 50.5377 19.791C50.5377 19.4758 50.4235 19.1713 50.2163 18.9338C50.0091 18.6963 49.7229 18.5418 49.4106 18.499C49.0983 18.5418 48.8121 18.6963 48.6049 18.9338C48.3977 19.1713 48.2836 19.4758 48.2836 19.791C48.2836 20.1062 48.3977 20.4108 48.6049 20.6483C48.8121 20.8858 49.0983 21.0403 49.4106 21.0831V21.0831ZM190.616 120.171C191.102 120.171 191.569 119.977 191.913 119.633C192.258 119.289 192.451 118.822 192.451 118.335C192.451 117.848 192.258 117.382 191.913 117.037C191.569 116.693 191.102 116.5 190.616 116.5C190.129 116.5 189.662 116.693 189.318 117.037C188.974 117.382 188.78 117.848 188.78 118.335C188.78 118.822 188.974 119.289 189.318 119.633C189.662 119.977 190.129 120.171 190.616 120.171ZM297.407 191.461C297.657 191.466 297.903 191.396 298.114 191.26C298.324 191.124 298.488 190.928 298.586 190.697C298.684 190.467 298.711 190.212 298.664 189.967C298.616 189.721 298.496 189.495 298.319 189.318C298.142 189.141 297.916 189.021 297.67 188.973C297.424 188.925 297.17 188.952 296.939 189.05C296.709 189.148 296.513 189.313 296.377 189.523C296.241 189.733 296.171 189.979 296.175 190.23C296.182 190.554 296.313 190.864 296.543 191.094C296.773 191.323 297.082 191.455 297.407 191.461V191.461ZM373.166 89.5725C373.428 89.4975 373.659 89.3391 373.823 89.1212C373.987 88.9034 374.076 88.6379 374.076 88.365C374.076 88.0921 373.987 87.8266 373.823 87.6087C373.659 87.3908 373.428 87.2324 373.166 87.1575C372.903 87.2324 372.672 87.3908 372.508 87.6087C372.344 87.8266 372.255 88.0921 372.255 88.365C372.255 88.6379 372.344 88.9034 372.508 89.1212C372.672 89.3391 372.903 89.4975 373.166 89.5725V89.5725ZM398.885 48.9763C399.148 48.9014 399.379 48.743 399.543 48.5251C399.707 48.3072 399.796 48.0417 399.796 47.7688C399.796 47.4959 399.707 47.2304 399.543 47.0126C399.379 46.7947 399.148 46.6363 398.885 46.5613C398.623 46.6363 398.392 46.7947 398.228 47.0126C398.063 47.2304 397.974 47.4959 397.974 47.7688C397.974 48.0417 398.063 48.3072 398.228 48.5251C398.392 48.743 398.623 48.9014 398.885 48.9763V48.9763ZM393.017 126.039C393.296 125.983 393.547 125.832 393.727 125.612C393.907 125.392 394.006 125.116 394.006 124.831C394.006 124.547 393.907 124.271 393.727 124.051C393.547 123.831 393.296 123.68 393.017 123.624C392.738 123.68 392.487 123.831 392.307 124.051C392.126 124.271 392.028 124.547 392.028 124.831C392.028 125.116 392.126 125.392 392.307 125.612C392.487 125.832 392.738 125.983 393.017 126.039V126.039ZM466.819 107.588C466.998 107.624 467.182 107.62 467.359 107.576C467.536 107.532 467.701 107.449 467.842 107.334C467.983 107.218 468.097 107.073 468.175 106.908C468.253 106.743 468.294 106.563 468.294 106.381C468.294 106.199 468.253 106.018 468.175 105.854C468.097 105.689 467.983 105.544 467.842 105.428C467.701 105.312 467.536 105.23 467.359 105.186C467.182 105.142 466.998 105.137 466.819 105.173C466.54 105.229 466.289 105.38 466.109 105.6C465.929 105.821 465.83 106.096 465.83 106.381C465.83 106.665 465.929 106.941 466.109 107.161C466.289 107.381 466.54 107.532 466.819 107.588V107.588ZM455.179 235.946C454.9 236.002 454.649 236.153 454.469 236.373C454.288 236.593 454.19 236.869 454.19 237.153C454.19 237.438 454.288 237.713 454.469 237.934C454.649 238.154 454.9 238.305 455.179 238.361C455.358 238.397 455.542 238.392 455.719 238.348C455.896 238.304 456.061 238.221 456.202 238.106C456.343 237.99 456.457 237.845 456.535 237.68C456.613 237.515 456.653 237.335 456.653 237.153C456.653 236.971 456.613 236.791 456.535 236.626C456.457 236.461 456.343 236.316 456.202 236.2C456.061 236.085 455.896 236.002 455.719 235.958C455.542 235.914 455.358 235.91 455.179 235.946V235.946Z" fill="#663100"/>
</svg>
